<svg xmlns="http://www.w3.org/2000/svg" viewBox="0 0 750 500"><g id="freepik--background-simple--inject-127"><path d="M67.33,423.63l.46.26H728.36a20,20,0,0,0,5-9.22c5-19.75-2.28-42.37-15.19-57.6-5.84-6.89-13.06-12.73-17.5-20.59-6.86-12.16-5.95-27-6.5-40.94-1.66-42.61-18-78.4-43.56-107.75-17.43-20-39.12-37.09-63.28-51.25-19.13-11.22-39.63-20.31-61.15-25.8C386.3,75.06,278,103.35,237.38,138.06s-13.29,47.27-91.58,90.85c-30.57,17-66.81,29-94.46,50.72C22.62,302.19,14,343.25,26.76,376.85,34.51,397.22,49.11,412.27,67.33,423.63Z" style="fill:#FFB847"></path><path d="M67.33,423.63l.46.26H728.36a20,20,0,0,0,5-9.22c5-19.75-2.28-42.37-15.19-57.6-5.84-6.89-13.06-12.73-17.5-20.59-6.86-12.16-5.95-27-6.5-40.94-1.66-42.61-18-78.4-43.56-107.75-17.43-20-39.12-37.09-63.28-51.25-19.13-11.22-39.63-20.31-61.15-25.8C386.3,75.06,278,103.35,237.38,138.06s-13.29,47.27-91.58,90.85c-30.57,17-66.81,29-94.46,50.72C22.62,302.19,14,343.25,26.76,376.85,34.51,397.22,49.11,412.27,67.33,423.63Z" style="fill:#fff;opacity:0.7000000000000001"></path></g><g id="freepik--Clouds--inject-127"><path d="M477.68,81.18c-7.4-8.44-17.43-13.87-29.13-13.44-17.44.65-21.32,11-24.55,16.8s-.65,7.75-14.21,4.52-17.44-1.29-20,3.88,4.53,7.75-10.33,5.81-16.8-3.23-21.32.65a42.33,42.33,0,0,0-7.1,7.75h151.8s3.87-8.39-5.16-11.63c-8.1-2.9-11.77-3.31-16.93-10.51C479.77,83.68,478.75,82.4,477.68,81.18Z" style="fill:none;stroke:#263238;stroke-linecap:round;stroke-linejoin:round"></path><path d="M364.59,127.34c-4-4.56-9.43-7.49-15.76-7.26-9.43.35-11.52,5.94-13.27,9.08s-.35,4.19-7.68,2.44-9.43-.69-10.83,2.1,2.45,4.19-5.59,3.14-9.08-1.74-11.52.35a22.93,22.93,0,0,0-3.84,4.19h82.07s2.09-4.53-2.79-6.28c-4.38-1.57-6.36-1.79-9.15-5.68C365.71,128.69,365.16,128,364.59,127.34Z" style="fill:none;stroke:#263238;stroke-linecap:round;stroke-linejoin:round"></path><path d="M156.77,125.41a14.53,14.53,0,0,0-11.57-5.33c-6.92.25-8.46,4.35-9.74,6.66s-.26,3.08-5.64,1.8-6.93-.52-7.95,1.54,1.79,3.07-4.1,2.3-6.67-1.28-8.47.26a17.14,17.14,0,0,0-2.82,3.08h60.26a3.28,3.28,0,0,0-2.05-4.62c-3.21-1.15-4.67-1.31-6.72-4.17C157.59,126.4,157.19,125.89,156.77,125.41Z" style="fill:none;stroke:#263238;stroke-linecap:round;stroke-linejoin:round"></path></g><g id="freepik--Lights--inject-127"><polyline points="256.06 172.57 256.06 78.8 249.7 78.8 249.7 172.57" style="fill:none;stroke:#263238;stroke-linecap:round;stroke-linejoin:round"></polyline><line x1="212.34" y1="87.87" x2="249.15" y2="87.87" style="fill:none;stroke:#263238;stroke-linecap:round;stroke-linejoin:round"></line><line x1="256.96" y1="87.87" x2="293.77" y2="87.87" style="fill:none;stroke:#263238;stroke-linecap:round;stroke-linejoin:round"></line><line x1="212.34" y1="99.62" x2="249.15" y2="99.62" style="fill:none;stroke:#263238;stroke-linecap:round;stroke-linejoin:round"></line><line x1="256.96" y1="99.62" x2="293.77" y2="99.62" style="fill:none;stroke:#263238;stroke-linecap:round;stroke-linejoin:round"></line><line x1="212.34" y1="111.36" x2="249.15" y2="111.36" style="fill:none;stroke:#263238;stroke-linecap:round;stroke-linejoin:round"></line><line x1="256.96" y1="111.36" x2="293.77" y2="111.36" style="fill:none;stroke:#263238;stroke-linecap:round;stroke-linejoin:round"></line><line x1="212.34" y1="123.1" x2="249.15" y2="123.1" style="fill:none;stroke:#263238;stroke-linecap:round;stroke-linejoin:round"></line><line x1="256.96" y1="123.1" x2="293.77" y2="123.1" style="fill:none;stroke:#263238;stroke-linecap:round;stroke-linejoin:round"></line><circle cx="217.28" cy="93.62" r="3.69" style="fill:none;stroke:#263238;stroke-linecap:round;stroke-linejoin:round"></circle><circle cx="226.67" cy="93.62" r="3.69" style="fill:none;stroke:#263238;stroke-linecap:round;stroke-linejoin:round"></circle><path d="M239.76,93.62a3.7,3.7,0,1,0-3.7,3.69A3.7,3.7,0,0,0,239.76,93.62Z" style="fill:none;stroke:#263238;stroke-linecap:round;stroke-linejoin:round"></path><circle cx="245.46" cy="93.62" r="3.69" style="fill:none;stroke:#263238;stroke-linecap:round;stroke-linejoin:round"></circle><circle cx="260.89" cy="93.62" r="3.69" style="fill:none;stroke:#263238;stroke-linecap:round;stroke-linejoin:round"></circle><path d="M274,93.62a3.69,3.69,0,1,0-3.69,3.69A3.69,3.69,0,0,0,274,93.62Z" style="fill:none;stroke:#263238;stroke-linecap:round;stroke-linejoin:round"></path><circle cx="279.68" cy="93.62" r="3.69" style="fill:none;stroke:#263238;stroke-linecap:round;stroke-linejoin:round"></circle><circle cx="289.08" cy="93.62" r="3.69" style="fill:none;stroke:#263238;stroke-linecap:round;stroke-linejoin:round"></circle><circle cx="217.28" cy="105.7" r="3.69" style="fill:none;stroke:#263238;stroke-linecap:round;stroke-linejoin:round"></circle><circle cx="226.67" cy="105.7" r="3.69" style="fill:none;stroke:#263238;stroke-linecap:round;stroke-linejoin:round"></circle><path d="M239.76,105.7a3.7,3.7,0,1,0-3.7,3.69A3.7,3.7,0,0,0,239.76,105.7Z" style="fill:none;stroke:#263238;stroke-linecap:round;stroke-linejoin:round"></path><circle cx="245.46" cy="105.7" r="3.69" style="fill:none;stroke:#263238;stroke-linecap:round;stroke-linejoin:round"></circle><circle cx="260.89" cy="105.7" r="3.69" style="fill:none;stroke:#263238;stroke-linecap:round;stroke-linejoin:round"></circle><path d="M274,105.7a3.69,3.69,0,1,0-3.69,3.69A3.69,3.69,0,0,0,274,105.7Z" style="fill:none;stroke:#263238;stroke-linecap:round;stroke-linejoin:round"></path><circle cx="279.68" cy="105.7" r="3.69" style="fill:none;stroke:#263238;stroke-linecap:round;stroke-linejoin:round"></circle><circle cx="289.08" cy="105.7" r="3.69" style="fill:none;stroke:#263238;stroke-linecap:round;stroke-linejoin:round"></circle><circle cx="217.28" cy="117.78" r="3.69" style="fill:none;stroke:#263238;stroke-linecap:round;stroke-linejoin:round"></circle><circle cx="226.67" cy="117.78" r="3.69" style="fill:none;stroke:#263238;stroke-linecap:round;stroke-linejoin:round"></circle><path d="M239.76,117.78a3.7,3.7,0,1,0-3.7,3.69A3.7,3.7,0,0,0,239.76,117.78Z" style="fill:none;stroke:#263238;stroke-linecap:round;stroke-linejoin:round"></path><circle cx="245.46" cy="117.78" r="3.69" style="fill:none;stroke:#263238;stroke-linecap:round;stroke-linejoin:round"></circle><circle cx="260.89" cy="117.78" r="3.69" style="fill:none;stroke:#263238;stroke-linecap:round;stroke-linejoin:round"></circle><path d="M274,117.78a3.69,3.69,0,1,0-3.69,3.69A3.7,3.7,0,0,0,274,117.78Z" style="fill:none;stroke:#263238;stroke-linecap:round;stroke-linejoin:round"></path><circle cx="279.68" cy="117.78" r="3.69" style="fill:none;stroke:#263238;stroke-linecap:round;stroke-linejoin:round"></circle><circle cx="289.08" cy="117.78" r="3.69" style="fill:none;stroke:#263238;stroke-linecap:round;stroke-linejoin:round"></circle><circle cx="217.28" cy="129.85" r="3.69" style="fill:none;stroke:#263238;stroke-linecap:round;stroke-linejoin:round"></circle><circle cx="226.67" cy="129.85" r="3.69" style="fill:none;stroke:#263238;stroke-linecap:round;stroke-linejoin:round"></circle><circle cx="279.68" cy="129.85" r="3.69" style="fill:none;stroke:#263238;stroke-linecap:round;stroke-linejoin:round"></circle><circle cx="289.08" cy="129.85" r="3.69" style="fill:none;stroke:#263238;stroke-linecap:round;stroke-linejoin:round"></circle><polyline points="587.56 172.57 587.56 78.8 581.21 78.8 581.21 172.57" style="fill:none;stroke:#263238;stroke-linecap:round;stroke-linejoin:round"></polyline><line x1="543.85" y1="87.87" x2="580.66" y2="87.87" style="fill:none;stroke:#263238;stroke-linecap:round;stroke-linejoin:round"></line><line x1="588.47" y1="87.87" x2="625.28" y2="87.87" style="fill:none;stroke:#263238;stroke-linecap:round;stroke-linejoin:round"></line><line x1="543.85" y1="99.62" x2="580.66" y2="99.62" style="fill:none;stroke:#263238;stroke-linecap:round;stroke-linejoin:round"></line><line x1="588.47" y1="99.62" x2="625.28" y2="99.62" style="fill:none;stroke:#263238;stroke-linecap:round;stroke-linejoin:round"></line><line x1="543.85" y1="111.36" x2="580.66" y2="111.36" style="fill:none;stroke:#263238;stroke-linecap:round;stroke-linejoin:round"></line><line x1="588.47" y1="111.36" x2="625.28" y2="111.36" style="fill:none;stroke:#263238;stroke-linecap:round;stroke-linejoin:round"></line><line x1="543.85" y1="123.1" x2="580.66" y2="123.1" style="fill:none;stroke:#263238;stroke-linecap:round;stroke-linejoin:round"></line><line x1="588.47" y1="123.1" x2="625.28" y2="123.1" style="fill:none;stroke:#263238;stroke-linecap:round;stroke-linejoin:round"></line><circle cx="548.78" cy="93.62" r="3.69" style="fill:none;stroke:#263238;stroke-linecap:round;stroke-linejoin:round"></circle><path d="M561.87,93.62a3.69,3.69,0,1,0-3.69,3.69A3.69,3.69,0,0,0,561.87,93.62Z" style="fill:none;stroke:#263238;stroke-linecap:round;stroke-linejoin:round"></path><circle cx="567.57" cy="93.62" r="3.69" style="fill:none;stroke:#263238;stroke-linecap:round;stroke-linejoin:round"></circle><circle cx="576.97" cy="93.62" r="3.69" style="fill:none;stroke:#263238;stroke-linecap:round;stroke-linejoin:round"></circle><path d="M596.09,93.62a3.69,3.69,0,1,0-3.69,3.69A3.69,3.69,0,0,0,596.09,93.62Z" style="fill:none;stroke:#263238;stroke-linecap:round;stroke-linejoin:round"></path><circle cx="601.79" cy="93.62" r="3.69" style="fill:none;stroke:#263238;stroke-linecap:round;stroke-linejoin:round"></circle><circle cx="611.19" cy="93.62" r="3.69" style="fill:none;stroke:#263238;stroke-linecap:round;stroke-linejoin:round"></circle><path d="M624.27,93.62a3.69,3.69,0,1,0-3.69,3.69A3.69,3.69,0,0,0,624.27,93.62Z" style="fill:none;stroke:#263238;stroke-linecap:round;stroke-linejoin:round"></path><circle cx="548.78" cy="105.7" r="3.69" style="fill:none;stroke:#263238;stroke-linecap:round;stroke-linejoin:round"></circle><path d="M561.87,105.7a3.69,3.69,0,1,0-3.69,3.69A3.69,3.69,0,0,0,561.87,105.7Z" style="fill:none;stroke:#263238;stroke-linecap:round;stroke-linejoin:round"></path><circle cx="567.57" cy="105.7" r="3.69" style="fill:none;stroke:#263238;stroke-linecap:round;stroke-linejoin:round"></circle><circle cx="576.97" cy="105.7" r="3.69" style="fill:none;stroke:#263238;stroke-linecap:round;stroke-linejoin:round"></circle><path d="M596.09,105.7a3.69,3.69,0,1,0-3.69,3.69A3.69,3.69,0,0,0,596.09,105.7Z" style="fill:none;stroke:#263238;stroke-linecap:round;stroke-linejoin:round"></path><circle cx="601.79" cy="105.7" r="3.69" style="fill:none;stroke:#263238;stroke-linecap:round;stroke-linejoin:round"></circle><circle cx="611.19" cy="105.7" r="3.69" style="fill:none;stroke:#263238;stroke-linecap:round;stroke-linejoin:round"></circle><path d="M624.27,105.7a3.69,3.69,0,1,0-3.69,3.69A3.69,3.69,0,0,0,624.27,105.7Z" style="fill:none;stroke:#263238;stroke-linecap:round;stroke-linejoin:round"></path><circle cx="548.78" cy="117.78" r="3.69" style="fill:none;stroke:#263238;stroke-linecap:round;stroke-linejoin:round"></circle><path d="M561.87,117.78a3.69,3.69,0,1,0-3.69,3.69A3.7,3.7,0,0,0,561.87,117.78Z" style="fill:none;stroke:#263238;stroke-linecap:round;stroke-linejoin:round"></path><circle cx="567.57" cy="117.78" r="3.69" style="fill:none;stroke:#263238;stroke-linecap:round;stroke-linejoin:round"></circle><circle cx="576.97" cy="117.78" r="3.69" style="fill:none;stroke:#263238;stroke-linecap:round;stroke-linejoin:round"></circle><path d="M596.09,117.78a3.69,3.69,0,1,0-3.69,3.69A3.7,3.7,0,0,0,596.09,117.78Z" style="fill:none;stroke:#263238;stroke-linecap:round;stroke-linejoin:round"></path><circle cx="601.79" cy="117.78" r="3.69" style="fill:none;stroke:#263238;stroke-linecap:round;stroke-linejoin:round"></circle><circle cx="611.19" cy="117.78" r="3.69" style="fill:none;stroke:#263238;stroke-linecap:round;stroke-linejoin:round"></circle><path d="M624.27,117.78a3.69,3.69,0,1,0-3.69,3.69A3.7,3.7,0,0,0,624.27,117.78Z" style="fill:none;stroke:#263238;stroke-linecap:round;stroke-linejoin:round"></path><circle cx="548.78" cy="129.85" r="3.69" style="fill:none;stroke:#263238;stroke-linecap:round;stroke-linejoin:round"></circle><path d="M561.87,129.85a3.69,3.69,0,1,0-3.69,3.69A3.69,3.69,0,0,0,561.87,129.85Z" style="fill:none;stroke:#263238;stroke-linecap:round;stroke-linejoin:round"></path><circle cx="611.19" cy="129.85" r="3.69" style="fill:none;stroke:#263238;stroke-linecap:round;stroke-linejoin:round"></circle><path d="M624.27,129.85a3.69,3.69,0,1,0-3.69,3.69A3.69,3.69,0,0,0,624.27,129.85Z" style="fill:none;stroke:#263238;stroke-linecap:round;stroke-linejoin:round"></path></g><g id="freepik--Crowd--inject-127"><path d="M594.85,223.13a4.43,4.43,0,1,0-4.43,4.43A4.43,4.43,0,0,0,594.85,223.13Z" style="opacity:0.1"></path><path d="M493.67,223.13a4.43,4.43,0,1,0-4.43,4.43A4.44,4.44,0,0,0,493.67,223.13Z" style="opacity:0.1"></path><path d="M642.86,219.44a4.43,4.43,0,1,0-4.43,4.43A4.43,4.43,0,0,0,642.86,219.44Z" style="opacity:0.30000000000000004"></path><circle cx="526.9" cy="223.13" r="4.43" style="opacity:0.30000000000000004"></circle><path d="M501.05,198.76a4.43,4.43,0,1,0-4.43,4.43A4.43,4.43,0,0,0,501.05,198.76Z" style="opacity:0.30000000000000004"></path><path d="M493.67,211.32a4.43,4.43,0,1,0-4.43,4.43A4.44,4.44,0,0,0,493.67,211.32Z" style="opacity:0.30000000000000004"></path><path d="M436.06,209.1a4.43,4.43,0,1,0-4.43,4.43A4.43,4.43,0,0,0,436.06,209.1Z" style="opacity:0.30000000000000004"></path><path d="M382.14,197.28a4.43,4.43,0,1,0-4.43,4.43A4.43,4.43,0,0,0,382.14,197.28Z" style="opacity:0.30000000000000004"></path><path d="M665,223.87a4.44,4.44,0,1,0-4.43,4.43A4.43,4.43,0,0,0,665,223.87Z" style="opacity:0.1"></path><path d="M441.23,225.35a4.43,4.43,0,1,0-4.43,4.43A4.43,4.43,0,0,0,441.23,225.35Z" style="opacity:0.1"></path><circle cx="292.78" cy="233.47" r="4.43" style="opacity:0.1"></circle><path d="M274.31,195.81a4.43,4.43,0,1,0-4.43,4.43A4.43,4.43,0,0,0,274.31,195.81Z" style="opacity:0.1"></path><path d="M651.68,211.31a4.43,4.43,0,1,0-4.43,4.43A4.43,4.43,0,0,0,651.68,211.31Z" style="opacity:0.30000000000000004"></path><path d="M473.73,195.81a4.44,4.44,0,1,0-4.43,4.43A4.44,4.44,0,0,0,473.73,195.81Z" style="opacity:0.30000000000000004"></path><path d="M633.26,203.19a4.43,4.43,0,1,0-4.43,4.43A4.43,4.43,0,0,0,633.26,203.19Z" style="opacity:0.1"></path><path d="M628.09,220.92a4.43,4.43,0,1,0-4.43,4.43A4.43,4.43,0,0,0,628.09,220.92Z" style="opacity:0.30000000000000004"></path><path d="M597.81,207.62a4.44,4.44,0,1,0-4.43,4.43A4.44,4.44,0,0,0,597.81,207.62Z" style="opacity:0.30000000000000004"></path><circle cx="579.34" cy="201.71" r="4.43" style="opacity:0.30000000000000004"></circle><path d="M515.09,207.62a4.44,4.44,0,1,0-4.43,4.43A4.44,4.44,0,0,0,515.09,207.62Z" style="opacity:0.1"></path><path d="M423.5,206.88a4.43,4.43,0,1,0-4.43,4.44A4.43,4.43,0,0,0,423.5,206.88Z" style="opacity:0.30000000000000004"></path><circle cx="353.34" cy="232.73" r="4.43" style="opacity:0.30000000000000004"></circle><path d="M395.44,203.93a4.43,4.43,0,1,0-4.43,4.43A4.43,4.43,0,0,0,395.44,203.93Z" style="opacity:0.30000000000000004"></path><path d="M235.91,197.28a4.44,4.44,0,1,0-4.43,4.43A4.44,4.44,0,0,0,235.91,197.28Z" style="opacity:0.30000000000000004"></path><path d="M566.79,207.62a4.44,4.44,0,1,0-4.43,4.43A4.44,4.44,0,0,0,566.79,207.62Z" style="opacity:0.1"></path><path d="M569,195.81a4.43,4.43,0,1,0-4.43,4.43A4.43,4.43,0,0,0,569,195.81Z" style="opacity:0.1"></path><path d="M618.23,209.28a4.43,4.43,0,1,0-4.43,4.43A4.43,4.43,0,0,0,618.23,209.28Z" style="opacity:0.30000000000000004"></path><path d="M609.62,195.07a4.43,4.43,0,1,0-4.43,4.43A4.43,4.43,0,0,0,609.62,195.07Z" style="opacity:0.30000000000000004"></path><circle cx="542.41" cy="199.5" r="4.43" style="opacity:0.30000000000000004"></circle><path d="M532.81,195.07a4.43,4.43,0,1,0-4.43,4.43A4.43,4.43,0,0,0,532.81,195.07Z" style="opacity:0.30000000000000004"></path><path d="M609.21,224.61a4.43,4.43,0,1,0-4.43,4.43A4.43,4.43,0,0,0,609.21,224.61Z" style="opacity:0.30000000000000004"></path><path d="M471.51,224.61a4.43,4.43,0,1,0-4.43,4.43A4.43,4.43,0,0,0,471.51,224.61Z" style="opacity:0.1"></path><path d="M450.09,195.07a4.43,4.43,0,1,0-4.43,4.43A4.43,4.43,0,0,0,450.09,195.07Z" style="opacity:0.1"></path><circle cx="579.34" cy="230.52" r="4.43" style="opacity:0.30000000000000004"></circle><path d="M532.81,234.21a4.43,4.43,0,1,0-4.43,4.43A4.43,4.43,0,0,0,532.81,234.21Z" style="opacity:0.30000000000000004"></path><circle cx="511.39" cy="230.52" r="4.43" style="opacity:0.30000000000000004"></circle><circle cx="340.05" cy="223.13" r="4.43" style="opacity:0.30000000000000004"></circle><path d="M452.31,229.78a4.43,4.43,0,1,0-4.43,4.43A4.43,4.43,0,0,0,452.31,229.78Z" style="opacity:0.30000000000000004"></path><path d="M374,223.13a4.43,4.43,0,1,0-4.43,4.43A4.43,4.43,0,0,0,374,223.13Z" style="opacity:0.1"></path><path d="M424.24,228.3a4.43,4.43,0,1,0-4.43,4.43A4.43,4.43,0,0,0,424.24,228.3Z" style="opacity:0.30000000000000004"></path><path d="M334.14,195.81a4.44,4.44,0,1,0-4.43,4.43A4.44,4.44,0,0,0,334.14,195.81Z" style="opacity:0.30000000000000004"></path><path d="M408.73,218a4.43,4.43,0,1,0-4.43,4.43A4.43,4.43,0,0,0,408.73,218Z" style="opacity:0.1"></path><path d="M486.28,234.21a4.43,4.43,0,1,0-4.43,4.43A4.43,4.43,0,0,0,486.28,234.21Z" style="opacity:0.30000000000000004"></path><circle cx="418.33" cy="196.54" r="4.43" style="opacity:0.30000000000000004"></circle><path d="M402.63,234.21a4.43,4.43,0,1,0-4.43,4.43A4.43,4.43,0,0,0,402.63,234.21Z" style="opacity:0.30000000000000004"></path><path d="M581.56,216.49a4.43,4.43,0,1,0-4.43,4.43A4.44,4.44,0,0,0,581.56,216.49Z" style="opacity:0.30000000000000004"></path><path d="M548.32,216.49a4.43,4.43,0,1,0-4.43,4.43A4.43,4.43,0,0,0,548.32,216.49Z" style="opacity:0.30000000000000004"></path><path d="M462.65,211.32a4.43,4.43,0,1,0-4.43,4.43A4.44,4.44,0,0,0,462.65,211.32Z" style="opacity:0.30000000000000004"></path><path d="M446.4,212.79a4.43,4.43,0,1,0-4.43,4.43A4.43,4.43,0,0,0,446.4,212.79Z" style="opacity:0.1"></path><path d="M199.72,209.1a4.44,4.44,0,1,0-4.43,4.43A4.43,4.43,0,0,0,199.72,209.1Z" style="opacity:0.30000000000000004"></path><path d="M204.89,225.35a4.44,4.44,0,1,0-4.43,4.43A4.43,4.43,0,0,0,204.89,225.35Z" style="opacity:0.30000000000000004"></path><path d="M187.16,206.88a4.43,4.43,0,1,0-4.43,4.44A4.43,4.43,0,0,0,187.16,206.88Z" style="opacity:0.30000000000000004"></path><path d="M235.17,224.61a4.43,4.43,0,1,0-4.43,4.43A4.44,4.44,0,0,0,235.17,224.61Z" style="opacity:0.30000000000000004"></path><path d="M216,229.78a4.44,4.44,0,1,0-4.44,4.43A4.43,4.43,0,0,0,216,229.78Z" style="opacity:0.1"></path><path d="M187.9,228.3a4.43,4.43,0,1,0-4.43,4.43A4.43,4.43,0,0,0,187.9,228.3Z" style="opacity:0.30000000000000004"></path><path d="M172.39,218a4.43,4.43,0,1,0-4.43,4.43A4.43,4.43,0,0,0,172.39,218Z" style="opacity:0.30000000000000004"></path><path d="M244.77,211.32a4.43,4.43,0,1,0-4.43,4.43A4.43,4.43,0,0,0,244.77,211.32Z" style="opacity:0.30000000000000004"></path><path d="M221.87,212.79a4.43,4.43,0,1,0-4.43,4.43A4.43,4.43,0,0,0,221.87,212.79Z" style="opacity:0.30000000000000004"></path><path d="M332.66,223.13a4.43,4.43,0,1,0-4.43,4.43A4.43,4.43,0,0,0,332.66,223.13Z" style="opacity:0.30000000000000004"></path><path d="M332.66,211.32a4.43,4.43,0,1,0-4.43,4.43A4.43,4.43,0,0,0,332.66,211.32Z" style="opacity:0.30000000000000004"></path><path d="M317.15,203.19a4.43,4.43,0,1,0-4.43,4.43A4.43,4.43,0,0,0,317.15,203.19Z" style="opacity:0.30000000000000004"></path><path d="M260.28,195.81a4.43,4.43,0,1,0-4.43,4.43A4.43,4.43,0,0,0,260.28,195.81Z" style="opacity:0.30000000000000004"></path><path d="M275.05,209.1a4.43,4.43,0,1,0-4.43,4.43A4.43,4.43,0,0,0,275.05,209.1Z" style="opacity:0.30000000000000004"></path><path d="M280.22,225.35a4.43,4.43,0,1,0-4.43,4.43A4.43,4.43,0,0,0,280.22,225.35Z" style="opacity:0.30000000000000004"></path><path d="M262.5,206.88a4.44,4.44,0,1,0-4.44,4.44A4.44,4.44,0,0,0,262.5,206.88Z" style="opacity:0.1"></path><path d="M310.5,224.61a4.43,4.43,0,1,0-4.43,4.43A4.43,4.43,0,0,0,310.5,224.61Z" style="opacity:0.30000000000000004"></path><circle cx="362.94" cy="206.88" r="4.43" style="opacity:0.30000000000000004"></circle><path d="M263.23,228.3a4.43,4.43,0,1,0-4.43,4.43A4.43,4.43,0,0,0,263.23,228.3Z" style="opacity:0.30000000000000004"></path><path d="M247.72,218a4.43,4.43,0,1,0-4.43,4.43A4.43,4.43,0,0,0,247.72,218Z" style="opacity:0.30000000000000004"></path><circle cx="212.27" cy="198.76" r="4.43" style="opacity:0.30000000000000004"></circle><path d="M301.64,211.32a4.43,4.43,0,1,0-4.43,4.43A4.43,4.43,0,0,0,301.64,211.32Z" style="opacity:0.30000000000000004"></path><path d="M285.39,212.79a4.43,4.43,0,1,0-4.43,4.43A4.43,4.43,0,0,0,285.39,212.79Z" style="opacity:0.1"></path><circle cx="292.78" cy="198.76" r="4.43" style="opacity:0.1"></circle><path d="M562.36,226.83a4.44,4.44,0,1,0-4.44,4.43A4.44,4.44,0,0,0,562.36,226.83Z" style="opacity:0.30000000000000004"></path><path d="M545.37,226.83a4.43,4.43,0,1,0-4.43,4.43A4.44,4.44,0,0,0,545.37,226.83Z" style="opacity:0.1"></path><path d="M594.85,321.36a4.43,4.43,0,1,0-4.43,4.43A4.43,4.43,0,0,0,594.85,321.36Z" style="opacity:0.1"></path><path d="M493.67,321.36a4.43,4.43,0,1,0-4.43,4.43A4.44,4.44,0,0,0,493.67,321.36Z" style="opacity:0.1"></path><path d="M642.86,317.67a4.43,4.43,0,1,0-4.43,4.43A4.43,4.43,0,0,0,642.86,317.67Z" style="opacity:0.30000000000000004"></path><circle cx="526.9" cy="321.36" r="4.43" style="opacity:0.30000000000000004"></circle><path d="M493.67,309.55a4.43,4.43,0,1,0-4.43,4.43A4.44,4.44,0,0,0,493.67,309.55Z" style="opacity:0.30000000000000004"></path><path d="M436.06,307.33a4.43,4.43,0,1,0-4.43,4.43A4.43,4.43,0,0,0,436.06,307.33Z" style="opacity:0.30000000000000004"></path><path d="M382.14,295.51a4.43,4.43,0,1,0-4.43,4.43A4.43,4.43,0,0,0,382.14,295.51Z" style="opacity:0.30000000000000004"></path><path d="M665,322.1a4.44,4.44,0,1,0-4.43,4.43A4.43,4.43,0,0,0,665,322.1Z" style="opacity:0.1"></path><path d="M441.23,323.58A4.43,4.43,0,1,0,436.8,328,4.43,4.43,0,0,0,441.23,323.58Z" style="opacity:0.1"></path><circle cx="292.78" cy="331.7" r="4.43" style="opacity:0.1"></circle><path d="M651.68,309.54a4.43,4.43,0,1,0-4.43,4.43A4.43,4.43,0,0,0,651.68,309.54Z" style="opacity:0.30000000000000004"></path><path d="M633.26,301.42a4.43,4.43,0,1,0-4.43,4.43A4.43,4.43,0,0,0,633.26,301.42Z" style="opacity:0.1"></path><circle cx="623.66" cy="319.15" r="4.43" style="opacity:0.30000000000000004"></circle><path d="M597.81,305.85a4.44,4.44,0,1,0-4.43,4.43A4.44,4.44,0,0,0,597.81,305.85Z" style="opacity:0.30000000000000004"></path><path d="M583.77,299.94a4.43,4.43,0,1,0-4.43,4.44A4.43,4.43,0,0,0,583.77,299.94Z" style="opacity:0.30000000000000004"></path><path d="M515.09,305.85a4.44,4.44,0,1,0-4.43,4.43A4.44,4.44,0,0,0,515.09,305.85Z" style="opacity:0.1"></path><path d="M423.5,305.11a4.43,4.43,0,1,0-4.43,4.44A4.43,4.43,0,0,0,423.5,305.11Z" style="opacity:0.30000000000000004"></path><path d="M357.77,331a4.43,4.43,0,1,0-4.43,4.44A4.43,4.43,0,0,0,357.77,331Z" style="opacity:0.30000000000000004"></path><path d="M395.44,302.16a4.43,4.43,0,1,0-4.43,4.43A4.43,4.43,0,0,0,395.44,302.16Z" style="opacity:0.30000000000000004"></path><path d="M566.79,305.85a4.44,4.44,0,1,0-4.43,4.43A4.44,4.44,0,0,0,566.79,305.85Z" style="opacity:0.1"></path><circle cx="613.8" cy="307.51" r="4.43" style="opacity:0.30000000000000004"></circle><circle cx="542.41" cy="297.73" r="4.43" style="opacity:0.30000000000000004"></circle><circle cx="604.78" cy="322.84" r="4.43" style="opacity:0.30000000000000004"></circle><circle cx="467.08" cy="322.84" r="4.43" style="opacity:0.1"></circle><circle cx="579.34" cy="328.75" r="4.43" style="opacity:0.30000000000000004"></circle><path d="M532.81,332.44a4.43,4.43,0,1,0-4.43,4.43A4.43,4.43,0,0,0,532.81,332.44Z" style="opacity:0.30000000000000004"></path><circle cx="511.39" cy="328.75" r="4.43" style="opacity:0.30000000000000004"></circle><circle cx="340.05" cy="321.36" r="4.43" style="opacity:0.30000000000000004"></circle><path d="M452.31,328a4.43,4.43,0,1,0-4.43,4.43A4.43,4.43,0,0,0,452.31,328Z" style="opacity:0.30000000000000004"></path><path d="M374,321.36a4.43,4.43,0,1,0-4.43,4.43A4.43,4.43,0,0,0,374,321.36Z" style="opacity:0.1"></path><path d="M424.24,326.53a4.43,4.43,0,1,0-4.43,4.43A4.43,4.43,0,0,0,424.24,326.53Z" style="opacity:0.30000000000000004"></path><path d="M408.73,316.19a4.43,4.43,0,1,0-4.43,4.43A4.43,4.43,0,0,0,408.73,316.19Z" style="opacity:0.1"></path><path d="M486.28,332.44a4.43,4.43,0,1,0-4.43,4.43A4.43,4.43,0,0,0,486.28,332.44Z" style="opacity:0.30000000000000004"></path><path d="M402.63,332.44a4.43,4.43,0,1,0-4.43,4.43A4.43,4.43,0,0,0,402.63,332.44Z" style="opacity:0.30000000000000004"></path><path d="M581.56,314.72a4.43,4.43,0,1,0-4.43,4.43A4.44,4.44,0,0,0,581.56,314.72Z" style="opacity:0.30000000000000004"></path><path d="M548.32,314.72a4.43,4.43,0,1,0-4.43,4.43A4.43,4.43,0,0,0,548.32,314.72Z" style="opacity:0.30000000000000004"></path><path d="M462.65,309.55a4.43,4.43,0,1,0-4.43,4.43A4.44,4.44,0,0,0,462.65,309.55Z" style="opacity:0.30000000000000004"></path><path d="M446.4,311a4.43,4.43,0,1,0-4.43,4.43A4.43,4.43,0,0,0,446.4,311Z" style="opacity:0.1"></path><path d="M199.72,307.33a4.44,4.44,0,1,0-4.43,4.43A4.43,4.43,0,0,0,199.72,307.33Z" style="opacity:0.30000000000000004"></path><path d="M204.89,323.58a4.44,4.44,0,1,0-4.43,4.43A4.43,4.43,0,0,0,204.89,323.58Z" style="opacity:0.30000000000000004"></path><path d="M187.16,305.11a4.43,4.43,0,1,0-4.43,4.44A4.43,4.43,0,0,0,187.16,305.11Z" style="opacity:0.30000000000000004"></path><circle cx="230.74" cy="322.84" r="4.43" style="opacity:0.30000000000000004"></circle><path d="M216,328a4.44,4.44,0,1,0-4.44,4.43A4.43,4.43,0,0,0,216,328Z" style="opacity:0.1"></path><path d="M187.9,326.53a4.43,4.43,0,1,0-4.43,4.43A4.43,4.43,0,0,0,187.9,326.53Z" style="opacity:0.30000000000000004"></path><path d="M172.39,316.19a4.43,4.43,0,1,0-4.43,4.43A4.43,4.43,0,0,0,172.39,316.19Z" style="opacity:0.30000000000000004"></path><path d="M244.77,309.55a4.43,4.43,0,1,0-4.43,4.43A4.43,4.43,0,0,0,244.77,309.55Z" style="opacity:0.30000000000000004"></path><circle cx="217.44" cy="311.02" r="4.43" style="opacity:0.30000000000000004"></circle><path d="M332.66,321.36a4.43,4.43,0,1,0-4.43,4.43A4.43,4.43,0,0,0,332.66,321.36Z" style="opacity:0.30000000000000004"></path><path d="M332.66,309.55a4.43,4.43,0,1,0-4.43,4.43A4.43,4.43,0,0,0,332.66,309.55Z" style="opacity:0.30000000000000004"></path><path d="M317.15,301.42a4.43,4.43,0,1,0-4.43,4.43A4.43,4.43,0,0,0,317.15,301.42Z" style="opacity:0.30000000000000004"></path><path d="M275.05,307.33a4.43,4.43,0,1,0-4.43,4.43A4.43,4.43,0,0,0,275.05,307.33Z" style="opacity:0.30000000000000004"></path><path d="M280.22,323.58a4.43,4.43,0,1,0-4.43,4.43A4.43,4.43,0,0,0,280.22,323.58Z" style="opacity:0.30000000000000004"></path><path d="M262.5,305.11a4.44,4.44,0,1,0-4.44,4.44A4.44,4.44,0,0,0,262.5,305.11Z" style="opacity:0.1"></path><circle cx="306.07" cy="322.84" r="4.43" style="opacity:0.30000000000000004"></circle><path d="M367.37,305.11a4.43,4.43,0,1,0-4.43,4.44A4.43,4.43,0,0,0,367.37,305.11Z" style="opacity:0.30000000000000004"></path><path d="M263.23,326.53A4.43,4.43,0,1,0,258.8,331,4.43,4.43,0,0,0,263.23,326.53Z" style="opacity:0.30000000000000004"></path><path d="M247.72,316.19a4.43,4.43,0,1,0-4.43,4.43A4.43,4.43,0,0,0,247.72,316.19Z" style="opacity:0.30000000000000004"></path><path d="M301.64,309.55a4.43,4.43,0,1,0-4.43,4.43A4.43,4.43,0,0,0,301.64,309.55Z" style="opacity:0.30000000000000004"></path><path d="M285.39,311a4.43,4.43,0,1,0-4.43,4.43A4.43,4.43,0,0,0,285.39,311Z" style="opacity:0.1"></path><path d="M562.36,325.06a4.44,4.44,0,1,0-4.44,4.43A4.44,4.44,0,0,0,562.36,325.06Z" style="opacity:0.30000000000000004"></path><path d="M545.37,325.06a4.43,4.43,0,1,0-4.43,4.43A4.44,4.44,0,0,0,545.37,325.06Z" style="opacity:0.1"></path><line x1="90.41" y1="254.89" x2="687.91" y2="254.89" style="fill:none;stroke:#263238;stroke-linecap:round;stroke-linejoin:round"></line><line x1="128.81" y1="241.6" x2="680.53" y2="241.6" style="fill:none;stroke:#263238;stroke-linecap:round;stroke-linejoin:round"></line><line x1="176.82" y1="254.15" x2="176.82" y2="243.07" style="fill:none;stroke:#263238;stroke-linecap:round;stroke-linejoin:round"></line><line x1="204.89" y1="254.15" x2="204.89" y2="243.07" style="fill:none;stroke:#263238;stroke-linecap:round;stroke-linejoin:round"></line><line x1="232.95" y1="254.15" x2="232.95" y2="243.07" style="fill:none;stroke:#263238;stroke-linecap:round;stroke-linejoin:round"></line><line x1="261.02" y1="254.15" x2="261.02" y2="243.07" style="fill:none;stroke:#263238;stroke-linecap:round;stroke-linejoin:round"></line><line x1="289.08" y1="254.15" x2="289.08" y2="243.07" style="fill:none;stroke:#263238;stroke-linecap:round;stroke-linejoin:round"></line><line x1="317.15" y1="254.15" x2="317.15" y2="243.07" style="fill:none;stroke:#263238;stroke-linecap:round;stroke-linejoin:round"></line><line x1="345.22" y1="254.15" x2="345.22" y2="243.07" style="fill:none;stroke:#263238;stroke-linecap:round;stroke-linejoin:round"></line><line x1="373.28" y1="254.15" x2="373.28" y2="243.07" style="fill:none;stroke:#263238;stroke-linecap:round;stroke-linejoin:round"></line><line x1="401.35" y1="254.15" x2="401.35" y2="243.07" style="fill:none;stroke:#263238;stroke-linecap:round;stroke-linejoin:round"></line><line x1="429.41" y1="254.15" x2="429.41" y2="243.07" style="fill:none;stroke:#263238;stroke-linecap:round;stroke-linejoin:round"></line><line x1="457.48" y1="254.15" x2="457.48" y2="243.07" style="fill:none;stroke:#263238;stroke-linecap:round;stroke-linejoin:round"></line><line x1="485.54" y1="254.15" x2="485.54" y2="243.07" style="fill:none;stroke:#263238;stroke-linecap:round;stroke-linejoin:round"></line><line x1="513.61" y1="254.15" x2="513.61" y2="243.07" style="fill:none;stroke:#263238;stroke-linecap:round;stroke-linejoin:round"></line><line x1="541.68" y1="254.15" x2="541.68" y2="243.07" style="fill:none;stroke:#263238;stroke-linecap:round;stroke-linejoin:round"></line><line x1="569.74" y1="254.15" x2="569.74" y2="243.07" style="fill:none;stroke:#263238;stroke-linecap:round;stroke-linejoin:round"></line><line x1="597.81" y1="254.15" x2="597.81" y2="243.07" style="fill:none;stroke:#263238;stroke-linecap:round;stroke-linejoin:round"></line><line x1="625.87" y1="254.15" x2="625.87" y2="243.07" style="fill:none;stroke:#263238;stroke-linecap:round;stroke-linejoin:round"></line><line x1="653.94" y1="254.15" x2="653.94" y2="243.07" style="fill:none;stroke:#263238;stroke-linecap:round;stroke-linejoin:round"></line><line x1="20.98" y1="339.83" x2="702.68" y2="339.83" style="fill:none;stroke:#263238;stroke-linecap:round;stroke-linejoin:round"></line><line x1="38.71" y1="291.82" x2="692.34" y2="291.82" style="fill:none;stroke:#263238;stroke-linecap:round;stroke-linejoin:round"></line><line x1="196.7" y1="182.51" x2="639.17" y2="182.51" style="fill:none;stroke:#263238;stroke-linecap:round;stroke-linejoin:round"></line><line x1="203.81" y1="173.77" x2="639.17" y2="173.77" style="fill:none;stroke:#263238;stroke-linecap:round;stroke-linejoin:round"></line></g><g id="freepik--Floor--inject-127"><line x1="4.63" y1="423.89" x2="743.15" y2="423.89" style="fill:none;stroke:#263238;stroke-linecap:round;stroke-linejoin:round"></line></g><g id="freepik--character-4--inject-127"><path d="M667.1,260.33s9.62-2.2,14.82-4.47,11.38.55,17.41,3,11.19,4.41,11.19,4.41l3.71,1.65-3.1,5.41s-10.07-.79-14.51-.67-13.85-1.71-13.85-1.71l-18.36,8.73Z" style="fill:#fff;stroke:#263238;stroke-linecap:round;stroke-linejoin:round"></path><path d="M667.1,260.33s9.5-2.18,14.72-4.42c-1.12,2-2.2,4.71-1.49,6.81a15.15,15.15,0,0,0,3.13,5.34l-.69-.13-18.36,8.73Z" style="fill:#263238;stroke:#263238;stroke-linecap:round;stroke-linejoin:round"></path><path d="M586.92,263.8a44.86,44.86,0,0,0-9.49.92c-4.53,1-17.17,11.62-22,15.94S544,293.94,543.75,294.47a11.2,11.2,0,0,0-.4,2.17,43.4,43.4,0,0,0,5.47.71c1.29-.05,4.19-1.43,5.8-2.75a32.59,32.59,0,0,1,9.44-6.09,78.55,78.55,0,0,0,14.24-8c1.8-1.48,6.47-2.14,7.06-2.45S586.92,263.8,586.92,263.8Z" style="fill:#fff;stroke:#263238;stroke-linecap:round;stroke-linejoin:round"></path><path d="M577.43,264.72a44.86,44.86,0,0,1,9.49-.92s-1,13.92-1.56,14.23-5.26,1-7.06,2.45a36.78,36.78,0,0,1-3.31,2.25,17,17,0,0,1-5.69-4.59,12.86,12.86,0,0,1-2.41-6.94C571.1,268,575.22,265.23,577.43,264.72Z" style="fill:#263238;stroke:#263238;stroke-linecap:round;stroke-linejoin:round"></path><path d="M647.22,324.6s4.62,9.48,4.08,13.12-1.66,5.74-1.42,7,7,11.92,9.86,18.11,5.15,11.56,7.42,14.73a21.62,21.62,0,0,0,3.65,4.23s10.8-3,15.74-.69,10.16,7.44,14.2,11.33S712,400.39,713,400.87a98.15,98.15,0,0,1,12.88,7.88c5.51,4,6.13,9.08,4.14,10.55s-4.9,1.18-7.52-.36-4.41-3.94-8.19-6.88-5.76-3.33-8.17-5-13.23-6.26-20.59-8.26-17.22-5-18.58-6.23-12.31-.46-20.33-9-21-22.87-23-25.1-6.22-2.44-15.37-1.3-22.76,2.77-28.16,3.35a64.88,64.88,0,0,0-11.7,2.74s-1.61,10.91-3.46,16.63-6.14,11.94-9.87,16.19-8.59,14.47-10.19,17.64-3.44,8.88-4.61,9.51a5.77,5.77,0,0,1-5.35,0c-1.92-1.11-2.11-3-6.79-4.16s-10.11-4.11-11.8-7.6S514.12,408,518,408s12.35,1.94,15.77,1,3.93-2.57,5-3.94,2.83-6.37,4.29-13.79,3.71-21.21,5.29-26,1.09-7.45,4-11.4,8.83-11.13,22.54-17.55,21.27-8.26,21.87-8.76,2-1.1,3-1.92-.17,1.82,11.08,1.81,20.29-.06,23.72-1.21,10.27-3.24,11.23-3.7S647.22,324.6,647.22,324.6Z" style="fill:#263238;stroke:#263238;stroke-linecap:round;stroke-linejoin:round"></path><path d="M666,391.69l-.8.26c-3.73-.71-12.06-1.55-18.51-8.4-8-8.52-21-22.87-23-25.1s-6.22-2.44-15.37-1.3-22.76,2.77-28.16,3.35a64.88,64.88,0,0,0-11.7,2.74s-.2,1.33-.53,3.3c-1.08-1-7-6.12-12.18-7.3a27.12,27.12,0,0,0-5.73-.68,13.85,13.85,0,0,1,2.39-4.8c3-4,8.83-11.13,22.54-17.55s21.27-8.26,21.87-8.76,2-1.1,3-1.92-.17,1.82,11.08,1.81,20.29-.06,23.72-1.21,10.27-3.24,11.23-3.7,1.45,2.17,1.45,2.17,4.62,9.48,4.08,13.12-1.66,5.74-1.42,7,7,11.92,9.86,18.11,5.15,11.56,7.42,14.73a21.62,21.62,0,0,0,3.65,4.23S672.66,389.39,666,391.69Z" style="fill:#fff;stroke:#263238;stroke-linecap:round;stroke-linejoin:round"></path><path d="M620.51,356.67s-11.57-4.25-20.56-6.6" style="fill:none;stroke:#263238;stroke-linecap:round;stroke-linejoin:round"></path><path d="M639.42,334.72s-7.83,2.75-14.39,5.8" style="fill:none;stroke:#263238;stroke-linecap:round;stroke-linejoin:round"></path><line x1="628.39" y1="336.23" x2="622.79" y2="338.83" style="fill:none;stroke:#263238;stroke-linecap:round;stroke-linejoin:round"></line><line x1="599.57" y1="329.2" x2="606.26" y2="336.3" style="fill:none;stroke:#263238;stroke-linecap:round;stroke-linejoin:round"></line><path d="M714.34,412.06a42.36,42.36,0,0,0-6.86-4.2c1.73-.5,3.34-1.4,3.67-2.75.61-2.52-3-6.75-3-6.75l.31-.15c2.25,1.42,4.11,2.43,4.61,2.66a98.15,98.15,0,0,1,12.88,7.88c5.51,4,6.13,9.08,4.14,10.55s-4.9,1.18-7.52-.36S718.12,415,714.34,412.06Z" style="fill:#fff;stroke:#263238;stroke-linecap:round;stroke-linejoin:round"></path><path d="M516.36,411.48C514.67,408,514.12,408,518,408s12.35,1.94,15.77,1a9.83,9.83,0,0,0,2.09-.84l.37.16s1.6-1.32,1.36,1.23a7.36,7.36,0,0,1-1.69,4.08,8.94,8.94,0,0,0,6.63,1.93l1.61-.11c-1.39,3.18-2.85,7.3-3.83,7.83a5.77,5.77,0,0,1-5.35,0c-1.92-1.11-2.11-3-6.79-4.16S518.05,415,516.36,411.48Z" style="fill:#fff;stroke:#263238;stroke-linecap:round;stroke-linejoin:round"></path><path d="M647.5,325.55a10.61,10.61,0,0,1-3.17,4.12,34.59,34.59,0,0,1-5.59,2.59l-.07-3.14-7.32,1.32.4,3.54s-17.77.67-23.13-1.14-9.24-5.5-8.88-7.31,14.48,4.72,24.31,4.2S647.5,325.55,647.5,325.55Z" style="fill:#263238;stroke:#263238;stroke-linecap:round;stroke-linejoin:round"></path><path d="M636.64,260.69s0-.18,3.49.16l4.38.42s10.59-.81,15.3-1.83a34.9,34.9,0,0,1,9.46-.56,21.32,21.32,0,0,1,2,11.26c-.62,6.39-3.29,9.27-3.29,9.27s-8.1,3.64-9.87,4.76-7.43,8.13-8.3,9.52S646.43,310,646.43,310a22.28,22.28,0,0,0,.64,6.7c.93,3.78,3.88,7.57,2.49,8.54s-11.47,6.08-19.83,6.75-26.46-.91-29.45-4.33-3.32-3.83-3-6.93-1.55-18.23-.2-24.55,1.46-7.42,1.46-7.42a15.1,15.1,0,0,0-3.9-3.51c-2.27-1.33-10-5.58-11.36-6.45s-4.14-3-2.13-8.5,3.36-6.13,4-6.44,3.3.13,11-1.15,11-1.7,13.47-2a35.44,35.44,0,0,1,7.34.34c1.46.14,10.89-.05,13.83.05A37.25,37.25,0,0,0,636.64,260.69Z" style="fill:#FFB847;stroke:#263238;stroke-linecap:round;stroke-linejoin:round"></path><path d="M612.47,319.75c3.06-4.86,5.83-6.81,7-14.81s4.43-22.8,4.43-22.8a27,27,0,0,1-6.13-9.08c-1.81-4.21-3.77-9.63-4.77-12.46,1.58.1,3.07.31,3.91.39,1.46.14,10.89-.05,13.83.05a37.25,37.25,0,0,0,5.93-.35s0-.18,3.49.16l1.74.17a28.69,28.69,0,0,1-5.63,11.44c-5.48,7-10.09,9-10.09,9s-2.31,18-4.78,26.46-7.19,13.32-9.48,17.89a22.68,22.68,0,0,0-1.87,5.1c-.89-.14-1.76-.3-2.58-.47A58.94,58.94,0,0,1,612.47,319.75Z" style="fill:#263238;stroke:#263238;stroke-linecap:round;stroke-linejoin:round"></path><path d="M598.52,288.71s1.87-9.77,1.92-10.32" style="fill:none;stroke:#263238;stroke-linecap:round;stroke-linejoin:round"></path><path d="M646.37,302.94s-7.4,15.51-17,21" style="fill:none;stroke:#263238;stroke-linecap:round;stroke-linejoin:round"></path><path d="M610.48,247.09a13.71,13.71,0,0,1-.28,2.93c-.31,1.26-3.08,3.2-1.17,4.49a12.15,12.15,0,0,0,2.8,1.56,8.82,8.82,0,0,0-.31,7c1.49,3.65,3.43,6.42,6.41,6.16,0,0,4.13,6.85,5.41,8.82s4.49-.67,9.36-5.18,5.57-10,4.82-11.7a9.5,9.5,0,0,1-.83-2.85c-.13-.56,2.34-3.73,3-6.35s-.21-3.52-.21-3.52a51.75,51.75,0,0,0-8.07-4.28C626.47,242,613.83,241.15,610.48,247.09Z" style="fill:#fff;stroke:#263238;stroke-linecap:round;stroke-linejoin:round"></path><path d="M611.52,263.05a8.82,8.82,0,0,1,.31-7c3.15-.24,3,1.4,4.83,3.42s2.69,2.66,5.74,1.67,5.47-7,6.36-8.61a11,11,0,0,0,.81-4.53l0-2.21s4,.11,5.76.21a42.66,42.66,0,0,1,4.13,2.41s.88.91.21,3.52c-.58,2.26-2.49,4.92-2.93,6-1.21-.34-2.37-.77-2.37-.77a13.36,13.36,0,0,0,3-6.17c1-4.14-3.37-1.43-3.37-1.43a16.88,16.88,0,0,0-2.07,4.23c-.34,1.62-.1,6.81-3.62,10.71s-9.48,4.61-9.48,4.61l-.88.17-.05-.07C615,269.47,613,266.7,611.52,263.05Z" style="fill:#263238;stroke:#263238;stroke-linecap:round;stroke-linejoin:round"></path><path d="M640.37,249.34s-12.94.29-18.92-1.52-10.09-3.75-10.3-4.69,1.89-10,6.53-13.51,14.62-1.66,20.6,3.22S640.37,249.34,640.37,249.34Z" style="fill:#FFB847;stroke:#263238;stroke-linecap:round;stroke-linejoin:round"></path><path d="M624.78,248.45s-9.63.91-15-.84-14.08-3.83-8.42-5.12a16.18,16.18,0,0,1,9.78.64Z" style="fill:#fff;stroke:#263238;stroke-linecap:round;stroke-linejoin:round"></path><path d="M614.36,250.88c-.09.86.13,1.58.49,1.62s.7-.64.79-1.5-.14-1.58-.49-1.61S614.44,250,614.36,250.88Z" style="fill:#263238"></path><path d="M726.11,266.05a4.2,4.2,0,0,1,.48,4.47c-1.18,2.65-5.12,3.38-5,1.73s1.43-3.36,2.31-4.75A2.93,2.93,0,0,1,726.11,266.05Z" style="fill:#fff;stroke:#263238;stroke-linecap:round;stroke-linejoin:round"></path><path d="M722.58,264.42s2.24-.34,3.1.3.76,3.57-.68,5.09-2.77.1-2.78-1.74A21.39,21.39,0,0,1,722.58,264.42Z" style="fill:#fff;stroke:#263238;stroke-linecap:round;stroke-linejoin:round"></path><path d="M711.57,265.75s-.85,4.89-1,6.72.72,3.94,1.6,4.4a10.93,10.93,0,0,0,4.7,1c2.21,0,.14-1.46-1.58-2.73s-2.64-1.36-2-3.7,1.83-5.54,1-6.54S711.57,265.75,711.57,265.75Z" style="fill:#fff;stroke:#263238;stroke-linecap:round;stroke-linejoin:round"></path><path d="M710.44,267.85a7,7,0,1,1,6.27,7.61A7,7,0,0,1,710.44,267.85Z" style="fill:#fff;stroke:#263238;stroke-linecap:round;stroke-linejoin:round"></path><path d="M715.58,258.58s1.48-1.89,3.23-1,1.34,7.13-.76,7.85-1.41-2.53-2-4.25A7,7,0,0,1,715.58,258.58Z" style="fill:#fff;stroke:#263238;stroke-linecap:round;stroke-linejoin:round"></path><path d="M712.79,260.7s3.49,4,2.65,5.05a1.09,1.09,0,0,1-1.68.21s-3.55-1.45-4.08-3.53S710.67,259.76,712.79,260.7Z" style="fill:#fff;stroke:#263238;stroke-linecap:round;stroke-linejoin:round"></path><path d="M557.28,301.31a11.53,11.53,0,0,0,8.49,3.77c5.7.19,8.08-1.61,8.2,1s-3.53,4.09-6,4.59-7.55-.18-9.46-3.32S556.06,302.48,557.28,301.31Z" style="fill:gray;stroke:#263238;stroke-linecap:round;stroke-linejoin:round"></path><path d="M543.93,294.48a77.08,77.08,0,0,1,12-4.36c5.86-1.46,8.16-.5,7.93,1.87s-6,6.8-4.2,11,4.22,5.94,7,6.21,5.49-1.5,5.53,0-4,4.78-10.87,5.58-12.69-.3-16.5-4.73-3.79-8.48-2.34-12Z" style="fill:#263238;stroke:#263238;stroke-linecap:round;stroke-linejoin:round"></path></g><g id="freepik--character-3--inject-127"><path d="M409.83,300.09a82.5,82.5,0,0,1,7.5,15.27C420,323,421.77,329.48,421.9,335s1.47,7.41,2.48,12.27,3.79,8.12,6.09,11,8.54,6,12.74,13.24,11.4,33.31,11.4,33.31a124.47,124.47,0,0,0,6.77,11.8c2.78,3.9,4.25,5.85,3.2,6.49s-3.31.91-8.47.71-7.32-6.49-8.4-9.8a73.29,73.29,0,0,0-3.27-8.91c-.8-1.41-16.15-21.79-20.58-27.64a103.2,103.2,0,0,1-7.63-11.83,37.81,37.81,0,0,1-9.49-8.29,50.57,50.57,0,0,1-6.39-12.82c-.14-.7-5.42-6.58-6.94-7.33s-1.46-2.3-10,3.92-18.31,19.26-23.34,24.4-9.17,10-9.55,11-3.63,9.16-9.16,14.28S328.64,404,327.67,406.92s-.79,7-2.77,9.36-4,.19-7.17,2.65-7.58,4.7-10.32,4.25-5.2-3.48-1.23-8.15,10.37-5.45,12.19-8,2.1-14.21,7.83-24.32,11.1-15.4,13.25-17.39,5.48-17,9.19-23.75a302.76,302.76,0,0,1,16.82-25.34c2-2.33,1.77-1.14,2.21-3.53s.91-5.65.91-5.65.91,3,8.13,3.42A51.39,51.39,0,0,0,400,305.56a27,27,0,0,0,8.72-7.07Z" style="fill:#fff;stroke:#263238;stroke-linecap:round;stroke-linejoin:round"></path><path d="M392.2,336.39s-7.87-3.72-12.67-3.9" style="fill:none;stroke:#263238;stroke-linecap:round;stroke-linejoin:round"></path><path d="M406.38,311.89s-8.66,6.48-10.5,7.41" style="fill:none;stroke:#263238;stroke-linecap:round;stroke-linejoin:round"></path><line x1="406.26" y1="309.88" x2="396.59" y2="316.32" style="fill:none;stroke:#263238;stroke-linecap:round;stroke-linejoin:round"></line><line x1="371.61" y1="314.54" x2="378.28" y2="318.21" style="fill:none;stroke:#263238;stroke-linecap:round;stroke-linejoin:round"></line><path d="M318.37,407.07c1.82-2.51,2.1-14.21,7.83-24.32s11.1-15.4,13.25-17.39a4.4,4.4,0,0,0,.8-1.21,16.64,16.64,0,0,0,5,7.12,10.1,10.1,0,0,0,7.82,1.86,20.43,20.43,0,0,0-2.51,3.34c-.38,1-3.63,9.16-9.16,14.28S328.64,404,327.67,406.92s-.79,7-2.77,9.36-4,.19-7.17,2.65-7.58,4.7-10.32,4.25-5.2-3.48-1.23-8.15S316.55,409.58,318.37,407.07Z" style="fill:#FFB847;stroke:#263238;stroke-linecap:round;stroke-linejoin:round"></path><path d="M318,407.54l.22.21a4.73,4.73,0,0,1,.25-.76,5,5,0,0,0,.39-.77,2.06,2.06,0,0,1,2.9-.91c2.7,1.31,2.8,3.21,2.24,4.22A14.26,14.26,0,0,1,323,411l4.18-2.33c-.52,2.63-.71,5.69-2.31,7.57-2,2.33-4,.19-7.17,2.65s-7.58,4.7-10.32,4.25-5.2-3.48-1.23-8.15C309.89,410.67,315.72,409.7,318,407.54Z" style="fill:#263238;stroke:#263238;stroke-linecap:round;stroke-linejoin:round"></path><path d="M416.3,365.72c6.56-.61,10.74-7.14,12.15-9.74.8.85,1.5,1.62,2,2.25,2.3,2.84,8.54,6,12.74,13.24s11.4,33.31,11.4,33.31a124.47,124.47,0,0,0,6.77,11.8c2.78,3.9,4.25,5.85,3.2,6.49s-3.31.91-8.47.71-7.32-6.49-8.4-9.8a73.29,73.29,0,0,0-3.27-8.91c-.8-1.41-16.15-21.79-20.58-27.64A104,104,0,0,1,416.3,365.72Z" style="fill:#FFB847;stroke:#263238;stroke-linecap:round;stroke-linejoin:round"></path><path d="M447.71,414c-.43-1.32-.91-2.78-1.38-4.14l.59-.08s.39-3.85,3.56-4.69,5.46,2.63,5.46,2.63l.24.08a93.44,93.44,0,0,0,5.2,8.8c2.78,3.9,4.25,5.85,3.2,6.49s-3.31.91-8.47.71S448.79,417.29,447.71,414Z" style="fill:#263238;stroke:#263238;stroke-linecap:round;stroke-linejoin:round"></path><path d="M329,227.94l13.25-35.34a3.82,3.82,0,0,1,4.92-2.24h0a3.81,3.81,0,0,1,2.22,4.9l-13.08,35a27.7,27.7,0,0,1-4,7.16l-.23.3a27.1,27.1,0,0,0-3.95,7.14L322,260.68,319.65,259l5.92-15.11a27.81,27.81,0,0,0,1.7-8h0A27.27,27.27,0,0,1,329,227.94Z" style="fill:#fff;stroke:#263238;stroke-linecap:round;stroke-linejoin:round"></path><path d="M325.78,252.05s3.08,4.77,3.7,6.69-.51,4.11-1,7,0,4.3-1.55,4.41-3.84-3.07-5-5.53,2.06-8.7,2.06-8.7S322.92,250.22,325.78,252.05Z" style="fill:#fff;stroke:#263238;stroke-linecap:round;stroke-linejoin:round"></path><path d="M320.86,254.44s5.08,2.26,5.57,3-.58,1.7-.58,1.7A5.34,5.34,0,0,1,324.7,262c-1.08,1.34-.6,2.22-2,3.54s-3.46.55-5.18.49-2.71-1.31-1.76-3.51,1-3.75,2.1-5.43S320.18,254.24,320.86,254.44Z" style="fill:#fff;stroke:#263238;stroke-linecap:round;stroke-linejoin:round"></path><path d="M390.35,247.68s9.55,6.57,12.33,10.46,3.73,10.31,3.95,13.41,1.56,17.63,1.34,18.65a15.08,15.08,0,0,0,1.77,7.82c1.61,2.82.3,5.52-2.73,8.16s-16.85,8.12-23.9,7.85-10.67-.07-13.63-3.63-3.05-5.8-4.07-10.49S356.1,278,356.1,278s-7.65,6.42-10.66,8.54-10.88,5.26-12.1,5.73-4.8-.53-6.28-2.48S321,283.2,319,276.58s-2.43-8.36-2.43-8.36l5.11-2.9s4.6,5.69,6.77,7.32,3.85,2.73,3.85,2.73,4.92-2.39,7.62-5.55,3.73-7.26,4.88-10.32,2.8-5.4,10.84-8.7a56.07,56.07,0,0,1,16.68-3.66S382.5,245.65,390.35,247.68Z" style="fill:#fff;stroke:#263238;stroke-linecap:round;stroke-linejoin:round"></path><path d="M332.83,275.09c1.1,3.1,2.33,7.64,1.65,11.21a24,24,0,0,1-2.1,6.09,2.72,2.72,0,0,0,1-.1c1.22-.47,9.09-3.61,12.1-5.73l.46-.33c-1.23-5.41-3.62-14.64-6-16.41A26.46,26.46,0,0,1,332.83,275.09Z" style="fill:#FFB847;stroke:#263238;stroke-linecap:round;stroke-linejoin:round"></path><path d="M391.13,231.86s.93,7.1.87,8.82.73,7.78,0,9.81a5.06,5.06,0,0,1-4.43,3.1l-2.75-.11s-6.25,10.26-7.85,11.41-4.6-1-7.08-8.2-2.56-9.57-2.17-10.76-1.25-3.15-1.25-3.15-3.3-3.74-3.41-5.29-1.24-3.5,9.22-6.88a94.54,94.54,0,0,1,15.48-3.87C388.76,226.43,390.49,230.63,391.13,231.86Z" style="fill:#fff;stroke:#263238;stroke-linecap:round;stroke-linejoin:round"></path><path d="M370.18,234.84s1.22,4,0,4.13-4-2.91-4-2.91Z" style="fill:#263238;stroke:#263238;stroke-linecap:round;stroke-linejoin:round"></path><path d="M384.78,253.48s-4.28-.51-6.64-2a18.32,18.32,0,0,1-4.15-3.77l7.7,9.94Z" style="fill:none;stroke:#263238;stroke-linecap:round;stroke-linejoin:round"></path><path d="M387.55,235.51s2.9,4.94,2.88,5.63-1.6,1.31-2.47,1.45a7.12,7.12,0,0,0-1.57.45" style="fill:none;stroke:#263238;stroke-linecap:round;stroke-linejoin:round"></path><path d="M388.73,244.86s-2.32,2.15-4.69,1" style="fill:none;stroke:#263238;stroke-linecap:round;stroke-linejoin:round"></path><polygon points="382.99 237.57 384.12 239.51 377.78 243.23 377.03 240.27 382.99 237.57" style="fill:#263238;stroke:#263238;stroke-linecap:round;stroke-linejoin:round"></polygon><polygon points="391.78 237.4 389.7 237.66 389.06 236.6 391.67 235.67 391.78 237.4" style="fill:#263238;stroke:#263238;stroke-linecap:round;stroke-linejoin:round"></polygon><path d="M381,236.81s-2.4-.27-3.3.73" style="fill:none;stroke:#263238;stroke-linecap:round;stroke-linejoin:round"></path><path d="M372.28,234.06s8.75-3.62,15.54-5.6,14-1,12.21.48-13.5,6.19-17,6.91S372.28,234.06,372.28,234.06Z" style="fill:#FFB847;stroke:#263238;stroke-linecap:round;stroke-linejoin:round"></path><path d="M373.13,234.26l-11,4.4s-3.32-7.54-3.13-12.35,7.09-9.54,15.6-11.62,12.85,6.18,14,8.46a36.16,36.16,0,0,1,1.87,4.9Z" style="fill:#263238;stroke:#263238;stroke-linecap:round;stroke-linejoin:round"></path><path d="M356.6,277.16s-6.39-9.67-7.34-10.19" style="fill:none;stroke:#263238;stroke-linecap:round;stroke-linejoin:round"></path><path d="M387.5,258.76s-13.71,11.69-15.86,13.84-5.74,6-5.74,6l-2.95.57a44.09,44.09,0,0,0-12.46-2.89c-7.21-.63-21.16-5-21.16-5a57.72,57.72,0,0,0-3.74-5.48c-1.16-1.25-5.12-1.24-6.49-1.46s-3.15,1.25-3.53,2.1-1.37,4.25-1.74,4.93.56,3.29,1.24,3.49a2.47,2.47,0,0,0,1.57-.29s3.45-.21,4.28.52,2.47,2.85,4.36,3.09,4.63.35,4.63.35,23.52,15,25.37,16.32,9.79.55,14.15-.83,21-7.62,25-9.53a44.24,44.24,0,0,0,7.23-4.37" style="fill:#fff;stroke:#263238;stroke-linecap:round;stroke-linejoin:round"></path><path d="M350.43,286.58a22.84,22.84,0,0,1,2.51-10,42.86,42.86,0,0,1,10,2.61l2.95-.57s1.26-1.34,2.73-2.88c.46.69,1,1.52,1.59,2.53a107.84,107.84,0,0,1,6,13.4c-3,1.09-5.48,2-6.83,2.41-4.36,1.38-12.31,2.1-14.15.83-.45-.31-2.15-1.42-4.48-2.92A51.89,51.89,0,0,1,350.43,286.58Z" style="fill:#FFB847;stroke:#263238;stroke-linecap:round;stroke-linejoin:round"></path><path d="M315.57,266.46c.38-.85,2.16-2.33,3.53-2.1s5.33.21,6.49,1.46a57.72,57.72,0,0,1,3.74,5.48s1.64.51,4.08,1.2c-.82,1.17-2.81,4.07-3.13,5.55,0,.21-.09.44-.12.66l-.25-.16s-2.75-.1-4.63-.35-3.53-2.37-4.36-3.09-4.28-.52-4.28-.52a2.47,2.47,0,0,1-1.57.29c-.68-.2-1.61-2.82-1.24-3.49S315.2,267.31,315.57,266.46Z" style="fill:#fff;stroke:#263238;stroke-linecap:round;stroke-linejoin:round"></path><path d="M336.67,273s-3.76,3.65-3.91,7.6l-3.87-2.39a6.13,6.13,0,0,1,2.5-6.62Z" style="fill:#fff;stroke:#263238;stroke-linecap:round;stroke-linejoin:round"></path></g><g id="freepik--character-1--inject-127"><path d="M16.66,388.38S7.43,399.86,5.85,401.89s-3.15,5.86.23,8.56,4.95,3.82,6.53,6.75,2.25,3.83,7.65,5.18,14.87,2.25,16.22.68,2-5.86.22-9.46-7.65-9.46-8.33-11.93-.68-5,.68-6.53S16.66,388.38,16.66,388.38Z" style="fill:#757575;stroke:#263238;stroke-linecap:round;stroke-linejoin:round"></path><path d="M34.45,419.23c-4.28-.9-5.18,4.28-10.58,3.15s-9.23-5.63-15.31-13.28c-1.9-2.39-3.16-3.94-4-5a5.11,5.11,0,0,0,1.52,6.3c3.38,2.7,4.95,3.82,6.53,6.75s2.25,3.83,7.65,5.18,14.87,2.25,16.22.68a6.42,6.42,0,0,0,1.18-3C36.78,419.76,35.72,419.5,34.45,419.23Z" style="fill:#263238;stroke:#263238;stroke-linecap:round;stroke-linejoin:round"></path><path d="M167.29,399s2.7,5.86,4.05,6.53,11,2.71,14,2.71,1.81,6.75.23,8.78-5.85,3.37-12.61,3.6-15.08-1.35-19.36-1.35-9.23,0-7.88-4.05,5.85-11.94,6.3-12.61S167.29,399,167.29,399Z" style="fill:#757575;stroke:#263238;stroke-linecap:round;stroke-linejoin:round"></path><path d="M153.56,419.23c4.28,0,12.61,1.57,19.36,1.35s11-1.58,12.61-3.6a10.32,10.32,0,0,0,1.54-4.77,40.79,40.79,0,0,1-6.52,3.65c-4.38,1.64-14.22,2.19-19.15,1.64s-15.72-2.32-15.72-2.32C144.33,419.23,149.28,419.23,153.56,419.23Z" style="fill:#263238;stroke:#263238;stroke-linecap:round;stroke-linejoin:round"></path><polygon points="157.27 317.5 155.93 330.55 145.23 327.54 145.9 316.17 157.27 317.5" style="fill:#fff;stroke:#263238;stroke-linecap:round;stroke-linejoin:round"></polygon><path d="M162,273.36s6.26,10,7.14,14.38-6.81,24.41-7.14,26.75-2,6-9,6a16.16,16.16,0,0,1-11.37-5s15.72-23.75,16-25.75S162,273.36,162,273.36Z" style="fill:#263238;stroke:#263238;stroke-linecap:round;stroke-linejoin:round"></path><path d="M89.16,307.1l-17.33,36s-6.76,2.25-8.11,4.5-9.46,11.26-17.11,16S16.89,387,15.76,387.93s3.6,6.53,13.51,12.16a80,80,0,0,0,18,7.66s26.35-25.45,33.33-34.68,41.2-30.85,41.2-30.85l14.86,9.69L152.52,368l-3.6,37.82,26.7-7.56s2.25-33.77,2.7-37.38-.22-13.28-.67-14.63-32.87-28.37-32.87-28.37Z" style="fill:#263238;stroke:#263238;stroke-linecap:round;stroke-linejoin:round"></path><path d="M166.17,289.54s-9.91,21.39-18.24,29.72-31.75,11.26-43.23,8.33-21.17-23.87-14.86-29.27,18-16.89,28.59-25.22A49.44,49.44,0,0,1,141,263.42s11,0,15.76,4.95,10.81,11.49,10.81,11.49" style="fill:#263238;stroke:#263238;stroke-linecap:round;stroke-linejoin:round"></path><path d="M150.86,293.59l-.68,11.26s5.18-11.48,6.3-16.21a56.68,56.68,0,0,0,1.36-9l-16.22-9.46,4.28,18.92Z" style="fill:#757575;stroke:#263238;stroke-linecap:round;stroke-linejoin:round"></path><polygon points="155.6 292.39 161.23 288.1 164.97 288.91 159.62 275.25 157.48 274.99 155.6 292.39" style="fill:#fff;stroke:#263238;stroke-linecap:round;stroke-linejoin:round"></polygon><path d="M174.72,258.92c-.05.67-.22,4.05-.45,6.75s-11,14.64-11,14.64-4.28.67-6.31.9a62.7,62.7,0,0,0-6.75,1.57s-6.3-5.85-7.43-10.35-1.8-9-1.8-9a6.23,6.23,0,0,1,.67-4.05c1.13-1.8,1.35-2.93,10.14-4.06S175.4,250.14,174.72,258.92Z" style="fill:#fff;stroke:#263238;stroke-linecap:round;stroke-linejoin:round"></path><path d="M146.58,264.32s-3.38,2.7-4.51,2-1.57-3.15-1.57-5.41,3.6-4.27,3.6-4.27l14.19.22s-1.13,4.05-1.58,4.95-5.85-.9-5.85-.9Z" style="fill:#263238;stroke:#263238;stroke-linecap:round;stroke-linejoin:round"></path><path d="M169.09,245.18s-3.82-2.47-6.08-3.83-4.95-1.35-10.58-.9-8.1,1.58-10.13,7.66S141,258,141.85,258s14,2.92,14,2.92,8.78.45,13.73-.9,8.33-2.7,8.33-6.3S169.09,245.18,169.09,245.18Z" style="fill:#263238;stroke:#263238;stroke-linecap:round;stroke-linejoin:round"></path><path d="M171.34,241.35s-7.2,4.51-8.78,8.34-.9,7.65,1.58,8.78,5,1.57,6.75-.45,2.71-.68,3.38-.68,4.73,1.35,5.86-1.35,2-5.85-1.36-10.13A11.15,11.15,0,0,0,171.34,241.35Z" style="fill:#fff;stroke:#263238;stroke-linecap:round;stroke-linejoin:round"></path><line x1="170.89" y1="258.02" x2="175.4" y2="249.91" style="fill:none;stroke:#263238;stroke-linecap:round;stroke-linejoin:round"></line><path d="M160.54,270.17a23.75,23.75,0,0,0,1.57,5.18c1.13,2.48,9,8.33,11.94,5.86a9.84,9.84,0,0,0,3.6-7.88,4.33,4.33,0,0,0-2.48-3.61s2.7-4.05,2.7-6.07-3.37-2.71-3.37-2.71-2.48,0-2.71.9,1.13,3.83,1.13,3.83l-.22,2.25-1.36,1.13-.45.9-4.5-2a3.23,3.23,0,0,0-4-.45C159.86,268.82,160.54,270.17,160.54,270.17Z" style="fill:#fff;stroke:#263238;stroke-linecap:round;stroke-linejoin:round"></path><path d="M179.22,258.92s-13.95-3.83-16.21-3.38-2,5.18-2,5.18a17.17,17.17,0,0,0,4.28,2.48c2,.67,15.31,3.6,16.21,2.92s-3.61-3.38-3.61-3.38l1.35-3.82s4.51-.23,5.18-1.58a7.74,7.74,0,0,0-.45-7,15,15,0,0,0-8.78-7.65,46.62,46.62,0,0,0-12.83-2.48,24.46,24.46,0,0,0-4.05.22" style="fill:none;stroke:#263238;stroke-linecap:round;stroke-linejoin:round;stroke-width:2px"></path><path d="M161,260.72s-2.7,3.38-1.8,6.53,6.08,4.95,11.25,6.53c2.23.67,3.95,1.31,5.3,1.6,1.8.39,2.94.16,3.71-1.38,1.35-2.7,2-7.88,2-7.88s-7.66,13.51-9.46,14.64,4,6.53,4,6.53" style="fill:none;stroke:#263238;stroke-linecap:round;stroke-linejoin:round;stroke-width:2px"></path><path d="M162.11,271.08s-2.47,5.85-.9,7.43,5,4.05,9,3.37S178.1,276,178.1,276" style="fill:none;stroke:#263238;stroke-linecap:round;stroke-linejoin:round;stroke-width:2px"></path><path d="M164.14,281s2.25,5.41,5,6.76,7.21,2.92,7-.45-2-4.28-2-6.08" style="fill:none;stroke:#263238;stroke-linecap:round;stroke-linejoin:round;stroke-width:2px"></path><path d="M167.29,272.88s-.22,6.53,0,8.33,5.18,7,6.08,7.43" style="fill:none;stroke:#263238;stroke-linecap:round;stroke-linejoin:round;stroke-width:2px"></path><path d="M162.56,262.29s.45-7,2.48-9.68" style="fill:none;stroke:#263238;stroke-linecap:round;stroke-linejoin:round;stroke-width:2px"></path><path d="M172.24,242.26s-7.65,5.62-6.52,6.3,11.93,2.7,14.18,1.58,2-2.48,2-2.48" style="fill:none;stroke:#263238;stroke-linecap:round;stroke-linejoin:round;stroke-width:2px"></path><path d="M170.89,242.93s9.69,4.28,12.16,15.09" style="fill:none;stroke:#263238;stroke-linecap:round;stroke-linejoin:round;stroke-width:2px"></path><polygon points="160.76 280.76 151.76 273.55 156.93 281.21 160.76 280.76" style="fill:#263238;stroke:#263238;stroke-linecap:round;stroke-linejoin:round"></polygon><path d="M152.21,263.42s-2-6.53-4.73-4.73a5.3,5.3,0,0,0-1.13,7.88c2,2.7,5.63,1.8,5.63,1.8" style="fill:#fff;stroke:#263238;stroke-linecap:round;stroke-linejoin:round"></path><path d="M89.84,298.32s-25.67,28.82-27.25,33.77,18.69,22.29,20.49,21.84S102,326.69,102,326.69,85.11,313.63,89.84,298.32Z" style="fill:#757575;stroke:#263238;stroke-linecap:round;stroke-linejoin:round"></path><path d="M91,300.8s-5.63,7.88-6.08,13.73-1.35,28.37-1.35,28.37l-4.72,7.66s-6.31,2.92-6.76,4.27,2,1.8,2,1.8a30.86,30.86,0,0,1,3.6-2.47c.67-.23-.68,4-2,5.4s-1.8,3.15-.9,3.15a5,5,0,0,0,3.6-2.47,39.62,39.62,0,0,1,2.71-3.83l-1.58,7s.45,2,1.8.9a6.44,6.44,0,0,0,1.8-2.25s2,2,3.38.22,2.48-4.27,3.15-4.95,1.8-1.58,1.8-1.58.23,2.26,1.13,2.48,2.7,1.35,2.7-1.12-1.12-1.58-.67-5.86A18.33,18.33,0,0,0,93,342.68s5.4-20.94,6.08-23.2,2.25-6.08,2.25-6.08Z" style="fill:#fff;stroke:#263238;stroke-linecap:round;stroke-linejoin:round"></path><line x1="83.08" y1="362.04" x2="86.24" y2="355.96" style="fill:none;stroke:#263238;stroke-linecap:round;stroke-linejoin:round"></line><path d="M138,265l-11,2.47S101.32,285.94,99.52,288s-9.91,12.39-9.91,12.39,4.28,11.25,7.21,14a14.32,14.32,0,0,0,5.63,3.37s14.86-8.78,21.84-11.71,12.61-12.38,13.51-15.53" style="fill:#263238;stroke:#263238;stroke-linecap:round;stroke-linejoin:round"></path><line x1="121.81" y1="342.22" x2="131.72" y2="336.37" style="fill:none;stroke:#696969;stroke-linecap:round;stroke-linejoin:round"></line><line x1="76.1" y1="365.42" x2="38.5" y2="403.02" style="fill:none;stroke:#696969;stroke-linecap:round;stroke-linejoin:round"></line><polygon points="140.05 262.07 136.67 266.35 141.17 296.07 150.63 292.69 144.1 273.33 140.05 262.07" style="fill:#fff;stroke:#263238;stroke-linecap:round;stroke-linejoin:round"></polygon></g><g id="freepik--character-2--inject-127"><path d="M234.22,314.05l9.22-1.11s7.56-2.21,11.25-1.1a140.39,140.39,0,0,0,18.82,3c2.21,0,5,.18,5,.18l-1.11,5.35-1.29,2.22s-3.32-.56-11.44,1.1-14.2,2.58-17.15,2.22a68.42,68.42,0,0,1-7.75-1.11c-.92-.37-12.72.37-12.72.37Z" style="fill:#fff;stroke:#263238;stroke-linecap:round;stroke-linejoin:round"></path><path d="M234.22,314.05l9.22-1.11s5.94-1.73,9.86-1.36c-1.55,2.65-4.19,8.19-2.85,13.54.07.26.12.5.19.75a17,17,0,0,1-3.14,0,68.78,68.78,0,0,1-7.75-1.11c-.92-.37-12.72.37-12.72.37Z" style="fill:#fff;stroke:#263238;stroke-linecap:round;stroke-linejoin:round"></path><path d="M227,325.12l7.19-11.07,9.22-1.11.5-.13c-.76,2.39-3.15,9.55-5.29,11.39l-.54.45C234.64,324.64,227,325.12,227,325.12Z" style="fill:#263238;stroke:#263238;stroke-linecap:round;stroke-linejoin:round"></path><path d="M190.07,302.81s-9.31,2-15,15.38-6.08,24.69-4.86,31.16,8.09,8.91,10.52,8.5,20.24-4.05,21.45-4.05,9.72-17,9.31-27.11-7.68-21.95-10.32-23.52S194.12,299.57,190.07,302.81Z" style="fill:#FFB847;stroke:#263238;stroke-linecap:round;stroke-linejoin:round"></path><path d="M216.7,306.3s14.94,5,16.41,5.91,2.22,1.47,2.22,1.47-2.77,7.93-6.46,12-4.8,5.17-4.8,5.17l-4.61-3.51Z" style="fill:#FFB847;stroke:#263238;stroke-linecap:round;stroke-linejoin:round"></path><path d="M218.36,378.79s8.11,17.71,9.77,27.12-3.69,15.31-7.38,16.41-20.29,1.48-23.05,1.11a85.15,85.15,0,0,0-17.34.74,99.87,99.87,0,0,0-13.46,2.76c-3.88,1.11-8.86.93-10.33,0s-3.14-2.39-3-4.79,6.09-5,7.94-7.2,6.08-6.08,10.14-6.27,7.93,3.69,10.15,5.17,9.59-.37,14.38-3.14,7.56-4.06,7.56-4.06l-13.83-19s-10.33-3.51-14.57-13.84-3.87-14.2-3.14-17,5.17-4.79,15.5-2.95,22.32,5,26.19,11.07S218.36,378.79,218.36,378.79Z" style="fill:#fff;stroke:#263238;stroke-linecap:round;stroke-linejoin:round"></path><path d="M203.78,406.64s7.57,3.69,8.86,4.25" style="fill:none;stroke:#263238;stroke-linecap:round;stroke-linejoin:round"></path><path d="M180.36,424.17c-1.33.2-2.54.39-3.66.58,1.7-1.29,4.46-4,4.58-7.78a10.74,10.74,0,0,0-.52-3.91c.39.29.75.56,1.08.78,2,1.32,8.14,0,12.84-2.33A11.27,11.27,0,0,1,197,423.36,90.16,90.16,0,0,0,180.36,424.17Z" style="fill:none;stroke:#263238;stroke-linecap:round;stroke-linejoin:round"></path><path d="M161.55,414.94c1.7-2,5.45-5.49,9.21-6.16l-.18.26a5.24,5.24,0,0,1,5.54,4.8c.74,5.16-5.9,10-9.41,11.25-2.56.94-4.54,2.67-7.43,2.52a11.62,11.62,0,0,1-1.36-.2l-.42-.1-.06,0-.58-.2a1.57,1.57,0,0,1-.29-.16c-1.48-.92-3.14-2.39-3-4.79S159.7,417.16,161.55,414.94Z" style="fill:none;stroke:#263238;stroke-linecap:round;stroke-linejoin:round"></path><circle cx="171.23" cy="418.54" r="1.01" style="fill:none;stroke:#263238;stroke-linecap:round;stroke-linejoin:round"></circle><path d="M166.34,412.09a1,1,0,1,0,1-1A1,1,0,0,0,166.34,412.09Z" style="fill:none;stroke:#263238;stroke-linecap:round;stroke-linejoin:round"></path><path d="M157.21,419.09a1,1,0,1,0,2,0,1,1,0,0,0-2,0Z" style="fill:none;stroke:#263238;stroke-linecap:round;stroke-linejoin:round"></path><path d="M160.9,424.26a1,1,0,0,0,2,0,1,1,0,1,0-2,0Z" style="fill:none;stroke:#263238;stroke-linecap:round;stroke-linejoin:round"></path><path d="M220,307.23s2.95,12.35,2.76,20.65-6.27,15.5-6.27,15.5,1.29,7.38,1.48,7.93-18.08,10-22,10.14-6.83,0-8.49-1.66-8.11-2-9.22-1.47-5.72,4.24-7.75,2.58-3.68-9-1.66-12.17,6.83-3.88,10.15-3.32,8.85,1.47,10,1.29,3.32-7,6.64-9.22,6.64-6.09,5.9-11.62-8.48-16.24-10.14-18.27-7.75-3.13-7.75-3.13,2.58-3.87,5.9-5a13,13,0,0,1,5-.92s11.25.73,16.42,2S220,307.23,220,307.23Z" style="fill:#263238;stroke:#263238;stroke-linecap:round;stroke-linejoin:round"></path><path d="M223.52,282a31.43,31.43,0,0,1,.92,4.24,16.93,16.93,0,0,1-.55,2.95l2.58,4.61s-2.76,3.51-2.76,4.24-1.66,9.41-2.77,9.78-6.27-1.11-6.27-1.11,1.29,7.75-.92,10.15-4.43,2.4-7-2.22-3.32-8.3-5.54-11.43-6.64-4.61-6.64-4.61l3.51-1.85-.93-7.56s2.59-1.66,6.09-3.69,12-3.32,14.76-3.32S223.52,282,223.52,282Z" style="fill:#fff;stroke:#263238;stroke-linecap:round;stroke-linejoin:round"></path><path d="M215.22,288.6c-1.84,1.47-3.13-1.29-3.87-2.59s-5.9-.55-5.72,2,3.14,4.43,3.14,4.43a17.45,17.45,0,0,1-6.65,4.24,5.83,5.83,0,0,1-4.12,0l.07,0-.93-7.56s2.59-1.66,6.09-3.69,12-3.32,14.76-3.32l-1.29,1.11S217.07,287.12,215.22,288.6Z" style="fill:#263238;stroke:#263238;stroke-linecap:round;stroke-linejoin:round"></path><line x1="214.67" y1="306.67" x2="210.06" y2="311.84" style="fill:none;stroke:#263238;stroke-linecap:round;stroke-linejoin:round"></line><path d="M223.52,273.47l-.74,11.62,11.93.17a1.14,1.14,0,0,0,1.11-1.48c-.7-2.3-2.25-6.66-4.37-8.65C228.5,272.36,223.52,273.47,223.52,273.47Z" style="fill:none;stroke:#263238;stroke-linecap:round;stroke-linejoin:round;stroke-width:2px"></path><line x1="234.4" y1="279.56" x2="223.15" y2="279.37" style="fill:none;stroke:#263238;stroke-linecap:round;stroke-linejoin:round;stroke-width:2px"></line><polyline points="229.06 274.21 228.87 284.91 227.95 294.87" style="fill:none;stroke:#263238;stroke-linecap:round;stroke-linejoin:round;stroke-width:2px"></polyline><path d="M222.78,285.09s-1.63,5.07.18,8a1.78,1.78,0,0,1,.25,1.23l-2.57,14.12a1.7,1.7,0,0,0,1.07,1.9l4.88,1.86a1.72,1.72,0,0,0,2.19-.92l5.1-11.95a1.71,1.71,0,0,0-1-2.28l-9.54-3.44" style="fill:none;stroke:#263238;stroke-linecap:round;stroke-linejoin:round;stroke-width:2px"></path><path d="M223.34,293.58s-3.88-1.48-4.25,5.9,1.11,9.59,1.11,9.59a11.09,11.09,0,0,0,3.32,6.09c2.77,2.4,5,1.29,4.61-2.4" style="fill:none;stroke:#263238;stroke-linecap:round;stroke-linejoin:round;stroke-width:2px"></path><line x1="231.08" y1="305.57" x2="222.41" y2="302.43" style="fill:none;stroke:#263238;stroke-linecap:round;stroke-linejoin:round;stroke-width:2px"></line><polyline points="226.29 304.09 223.89 310.92 225.73 315.89" style="fill:none;stroke:#263238;stroke-linecap:round;stroke-linejoin:round;stroke-width:2px"></polyline><path d="M224.26,273.84s-6.83-5.53-13.28-5-12.36,5.16-13.1,7.75,0,6.45,0,6.45-12,5.54-10.33,7,6.83,1.66,10.89,1.66,9.59-5,9.59-5l1.66-1.1s12.36-.56,13.09-.56Z" style="fill:#FFB847;stroke:#263238;stroke-linecap:round;stroke-linejoin:round"></path><path d="M210.82,285.59l-3-2.34-10.08-.95c.07.47.12.76.12.76s-12,5.54-10.33,7,6.83,1.66,10.89,1.66,9.59-5,9.59-5l1.66-1.1Z" style="fill:#fff;stroke:#263238;stroke-linecap:round;stroke-linejoin:round"></path><path d="M208,270a22.19,22.19,0,0,1,2.21,13.28h-2.4s1.29-10.15-3-12.73Z" style="fill:#263238;stroke:#263238;stroke-linecap:round;stroke-linejoin:round"></path><path d="M197.88,280.67s12.91,3.32,24.72.73l-.19,2s-16.41,3.32-24.53-.37Z" style="fill:#263238;stroke:#263238;stroke-linecap:round;stroke-linejoin:round"></path><path d="M241.41,411.07a23.33,23.33,0,0,0,4.8,5.35c2.4,1.66,7.93,2.77,9.22,5.16s-.92,3-7.75,3.88-18.26-2.22-21.21-2.77-6.27-.74-5-5.53a16.4,16.4,0,0,1,3.51-7S233.85,407.38,241.41,411.07Z" style="fill:#fff;stroke:#263238;stroke-linecap:round;stroke-linejoin:round"></path><path d="M221.49,417.16c0-.08,0-.15.07-.23,4.75,2.13,15.18,6.17,20.41,6.31a95.33,95.33,0,0,0,13.76-.91c.42,1.78-2,2.31-8,3.13-6.82.92-18.26-2.22-21.21-2.77S220.2,422,221.49,417.16Z" style="fill:#fff;stroke:#263238;stroke-linecap:round;stroke-linejoin:round"></path><path d="M183.13,370.12s4.24-7.74,22.31-14.57a109.68,109.68,0,0,1,35.42-7.19c3.32-.19,10.51,7.74,11.07,13.65S245.1,395.58,244,401.3s-2.21,11.8-2.58,12.35-4.06-.73-4.06-.73a4.86,4.86,0,0,1-2.39.73c-1.29,0-2.4-2-2.4-2s-3.14,2.4-5.35,1.66-3.69-.73-3.69-2.58,1.29-3.87,3.32-7,3.14-13.09,3.51-18.07,1.84-13.84,1.84-13.84-13.28,13.47-26.38,15.68-21.76.92-26.56-7.19" style="fill:#fff;stroke:#263238;stroke-linecap:round;stroke-linejoin:round"></path><path d="M240.49,357.21s-6.27,3.32-11.07.55-3.5-7.74,1.11-9.22,9.22-1.29,11.25-.37S244.36,355.18,240.49,357.21Z" style="fill:#FFB847;stroke:#263238;stroke-linecap:round;stroke-linejoin:round"></path><path d="M232.19,371.78s2-8.11,4.24-12" style="fill:#fff;stroke:#263238;stroke-linecap:round;stroke-linejoin:round"></path><path d="M243.07,359.24s-3.5,7.75-2.95,12,5.9,5.16,7.75,4.61,2.77-1.66,3.69-6.64.92-9.22-.37-10.7S243.63,358,243.07,359.24Z" style="fill:#FFB847;stroke:#263238;stroke-linecap:round;stroke-linejoin:round"></path><path d="M244.55,346.88s5.35,6.09,7,10-3.32,8.12-5.54,6.83-7.56-9-6.82-13.1S242.7,345.59,244.55,346.88Z" style="fill:#FFB847;stroke:#263238;stroke-linecap:round;stroke-linejoin:round"></path><polygon points="242.7 374.55 232.38 372.71 231.82 375.66 242.15 377.69 242.7 374.55" style="fill:#263238;stroke:#263238;stroke-linecap:round;stroke-linejoin:round"></polygon><polygon points="236.99 398.16 229.06 397.05 228.13 401.11 236.25 402.95 236.99 398.16" style="fill:#263238;stroke:#263238;stroke-linecap:round;stroke-linejoin:round"></polygon><path d="M237,389.67c3.13-11.62,5-16,6.27-18.62,1.16-2.34,6.37-1.81,7.92-1.82-1.83,10.49-6.34,27.69-7.19,32.07-1.1,5.71-2.21,11.8-2.58,12.35s-4.06-.73-4.06-.73C235.69,411.26,233.85,401.3,237,389.67Z" style="fill:#FFB847;stroke:#263238;stroke-linecap:round;stroke-linejoin:round"></path><path d="M273.83,322.82s-1.87,0,.21-6.05,5-6.88,10.85-8.14,14.18,5.22,17.31,8.77-.21,2.71-2.5,6.46.21,5.84-4.8,7.3-9.18-1.87-14.81-4.17S273.83,322.82,273.83,322.82Z" style="fill:#263238;stroke:#263238;stroke-linecap:round;stroke-linejoin:round"></path><path d="M182.39,340.06l-2,5.35a35.46,35.46,0,0,0,3.5,7.93c2.59,4.42,8.86,12.54,10,13.09s9,4.43,9.78,5.17,1.48,3.87,1.48,4.43-1.66,1.66-3.14,2.21a18.42,18.42,0,0,1-4.61.92c-.74,0-2.21.19-2.77-.37s-1.1.19-2.58-2.4-2.77-4.61-2.95-5.16-6.46-7-12.91-13.83-10.33-14.76-10.33-16.79,3.87-7.93,3.87-7.93S181.84,337.84,182.39,340.06Z" style="fill:#fff;stroke:#263238;stroke-linecap:round;stroke-linejoin:round"></path><path d="M169.66,332.68s12.18,5.16,12.73,7.38l-2,5.35.14.49c-2.05-1.44-9-5.76-13.41-1.44a11.69,11.69,0,0,1-1.3-3.85C165.79,338.58,169.66,332.68,169.66,332.68Z" style="fill:#263238;stroke:#263238;stroke-linecap:round;stroke-linejoin:round"></path><path d="M202.68,377.5a31.62,31.62,0,0,0-.92-4.24" style="fill:#fff;stroke:#263238;stroke-linecap:round;stroke-linejoin:round"></path><line x1="200.28" y1="378.79" x2="199.17" y2="374.18" style="fill:#fff;stroke:#263238;stroke-linecap:round;stroke-linejoin:round"></line><path d="M197.33,379.16a16.93,16.93,0,0,0-.92-4.06" style="fill:#fff;stroke:#263238;stroke-linecap:round;stroke-linejoin:round"></path><path d="M191.24,315.89s2.58,5.35.56,10.52-6.09,17-6.09,17-5.53-3.14-9.59-5.9a29.75,29.75,0,0,0-8.67-3.88s4.43-15.12,9.59-22,6.27-9.22,13.28-5.16" style="fill:#FFB847;stroke:#263238;stroke-linecap:round;stroke-linejoin:round"></path></g></svg>