<svg xmlns="http://www.w3.org/2000/svg" viewBox="0 0 721.5 430.44"><g id="freepik--background-simple--inject-46"><g><path d="M712.25,234.52c4.21-83.11-41.86-159.85-114.16-193.71C572.83,29,544.15,19,517.9,18.08c-67.52-2.42-151.93,29-206.4,40.34S174.92,23.72,112,40.67-20.68,155.62,5.75,261.73,99.63,417.45,167.92,423.9s147.35-58.72,203-49.53,72.54,58.41,181.5,56,153.46-100.05,159.6-192C712.11,237.06,712.19,235.79,712.25,234.52Z" style="fill:#FFB847"></path><path d="M712.25,234.52c4.21-83.11-41.86-159.85-114.16-193.71C572.83,29,544.15,19,517.9,18.08c-67.52-2.42-151.93,29-206.4,40.34S174.92,23.72,112,40.67-20.68,155.62,5.75,261.73,99.63,417.45,167.92,423.9s147.35-58.72,203-49.53,72.54,58.41,181.5,56,153.46-100.05,159.6-192C712.11,237.06,712.19,235.79,712.25,234.52Z" style="fill:#fff;opacity: 0.8"></path></g></g><g id="freepik--Mountains--inject-46"><g><polyline points="5.78 273.77 224.38 104.08 463.5 286.83" style="fill: none;stroke: #263238;stroke-miterlimit: 10"></polyline><polyline points="343.94 195.45 515.15 99.95 692.01 253.85 713.94 238.74" style="fill: none;stroke: #263238;stroke-miterlimit: 10"></polyline><polyline points="181.23 137.74 199.62 134.31 196.09 150.79 214.48 137.74 217.31 150.11 232.16 128.12 244.87 135.71 242.71 127.58 264.85 135.1" style="fill: none;stroke: #263238;stroke-miterlimit: 10"></polyline><path d="M480.73,118.8,468.5,135.1l21.62-10.77s-2.28,22.92-2.28,23.75,13.66-12.15,13.66-12.15l5.12,6.9,7.68-10.49,1.42,6.35,5.4-4.14,15.93,23.2,2.46-25.84,8.07,4,1.7-6.08" style="fill: none;stroke: #263238;stroke-miterlimit: 10"></path></g></g><g id="freepik--Clouds--inject-46"><g><path d="M456.62,75.52s2.78-17.26-15-21.16S416,68.84,411,72.74s-7.8-8.91-18.38-5.57-13.37,11.14-16.15,11.69-3.34-7.79-13.92-4.45-16.15,9.47-16.15,9.47H486.13s-3.89-7.8-11.13-11.14S461.63,81.65,456.62,75.52Z" style="fill: none;stroke: #263238;stroke-miterlimit: 10"></path><path d="M199.75,51.79s1.6-9.91-8.63-12.15S176.4,48,173.52,50.19,169.05,45.07,163,47s-7.68,6.4-9.28,6.72-1.92-4.48-8-2.56a22.47,22.47,0,0,0-9.28,5.44h80.29s-2.24-4.48-6.4-6.4S202.63,55.31,199.75,51.79Z" style="fill: none;stroke: #263238;stroke-miterlimit: 10"></path><path d="M387.88,127.53s1.6-9.92-8.64-12.16-14.71,8.32-17.59,10.56-4.48-5.12-10.56-3.2-7.67,6.4-9.27,6.72-1.92-4.48-8-2.56a22.52,22.52,0,0,0-9.28,5.43h80.29s-2.24-4.47-6.4-6.39S390.76,131,387.88,127.53Z" style="fill: none;stroke: #263238;stroke-miterlimit: 10"></path><path d="M604.66,26.13S606.26,16.22,596,14s-14.72,8.31-17.6,10.55-4.48-5.12-10.55-3.2-7.68,6.4-9.28,6.72-1.92-4.48-8-2.56a22.48,22.48,0,0,0-9.27,5.44h80.29s-2.24-4.48-6.4-6.4S607.54,29.65,604.66,26.13Z" style="fill: none;stroke: #263238;stroke-miterlimit: 10"></path></g></g><g id="freepik--Trees--inject-46"><g><path d="M611.41,228.33c0,38.61-22.84,69.91-51,69.91s-51-31.3-51-69.91S532.22,57,560.39,57,611.41,189.72,611.41,228.33Z" style="fill:#FFB847"></path><path d="M611.41,228.33c0,38.61-22.84,69.91-51,69.91s-51-31.3-51-69.91S532.22,57,560.39,57,611.41,189.72,611.41,228.33Z" style="fill:#fff;opacity: 0.5"></path><polygon points="532.84 231.8 549.11 237.47 557.17 248.43 555.76 281.98 546.38 275.62 555.47 288.92 553.86 408.48 563.08 408.48 561.98 263.43 589 248.53 573.55 254.24 576.65 244.94 569.27 255.83 561.89 258.56 561.37 228.02 588.2 192.37 573.82 206.75 576.25 196.75 569.37 211.19 561.22 219.35 560.39 171.64 557.47 241.22 532.04 214.27 546.01 233.26 532.84 231.8" style="fill:#999"></polygon><g><path d="M588.46,171.8s.47,4.68-2.09,8.12-7.19,4.34-7.19,4.34-.47-4.69,2.09-8.13S588.46,171.8,588.46,171.8Z" style="fill:#fff"></path><path d="M603.84,193.4s.47,4.69-2.09,8.13-7.19,4.33-7.19,4.33-.47-4.69,2.09-8.13S603.84,193.4,603.84,193.4Z" style="fill:#fff"></path><path d="M603.83,235.46s-1.13,4.57-4.7,6.95-8.23,1.66-8.23,1.66,1.13-4.57,4.7-6.95S603.83,235.46,603.83,235.46Z" style="fill:#fff"></path><path d="M519.39,235.46s1.13,4.57,4.7,6.95,8.23,1.66,8.23,1.66-1.14-4.57-4.71-6.95S519.39,235.46,519.39,235.46Z" style="fill:#fff"></path><path d="M586.07,218s.47,4.69-2.09,8.13-7.19,4.33-7.19,4.33-.47-4.69,2.09-8.13S586.07,218,586.07,218Z" style="fill:#fff"></path><path d="M582.09,148.29s.47,4.69-2.09,8.13-7.19,4.33-7.19,4.33-.47-4.68,2.09-8.12S582.09,148.29,582.09,148.29Z" style="fill:#fff"></path><path d="M572.93,166.22s.47,4.69-2.09,8.13-7.19,4.33-7.19,4.33-.47-4.69,2.09-8.13S572.93,166.22,572.93,166.22Z" style="fill:#fff"></path><path d="M594.67,153.17s.48,4.68-2.09,8.13-7.18,4.33-7.18,4.33-.47-4.69,2.09-8.13S594.67,153.17,594.67,153.17Z" style="fill:#fff"></path><path d="M524,153.17s-.47,4.68,2.09,8.13,7.19,4.33,7.19,4.33.47-4.69-2.09-8.13S524,153.17,524,153.17Z" style="fill:#fff"></path><path d="M584.08,126.39s.47,4.68-2.09,8.12-7.19,4.34-7.19,4.34-.47-4.69,2.09-8.13S584.08,126.39,584.08,126.39Z" style="fill:#fff"></path><path d="M579.58,103.11s1.63,4.42,0,8.4-5.87,6-5.87,6-1.64-4.42,0-8.4S579.58,103.11,579.58,103.11Z" style="fill:#fff"></path><path d="M547.32,97s4.17,2.19,5.63,6.22-.34,8.39-.34,8.39-4.17-2.19-5.63-6.22S547.32,97,547.32,97Z" style="fill:#fff"></path><path d="M562.36,124.86s3,3.66,2.73,7.94-3.62,7.57-3.62,7.57-3-3.65-2.73-7.94S562.36,124.86,562.36,124.86Z" style="fill:#fff"></path><path d="M561.56,83.44s3,3.65,2.73,7.93S560.67,99,560.67,99s-3-3.66-2.73-7.94S561.56,83.44,561.56,83.44Z" style="fill:#fff"></path><path d="M527.8,171.8s-.47,4.68,2.09,8.12,7.19,4.34,7.19,4.34.47-4.69-2.09-8.13S527.8,171.8,527.8,171.8Z" style="fill:#fff"></path><path d="M519,197.29s-.48,4.68,2.09,8.13,7.18,4.33,7.18,4.33.48-4.69-2.09-8.13S519,197.29,519,197.29Z" style="fill:#fff"></path><path d="M542.3,206.54s-.47,4.69,2.09,8.13,7.18,4.33,7.18,4.33.48-4.68-2.09-8.12S542.3,206.54,542.3,206.54Z" style="fill:#fff"></path><path d="M548.66,171.22s-1.8,4.36-.33,8.39,5.65,6.21,5.65,6.21,1.79-4.36.32-8.39S548.66,171.22,548.66,171.22Z" style="fill:#fff"></path><path d="M532.19,265.21s4.71.09,7.92-2.75,3.73-7.51,3.73-7.51-4.71-.09-7.93,2.75S532.19,265.21,532.19,265.21Z" style="fill:#fff"></path><path d="M577.38,260.06s1.28,4.54,4.92,6.8,8.28,1.39,8.28,1.39-1.28-4.53-4.92-6.79S577.38,260.06,577.38,260.06Z" style="fill:#fff"></path><path d="M537.44,148.29s-.47,4.69,2.09,8.13,7.19,4.33,7.19,4.33.47-4.68-2.09-8.12S537.44,148.29,537.44,148.29Z" style="fill:#fff"></path><path d="M537.36,127.58s-.47,4.69,2.09,8.13,7.19,4.33,7.19,4.33.47-4.69-2.09-8.13S537.36,127.58,537.36,127.58Z" style="fill:#fff"></path></g></g><g><path d="M137.39,202.8c0,44.08-26.08,79.82-58.25,79.82S20.9,246.88,20.9,202.8,47,7.2,79.14,7.2,137.39,158.71,137.39,202.8Z" style="fill:#FFB847"></path><path d="M137.39,202.8c0,44.08-26.08,79.82-58.25,79.82S20.9,246.88,20.9,202.8,47,7.2,79.14,7.2,137.39,158.71,137.39,202.8Z" style="fill:#fff;opacity: 0.5"></path><polygon points="47.68 206.76 66.26 213.24 75.46 225.75 73.85 264.05 63.14 256.78 73.52 271.98 71.68 408.48 82.21 408.48 80.95 242.87 111.8 225.86 94.17 232.38 97.7 221.77 89.27 234.19 80.85 237.31 80.25 202.44 110.89 161.74 94.47 178.16 97.25 166.74 89.39 183.23 80.08 192.55 79.14 138.08 75.8 217.52 46.77 186.75 62.72 208.43 47.68 206.76" style="fill:#999"></polygon><g><path d="M111.19,138.25s.53,5.35-2.39,9.28-8.21,4.95-8.21,4.95-.54-5.35,2.39-9.28S111.19,138.25,111.19,138.25Z" style="fill:#fff"></path><path d="M128.74,162.92s.54,5.35-2.39,9.28-8.2,4.94-8.2,4.94-.54-5.35,2.38-9.28S128.74,162.92,128.74,162.92Z" style="fill:#fff"></path><path d="M128.73,210.94s-1.29,5.22-5.37,7.93-9.39,1.9-9.39,1.9,1.29-5.22,5.37-7.94S128.73,210.94,128.73,210.94Z" style="fill:#fff"></path><path d="M32.32,210.94s1.29,5.22,5.37,7.93,9.39,1.9,9.39,1.9-1.29-5.22-5.37-7.94S32.32,210.94,32.32,210.94Z" style="fill:#fff"></path><path d="M108.46,191s.54,5.36-2.39,9.28-8.21,4.95-8.21,4.95-.53-5.35,2.39-9.28S108.46,191,108.46,191Z" style="fill:#fff"></path><path d="M103.91,111.42s.54,5.35-2.39,9.28-8.2,4.94-8.2,4.94-.54-5.35,2.38-9.28S103.91,111.42,103.91,111.42Z" style="fill:#fff"></path><path d="M93.45,131.88s.54,5.35-2.39,9.28-8.2,5-8.2,5-.54-5.35,2.38-9.28S93.45,131.88,93.45,131.88Z" style="fill:#fff"></path><path d="M118.28,117s.54,5.35-2.39,9.28-8.2,5-8.2,5-.54-5.35,2.38-9.28S118.28,117,118.28,117Z" style="fill:#fff"></path><path d="M37.59,117s-.54,5.35,2.39,9.28,8.2,5,8.2,5,.54-5.35-2.38-9.28S37.59,117,37.59,117Z" style="fill:#fff"></path><path d="M106.18,86.41s.54,5.35-2.38,9.28-8.21,4.94-8.21,4.94-.54-5.35,2.39-9.28S106.18,86.41,106.18,86.41Z" style="fill:#fff"></path><path d="M101,59.84s1.87,5,0,9.58-6.7,6.85-6.7,6.85-1.86-5,0-9.59S101,59.84,101,59.84Z" style="fill:#fff"></path><path d="M64.21,52.89S69,55.39,70.64,60s-.38,9.58-.38,9.58-4.77-2.5-6.44-7.1S64.21,52.89,64.21,52.89Z" style="fill:#fff"></path><path d="M81.39,84.66s3.39,4.18,3.11,9.07-4.13,8.64-4.13,8.64S77,98.2,77.25,93.31,81.39,84.66,81.39,84.66Z" style="fill:#fff"></path><path d="M80.48,37.37s3.39,4.17,3.11,9.06-4.13,8.65-4.13,8.65S76.06,50.9,76.35,46,80.48,37.37,80.48,37.37Z" style="fill:#fff"></path><path d="M41.93,138.25s-.54,5.35,2.38,9.28,8.21,4.95,8.21,4.95.54-5.35-2.39-9.28S41.93,138.25,41.93,138.25Z" style="fill:#fff"></path><path d="M31.92,167.36s-.54,5.35,2.39,9.28,8.2,4.94,8.2,4.94.54-5.35-2.38-9.28S31.92,167.36,31.92,167.36Z" style="fill:#fff"></path><path d="M58.48,177.92s-.54,5.35,2.39,9.28,8.2,5,8.2,5,.54-5.35-2.38-9.28S58.48,177.92,58.48,177.92Z" style="fill:#fff"></path><path d="M65.74,137.59s-2,5-.37,9.58,6.45,7.09,6.45,7.09,2-5,.37-9.58S65.74,137.59,65.74,137.59Z" style="fill:#fff"></path><path d="M46.93,244.91s5.38.1,9.06-3.14,4.25-8.58,4.25-8.58-5.37-.1-9.05,3.14S46.93,244.91,46.93,244.91Z" style="fill:#fff"></path><path d="M98.54,239s1.46,5.17,5.62,7.76,9.45,1.59,9.45,1.59-1.46-5.18-5.63-7.76S98.54,239,98.54,239Z" style="fill:#fff"></path><path d="M52.93,111.42s-.53,5.35,2.39,9.28,8.21,4.94,8.21,4.94.53-5.35-2.39-9.28S52.93,111.42,52.93,111.42Z" style="fill:#fff"></path><path d="M52.84,87.77s-.54,5.35,2.39,9.28,8.2,5,8.2,5,.54-5.36-2.38-9.28S52.84,87.77,52.84,87.77Z" style="fill:#fff"></path></g></g><g><path d="M330.36,228.33c0,38.61-22.84,69.91-51,69.91s-51-31.3-51-69.91S251.17,57,279.35,57,330.36,189.72,330.36,228.33Z" style="fill:#FFB847"></path><path d="M330.36,228.33c0,38.61-22.84,69.91-51,69.91s-51-31.3-51-69.91S251.17,57,279.35,57,330.36,189.72,330.36,228.33Z" style="fill:#fff;opacity: 0.5"></path><polygon points="251.79 231.8 268.06 237.47 276.12 248.43 274.71 281.98 265.33 275.62 274.42 288.92 272.81 408.48 282.03 408.48 280.93 263.43 307.95 248.53 292.51 254.24 295.61 244.94 288.22 255.83 280.85 258.56 280.32 228.02 307.16 192.37 292.77 206.75 295.21 196.75 288.33 211.19 280.17 219.35 279.35 171.64 276.43 241.22 250.99 214.27 264.96 233.26 251.79 231.8" style="fill:#999"></polygon><g><path d="M307.41,171.8s.48,4.68-2.09,8.12-7.18,4.34-7.18,4.34-.47-4.69,2.09-8.13S307.41,171.8,307.41,171.8Z" style="fill:#fff"></path><path d="M322.79,193.4s.47,4.69-2.09,8.13-7.19,4.33-7.19,4.33-.47-4.69,2.09-8.13S322.79,193.4,322.79,193.4Z" style="fill:#fff"></path><path d="M322.78,235.46s-1.13,4.57-4.7,6.95-8.23,1.66-8.23,1.66,1.14-4.57,4.71-6.95S322.78,235.46,322.78,235.46Z" style="fill:#fff"></path><path d="M238.34,235.46s1.13,4.57,4.7,6.95,8.23,1.66,8.23,1.66-1.13-4.57-4.7-6.95S238.34,235.46,238.34,235.46Z" style="fill:#fff"></path><path d="M305,218s.48,4.69-2.09,8.13-7.18,4.33-7.18,4.33-.47-4.69,2.09-8.13S305,218,305,218Z" style="fill:#fff"></path><path d="M301,148.29s.47,4.69-2.09,8.13-7.19,4.33-7.19,4.33-.47-4.68,2.09-8.12S301,148.29,301,148.29Z" style="fill:#fff"></path><path d="M291.88,166.22s.47,4.69-2.09,8.13-7.19,4.33-7.19,4.33-.47-4.69,2.09-8.13S291.88,166.22,291.88,166.22Z" style="fill:#fff"></path><path d="M313.63,153.17s.47,4.68-2.09,8.13-7.19,4.33-7.19,4.33-.47-4.69,2.09-8.13S313.63,153.17,313.63,153.17Z" style="fill:#fff"></path><path d="M243,153.17s-.47,4.68,2.09,8.13,7.19,4.33,7.19,4.33.47-4.69-2.09-8.13S243,153.17,243,153.17Z" style="fill:#fff"></path><path d="M303,126.39s.48,4.68-2.09,8.12-7.18,4.34-7.18,4.34-.48-4.69,2.09-8.13S303,126.39,303,126.39Z" style="fill:#fff"></path><path d="M298.53,103.11s1.64,4.42,0,8.4-5.87,6-5.87,6-1.63-4.42,0-8.4S298.53,103.11,298.53,103.11Z" style="fill:#fff"></path><path d="M266.27,97s4.17,2.19,5.64,6.22-.34,8.39-.34,8.39-4.18-2.19-5.64-6.22S266.27,97,266.27,97Z" style="fill:#fff"></path><path d="M281.31,124.86s3,3.66,2.73,7.94-3.62,7.57-3.62,7.57-3-3.65-2.72-7.94S281.31,124.86,281.31,124.86Z" style="fill:#fff"></path><path d="M280.52,83.44s3,3.65,2.72,7.93S279.63,99,279.63,99s-3-3.66-2.73-7.94S280.52,83.44,280.52,83.44Z" style="fill:#fff"></path><path d="M246.75,171.8s-.47,4.68,2.09,8.12,7.19,4.34,7.19,4.34.47-4.69-2.09-8.13S246.75,171.8,246.75,171.8Z" style="fill:#fff"></path><path d="M238,197.29s-.47,4.68,2.09,8.13,7.19,4.33,7.19,4.33.47-4.69-2.09-8.13S238,197.29,238,197.29Z" style="fill:#fff"></path><path d="M261.25,206.54s-.47,4.69,2.09,8.13,7.19,4.33,7.19,4.33.47-4.68-2.09-8.12S261.25,206.54,261.25,206.54Z" style="fill:#fff"></path><path d="M267.61,171.22s-1.79,4.36-.32,8.39,5.64,6.21,5.64,6.21,1.8-4.36.33-8.39S267.61,171.22,267.61,171.22Z" style="fill:#fff"></path><path d="M251.14,265.21s4.71.09,7.93-2.75S262.8,255,262.8,255s-4.71-.09-7.93,2.75S251.14,265.21,251.14,265.21Z" style="fill:#fff"></path><path d="M296.34,260.06s1.27,4.54,4.92,6.8,8.27,1.39,8.27,1.39-1.27-4.53-4.92-6.79S296.34,260.06,296.34,260.06Z" style="fill:#fff"></path><path d="M256.39,148.29s-.47,4.69,2.09,8.13,7.19,4.33,7.19,4.33.47-4.68-2.09-8.12S256.39,148.29,256.39,148.29Z" style="fill:#fff"></path><path d="M256.31,127.58s-.47,4.69,2.09,8.13,7.19,4.33,7.19,4.33.47-4.69-2.09-8.13S256.31,127.58,256.31,127.58Z" style="fill:#fff"></path></g></g><g><path d="M708.57,171.31c0,38.61-22.84,69.91-51,69.91s-51-31.3-51-69.91S629.38,0,657.56,0,708.57,132.7,708.57,171.31Z" style="fill:#FFB847"></path><path d="M708.57,171.31c0,38.61-22.84,69.91-51,69.91s-51-31.3-51-69.91S629.38,0,657.56,0,708.57,132.7,708.57,171.31Z" style="fill:#fff;opacity: 0.5"></path><polygon points="630 174.78 646.27 180.46 654.33 191.42 652.92 224.96 643.54 218.6 652.63 231.91 651.02 408.48 660.24 408.48 659.14 206.41 686.16 191.51 670.71 197.23 673.81 187.93 666.43 198.81 659.05 201.54 658.53 171 685.37 135.35 670.98 149.73 673.42 139.73 666.53 154.18 658.38 162.33 657.56 114.63 654.63 184.21 629.2 157.26 643.17 176.25 630 174.78" style="fill:#999"></polygon><g><path d="M685.62,114.78s.47,4.69-2.09,8.13-7.18,4.33-7.18,4.33-.48-4.69,2.09-8.13S685.62,114.78,685.62,114.78Z" style="fill:#fff"></path><path d="M701,136.38s.47,4.69-2.09,8.13-7.19,4.33-7.19,4.33-.47-4.68,2.09-8.13S701,136.38,701,136.38Z" style="fill:#fff"></path><path d="M701,178.44s-1.13,4.58-4.7,6.95-8.23,1.66-8.23,1.66,1.14-4.57,4.71-7S701,178.44,701,178.44Z" style="fill:#fff"></path><path d="M616.55,178.44s1.13,4.58,4.7,6.95,8.23,1.66,8.23,1.66-1.14-4.57-4.71-7S616.55,178.44,616.55,178.44Z" style="fill:#fff"></path><path d="M683.23,161s.47,4.69-2.09,8.13-7.18,4.33-7.18,4.33-.48-4.68,2.09-8.12S683.23,161,683.23,161Z" style="fill:#fff"></path><path d="M679.25,91.28s.47,4.68-2.09,8.13-7.19,4.33-7.19,4.33-.47-4.69,2.09-8.13S679.25,91.28,679.25,91.28Z" style="fill:#fff"></path><path d="M670.09,109.2s.47,4.69-2.09,8.13-7.19,4.33-7.19,4.33-.47-4.68,2.09-8.13S670.09,109.2,670.09,109.2Z" style="fill:#fff"></path><path d="M691.84,96.15s.47,4.69-2.09,8.13-7.19,4.33-7.19,4.33-.47-4.69,2.09-8.13S691.84,96.15,691.84,96.15Z" style="fill:#fff"></path><path d="M621.16,96.15s-.47,4.69,2.09,8.13,7.19,4.33,7.19,4.33.47-4.69-2.09-8.13S621.16,96.15,621.16,96.15Z" style="fill:#fff"></path><path d="M681.24,69.37s.47,4.69-2.09,8.13S672,81.83,672,81.83s-.47-4.69,2.09-8.13S681.24,69.37,681.24,69.37Z" style="fill:#fff"></path><path d="M676.74,46.1s1.63,4.42,0,8.39-5.87,6-5.87,6-1.64-4.42,0-8.39S676.74,46.1,676.74,46.1Z" style="fill:#fff"></path><path d="M644.48,40s4.17,2.18,5.63,6.22-.34,8.38-.34,8.38-4.17-2.18-5.63-6.22S644.48,40,644.48,40Z" style="fill:#fff"></path><path d="M659.52,67.85s3,3.65,2.73,7.93-3.62,7.57-3.62,7.57-3-3.65-2.73-7.93S659.52,67.85,659.52,67.85Z" style="fill:#fff"></path><path d="M658.73,26.42s3,3.65,2.72,7.94-3.62,7.57-3.62,7.57-3-3.66-2.72-7.94S658.73,26.42,658.73,26.42Z" style="fill:#fff"></path><path d="M625,114.78s-.47,4.69,2.09,8.13,7.19,4.33,7.19,4.33.47-4.69-2.09-8.13S625,114.78,625,114.78Z" style="fill:#fff"></path><path d="M616.2,140.27s-.47,4.69,2.09,8.13,7.19,4.33,7.19,4.33.47-4.69-2.09-8.13S616.2,140.27,616.2,140.27Z" style="fill:#fff"></path><path d="M639.46,149.53s-.47,4.68,2.09,8.12,7.19,4.34,7.19,4.34.47-4.69-2.09-8.13S639.46,149.53,639.46,149.53Z" style="fill:#fff"></path><path d="M645.82,114.2s-1.79,4.36-.33,8.39,5.65,6.21,5.65,6.21,1.79-4.36.33-8.39S645.82,114.2,645.82,114.2Z" style="fill:#fff"></path><path d="M629.35,208.2s4.71.08,7.93-2.75,3.73-7.52,3.73-7.52-4.71-.09-7.93,2.75S629.35,208.2,629.35,208.2Z" style="fill:#fff"></path><path d="M674.54,203.05s1.28,4.53,4.93,6.79,8.27,1.4,8.27,1.4-1.28-4.54-4.92-6.8S674.54,203.05,674.54,203.05Z" style="fill:#fff"></path><path d="M634.6,91.28s-.47,4.68,2.09,8.13,7.19,4.33,7.19,4.33.47-4.69-2.09-8.13S634.6,91.28,634.6,91.28Z" style="fill:#fff"></path><path d="M634.52,70.56s-.47,4.69,2.09,8.13S643.8,83,643.8,83s.47-4.68-2.09-8.12S634.52,70.56,634.52,70.56Z" style="fill:#fff"></path></g></g><g><path d="M211.62,240.52c0,27.34-16.18,49.51-36.13,49.51s-36.13-22.17-36.13-49.51,16.17-121.33,36.13-121.33S211.62,213.17,211.62,240.52Z" style="fill:#FFB847"></path><path d="M211.62,240.52c0,27.34-16.18,49.51-36.13,49.51s-36.13-22.17-36.13-49.51,16.17-121.33,36.13-121.33S211.62,213.17,211.62,240.52Z" style="fill:#fff;opacity: 0.5"></path><polygon points="155.97 242.97 167.49 246.99 173.2 254.75 172.2 278.51 165.56 274 172 283.43 170.85 408.48 177.39 408.48 176.61 265.37 195.74 254.82 184.8 258.87 187 252.28 181.77 259.99 176.55 261.92 176.17 240.3 195.18 215.04 185 225.23 186.72 218.15 181.84 228.38 176.07 234.16 175.49 200.37 173.42 249.65 155.41 230.56 165.3 244.01 155.97 242.97" style="fill:#999"></polygon><g><path d="M195.36,200.48a7.85,7.85,0,0,1-6.57,8.82,7.85,7.85,0,0,1,6.57-8.82Z" style="fill:#fff"></path><path d="M206.25,215.78a7.85,7.85,0,0,1-6.57,8.82,7.85,7.85,0,0,1,6.57-8.82Z" style="fill:#fff"></path><path d="M206.25,245.57a7.84,7.84,0,0,1-9.16,6.09,7.84,7.84,0,0,1,9.16-6.09Z" style="fill:#fff"></path><path d="M146.44,245.57a7.84,7.84,0,0,0,9.16,6.09,7.84,7.84,0,0,0-9.16-6.09Z" style="fill:#fff"></path><path d="M193.67,233.2A7.85,7.85,0,0,1,187.1,242a7.85,7.85,0,0,1,6.57-8.83Z" style="fill:#fff"></path><path d="M190.85,183.83a7.85,7.85,0,0,1-6.57,8.83,7.85,7.85,0,0,1,6.57-8.83Z" style="fill:#fff"></path><path d="M184.36,196.53a7.85,7.85,0,0,1-6.57,8.82,7.85,7.85,0,0,1,6.57-8.82Z" style="fill:#fff"></path><path d="M199.76,187.29a7.85,7.85,0,0,1-6.57,8.82,7.83,7.83,0,0,1,6.57-8.82Z" style="fill:#fff"></path><path d="M149.71,187.29a7.85,7.85,0,0,0,6.57,8.82,7.83,7.83,0,0,0-6.57-8.82Z" style="fill:#fff"></path><path d="M192.26,168.32a7.83,7.83,0,0,1-6.57,8.82,7.85,7.85,0,0,1,6.57-8.82Z" style="fill:#fff"></path><path d="M189.07,151.84A7.86,7.86,0,0,1,184.93,162a7.84,7.84,0,0,1,4.14-10.19Z" style="fill:#fff"></path><path d="M166.22,147.53A7.85,7.85,0,0,1,170,157.87a7.84,7.84,0,0,1-3.75-10.34Z" style="fill:#fff"></path><path d="M176.88,167.24a7.85,7.85,0,0,1-.63,11,7.85,7.85,0,0,1,.63-11Z" style="fill:#fff"></path><path d="M176.31,137.9a7.85,7.85,0,0,1-.63,11,7.85,7.85,0,0,1,.63-11Z" style="fill:#fff"></path><path d="M152.4,200.48A7.85,7.85,0,0,0,159,209.3a7.85,7.85,0,0,0-6.57-8.82Z" style="fill:#fff"></path><path d="M146.2,218.53a7.85,7.85,0,0,0,6.57,8.83,7.85,7.85,0,0,0-6.57-8.83Z" style="fill:#fff"></path><path d="M162.67,225.09a7.85,7.85,0,0,0,6.57,8.82,7.83,7.83,0,0,0-6.57-8.82Z" style="fill:#fff"></path><path d="M167.17,200.07a7.85,7.85,0,0,0,3.77,10.34,7.85,7.85,0,0,0-3.77-10.34Z" style="fill:#fff"></path><path d="M155.51,266.64a7.85,7.85,0,0,0,8.25-7.27,7.83,7.83,0,0,0-8.25,7.27Z" style="fill:#fff"></path><path d="M187.52,263a7.84,7.84,0,0,0,9.34,5.8,7.84,7.84,0,0,0-9.34-5.8Z" style="fill:#fff"></path><path d="M159.23,183.83a7.85,7.85,0,0,0,6.57,8.83,7.85,7.85,0,0,0-6.57-8.83Z" style="fill:#fff"></path><path d="M159.17,169.17a7.85,7.85,0,0,0,6.57,8.82,7.83,7.83,0,0,0-6.57-8.82Z" style="fill:#fff"></path></g></g><g><path d="M446.63,240.52c0,27.34-16.17,49.51-36.13,49.51s-36.13-22.17-36.13-49.51,16.18-121.33,36.13-121.33S446.63,213.17,446.63,240.52Z" style="fill:#FFB847"></path><path d="M446.63,240.52c0,27.34-16.17,49.51-36.13,49.51s-36.13-22.17-36.13-49.51,16.18-121.33,36.13-121.33S446.63,213.17,446.63,240.52Z" style="fill:#fff;opacity: 0.5"></path><polygon points="390.99 242.97 402.51 246.99 408.22 254.75 407.22 278.51 400.58 274 407.01 283.43 405.87 408.48 412.4 408.48 411.62 265.37 430.76 254.82 419.82 258.87 422.01 252.28 416.79 259.99 411.56 261.92 411.19 240.3 430.2 215.04 420.01 225.23 421.73 218.15 416.86 228.38 411.08 234.16 410.5 200.37 408.43 249.65 390.42 230.56 400.31 244.01 390.99 242.97" style="fill:#999"></polygon><g><path d="M430.38,200.48a7.85,7.85,0,0,1-6.57,8.82,7.85,7.85,0,0,1,6.57-8.82Z" style="fill:#fff"></path><path d="M441.27,215.78a7.85,7.85,0,0,1-6.57,8.82,7.85,7.85,0,0,1,6.57-8.82Z" style="fill:#fff"></path><path d="M441.26,245.57a7.83,7.83,0,0,1-9.15,6.09,7.83,7.83,0,0,1,9.15-6.09Z" style="fill:#fff"></path><path d="M381.46,245.57a7.84,7.84,0,0,0,9.16,6.09,7.85,7.85,0,0,0-9.16-6.09Z" style="fill:#fff"></path><path d="M428.69,233.2a7.85,7.85,0,0,1-6.57,8.83,7.85,7.85,0,0,1,6.57-8.83Z" style="fill:#fff"></path><path d="M425.86,183.83a7.85,7.85,0,0,1-6.57,8.83,7.85,7.85,0,0,1,6.57-8.83Z" style="fill:#fff"></path><path d="M419.38,196.53a7.85,7.85,0,0,1-6.57,8.82,7.85,7.85,0,0,1,6.57-8.82Z" style="fill:#fff"></path><path d="M434.78,187.29a7.85,7.85,0,0,1-6.57,8.82,7.83,7.83,0,0,1,6.57-8.82Z" style="fill:#fff"></path><path d="M384.73,187.29a7.85,7.85,0,0,0,6.57,8.82,7.83,7.83,0,0,0-6.57-8.82Z" style="fill:#fff"></path><path d="M427.28,168.32a7.83,7.83,0,0,1-6.58,8.82,7.87,7.87,0,0,1,6.58-8.82Z" style="fill:#fff"></path><path d="M424.09,151.84A7.85,7.85,0,0,1,419.94,162a7.85,7.85,0,0,1,4.15-10.19Z" style="fill:#fff"></path><path d="M401.24,147.53A7.85,7.85,0,0,1,405,157.87a7.84,7.84,0,0,1-3.75-10.34Z" style="fill:#fff"></path><path d="M411.89,167.24a7.85,7.85,0,0,1-.63,11,7.85,7.85,0,0,1,.63-11Z" style="fill:#fff"></path><path d="M411.33,137.9a9.26,9.26,0,0,1,1.93,5.62,9.16,9.16,0,0,1-2.56,5.36,7.85,7.85,0,0,1,.63-11Z" style="fill:#fff"></path><path d="M387.42,200.48A7.85,7.85,0,0,0,394,209.3a7.85,7.85,0,0,0-6.57-8.82Z" style="fill:#fff"></path><path d="M381.21,218.53a7.85,7.85,0,0,0,6.57,8.83,7.85,7.85,0,0,0-6.57-8.83Z" style="fill:#fff"></path><path d="M397.69,225.09a7.85,7.85,0,0,0,6.57,8.82,7.83,7.83,0,0,0-6.57-8.82Z" style="fill:#fff"></path><path d="M402.19,200.07A7.85,7.85,0,0,0,406,210.41a7.85,7.85,0,0,0-3.77-10.34Z" style="fill:#fff"></path><path d="M390.52,266.64a7.85,7.85,0,0,0,8.26-7.27,7.83,7.83,0,0,0-8.26,7.27Z" style="fill:#fff"></path><path d="M422.53,263a7.86,7.86,0,0,0,9.35,5.8,7.86,7.86,0,0,0-9.35-5.8Z" style="fill:#fff"></path><path d="M394.25,183.83a7.85,7.85,0,0,0,6.57,8.83,7.85,7.85,0,0,0-6.57-8.83Z" style="fill:#fff"></path><path d="M394.19,169.17a7.85,7.85,0,0,0,6.57,8.82,7.83,7.83,0,0,0-6.57-8.82Z" style="fill:#fff"></path></g></g></g><g id="freepik--Bushes--inject-46"><g><path d="M529.23,408.48c.71-6,5.33-17.78,12-21.1,7-3.52,12.31,4.52,24.87,10.3s9.29-4.27,22.35-12.06,14.82,3,20.09,5.53c5.46,2.6,8.67-6.95,10-10.5,2.51-6.93,5.44-12.87,11.95-17,10.06-6.35,27.26-5.85,32.58,6.46,1.59,3.69,1,10.47,5,12.48,6,3,21.6-.5,22.6,9.54a14.86,14.86,0,0,1-2.21,9.14,7.09,7.09,0,0,0-.55,3.42c.5,1.51,3.77-2,6.53-.25a12.48,12.48,0,0,1,3.72,4Z" style="fill:#FFB847"></path><g><path d="M647.52,373.78a6,6,0,0,1-.47,3.67,11.47,11.47,0,0,1-2.13,2.78S644,377.06,647.52,373.78Z" style="fill:#fff"></path><path d="M664.36,391.52a6,6,0,0,1-3.45,1.37,11.66,11.66,0,0,1-3.46-.53S659.8,390,664.36,391.52Z" style="fill:#fff"></path><path d="M680.8,389.25a6,6,0,0,1-3.44,1.37,11.22,11.22,0,0,1-3.46-.53S676.24,387.78,680.8,389.25Z" style="fill:#fff"></path><path d="M666.72,399.85a6,6,0,0,1-3.7.28,11.67,11.67,0,0,1-3.15-1.53S662.8,397.08,666.72,399.85Z" style="fill:#fff"></path><path d="M683.42,397.73a6,6,0,0,1-3.7.28,11.67,11.67,0,0,1-3.15-1.53S679.5,395,683.42,397.73Z" style="fill:#fff"></path><path d="M655.49,400.71a5.94,5.94,0,0,1-3.48-1.28,11.57,11.57,0,0,1-2.23-2.7S653.08,396.57,655.49,400.71Z" style="fill:#fff"></path><path d="M678.85,406.66a6,6,0,0,1-3.48-1.28,11.36,11.36,0,0,1-2.22-2.7S676.44,402.52,678.85,406.66Z" style="fill:#fff"></path><path d="M660.22,375.85a6,6,0,0,1-2,3.13,11.41,11.41,0,0,1-3.11,1.59S655.66,377.32,660.22,375.85Z" style="fill:#fff"></path><path d="M626.72,374.37a6,6,0,0,1,3.29,1.71,11.37,11.37,0,0,1,1.86,3S628.58,378.79,626.72,374.37Z" style="fill:#fff"></path><path d="M619.67,385a5.92,5.92,0,0,1,3.67.47,11.47,11.47,0,0,1,2.78,2.13S622.94,388.45,619.67,385Z" style="fill:#fff"></path><path d="M620.36,397a6,6,0,0,1,3.34-1.61,11.44,11.44,0,0,1,3.48.28S625,398.11,620.36,397Z" style="fill:#fff"></path><path d="M628.23,403.4a6,6,0,0,1,2.54-2.69,11.55,11.55,0,0,1,3.36-1S633,402.82,628.23,403.4Z" style="fill:#fff"></path><path d="M632.37,383.91a6,6,0,0,1,3.29,1.71,11.51,11.51,0,0,1,1.86,3S634.23,388.33,632.37,383.91Z" style="fill:#fff"></path><path d="M665.71,381.26a6,6,0,0,1-2.65,2.6,11.68,11.68,0,0,1-3.39.85S660.93,381.66,665.71,381.26Z" style="fill:#fff"></path><path d="M636.69,371.54a6,6,0,0,1,2.07,3.08,11.54,11.54,0,0,1,.21,3.49S636.21,376.31,636.69,371.54Z" style="fill:#fff"></path><path d="M642.91,365.73a6,6,0,0,1,.49,3.67,11.72,11.72,0,0,1-1.35,3.23S640.37,369.79,642.91,365.73Z" style="fill:#fff"></path><path d="M656.36,367.68a6,6,0,0,1-1.24,3.49,11.32,11.32,0,0,1-2.67,2.26S652.25,370.15,656.36,367.68Z" style="fill:#fff"></path></g><g><path d="M597.58,389.43a3.45,3.45,0,0,1-.28,2.13,6.47,6.47,0,0,1-1.24,1.61S595.54,391.33,597.58,389.43Z" style="fill:#fff"></path><path d="M607.35,399.73a3.48,3.48,0,0,1-2,.8,6.57,6.57,0,0,1-2-.31S604.71,398.88,607.35,399.73Z" style="fill:#fff"></path><path d="M608.72,404.57a3.46,3.46,0,0,1-2.14.16,6.62,6.62,0,0,1-1.83-.89S606.45,403,608.72,404.57Z" style="fill:#fff"></path><path d="M602.2,405.07a3.46,3.46,0,0,1-2-.74,6.84,6.84,0,0,1-1.29-1.57S600.8,402.67,602.2,405.07Z" style="fill:#fff"></path><path d="M605,390.64a3.49,3.49,0,0,1-1.15,1.81,6.8,6.8,0,0,1-1.81.93S602.3,391.49,605,390.64Z" style="fill:#fff"></path><path d="M585.5,389.77a3.5,3.5,0,0,1,1.91,1,6.71,6.71,0,0,1,1.08,1.72S586.58,392.34,585.5,389.77Z" style="fill:#fff"></path><path d="M581.4,395.91a3.48,3.48,0,0,1,2.14.28,6.47,6.47,0,0,1,1.61,1.24S583.31,398,581.4,395.91Z" style="fill:#fff"></path><path d="M581.8,402.89a3.48,3.48,0,0,1,1.94-.93,6.63,6.63,0,0,1,2,.16S584.51,403.56,581.8,402.89Z" style="fill:#fff"></path><path d="M586.37,406.63a3.5,3.5,0,0,1,1.48-1.56,6.8,6.8,0,0,1,1.95-.57S589.14,406.29,586.37,406.63Z" style="fill:#fff"></path><path d="M588.78,395.31a3.5,3.5,0,0,1,1.91,1,6.71,6.71,0,0,1,1.08,1.72S589.86,397.88,588.78,395.31Z" style="fill:#fff"></path><path d="M608.14,393.78a3.48,3.48,0,0,1-1.54,1.5,6.54,6.54,0,0,1-2,.5S605.36,394,608.14,393.78Z" style="fill:#fff"></path><path d="M591.29,388.13a3.45,3.45,0,0,1,1.2,1.79,6.61,6.61,0,0,1,.12,2S591,390.9,591.29,388.13Z" style="fill:#fff"></path><path d="M594.9,384.75a3.51,3.51,0,0,1,.28,2.14,6.38,6.38,0,0,1-.78,1.87S593.42,387.12,594.9,384.75Z" style="fill:#fff"></path><path d="M602.71,385.89a3.48,3.48,0,0,1-.72,2,6.62,6.62,0,0,1-1.55,1.31S600.32,387.32,602.71,385.89Z" style="fill:#fff"></path></g><g><path d="M549,394a3.41,3.41,0,0,1-.27,2.13,6.47,6.47,0,0,1-1.24,1.61S547,395.87,549,394Z" style="fill:#fff"></path><path d="M558.77,404.27a3.5,3.5,0,0,1-2,.79,6.75,6.75,0,0,1-2-.3S556.12,403.41,558.77,404.27Z" style="fill:#fff"></path><path d="M556.37,395.17a3.5,3.5,0,0,1-1.15,1.82,6.59,6.59,0,0,1-1.81.92S553.72,396,556.37,395.17Z" style="fill:#fff"></path><path d="M536.92,394.31a3.53,3.53,0,0,1,1.91,1,6.85,6.85,0,0,1,1.08,1.73S538,396.88,536.92,394.31Z" style="fill:#fff"></path><path d="M532.82,400.45a3.52,3.52,0,0,1,2.14.27,6.89,6.89,0,0,1,1.61,1.25S534.72,402.48,532.82,400.45Z" style="fill:#fff"></path><path d="M533.22,407.43a3.48,3.48,0,0,1,1.94-.94,6.63,6.63,0,0,1,2,.16S535.93,408.09,533.22,407.43Z" style="fill:#fff"></path><path d="M540.2,399.85a3.5,3.5,0,0,1,1.91,1,6.71,6.71,0,0,1,1.08,1.72S541.28,402.42,540.2,399.85Z" style="fill:#fff"></path><path d="M559.56,398.31a3.54,3.54,0,0,1-1.54,1.51,6.69,6.69,0,0,1-2,.49S556.78,398.55,559.56,398.31Z" style="fill:#fff"></path><path d="M542.71,392.67a3.45,3.45,0,0,1,1.2,1.78,6.61,6.61,0,0,1,.12,2S542.43,395.44,542.71,392.67Z" style="fill:#fff"></path><path d="M546.32,389.29a3.47,3.47,0,0,1,.28,2.13,6.87,6.87,0,0,1-.78,1.88S544.84,391.65,546.32,389.29Z" style="fill:#fff"></path><path d="M554.13,390.43a3.44,3.44,0,0,1-.72,2,6.75,6.75,0,0,1-1.55,1.32S551.74,391.86,554.13,390.43Z" style="fill:#fff"></path></g><g><polygon points="651.7 408.48 647.22 408.48 649.18 398.43 639.89 391.15 650.44 396.17 653.45 381.86 650.94 407.97 657.47 405.46 669.78 400.69 656.22 408.23 651.7 408.48" style="fill:#a1a1a1"></polygon><polygon points="596.19 394.91 602.22 407.97 599.71 408.23 598.2 404.46 591.49 403.25 597.7 401.95 596.19 394.91" style="fill:#a1a1a1"></polygon><polygon points="551.74 401.19 548.23 408.23 547.61 404.43 551.74 401.19" style="fill:#a1a1a1"></polygon><polygon points="545.19 408.48 544.68 403.36 540.19 399.94 544.42 400.68 543.71 393.41 548.23 408.23 546.72 408.48 545.19 408.48" style="fill:#a1a1a1"></polygon></g></g><g><path d="M296.71,408.48c.71-6,5.33-17.78,12-21.1,7-3.52,12.31,4.52,24.87,10.3s9.29-4.27,22.35-12.06,14.81,3,20.09,5.53c5.45,2.6,8.67-6.95,10-10.5,2.51-6.93,5.44-12.87,11.95-17,10.06-6.35,27.26-5.85,32.58,6.46,1.59,3.69,1,10.47,5,12.48,6,3,21.6-.5,22.6,9.54a14.92,14.92,0,0,1-2.21,9.14,7.09,7.09,0,0,0-.55,3.42c.5,1.51,3.77-2,6.53-.25a12.48,12.48,0,0,1,3.72,4Z" style="fill:#FFB847"></path><g><path d="M415,373.78a6,6,0,0,1-.47,3.67,11.36,11.36,0,0,1-2.14,2.78S411.5,377.06,415,373.78Z" style="fill:#fff"></path><path d="M431.84,391.52a6,6,0,0,1-3.45,1.37,11.66,11.66,0,0,1-3.46-.53S427.27,390,431.84,391.52Z" style="fill:#fff"></path><path d="M448.28,389.25a6,6,0,0,1-3.44,1.37,11.22,11.22,0,0,1-3.46-.53S443.72,387.78,448.28,389.25Z" style="fill:#fff"></path><path d="M434.19,399.85a6,6,0,0,1-3.69.28,11.67,11.67,0,0,1-3.15-1.53S430.28,397.08,434.19,399.85Z" style="fill:#fff"></path><path d="M450.89,397.73a6,6,0,0,1-3.69.28,11.48,11.48,0,0,1-3.15-1.53S447,395,450.89,397.73Z" style="fill:#fff"></path><path d="M423,400.71a5.94,5.94,0,0,1-3.48-1.28,11.57,11.57,0,0,1-2.23-2.7S420.55,396.57,423,400.71Z" style="fill:#fff"></path><path d="M446.33,406.66a6,6,0,0,1-3.48-1.28,11.36,11.36,0,0,1-2.22-2.7S443.92,402.52,446.33,406.66Z" style="fill:#fff"></path><path d="M427.7,375.85a6,6,0,0,1-2,3.13,11.39,11.39,0,0,1-3.12,1.59S423.14,377.32,427.7,375.85Z" style="fill:#fff"></path><path d="M394.2,374.37a6,6,0,0,1,3.28,1.71,11.25,11.25,0,0,1,1.87,3S396.06,378.79,394.2,374.37Z" style="fill:#fff"></path><path d="M387.15,385a5.92,5.92,0,0,1,3.67.47,11.28,11.28,0,0,1,2.77,2.13S390.42,388.45,387.15,385Z" style="fill:#fff"></path><path d="M387.84,397a6,6,0,0,1,3.33-1.61,11.48,11.48,0,0,1,3.49.28S392.49,398.11,387.84,397Z" style="fill:#fff"></path><path d="M395.71,403.4a6,6,0,0,1,2.54-2.69,11.55,11.55,0,0,1,3.36-1S400.46,402.82,395.71,403.4Z" style="fill:#fff"></path><path d="M399.85,383.91a6,6,0,0,1,3.28,1.71,11.72,11.72,0,0,1,1.87,3S401.71,388.33,399.85,383.91Z" style="fill:#fff"></path><path d="M433.19,381.26a6,6,0,0,1-2.65,2.6,11.68,11.68,0,0,1-3.39.85S428.41,381.66,433.19,381.26Z" style="fill:#fff"></path><path d="M404.17,371.54a6,6,0,0,1,2.06,3.08,11.37,11.37,0,0,1,.22,3.49S403.69,376.31,404.17,371.54Z" style="fill:#fff"></path><path d="M410.38,365.73a6,6,0,0,1,.5,3.67,11.72,11.72,0,0,1-1.35,3.23S407.85,369.79,410.38,365.73Z" style="fill:#fff"></path><path d="M423.83,367.68a6,6,0,0,1-1.23,3.49,11.32,11.32,0,0,1-2.67,2.26S419.72,370.15,423.83,367.68Z" style="fill:#fff"></path></g><g><path d="M365.05,389.43a3.41,3.41,0,0,1-.27,2.13,6.47,6.47,0,0,1-1.24,1.61S363,391.33,365.05,389.43Z" style="fill:#fff"></path><path d="M374.83,399.73a3.48,3.48,0,0,1-2,.8,6.57,6.57,0,0,1-2-.31S372.18,398.88,374.83,399.73Z" style="fill:#fff"></path><path d="M376.2,404.57a3.46,3.46,0,0,1-2.14.16,6.62,6.62,0,0,1-1.83-.89S373.93,403,376.2,404.57Z" style="fill:#fff"></path><path d="M369.68,405.07a3.46,3.46,0,0,1-2-.74,6.84,6.84,0,0,1-1.29-1.57S368.28,402.67,369.68,405.07Z" style="fill:#fff"></path><path d="M372.43,390.64a3.46,3.46,0,0,1-1.16,1.81,6.67,6.67,0,0,1-1.8.93S369.78,391.49,372.43,390.64Z" style="fill:#fff"></path><path d="M353,389.77a3.45,3.45,0,0,1,1.9,1,6.59,6.59,0,0,1,1.09,1.72S354.06,392.34,353,389.77Z" style="fill:#fff"></path><path d="M348.88,395.91a3.48,3.48,0,0,1,2.14.28,6.71,6.71,0,0,1,1.61,1.24S350.78,398,348.88,395.91Z" style="fill:#fff"></path><path d="M349.28,402.89a3.43,3.43,0,0,1,1.94-.93,6.63,6.63,0,0,1,2,.16S352,403.56,349.28,402.89Z" style="fill:#fff"></path><path d="M353.85,406.63a3.5,3.5,0,0,1,1.48-1.56,6.71,6.71,0,0,1,1.95-.57S356.61,406.29,353.85,406.63Z" style="fill:#fff"></path><path d="M356.26,395.31a3.5,3.5,0,0,1,1.91,1,6.71,6.71,0,0,1,1.08,1.72S357.34,397.88,356.26,395.31Z" style="fill:#fff"></path><path d="M375.62,393.78a3.48,3.48,0,0,1-1.54,1.5,6.54,6.54,0,0,1-2,.5S372.84,394,375.62,393.78Z" style="fill:#fff"></path><path d="M358.77,388.13a3.52,3.52,0,0,1,1.2,1.79,6.61,6.61,0,0,1,.12,2S358.49,390.9,358.77,388.13Z" style="fill:#fff"></path><path d="M362.38,384.75a3.51,3.51,0,0,1,.28,2.14,6.71,6.71,0,0,1-.78,1.87S360.9,387.12,362.38,384.75Z" style="fill:#fff"></path><path d="M370.19,385.89a3.48,3.48,0,0,1-.72,2,6.85,6.85,0,0,1-1.55,1.31S367.8,387.32,370.19,385.89Z" style="fill:#fff"></path></g><g><path d="M316.47,394a3.49,3.49,0,0,1-.27,2.13,6.47,6.47,0,0,1-1.24,1.61S314.44,395.87,316.47,394Z" style="fill:#fff"></path><path d="M326.25,404.27a3.5,3.5,0,0,1-2,.79,6.75,6.75,0,0,1-2-.3S323.6,403.41,326.25,404.27Z" style="fill:#fff"></path><path d="M323.85,395.17a3.47,3.47,0,0,1-1.16,1.82,6.44,6.44,0,0,1-1.81.92S321.2,396,323.85,395.17Z" style="fill:#fff"></path><path d="M304.4,394.31a3.48,3.48,0,0,1,1.9,1,6.73,6.73,0,0,1,1.09,1.73S305.48,396.88,304.4,394.31Z" style="fill:#fff"></path><path d="M300.3,400.45a3.52,3.52,0,0,1,2.14.27A6.7,6.7,0,0,1,304,402S302.2,402.48,300.3,400.45Z" style="fill:#fff"></path><path d="M300.7,407.43a3.48,3.48,0,0,1,1.94-.94,6.63,6.63,0,0,1,2,.16S303.4,408.09,300.7,407.43Z" style="fill:#fff"></path><path d="M307.68,399.85a3.45,3.45,0,0,1,1.9,1,6.59,6.59,0,0,1,1.09,1.72S308.76,402.42,307.68,399.85Z" style="fill:#fff"></path><path d="M327,398.31a3.54,3.54,0,0,1-1.54,1.51,6.69,6.69,0,0,1-2,.49S324.26,398.55,327,398.31Z" style="fill:#fff"></path><path d="M310.19,392.67a3.47,3.47,0,0,1,1.19,1.78,6.45,6.45,0,0,1,.13,2S309.91,395.44,310.19,392.67Z" style="fill:#fff"></path><path d="M313.79,389.29a3.44,3.44,0,0,1,.29,2.13,6.87,6.87,0,0,1-.78,1.88S312.32,391.65,313.79,389.29Z" style="fill:#fff"></path><path d="M321.6,390.43a3.47,3.47,0,0,1-.71,2,6.75,6.75,0,0,1-1.55,1.32S319.22,391.86,321.6,390.43Z" style="fill:#fff"></path></g><g><polygon points="419.17 408.48 414.7 408.48 416.66 398.43 407.37 391.15 417.92 396.17 420.93 381.86 418.42 407.97 424.95 405.46 437.26 400.69 423.69 408.23 419.17 408.48" style="fill:#a1a1a1"></polygon><polygon points="363.67 394.91 369.7 407.97 367.19 408.23 365.68 404.46 358.96 403.25 365.18 401.95 363.67 394.91" style="fill:#a1a1a1"></polygon><polygon points="319.22 401.19 315.7 408.23 315.09 404.43 319.22 401.19" style="fill:#a1a1a1"></polygon><polygon points="312.67 408.48 312.16 403.36 307.67 399.94 311.9 400.68 311.18 393.41 315.7 408.23 314.2 408.48 312.67 408.48" style="fill:#a1a1a1"></polygon></g></g><g><path d="M46.78,408.48c.71-6,5.33-17.78,12-21.1,7-3.52,12.3,4.52,24.86,10.3s9.29-4.27,22.35-12.06,14.82,3,20.09,5.53c5.46,2.6,8.67-6.95,10-10.5,2.51-6.93,5.44-12.87,12-17,10.06-6.35,27.26-5.85,32.58,6.46,1.6,3.69,1,10.47,5,12.48,6,3,21.6-.5,22.6,9.54a14.86,14.86,0,0,1-2.21,9.14,7.09,7.09,0,0,0-.55,3.42c.5,1.51,3.77-2,6.53-.25a12.48,12.48,0,0,1,3.72,4Z" style="fill:#FFB847"></path><g><path d="M165.07,373.78a6,6,0,0,1-.47,3.67,11.47,11.47,0,0,1-2.13,2.78S161.57,377.06,165.07,373.78Z" style="fill:#fff"></path><path d="M181.91,391.52a6,6,0,0,1-3.45,1.37,11.66,11.66,0,0,1-3.46-.53S177.35,390,181.91,391.52Z" style="fill:#fff"></path><path d="M198.35,389.25a6,6,0,0,1-3.44,1.37,11.22,11.22,0,0,1-3.46-.53S193.79,387.78,198.35,389.25Z" style="fill:#fff"></path><path d="M184.27,399.85a6,6,0,0,1-3.7.28,11.51,11.51,0,0,1-3.14-1.53S180.35,397.08,184.27,399.85Z" style="fill:#fff"></path><path d="M201,397.73a6,6,0,0,1-3.7.28,11.67,11.67,0,0,1-3.15-1.53S197.05,395,201,397.73Z" style="fill:#fff"></path><path d="M173,400.71a5.94,5.94,0,0,1-3.48-1.28,11.36,11.36,0,0,1-2.22-2.7S170.63,396.57,173,400.71Z" style="fill:#fff"></path><path d="M196.4,406.66a6,6,0,0,1-3.48-1.28,11.36,11.36,0,0,1-2.22-2.7S194,402.52,196.4,406.66Z" style="fill:#fff"></path><path d="M177.78,375.85a6,6,0,0,1-2,3.13,11.41,11.41,0,0,1-3.11,1.59S173.21,377.32,177.78,375.85Z" style="fill:#fff"></path><path d="M144.27,374.37a6,6,0,0,1,3.29,1.71,11.37,11.37,0,0,1,1.86,3S146.13,378.79,144.27,374.37Z" style="fill:#fff"></path><path d="M137.22,385a5.92,5.92,0,0,1,3.67.47,11.47,11.47,0,0,1,2.78,2.13S140.49,388.45,137.22,385Z" style="fill:#fff"></path><path d="M137.91,397a6,6,0,0,1,3.34-1.61,11.44,11.44,0,0,1,3.48.28S142.56,398.11,137.91,397Z" style="fill:#fff"></path><path d="M145.78,403.4a6,6,0,0,1,2.54-2.69,11.55,11.55,0,0,1,3.36-1S150.54,402.82,145.78,403.4Z" style="fill:#fff"></path><path d="M149.92,383.91a6,6,0,0,1,3.29,1.71,11.51,11.51,0,0,1,1.86,3S151.78,388.33,149.92,383.91Z" style="fill:#fff"></path><path d="M183.26,381.26a6,6,0,0,1-2.65,2.6,11.68,11.68,0,0,1-3.39.85S178.48,381.66,183.26,381.26Z" style="fill:#fff"></path><path d="M154.24,371.54a6,6,0,0,1,2.07,3.08,11.54,11.54,0,0,1,.21,3.49S153.76,376.31,154.24,371.54Z" style="fill:#fff"></path><path d="M160.46,365.73a6,6,0,0,1,.49,3.67,11.72,11.72,0,0,1-1.35,3.23S157.92,369.79,160.46,365.73Z" style="fill:#fff"></path><path d="M173.91,367.68a6,6,0,0,1-1.24,3.49,11.32,11.32,0,0,1-2.67,2.26S169.8,370.15,173.91,367.68Z" style="fill:#fff"></path></g><g><path d="M115.13,389.43a3.45,3.45,0,0,1-.28,2.13,6.47,6.47,0,0,1-1.24,1.61S113.09,391.33,115.13,389.43Z" style="fill:#fff"></path><path d="M124.9,399.73a3.48,3.48,0,0,1-2,.8,6.57,6.57,0,0,1-2-.31S122.26,398.88,124.9,399.73Z" style="fill:#fff"></path><path d="M126.27,404.57a3.46,3.46,0,0,1-2.14.16,6.81,6.81,0,0,1-1.83-.89S124,403,126.27,404.57Z" style="fill:#fff"></path><path d="M119.75,405.07a3.46,3.46,0,0,1-2-.74,6.84,6.84,0,0,1-1.29-1.57S118.35,402.67,119.75,405.07Z" style="fill:#fff"></path><path d="M122.5,390.64a3.49,3.49,0,0,1-1.15,1.81,6.8,6.8,0,0,1-1.81.93S119.85,391.49,122.5,390.64Z" style="fill:#fff"></path><path d="M103.05,389.77a3.5,3.5,0,0,1,1.91,1,6.71,6.71,0,0,1,1.08,1.72S104.13,392.34,103.05,389.77Z" style="fill:#fff"></path><path d="M99,395.91a3.48,3.48,0,0,1,2.14.28,6.47,6.47,0,0,1,1.61,1.24S100.86,398,99,395.91Z" style="fill:#fff"></path><path d="M99.35,402.89a3.48,3.48,0,0,1,1.94-.93,6.63,6.63,0,0,1,2,.16S102.06,403.56,99.35,402.89Z" style="fill:#fff"></path><path d="M103.92,406.63a3.5,3.5,0,0,1,1.48-1.56,6.8,6.8,0,0,1,1.95-.57S106.69,406.29,103.92,406.63Z" style="fill:#fff"></path><path d="M106.33,395.31a3.5,3.5,0,0,1,1.91,1,6.71,6.71,0,0,1,1.08,1.72S107.41,397.88,106.33,395.31Z" style="fill:#fff"></path><path d="M125.69,393.78a3.48,3.48,0,0,1-1.54,1.5,6.54,6.54,0,0,1-2,.5S122.92,394,125.69,393.78Z" style="fill:#fff"></path><path d="M108.84,388.13a3.45,3.45,0,0,1,1.2,1.79,6.61,6.61,0,0,1,.12,2S108.56,390.9,108.84,388.13Z" style="fill:#fff"></path><path d="M112.45,384.75a3.51,3.51,0,0,1,.28,2.14,6.38,6.38,0,0,1-.78,1.87S111,387.12,112.45,384.75Z" style="fill:#fff"></path><path d="M120.26,385.89a3.48,3.48,0,0,1-.72,2,6.62,6.62,0,0,1-1.55,1.31S117.87,387.32,120.26,385.89Z" style="fill:#fff"></path></g><g><path d="M66.54,394a3.41,3.41,0,0,1-.27,2.13A6.47,6.47,0,0,1,65,397.71S64.51,395.87,66.54,394Z" style="fill:#fff"></path><path d="M76.32,404.27a3.5,3.5,0,0,1-2,.79,6.75,6.75,0,0,1-2-.3S73.67,403.41,76.32,404.27Z" style="fill:#fff"></path><path d="M73.92,395.17A3.5,3.5,0,0,1,72.77,397a6.59,6.59,0,0,1-1.81.92S71.27,396,73.92,395.17Z" style="fill:#fff"></path><path d="M54.47,394.31a3.53,3.53,0,0,1,1.91,1A6.85,6.85,0,0,1,57.46,397S55.55,396.88,54.47,394.31Z" style="fill:#fff"></path><path d="M50.37,400.45a3.52,3.52,0,0,1,2.14.27A6.89,6.89,0,0,1,54.12,402S52.28,402.48,50.37,400.45Z" style="fill:#fff"></path><path d="M50.77,407.43a3.48,3.48,0,0,1,1.94-.94,6.63,6.63,0,0,1,2,.16S53.48,408.09,50.77,407.43Z" style="fill:#fff"></path><path d="M57.75,399.85a3.5,3.5,0,0,1,1.91,1,6.71,6.71,0,0,1,1.08,1.72S58.83,402.42,57.75,399.85Z" style="fill:#fff"></path><path d="M77.11,398.31a3.54,3.54,0,0,1-1.54,1.51,6.69,6.69,0,0,1-2,.49S74.33,398.55,77.11,398.31Z" style="fill:#fff"></path><path d="M60.26,392.67a3.45,3.45,0,0,1,1.2,1.78,6.61,6.61,0,0,1,.12,2S60,395.44,60.26,392.67Z" style="fill:#fff"></path><path d="M63.87,389.29a3.47,3.47,0,0,1,.28,2.13,6.53,6.53,0,0,1-.78,1.88S62.39,391.65,63.87,389.29Z" style="fill:#fff"></path><path d="M71.68,390.43a3.44,3.44,0,0,1-.72,2,6.75,6.75,0,0,1-1.55,1.32S69.29,391.86,71.68,390.43Z" style="fill:#fff"></path></g><g><polygon points="169.25 408.48 164.78 408.48 166.74 398.43 157.44 391.15 167.99 396.17 171 381.86 168.49 407.97 175.02 405.46 187.33 400.69 173.77 408.23 169.25 408.48" style="fill:#a1a1a1"></polygon><polygon points="113.75 394.91 119.77 407.97 117.26 408.23 115.75 404.46 109.04 403.25 115.25 401.95 113.75 394.91" style="fill:#a1a1a1"></polygon><polygon points="69.29 401.19 65.78 408.23 65.16 404.43 69.29 401.19" style="fill:#a1a1a1"></polygon><polygon points="62.74 408.48 62.24 403.36 57.74 399.94 61.97 400.68 61.26 393.41 65.78 408.23 64.27 408.48 62.74 408.48" style="fill:#a1a1a1"></polygon></g></g></g><g id="freepik--character-3--inject-46"><g><path d="M494.93,256.55s7.81,13.72,12.15,24,11.46,24.14,11.46,24.14-1.56,13.54,1.91,24,3.15,25.16,3.75,27.25-3.13,18.46-2.05,20.78,9.49,1.27,12.49,2.4,11.51,2.17,17.41,1.31,5.73-4.87,4.69-5.56-13.89-6.08-16-8a37.46,37.46,0,0,1-4.69-6.07s-4-36.64-3.65-41.85,1.39-20.66,1.39-27.08-3-30.56-3-30.56Z" style="fill:#263238;stroke: #263238;stroke-miterlimit: 10"></path><g><line x1="471.11" y1="391.86" x2="534.64" y2="381.99" style="fill: none;stroke: #263238;stroke-miterlimit: 10"></line><line x1="530.86" y1="352.3" x2="468.94" y2="356.2" style="fill: none;stroke: #263238;stroke-miterlimit: 10"></line><circle cx="626.44" cy="358.82" r="9.11" style="fill:#fff;stroke: #263238;stroke-miterlimit: 10"></circle><path d="M465,309.47A49.51,49.51,0,1,0,514.46,359,49.51,49.51,0,0,0,465,309.47Zm0,91A41.52,41.52,0,1,1,506.47,359,41.51,41.51,0,0,1,465,400.49Z" style="fill:#263238;stroke: #263238;stroke-miterlimit: 10"></path><path d="M626.81,309.47A49.51,49.51,0,1,0,676.31,359,49.51,49.51,0,0,0,626.81,309.47Zm0,91A41.52,41.52,0,1,1,668.32,359,41.51,41.51,0,0,1,626.81,400.49Z" style="fill:#263238;stroke: #263238;stroke-miterlimit: 10"></path><path d="M549.25,367.38c0-.25.93-.52.91-.76s-1-.43-1-.68.87-.6.84-.84-1-.33-1-.57.81-.69.75-.93-1-.23-1.1-.47.74-.76.66-1-1-.13-1.14-.36.66-.83.55-1-1.05,0-1.16-.24.57-.89.44-1.11-1.05.08-1.18-.12.48-.95.33-1.14-1,.18-1.19,0,.39-1,.22-1.17-1,.28-1.18.11.29-1,.11-1.19-1,.38-1.17.22.19-1,0-1.19-.94.47-1.15.34.09-1.06-.12-1.19-.89.57-1.1.45,0-1.06-.24-1.17-.83.65-1.06.56-.12-1.06-.35-1.14-.76.72-1,.65-.22-1-.46-1.09-.69.79-.93.75-.33-1-.57-1.05-.6.86-.85.84-.42-1-.67-1-.51.92-.76.92-.52-.93-.76-.92-.43,1-.68,1-.6-.88-.84-.84-.33,1-.57,1.05-.69-.81-.93-.75-.23,1-.47,1.09-.76-.73-1-.65-.13,1-.36,1.14-.83-.66-1-.56,0,1.05-.24,1.17-.89-.57-1.11-.45.08,1-.12,1.19-.95-.48-1.14-.34.18,1,0,1.19-1-.39-1.17-.22.28,1,.11,1.19-1-.29-1.19-.11.38,1,.22,1.17-1-.19-1.19,0,.47.94.34,1.14-1.06-.09-1.19.13.57.88.45,1.1-1.06,0-1.17.24.65.83.56,1.06-1.06.12-1.14.35.72.76.65,1-1,.23-1.09.47.79.68.75.93-1,.32-1,.57.86.6.84.84-1,.43-1,.67.92.52.92.77-.93.52-.92.76,1,.43,1,.67-.88.61-.84.85,1,.33,1,.57-.81.69-.75.93,1,.23,1.09.46-.73.76-.65,1,1,.12,1.14.35-.66.83-.56,1.06,1,0,1.17.24-.57.89-.45,1.1,1.05-.08,1.19.13-.48.94-.34,1.14,1-.18,1.19,0-.38,1-.22,1.17,1-.28,1.19-.11-.29,1-.11,1.19,1-.38,1.17-.23-.19,1.05,0,1.19.94-.47,1.14-.33-.09,1.06.13,1.18.88-.56,1.1-.44,0,1.06.24,1.16.83-.64,1.06-.55.12,1.05.35,1.14.76-.73,1-.66.22,1,.46,1.1.68-.8.93-.75.32,1,.57,1.05.6-.87.84-.84.43,1,.68,1,.51-.91.76-.91.52.93.76.91.43-1,.67-1,.61.87.85.84.33-1,.57-1.05.69.81.93.75.23-1,.46-1.1.77.74,1,.66.12-1,.35-1.14.83.66,1.06.55,0-1.05.24-1.16.89.57,1.1.44-.08-1,.13-1.18.94.48,1.14.33-.18-1,0-1.19,1,.39,1.17.22-.28-1-.11-1.18,1,.29,1.19.11-.38-1-.23-1.17,1.05.19,1.19,0-.47-.94-.33-1.15,1.06.09,1.18-.12-.56-.89-.44-1.1,1.06,0,1.16-.24-.64-.83-.55-1.06,1.05-.12,1.14-.35-.73-.76-.66-1,1-.22,1.1-.46-.8-.69-.75-.93,1-.33,1-.57-.86-.6-.84-.85,1-.42,1-.67S549.25,367.63,549.25,367.38ZM534.64,379a11.67,11.67,0,1,1,11.66-11.66A11.67,11.67,0,0,1,534.64,379Z" style="fill:#263238"></path><circle cx="534.64" cy="367.38" r="8.78" style="fill:#263238"></circle><path d="M537,367.38a2.33,2.33,0,1,0-2.32,2.32A2.32,2.32,0,0,0,537,367.38Z" style="fill:#878787;stroke: #263238;stroke-miterlimit: 10"></path><rect x="446.83" y="323.22" width="82.11" height="3.4" transform="translate(-54.08 548.25) rotate(-56.06)" style="fill:#FFB847;stroke: #263238;stroke-miterlimit: 10"></rect><path d="M575,220.76A94.71,94.71,0,0,1,580.69,237a134.78,134.78,0,0,1,3.66,22.35s6.91,5.69,12.6,10.16,10,4.16,10,4.16,7.57.25,8.46.64,1.46,7.8-3.42,9a22.06,22.06,0,0,1-10.56,0c-1.63-.41-6.27-1-6.27-1l-23-15.64-5.29-38.21S569.31,215.88,575,220.76Zm29.52,86.64-9.37-25.07-4.25,1.59.58,1.54-79.38,3.08-7.09-22-4.32,1.38,30.92,96,4.24-1.37-1.15,1.22L538,366.9l60.16-63.59,2.12,5.67Zm-68.61,55.1L513.54,293l79.61-3.09,3.24,8.66Z" style="fill:#263238;stroke: #263238;stroke-miterlimit: 10"></path><path d="M595.15,282.33l-4.25,1.59.58,1.54-79.38,3.08-1.73-5.38-4.31,1.42,25.55,79.35,4.24-1.37-1.15,1.22L538,366.9l60.16-63.59,2.12,5.67,4.25-1.58ZM535.91,362.5,513.54,293l79.61-3.09,3.24,8.66Z" style="fill:#FFB847;stroke: #263238;stroke-miterlimit: 10"></path><rect x="497.39" y="328.74" width="4.53" height="70.31" transform="translate(88.1 825.09) rotate(-84.32)" style="fill:#263238"></rect><polyline points="491.95 261.33 495.06 264.61 507.32 265.3 513.89 259.6" style="fill: none;stroke: #263238;stroke-miterlimit: 10"></polyline><polygon points="497.65 265.3 498.17 267.89 500.69 267.89 505.01 266.51 505.6 265.3 497.65 265.3" style="fill: none;stroke: #263238;stroke-miterlimit: 10"></polygon><path d="M483.66,256.15a13.39,13.39,0,0,0,.69,2.93c.34.52,7.77,4.15,15,3.28s11.23-1.55,15.72-1.55,7.43,2.42,7.77.69-4.83-4.49-7.43-4.66-11.92,1-16.58,1S483,253.21,483.66,256.15Z" style="fill:#263238;stroke: #263238;stroke-miterlimit: 10"></path><path d="M626.81,354.92l-13.2-18.26-9.09-29.26L600.27,309s9.35,27.32,10.25,28.77c.8,1.28,10.74,15.35,13.12,18.72a4,4,0,1,0,3.17-1.55Z" style="fill:#FFB847;stroke: #263238;stroke-miterlimit: 10"></path><polygon points="590.9 283.92 584.22 266.57 588.72 264.69 595.15 282.33 590.9 283.92" style="fill:#fff;stroke: #263238;stroke-miterlimit: 10"></polygon><path d="M588.71,264.69l10.72-3.88a3,3,0,0,1,4,1.66h0a3,3,0,0,1-1.58,3.81L591,270.19Z" style="fill:#fff;stroke: #263238;stroke-miterlimit: 10"></path><g><path d="M592.78,284.45a2.27,2.27,0,0,1-.48-4.48l24-5.26a4.86,4.86,0,0,0-1-9.61H600.74a2.27,2.27,0,1,1,0-4.53h14.52a9.39,9.39,0,0,1,2,18.57l-24,5.25A2,2,0,0,1,592.78,284.45Z" style="fill:#263238"></path><path d="M609.62,261.26s7.12-.94,10.15-4,2.82-5.33,3.24-5.13,5,6.91,5.13,8.79-.32,5,.1,7.74,1.78,4.18,2.51,4.39,1,1.67.42,1.67-2.72,0-4-5.12.95-7.43-1-8.26-5.13,2.19-5.23,2.51S613.7,261.05,609.62,261.26Z" style="fill:#263238;stroke: #263238;stroke-miterlimit: 10"></path></g><circle cx="464.96" cy="358.98" r="9.84" transform="translate(-69.8 115.9) rotate(-13.23)" style="fill:#fff;stroke: #263238;stroke-miterlimit: 10"></circle><path d="M455.72,361.45l-1.63,3.08,12.13,10.13,1.81-.72a9.92,9.92,0,0,1,.73,4.71c-.18,2.89-2.72,14.12-2.72,14.12l5.07-.91a5.83,5.83,0,0,0,.18-2.89,3.8,3.8,0,0,0-1.63-2l3.62-11.05-3.62-7.78s-3.44-2.9-6-3.62S455.72,361.45,455.72,361.45Z" style="fill:#263238;stroke: #263238;stroke-miterlimit: 10"></path><path d="M531.38,369.78,524,343.65l2.62-.8,10.9,24.71a2.33,2.33,0,0,1-1.39,3l-1.78.64A2.3,2.3,0,0,1,531.38,369.78Z" style="fill:#263238;stroke: #263238;stroke-miterlimit: 10"></path></g><g><path d="M606.74,199.17s-1.49,2.64-1.15,3.78,1.72,5.16,1.38,6-3.21,1.5-3.21,1.5a42.75,42.75,0,0,1-4.47,6.65c-2.18,2.4-5,3-6.65,2.06a12.73,12.73,0,0,1-2.76-2.18L587,215.79,580.25,218s-7.79-20.06-7.68-21.44,2.18-4.93,2.18-4.93l-.46-3.44Z" style="fill:#fff;stroke: #263238;stroke-miterlimit: 10"></path><path d="M572.57,196.53s3.21,2.07,6.54,1a11.4,11.4,0,0,1,7.45.23c.69.46,2.64,3.56,4.24,3.33s2.52-3.33,3-3.67a3.55,3.55,0,0,0,.8-1.38l-19.83-6.19S572.34,193.44,572.57,196.53Z" style="fill:#9c9c9c;stroke: #263238;stroke-miterlimit: 10"></path><path d="M581.5,169.68s-3.13-1.25-4.81-1-3.76,1.46-3.34,3.55a10.77,10.77,0,0,1,.42,4.39c-.21,1.88-1.88,2.09-1.88,4.6s.21,7.1,1.25,8.57,18.18,6.89,22.15,7.73,10.87,2.72,13.38,1.25,4.18-8.15.63-16.51-12.54-12.12-16.72-12.54A96,96,0,0,0,581.5,169.68Z" style="fill:#fff;stroke: #263238;stroke-miterlimit: 10"></path><g><path d="M608.46,195.27a27.91,27.91,0,0,0-3-10.66c-2.87-5.73-6.77-7.45-7.34-6.54s4.36,6.88,6.19,9.86S608.46,195.84,608.46,195.27Z" style="fill:#263238;stroke: #263238;stroke-miterlimit: 10"></path><path d="M596.3,174.75l-.11,3.78s-5-4.24-6.54-4.93-4.12-1.83-4.12-1.83S590.57,169.25,596.3,174.75Z" style="fill:#263238;stroke: #263238;stroke-miterlimit: 10"></path><path d="M605.71,193.67s-4.59-7.11-6.77-8.83-2-.8-.8.92S605.71,193.67,605.71,193.67Z" style="fill:#263238;stroke: #263238;stroke-miterlimit: 10"></path><path d="M594.24,181.05l1.15,2.64s-6.08-3.78-7.8-5.5-.11-2.29,1.49-1.38A45.81,45.81,0,0,1,594.24,181.05Z" style="fill:#263238;stroke: #263238;stroke-miterlimit: 10"></path><path d="M584.27,174.52l.68,2.41a59.94,59.94,0,0,0-5.16-3.33c-2.29-1.26-1.72-2.18-.45-2.06S583.58,172.11,584.27,174.52Z" style="fill:#263238;stroke: #263238;stroke-miterlimit: 10"></path><path d="M605.36,197a30.07,30.07,0,0,0-5.73-4.93,39.56,39.56,0,0,0-7.91-3.09s1.49,3.89,3.78,5.15S605.36,197,605.36,197Z" style="fill:#263238;stroke: #263238;stroke-miterlimit: 10"></path><path d="M591.15,192.18a5.9,5.9,0,0,0-1.84-3.79c-1.72-1.49-6.42-5.16-6.08-3.67a8.77,8.77,0,0,0,3.79,4.93Z" style="fill:#263238;stroke: #263238;stroke-miterlimit: 10"></path><path d="M586.22,182.55s-9.64-8.83-9.64-7.57-.45,3,.92,4.13S586.22,182.55,586.22,182.55Z" style="fill:#263238;stroke: #263238;stroke-miterlimit: 10"></path></g><path d="M599.06,210.29s0,1.61,2.29,2.06" style="fill: none;stroke: #263238;stroke-miterlimit: 10"></path><path d="M588.05,198.48l8,1.61s5,3.78,6.07,4.12,3.44-1.26,3.44-1.26l.35-3.44-8.49-1.26-1.37.58-9.41-2.3Z" style="fill:#263238;stroke: #263238;stroke-miterlimit: 10"></path><path d="M589.08,195.16s-1.49,11.92-1.6,15.59a22.11,22.11,0,0,0,.34,5.5l2.06.69a46.64,46.64,0,0,1,.35-11.81c1-6.19,1.6-8.37,1.6-8.37Z" style="fill:#263238;stroke: #263238;stroke-miterlimit: 10"></path><path d="M573.14,194.7a49,49,0,0,0,14.22,10.89l.35-2.29s-10.44-5.39-14-10Z" style="fill:#263238;stroke: #263238;stroke-miterlimit: 10"></path><path d="M588.74,200.09s-2.18-5.16-4.7-4.25-3.1,4.93-2.18,7,4.7,2.41,6,1.37" style="fill:#fff;stroke: #263238;stroke-miterlimit: 10"></path></g><g><path d="M498.54,217s-9.28,3-14.13,10.5-1.21,22.62,1.21,25.85,22,13.53,34.73,16.35,28.07,6.06,28.07,6.06c-4.47,1-13,6.78-23,25.85C522.53,307.1,511.47,318,511.47,318s-8.08,6.46-8.28,9.49,7.87,6.66,10.7,8.28,10.1,8.28,16.16,10.7,9.49,1.42,8.88-1.21-8.88-12.32-10.3-16.76a26.63,26.63,0,0,1-1.41-7.27s19.39-19,28.07-27.26c7.34-7,15.14-19,16-21.21s-.65-10.75-5.47-13.45-42.19-19.87-42.19-19.87l-7.06-2Z" style="fill:#fff;stroke: #263238;stroke-miterlimit: 10"></path><path d="M520.14,309.72a95,95,0,0,1-8.67,8.29s-8.08,6.46-8.28,9.49,7.87,6.66,10.7,8.28,10.1,8.28,16.16,10.7,9.49,1.42,8.88-1.21-8.88-12.32-10.3-16.76a26.63,26.63,0,0,1-1.41-7.27l2.49-2.44C524.49,317.11,521.46,312.36,520.14,309.72Z" style="fill:#FFB847;stroke: #263238;stroke-miterlimit: 10"></path><path d="M527.35,322.88a14.87,14.87,0,0,1-.13-1.64l2.49-2.44c-5.22-1.69-8.25-6.44-9.57-9.08-1.36,1.51-2.81,3-4.13,4.22A23.07,23.07,0,0,0,527.35,322.88Z" style="fill:#263238;stroke: #263238;stroke-miterlimit: 10"></path><g><path d="M516.52,237.43l-18-20.39s-9.28,3-14.13,10.5-1.21,22.62,1.21,25.85,22,13.53,34.73,16.35c3.76.84,7.75,1.71,11.51,2.52,6.33-7.19,10.66-17.77,12.59-23.15-10.51-4.9-20.87-9.66-20.87-9.66Z" style="fill:#263238;stroke: #263238;stroke-miterlimit: 10"></path><path d="M499,237.43s8.88-2.62,12.32-1.81" style="fill: none;stroke: #fff;stroke-miterlimit: 10"></path><path d="M500.56,235a36.65,36.65,0,0,1,10.3-1.21" style="fill: none;stroke: #fff;stroke-miterlimit: 10"></path><path d="M526.55,271.11l5.31,1.15c6.33-7.19,10.66-17.77,12.59-23.15l-4.7-2.18C537.71,252.38,533,263.61,526.55,271.11Z" style="fill:#FFB847;stroke: #263238;stroke-miterlimit: 10"></path></g><polygon points="520.27 339.47 516.58 344.22 517.37 346.59 530.69 348.57 532.8 346.07 520.27 339.47" style="fill:#263238;stroke: #263238;stroke-miterlimit: 10"></polygon><path d="M528.63,328.51a34.16,34.16,0,0,1-1-3.78l-.24-.06a3.25,3.25,0,0,0-2.83.81A14.59,14.59,0,0,1,522,327.3s-5.25-1.21-7.88-5.25a20.73,20.73,0,0,1-2.16-4.43l-.46.39s-8.08,6.46-8.28,9.49,7.87,6.66,10.7,8.28,10.1,8.28,16.16,10.7,9.49,1.42,8.88-1.21S530.05,333,528.63,328.51Z" style="fill:#fff;stroke: #263238;stroke-miterlimit: 10"></path></g><g><path d="M573.14,194.7s-4.55-3.23-28.15,2.54a222.22,222.22,0,0,0-47.2,18c-2.44,1.41-1.67,3-1,3.85s16.55,16.93,22.06,19.24,17.19.38,25.65.38,21.81,0,26.94-3.85,6.92-13.21,6.92-13.21l4.11-4Z" style="fill:#FFB847;stroke: #263238;stroke-miterlimit: 10"></path><path d="M513.43,231.94l6.87,5.32s9.53-.44,17.07-.88,10.42-2.44,15.74-2.66a77.82,77.82,0,0,1,8.2,0l.67-8.65-10.42,1.55s-15.52,3.77-20.18,4S513.43,231.94,513.43,231.94Z" style="fill:#263238;stroke: #263238;stroke-miterlimit: 10"></path><path d="M547,220.35s5.69,8.13,11,9.35" style="fill: none;stroke: #263238;stroke-miterlimit: 10"></path><path d="M515.66,216.29s-2.44,8.94,15.45,17.48" style="fill: none;stroke: #263238;stroke-miterlimit: 10"></path></g><g><rect x="553.96" y="317.7" width="11.29" height="23.34" rx="1.5" transform="translate(369.74 -291.59) rotate(42.52)" style="fill:#fff;stroke: #263238;stroke-miterlimit: 10"></rect><path d="M572.27,322.82,565,316.19a.74.74,0,0,1,0-1l4.18-4.57c.28-.3,1.09-.7,1.39-.42l1.63-.09,5.2,4.76.4,2c.3.28,0,1.12-.3,1.42l-4.18,4.56A.74.74,0,0,1,572.27,322.82Z" style="fill:#fff;stroke: #263238;stroke-miterlimit: 10"></path><rect x="563.4" y="319.28" width="9.34" height="1.72" transform="translate(365.73 -299.74) rotate(42.52)" style="fill:#fff;stroke: #263238;stroke-miterlimit: 10"></rect><rect x="572.12" y="310.25" width="7.05" height="2.54" transform="matrix(0.74, 0.68, -0.68, 0.74, 361.89, -307.13)" style="fill:#263238;stroke: #263238;stroke-miterlimit: 10"></rect><rect x="574.65" y="309.7" width="4.4" height="1.02" transform="translate(361.33 -308.29) rotate(42.52)" style="fill:#263238;stroke: #263238;stroke-miterlimit: 10"></rect><rect x="553.7" y="322.91" width="13.29" height="11.29" transform="translate(-60.52 519.52) rotate(-47.48)" style="fill:#FFB847;stroke: #263238;stroke-miterlimit: 10"></rect><path d="M564.41,323.33a1.06,1.06,0,0,0-1.5.06l-6.2,6.77a1.06,1.06,0,0,0,.06,1.5l4.67,4.28,7.64-8.33Zm-5.18,8a1.07,1.07,0,0,1-.07-1.5l3.65-4a1.07,1.07,0,0,1,1.5-.07l2.32,2.13-5.09,5.54Z" style="fill:#263238;stroke: #263238;stroke-miterlimit: 10"></path></g><path d="M574.18,198.15s1.6,5.5,1.6,8.17-.35,7.81.36,9.41,2.19,5.88,2.19,5.88l4.11-4Z" style="fill:#263238;stroke: #263238;stroke-miterlimit: 10"></path><g><path d="M556.66,222.64s3.46,4.23,3.72,5.38-1.16,11.68-.26,15.52a101,101,0,0,0,5.65,15.78c2.82,6.54,2.89,12.68,3.4,12.94s18.27,7.2,18.27,7.2,4.11,1.15,5.26,2.31,2.18,1.66,3.21,2.56,6.41,2.57,8.08,2.95a8.43,8.43,0,0,0,5-.26c2.44-.64,5.77-5.13,6-5.64s-.52-3.08-.52-3.08a3,3,0,0,0,1.41-1.66c.52-1.29-.12-2.19-.51-2.31s-7.18-.9-8.46-.64-7.06,2.82-7.06,2.82L594.26,273l-13.93-12.52s-.33-10.89-1.1-14.86-1.15-7.31-1.15-7.31,1.54-8.73.9-14.37-5.78-9.75-6.16-10" style="fill:#FFB847;stroke: #263238;stroke-miterlimit: 10"></path><path d="M615.4,274.33c-.38-.13-7.18-.9-8.46-.64s-7.06,2.82-7.06,2.82L594.26,273l-13.93-12.52s-.33-10.89-1.1-14.86c-.25-1.31-.46-2.54-.63-3.61l-18.68.23a10.3,10.3,0,0,0,.2,1.32,101,101,0,0,0,5.65,15.78c2.82,6.54,2.89,12.68,3.4,12.94,5.76,2.87,11.82,5.09,17.73,7.62,5.68,2.43,11,6,17.09,7.4a8.43,8.43,0,0,0,5-.26c2.44-.64,5.77-5.13,6-5.64s-.52-3.08-.52-3.08a3,3,0,0,0,1.41-1.66C616.43,275.35,615.79,274.45,615.4,274.33Z" style="fill:#fff;stroke: #263238;stroke-miterlimit: 10"></path><path d="M600.45,280.61c-.19,1.45-2.45,3.72-3.08,4.33a35.44,35.44,0,0,0,6.62,2.34,8.43,8.43,0,0,0,5-.26c2.44-.64,5.77-5.13,6-5.64s-.52-3.08-.52-3.08a3,3,0,0,0,1.41-1.66c.52-1.29-.12-2.19-.51-2.31s-7.18-.9-8.46-.64-7.06,2.82-7.06,2.82A11.45,11.45,0,0,1,600.45,280.61Z" style="fill:#FFB847;stroke: #263238;stroke-miterlimit: 10"></path></g></g></g><g id="freepik--character-2--inject-46"><g><path d="M351,246a93,93,0,0,1,25,20.71c11.13,13.4,0,17.76-7.51,24.51S343.11,313,343.11,313s9.79,16.6,12.43,16.63.63,5.64-3.33,3.63-15.45-8-15.45-8S322.88,315,321.69,313.8s-.39-5.55,1.59-6.34,15.07-5.95,16.66-9.92,19.43-21.81,19.43-21.81L328,266.21s-15.87-16.66-12.3-20.62S351,246,351,246Z" style="fill:#263238;stroke: #263238;stroke-miterlimit: 10"></path><g><line x1="274.95" y1="391.86" x2="338.48" y2="381.99" style="fill: none;stroke: #263238;stroke-miterlimit: 10"></line><line x1="334.7" y1="352.3" x2="272.78" y2="356.2" style="fill: none;stroke: #263238;stroke-miterlimit: 10"></line><path d="M439.39,358.82a9.11,9.11,0,1,0-9.11,9.11A9.11,9.11,0,0,0,439.39,358.82Z" style="fill:#fff;stroke: #263238;stroke-miterlimit: 10"></path><path d="M268.8,309.47A49.51,49.51,0,1,0,318.3,359,49.51,49.51,0,0,0,268.8,309.47Zm0,91A41.52,41.52,0,1,1,310.31,359,41.52,41.52,0,0,1,268.8,400.49Z" style="fill:#263238;stroke: #263238;stroke-miterlimit: 10"></path><path d="M430.65,309.47A49.51,49.51,0,1,0,480.15,359,49.51,49.51,0,0,0,430.65,309.47Zm0,91A41.52,41.52,0,1,1,472.16,359,41.51,41.51,0,0,1,430.65,400.49Z" style="fill:#263238;stroke: #263238;stroke-miterlimit: 10"></path><path d="M353.09,367.38c0-.25.93-.52.92-.76s-1-.43-1-.68.87-.6.84-.84-1-.33-1.05-.57.81-.69.75-.93-1-.23-1.09-.47.73-.76.65-1-1-.13-1.14-.36.66-.83.55-1-1,0-1.16-.24.57-.89.44-1.11-1,.08-1.18-.12.48-.95.34-1.14-1,.18-1.2,0,.39-1,.23-1.17-1,.28-1.19.11.29-1,.11-1.19-1,.38-1.17.22.19-1,0-1.19-.94.47-1.14.34.08-1.06-.13-1.19-.88.57-1.1.45,0-1.06-.24-1.17-.83.65-1.06.56-.12-1.06-.35-1.14-.76.72-1,.65-.22-1-.46-1.09-.68.79-.93.75-.32-1-.57-1.05-.6.86-.85.84-.42-1-.67-1-.51.92-.76.92-.52-.93-.76-.92-.43,1-.67,1-.61-.88-.85-.84-.33,1-.57,1.05-.69-.81-.93-.75-.23,1-.46,1.09-.77-.73-1-.65-.13,1-.35,1.14-.84-.66-1.06-.56,0,1.05-.24,1.17-.89-.57-1.1-.45.08,1-.13,1.19-.94-.48-1.14-.34.18,1,0,1.19-1-.39-1.17-.22.28,1,.11,1.19-1-.29-1.19-.11.38,1,.22,1.17-1-.19-1.19,0,.48.94.34,1.14-1.06-.09-1.19.13.57.88.45,1.1-1.06,0-1.17.24.65.83.56,1.06-1.06.12-1.14.35.73.76.65,1-1,.23-1.09.47.8.68.75.93-1,.32-1,.57.86.6.84.84-1,.43-1,.67.92.52.92.77-.93.52-.92.76,1,.43,1,.67-.87.61-.84.85,1,.33,1,.57-.81.69-.75.93,1,.23,1.09.46-.73.76-.65,1,1,.12,1.14.35-.66.83-.55,1.06,1.05,0,1.16.24-.57.89-.44,1.1,1-.08,1.18.13-.48.94-.34,1.14,1-.18,1.2,0-.39,1-.23,1.17,1-.28,1.19-.11-.29,1-.11,1.19,1-.38,1.17-.23-.19,1.05,0,1.19.94-.47,1.14-.33-.08,1.06.13,1.18.88-.56,1.1-.44,0,1.06.24,1.16.83-.64,1.06-.55.12,1.05.35,1.14.76-.73,1-.66.22,1,.46,1.1.68-.8.93-.75.32,1,.57,1.05.6-.87.85-.84.42,1,.67,1,.51-.91.76-.91.52.93.76.91.43-1,.67-1,.61.87.85.84.33-1,.57-1.05.69.81.93.75.23-1,.46-1.1.77.74,1,.66.13-1,.35-1.14.84.66,1.06.55,0-1.05.24-1.16.89.57,1.1.44-.08-1,.13-1.18.94.48,1.14.33-.18-1,0-1.19,1,.39,1.17.22-.28-1-.11-1.18,1,.29,1.19.11-.38-1-.22-1.17,1,.19,1.19,0-.48-.94-.34-1.15,1.06.09,1.19-.12-.57-.89-.45-1.1,1.06,0,1.17-.24-.65-.83-.56-1.06,1.06-.12,1.14-.35-.73-.76-.65-1,1-.22,1.09-.46-.8-.69-.75-.93,1-.33,1.05-.57-.86-.6-.84-.85,1-.42,1-.67S353.09,367.63,353.09,367.38ZM338.48,379a11.67,11.67,0,1,1,11.66-11.66A11.66,11.66,0,0,1,338.48,379Z" style="fill:#263238"></path><path d="M347.26,367.38a8.78,8.78,0,1,0-8.78,8.78A8.78,8.78,0,0,0,347.26,367.38Z" style="fill:#263238"></path><path d="M340.8,367.38a2.32,2.32,0,1,0-2.32,2.32A2.32,2.32,0,0,0,340.8,367.38Z" style="fill:#878787;stroke: #263238;stroke-miterlimit: 10"></path><rect x="250.67" y="323.22" width="82.11" height="3.4" transform="translate(-140.71 385.51) rotate(-56.06)" style="fill:#fff;stroke: #263238;stroke-miterlimit: 10"></rect><path d="M378.84,220.76A94.71,94.71,0,0,1,384.53,237a134.78,134.78,0,0,1,3.66,22.35s6.91,5.69,12.6,10.16,10,4.16,10,4.16,7.57.25,8.46.64,1.46,7.8-3.41,9a22.1,22.1,0,0,1-10.57,0c-1.63-.41-6.27-1-6.27-1l-23-15.64-5.29-38.21S373.15,215.88,378.84,220.76Zm29.52,86.64L399,282.33l-4.24,1.59.57,1.54-79.38,3.08-7.09-22-4.31,1.38,30.91,96,4.25-1.37-1.16,1.22,3.29,3.12L402,303.31l2.12,5.67Zm-68.61,55.1L317.39,293l79.6-3.09,3.24,8.66Z" style="fill:#263238;stroke: #263238;stroke-miterlimit: 10"></path><rect x="301.23" y="328.74" width="4.53" height="70.31" transform="translate(-88.65 629.9) rotate(-84.32)" style="fill:#263238"></rect><polyline points="295.79 261.33 298.9 264.61 311.17 265.3 317.73 259.6" style="fill: none;stroke: #263238;stroke-miterlimit: 10"></polyline><polygon points="301.49 265.3 302.01 267.89 304.54 267.89 308.85 266.51 309.44 265.3 301.49 265.3" style="fill: none;stroke: #263238;stroke-miterlimit: 10"></polygon><path d="M287.5,256.15a13.39,13.39,0,0,0,.69,2.93c.34.52,7.77,4.15,15,3.28s11.23-1.55,15.72-1.55,7.43,2.42,7.77.69-4.83-4.49-7.42-4.66-11.92,1-16.59,1S286.81,253.21,287.5,256.15Z" style="fill:#263238;stroke: #263238;stroke-miterlimit: 10"></path><path d="M430.65,354.92l-13.19-18.26-9.1-29.26L399,282.33l-4.24,1.59.57,1.54-79.38,3.08-1.73-5.38-4.3,1.42,25.54,79.35,4.25-1.37-1.16,1.22,3.29,3.12L402,303.31l2.12,5.67s9.34,27.32,10.25,28.77c.8,1.28,10.73,15.35,13.11,18.72a4.05,4.05,0,1,0,7.23,2.51A4.06,4.06,0,0,0,430.65,354.92Zm-90.9,7.58L317.39,293l79.6-3.09,3.24,8.66Z" style="fill:#fff;stroke: #263238;stroke-miterlimit: 10"></path><path d="M434.71,359a4.06,4.06,0,0,0-4.06-4.06l-13.19-18.26-4.14-13.3-2.51,4.9c1.74,4.9,3.22,9,3.56,9.49.8,1.28,10.73,15.35,13.11,18.72a4.05,4.05,0,1,0,7.23,2.51Z" style="fill:#FFB847;stroke: #263238;stroke-miterlimit: 10"></path><g><polygon points="372.47 290.88 383.47 290.46 388.19 285.74 377.25 286.16 372.47 290.88" style="fill:#FFB847;stroke: #263238;stroke-miterlimit: 10"></polygon><polygon points="341.49 292.08 363.7 291.22 368.42 286.5 346.27 287.36 341.49 292.08" style="fill:#FFB847;stroke: #263238;stroke-miterlimit: 10"></polygon></g><polygon points="394.75 283.92 388.06 266.57 392.56 264.69 398.99 282.33 394.75 283.92" style="fill:#fff;stroke: #263238;stroke-miterlimit: 10"></polygon><path d="M392.56,264.69l10.71-3.88a3,3,0,0,1,4,1.66h0a3,3,0,0,1-1.58,3.81l-10.89,3.91Z" style="fill:#fff;stroke: #263238;stroke-miterlimit: 10"></path><g><path d="M396.63,284.45a2.27,2.27,0,0,1-.49-4.48l24-5.26a4.86,4.86,0,0,0-1-9.61H404.58a2.27,2.27,0,1,1,0-4.53H419.1a9.39,9.39,0,0,1,2,18.57l-24,5.25A2,2,0,0,1,396.63,284.45Z" style="fill:#263238"></path><path d="M413.47,261.26s7.11-.94,10.14-4,2.83-5.33,3.24-5.13,5,6.91,5.13,8.79-.32,5,.1,7.74,1.78,4.18,2.51,4.39,1.05,1.67.42,1.67-2.72,0-4-5.12.94-7.43-1.05-8.26-5.12,2.19-5.23,2.51S417.55,261.05,413.47,261.26Z" style="fill:#263238;stroke: #263238;stroke-miterlimit: 10"></path></g><circle cx="268.8" cy="358.98" r="9.84" transform="translate(-53.88 47.53) rotate(-9.19)" style="fill:#fff;stroke: #263238;stroke-miterlimit: 10"></circle><path d="M259.56,361.45l-1.62,3.08,12.13,10.13,1.81-.72a10,10,0,0,1,.72,4.71c-.18,2.89-2.72,14.12-2.72,14.12l5.07-.91a5.71,5.71,0,0,0,.18-2.89,3.8,3.8,0,0,0-1.62-2l3.62-11.05-3.62-7.78s-3.44-2.9-6-3.62S259.56,361.45,259.56,361.45Z" style="fill:#263238;stroke: #263238;stroke-miterlimit: 10"></path><path d="M335.22,369.78l-7.39-26.13,2.63-.8,10.89,24.71a2.33,2.33,0,0,1-1.39,3l-1.78.64A2.3,2.3,0,0,1,335.22,369.78Z" style="fill:#263238;stroke: #263238;stroke-miterlimit: 10"></path></g><g><path d="M409.22,217.78s-2.18,2.1-2.18,3.29-1.17,7-1.73,7.63-2.91-1.32-2.91-1.32a21.13,21.13,0,0,1-4.31,3.35c-2.78,1.69-6.81,3.47-8.09,2.13a12.84,12.84,0,0,1-2-2.87l-2.42-1.92-7.11.15s-1.73-21.45-1.23-22.74,3.5-4.1,3.5-4.1l.54-3.43Z" style="fill:#fff;stroke: #263238;stroke-miterlimit: 10"></path><path d="M377.23,205.48s2.49,2.9,6,2.86a11.32,11.32,0,0,1,7.08,2.35c.52.63,1.51,4.16,3.11,4.4s3.37-2.47,3.91-2.67a3.59,3.59,0,0,0,1.16-1.08l-17.24-11.61S377.9,202.45,377.23,205.48Z" style="fill:#263238;stroke: #263238;stroke-miterlimit: 10"></path><path d="M393.4,183.17c-2.72-.2-5.5-.3-8.46-.79-1.67-.28-4,.33-4.22,2.45s-.52,2.18-1.24,4.59-.35,8,.24,9.72,15.45,11.81,19,13.74,9.63,5.72,12.45,5,6.34-6.62,5.33-15.64c-.75-6.67-5.29-12.62-11-15.9C401.34,184,397.44,183.46,393.4,183.17Z" style="fill:#263238;stroke: #263238;stroke-miterlimit: 10"></path><path d="M414,203.39s-1.19-7.13-9.51-14.27-20.6-8.31-17.82-4,11.88,7.53,15.45,11.89S414.81,210.12,414,203.39Z" style="fill:#fff;stroke: #263238;stroke-miterlimit: 10"></path><path d="M396.76,226.42s-.45,1.54,1.61,2.63" style="fill: none;stroke: #263238;stroke-miterlimit: 10"></path><path d="M391.51,211.77l7.23,3.84s1.7,5,4.64,5.69a14,14,0,0,0,3.66-.23l1.31-3.19-7.77-3.64-1.48.16-8.35-4.89Z" style="fill:#263238;stroke: #263238;stroke-miterlimit: 10"></path><path d="M393.45,208.88s-4.84,11-6,14.49a22.06,22.06,0,0,0-1.24,5.37L388,230a46.68,46.68,0,0,1,3.7-11.22c2.76-5.64,3.93-7.56,3.93-7.56Z" style="fill:#263238;stroke: #263238;stroke-miterlimit: 10"></path><path d="M378.31,203.89a48.89,48.89,0,0,0,10.51,14.5l1-2.1s-8.46-8.15-10.55-13.56Z" style="fill:#263238;stroke: #263238;stroke-miterlimit: 10"></path><path d="M391.71,213.51s-.61-5.57-3.29-5.41-4.38,3.84-4.09,6.08,3.82,3.65,5.32,3" style="fill:#fff;stroke: #263238;stroke-miterlimit: 10"></path><path d="M379.72,199.14c.58,1.7,15.45,11.81,19,13.74s9.53,5.65,12.38,5c-5.61-4.52-8.7-10.21-14.69-16.76-10.38-11.36-15.71-16.33-15.71-16.33-.2,2.12-.52,2.18-1.24,4.59S379.13,197.44,379.72,199.14Z" style="fill:#fff;stroke: #263238;stroke-miterlimit: 10"></path></g><g><path d="M305,221.79s-11.5,3.57-15.86,11.9c-2.1,4-4,12.29-.79,18.24s22.26,24.49,28.16,32.13c3.83,5,13.48,14.67,13.48,14.67s-2.78,17.06-.79,26.57.76,24.31,0,30.78c-.62,5.13-5.26,18.3-3.22,20.56s24.65,5.38,29.41,4.59,5.16-1.19,2.78-3.18-13.68-8.82-15.34-13.82-.13-21.08,1.46-27,6.74-32.52,7.14-38.47-22.61-44.81-23.4-46-4-12.3-4-12.3Z" style="fill:#fff;stroke: #263238;stroke-miterlimit: 10"></path><path d="M337,268.13c-4.6-8.2-8.6-14.92-8.92-15.4-.8-1.19-4-12.3-4-12.3l-19-18.64s-11.5,3.57-15.86,11.9c-2.1,4-4,12.29-.79,18.24,3,5.64,20.3,22.58,27.12,30.84C319.43,278.27,327.08,270.93,337,268.13Z" style="fill:#FFB847;stroke: #263238;stroke-miterlimit: 10"></path><g><path d="M299.66,242.66,323.78,275c.63-.48,1.28-1,2-1.42l-23.28-31.21a15.83,15.83,0,0,1,1.93-3,1.65,1.65,0,0,0,.34-1.84c-.45-1-1.62-1.11-3.25-1.12,1.88-.51,4.26-1,6.42-1.45l-.45-2.37c-10.51,2-11.14,3.27-11.38,3.75a1.43,1.43,0,0,0,0,1.29c.61,1.21,2.34,1.2,4.53,1.19h1.17a18.89,18.89,0,0,0-1.81,3.2Z" style="fill:#263238"></path><path d="M307.6,241.81l3.22-5.64-2.1-1.2-4,7,22.32,30.73c.67-.43,1.36-.85,2.08-1.25Z" style="fill:#263238"></path></g><path d="M358.18,378.05c-2.38-2-13.68-8.82-15.34-13.82a14.86,14.86,0,0,1-.53-2.9c-3.5.82-9.73,2-14.5,1.22-1.44,5.73-3.23,12.53-1.82,14.09,2.05,2.26,24.65,5.38,29.41,4.59S360.56,380,358.18,378.05Z" style="fill:#263238;stroke: #263238;stroke-miterlimit: 10"></path></g><g><rect x="357.8" y="317.7" width="11.29" height="23.34" rx="1.5" transform="translate(318.17 -159.02) rotate(42.52)" style="fill:#fff;stroke: #263238;stroke-miterlimit: 10"></rect><path d="M376.11,322.82l-7.23-6.63a.74.74,0,0,1-.05-1l4.19-4.57c.27-.3,1.08-.7,1.38-.42l1.64-.09,5.19,4.76.41,2c.3.28,0,1.12-.3,1.42l-4.19,4.56A.74.74,0,0,1,376.11,322.82Z" style="fill:#fff;stroke: #263238;stroke-miterlimit: 10"></path><rect x="367.24" y="319.28" width="9.34" height="1.72" transform="translate(314.15 -167.17) rotate(42.52)" style="fill:#fff;stroke: #263238;stroke-miterlimit: 10"></rect><rect x="375.97" y="310.25" width="7.05" height="2.54" transform="matrix(0.74, 0.68, -0.68, 0.74, 310.32, -174.56)" style="fill:#263238;stroke: #263238;stroke-miterlimit: 10"></rect><rect x="378.49" y="309.7" width="4.4" height="1.02" transform="translate(309.75 -175.72) rotate(42.52)" style="fill:#263238;stroke: #263238;stroke-miterlimit: 10"></rect><rect x="357.55" y="322.91" width="13.29" height="11.29" transform="translate(-124.1 374.94) rotate(-47.48)" style="fill:#FFB847;stroke: #263238;stroke-miterlimit: 10"></rect><path d="M368.25,323.33a1.06,1.06,0,0,0-1.5.06l-6.2,6.77a1.06,1.06,0,0,0,.06,1.5l4.68,4.28,7.63-8.33Zm-5.18,8a1.07,1.07,0,0,1-.07-1.5l3.66-4a1.06,1.06,0,0,1,1.49-.07l2.32,2.13-5.09,5.54Z" style="fill:#263238;stroke: #263238;stroke-miterlimit: 10"></path></g><path d="M378.32,207.49s1.38,5.56,1.27,8.23-.67,7.79,0,9.42,2,6,2,6l4.26-3.81Z" style="fill:#263238;stroke: #263238;stroke-miterlimit: 10"></path><g><path d="M377.41,204s-8.5-4.8-32.31,0-41.3,16.16-43.8,17.47-1.78,2.88-1.17,3.8,13.56,20.82,19,23.35,10.79-4.4,19.25-4.06,30.45,3.08,35.73-.56,7.44-12.93,7.44-12.93l4.26-3.81Z" style="fill:#263238;stroke: #263238;stroke-miterlimit: 10"></path><g><path d="M360.5,222.64s3.46,4.23,3.72,5.38-1.15,11.68-.26,15.52a102,102,0,0,0,5.65,15.78c2.82,6.54,2.89,12.68,3.4,12.94s18.27,7.2,18.27,7.2,4.11,1.15,5.26,2.31,2.18,1.66,3.21,2.56,6.41,2.57,8.08,2.95a8.43,8.43,0,0,0,5-.26c2.44-.64,5.77-5.13,6-5.64s-.51-3.08-.51-3.08a3,3,0,0,0,1.41-1.66c.51-1.29-.13-2.19-.52-2.31s-7.18-.9-8.46-.64-7.06,2.82-7.06,2.82L398.11,273l-13.94-12.52s-.33-10.89-1.1-14.86-1.15-7.31-1.15-7.31,1.54-8.73.9-14.37-5.77-9.75-6.16-10" style="fill:#263238;stroke: #263238;stroke-miterlimit: 10"></path><path d="M419.24,274.33c-.38-.13-7.18-.9-8.46-.64s-7.06,2.82-7.06,2.82L398.11,273l-13.94-12.52s-.33-10.89-1.1-14.86c-.25-1.31-.46-2.54-.63-3.61l-18.68.23a12.43,12.43,0,0,0,.2,1.32,102,102,0,0,0,5.65,15.78c2.82,6.54,2.89,12.68,3.4,12.94s16.59,7.08,16.59,7.08,3.92,1.53,5.83,2.56a25.72,25.72,0,0,1,4.32,2.43c1,.9,6.41,2.57,8.08,2.95a8.43,8.43,0,0,0,5-.26c2.44-.64,5.77-5.13,6-5.64s-.51-3.08-.51-3.08a3,3,0,0,0,1.41-1.66C420.27,275.35,419.63,274.45,419.24,274.33Z" style="fill:#fff;stroke: #263238;stroke-miterlimit: 10"></path><path d="M405.26,283.35a30.43,30.43,0,0,1-2.19,2.48c1.82.64,3.85,1.24,4.76,1.45a8.43,8.43,0,0,0,5-.26c2.44-.64,5.77-5.13,6-5.64s-.51-3.08-.51-3.08a3,3,0,0,0,1.41-1.66c.51-1.29-.13-2.19-.52-2.31s-7.18-.9-8.46-.64-7.06,2.82-7.06,2.82S407.14,281,405.26,283.35Z" style="fill:#FFB847;stroke: #263238;stroke-miterlimit: 10"></path></g></g><polygon points="341.63 379.04 340.76 382.76 352.6 384.61 353.27 380.05 341.63 379.04" style="fill:#263238;stroke: #263238;stroke-miterlimit: 10"></polygon></g></g><g id="freepik--character-1--inject-46"><g><path d="M115.77,238.67s31.45,11.62,42.59,25,7.53,17.75,0,24.49S137,313,137,313s9.79,16.6,12.43,16.63.63,5.64-3.32,3.63-15.46-8-15.46-8S116.81,315,115.62,313.8s-.39-5.55,1.59-6.34,15.07-5.95,16.66-9.92S143.45,277,143.45,277l-29.81-13.31s-7.53-14.14-4-18.1S115.77,238.67,115.77,238.67Z" style="fill:#263238;stroke: #263238;stroke-miterlimit: 10"></path><g><line x1="68.89" y1="391.86" x2="132.41" y2="381.99" style="fill: none;stroke: #263238;stroke-miterlimit: 10"></line><line x1="128.63" y1="352.3" x2="66.71" y2="356.2" style="fill: none;stroke: #263238;stroke-miterlimit: 10"></line><path d="M233.32,358.82a9.11,9.11,0,1,0-9.11,9.11A9.11,9.11,0,0,0,233.32,358.82Z" style="fill:#fff;stroke: #263238;stroke-miterlimit: 10"></path><path d="M62.73,309.47A49.51,49.51,0,1,0,112.24,359,49.51,49.51,0,0,0,62.73,309.47Zm0,91A41.52,41.52,0,1,1,104.25,359,41.52,41.52,0,0,1,62.73,400.49Z" style="fill:#263238;stroke: #263238;stroke-miterlimit: 10"></path><path d="M224.58,309.47A49.51,49.51,0,1,0,274.08,359,49.51,49.51,0,0,0,224.58,309.47Zm0,91A41.52,41.52,0,1,1,266.09,359,41.52,41.52,0,0,1,224.58,400.49Z" style="fill:#263238;stroke: #263238;stroke-miterlimit: 10"></path><path d="M147,367.38c0-.25.93-.52.92-.76s-1-.43-1-.68.88-.6.84-.84-1-.33-1-.57.81-.69.75-.93-1-.23-1.09-.47.73-.76.65-1-1-.13-1.14-.36.66-.83.56-1-1.05,0-1.17-.24.57-.89.45-1.11-1.05.08-1.19-.12.48-.95.34-1.14-1,.18-1.19,0,.38-1,.22-1.17-1,.28-1.19.11.29-1,.11-1.19-1,.38-1.17.22.19-1,0-1.19-.94.47-1.14.34.09-1.06-.13-1.19-.88.57-1.1.45,0-1.06-.24-1.17-.83.65-1.06.56-.12-1.06-.35-1.14-.76.72-1,.65-.22-1-.46-1.09-.68.79-.93.75-.32-1-.57-1.05-.6.86-.84.84-.43-1-.68-1-.51.92-.76.92-.52-.93-.76-.92-.43,1-.67,1-.61-.88-.85-.84-.33,1-.57,1.05-.69-.81-.93-.75-.23,1-.46,1.09-.77-.73-1-.65-.12,1-.35,1.14-.83-.66-1.06-.56,0,1.05-.24,1.17-.89-.57-1.1-.45.08,1-.13,1.19-.94-.48-1.14-.34.18,1,0,1.19-1-.39-1.17-.22.28,1,.11,1.19-1-.29-1.19-.11.38,1,.23,1.17-1.05-.19-1.19,0,.47.94.33,1.14-1.06-.09-1.18.13.56.88.44,1.1-1.06,0-1.16.24.64.83.55,1.06-1,.12-1.14.35.73.76.66,1-1,.23-1.1.47.8.68.75.93-1,.32-1,.57.86.6.84.84-1,.43-1,.67.91.52.91.77-.93.52-.91.76,1,.43,1,.67-.87.61-.84.85,1,.33,1,.57-.81.69-.75.93,1,.23,1.1.46-.74.76-.66,1,1,.12,1.14.35-.66.83-.55,1.06,1,0,1.16.24-.57.89-.44,1.1,1-.08,1.18.13-.48.94-.33,1.14,1-.18,1.19,0-.39,1-.23,1.17,1-.28,1.19-.11-.29,1-.11,1.19,1-.38,1.17-.23-.19,1.05,0,1.19.94-.47,1.14-.33-.08,1.06.13,1.18.89-.56,1.1-.44,0,1.06.24,1.16.83-.64,1.06-.55.12,1.05.35,1.14.76-.73,1-.66.22,1,.46,1.1.69-.8.93-.75.33,1,.57,1.05.6-.87.85-.84.42,1,.67,1,.51-.91.76-.91.52.93.76.91.43-1,.68-1,.6.87.84.84.33-1,.57-1.05.69.81.93.75.23-1,.47-1.1.76.74,1,.66.13-1,.36-1.14.83.66,1.05.55,0-1.05.24-1.16.89.57,1.11.44-.08-1,.12-1.18.95.48,1.14.33-.18-1,0-1.19,1,.39,1.17.22-.28-1-.11-1.18,1,.29,1.19.11-.38-1-.22-1.17,1,.19,1.19,0-.48-.94-.34-1.15,1.06.09,1.19-.12-.57-.89-.45-1.1,1.06,0,1.17-.24-.65-.83-.56-1.06,1.06-.12,1.14-.35-.72-.76-.65-1,1-.22,1.09-.46-.79-.69-.75-.93,1-.33,1-.57-.86-.6-.84-.85,1-.42,1-.67S147,367.63,147,367.38ZM132.41,379a11.67,11.67,0,1,1,11.67-11.66A11.66,11.66,0,0,1,132.41,379Z" style="fill:#263238"></path><circle cx="132.41" cy="367.38" r="8.78" style="fill:#263238"></circle><path d="M134.74,367.38a2.33,2.33,0,1,0-2.33,2.32A2.33,2.33,0,0,0,134.74,367.38Z" style="fill:#878787;stroke: #263238;stroke-miterlimit: 10"></path><rect x="44.6" y="323.22" width="82.11" height="3.4" transform="translate(-231.72 214.56) rotate(-56.06)" style="fill:#263238;stroke: #263238;stroke-miterlimit: 10"></rect><path d="M202.29,307.4l-9.37-25.07-4.24,1.59.57,1.54-79.38,3.08-7.09-22-4.31,1.38,30.92,96,4.24-1.37-1.16,1.22,3.29,3.12,60.17-63.59,2.12,5.67Zm-68.6,55.1L111.32,293l79.6-3.09,3.24,8.66Z" style="fill:#263238;stroke: #263238;stroke-miterlimit: 10"></path><rect x="95.16" y="328.74" width="4.53" height="70.31" transform="translate(-274.32 424.84) rotate(-84.32)" style="fill:#263238"></rect><polyline points="89.72 261.33 92.83 264.61 105.1 265.3 111.66 259.6" style="fill: none;stroke: #263238;stroke-miterlimit: 10"></polyline><polygon points="95.42 265.3 95.94 267.89 98.47 267.89 102.78 266.51 103.37 265.3 95.42 265.3" style="fill: none;stroke: #263238;stroke-miterlimit: 10"></polygon><path d="M81.43,256.15a14,14,0,0,0,.69,2.93c.35.52,7.78,4.15,15,3.28s11.23-1.55,15.72-1.55,7.43,2.42,7.78.69-4.84-4.49-7.43-4.66-11.92,1-16.59,1S80.74,253.21,81.43,256.15Z" style="fill:#263238;stroke: #263238;stroke-miterlimit: 10"></path><path d="M224.58,354.92l-13.19-18.26-9.1-29.26-9.37-25.07-4.24,1.59.57,1.54-79.38,3.08-1.73-5.38-4.3,1.42,25.55,79.35,4.24-1.37-1.16,1.22,3.29,3.12,60.17-63.59,2.12,5.67s9.34,27.32,10.25,28.77c.8,1.28,10.73,15.35,13.11,18.72a4,4,0,1,0,3.17-1.55Zm-90.89,7.58L111.32,293l79.6-3.09,3.24,8.66Z" style="fill:#263238;stroke: #263238;stroke-miterlimit: 10"></path><polygon points="188.68 283.92 181.99 266.57 186.49 264.69 192.92 282.33 188.68 283.92" style="fill:#fff;stroke: #263238;stroke-miterlimit: 10"></polygon><path d="M186.49,264.69l10.71-3.88a3,3,0,0,1,4,1.66h0a3,3,0,0,1-1.58,3.81l-10.89,3.91Z" style="fill:#fff;stroke: #263238;stroke-miterlimit: 10"></path><g><path d="M190.56,284.45a2.27,2.27,0,0,1-2.21-1.79,2.25,2.25,0,0,1,1.73-2.69l24-5.26a4.86,4.86,0,0,0-1-9.61H198.51a2.27,2.27,0,1,1,0-4.53H213a9.39,9.39,0,0,1,2,18.57l-24,5.25A2.12,2.12,0,0,1,190.56,284.45Z" style="fill:#263238"></path><path d="M207.4,261.26s7.11-.94,10.14-4,2.83-5.33,3.25-5.13,5,6.91,5.12,8.79-.31,5,.1,7.74,1.78,4.18,2.51,4.39,1,1.67.42,1.67-2.72,0-4-5.12.94-7.43-1.05-8.26-5.12,2.19-5.23,2.51S211.48,261.05,207.4,261.26Z" style="fill:#263238;stroke: #263238;stroke-miterlimit: 10"></path></g><circle cx="62.73" cy="358.98" r="9.84" transform="translate(-235.46 149.5) rotate(-45)" style="fill:#fff;stroke: #263238;stroke-miterlimit: 10"></circle><path d="M53.5,361.45l-1.63,3.08L64,374.66l1.81-.72a10,10,0,0,1,.72,4.71c-.18,2.89-2.71,14.12-2.71,14.12l5.07-.91a5.83,5.83,0,0,0,.18-2.89,3.84,3.84,0,0,0-1.63-2l3.62-11.05-3.62-7.78s-3.44-2.9-6-3.62S53.5,361.45,53.5,361.45Z" style="fill:#263238;stroke: #263238;stroke-miterlimit: 10"></path><path d="M129.15,369.78l-7.39-26.13,2.63-.8,10.89,24.71a2.32,2.32,0,0,1-1.39,3l-1.77.64A2.31,2.31,0,0,1,129.15,369.78Z" style="fill:#263238;stroke: #263238;stroke-miterlimit: 10"></path></g><g><rect x="151.73" y="317.7" width="11.29" height="23.34" rx="1.5" transform="translate(263.98 -19.75) rotate(42.52)" style="fill:#fff;stroke: #263238;stroke-miterlimit: 10"></rect><path d="M170,322.82l-7.23-6.63a.74.74,0,0,1-.05-1l4.19-4.57c.27-.3,1.09-.7,1.38-.42l1.64-.09,5.19,4.76.41,2c.3.28,0,1.12-.3,1.42l-4.19,4.56A.74.74,0,0,1,170,322.82Z" style="fill:#fff;stroke: #263238;stroke-miterlimit: 10"></path><rect x="161.17" y="319.28" width="9.34" height="1.72" transform="translate(259.97 -27.9) rotate(42.52)" style="fill:#fff;stroke: #263238;stroke-miterlimit: 10"></rect><rect x="169.9" y="310.25" width="7.05" height="2.54" transform="translate(256.14 -35.29) rotate(42.52)" style="fill:#263238;stroke: #263238;stroke-miterlimit: 10"></rect><rect x="172.42" y="309.7" width="4.4" height="1.02" transform="translate(255.56 -36.45) rotate(42.52)" style="fill:#263238;stroke: #263238;stroke-miterlimit: 10"></rect><rect x="151.48" y="322.91" width="13.29" height="11.29" transform="translate(-190.91 223.05) rotate(-47.48)" style="fill:#FFB847;stroke: #263238;stroke-miterlimit: 10"></rect><path d="M162.18,323.33a1,1,0,0,0-1.49.06l-6.21,6.77a1.05,1.05,0,0,0,.07,1.5l4.67,4.28,7.64-8.33Zm-5.18,8a1.06,1.06,0,0,1-.06-1.5l3.65-4a1.07,1.07,0,0,1,1.5-.07l2.31,2.13-5.08,5.54Z" style="fill:#263238;stroke: #263238;stroke-miterlimit: 10"></path></g><g><g><g><path d="M99,221.79s-11.51,3.57-15.87,11.9c-2.1,4-4,12.29-.79,18.24s22.26,24.49,28.16,32.13c3.83,5,15,15.6,15,15.6s-4.32,16.13-2.34,25.64.77,24.31,0,30.78c-.62,5.13-5.26,18.3-3.21,20.56s24.65,5.38,29.41,4.59,5.15-1.19,2.77-3.18-13.68-8.82-15.33-13.82-.14-21.08,1.45-27,6.74-32.52,7.14-38.47-22.61-44.81-23.4-46-4-12.3-4-12.3Z" style="fill:#fff;stroke: #263238;stroke-miterlimit: 10"></path><g><path d="M134.89,314.15s-3.49,9.92-6.17,13.41" style="fill: none;stroke: #263238;stroke-miterlimit: 10"></path><path d="M135.43,312s.27-2.95.53-4.56" style="fill: none;stroke: #263238;stroke-miterlimit: 10"></path></g><path d="M130.89,268.13c-4.6-8.2-8.6-14.92-8.92-15.4-.79-1.19-4-12.3-4-12.3L99,221.79s-11.51,3.57-15.87,11.9c-2.1,4-4,12.29-.79,18.24,3,5.64,20.3,22.58,27.12,30.84C113.36,278.27,121,270.93,130.89,268.13Z" style="fill:#263238;stroke: #263238;stroke-miterlimit: 10"></path><path d="M152.11,378.05c-2.38-2-13.68-8.82-15.33-13.82a14.07,14.07,0,0,1-.54-2.9c-3.5.82-9.72,2-14.5,1.22-1.44,5.73-3.23,12.53-1.81,14.09,2,2.26,24.65,5.38,29.41,4.59S154.49,380,152.11,378.05Z" style="fill:#263238;stroke: #263238;stroke-miterlimit: 10"></path></g><g><path d="M82.31,251.93c3,5.64,20.3,22.58,27.12,30.84,1-1.13,2.2-2.43,3.63-3.79-5.61-5.25-20.63-19.51-25-25.58-5.43-7.52-4.94-19.71-4.94-19.71C81,237.69,79.14,246,82.31,251.93Z" style="fill:#FFB847;stroke: #263238;stroke-miterlimit: 10"></path><path d="M118.84,243.29l-21-8s15.7,10.55,21.13,18.07a97.08,97.08,0,0,1,8.84,15.79,32.31,32.31,0,0,1,3.1-1.06c-4.6-8.2-8.6-14.92-8.92-15.4C121.44,251.93,119.83,246.67,118.84,243.29Z" style="fill:#FFB847;stroke: #263238;stroke-miterlimit: 10"></path></g></g><g><path d="M153.43,220.39s20.27,20.72,24.46,22.93,30.86,13.22,30.86,13.22,5.29,4.41,6.83,4.63,6.39-4.63,6.39-4.63l-62.15-43.2Z" style="fill:#263238;stroke: #263238;stroke-miterlimit: 10"></path><path d="M155.43,177.39c-1.67-1.6-4.9,2.76-7.1,3.49a121.83,121.83,0,0,0-34.77,18.4C94.23,214,89.71,224,88,226.24s1.4,4.25,2.35,4.81,21.29,12.82,27.27,12.73,7.78-8.66,15.54-12,28.75-10.51,31.91-16.09,1.07-14.87,1.07-14.87l2.17-5.29Z" style="fill:#fff;stroke: #263238;stroke-miterlimit: 10"></path><path d="M152.25,214.09c5.89-5.31-5.68-16.27-13.9-12.62,0,0-16.74,12.18-23.75,18.27-6.74,5.87-16.76,13.31-16.78,15.59,2.57,1.43,5.54,3,8.42,4.41,1.09-2.62,4.37-8.81,12.93-14.82C130.44,217,146.35,219.4,152.25,214.09Z" style="fill:#FFB847;stroke: #263238;stroke-miterlimit: 10"></path><g><path d="M188,174.67s-1,2.67-.5,3.68,1.86,6.34,1.67,7.14-3,.08-3,.08a20,20,0,0,1-2.27,4.59c-1.65,2.55-4.33,5.71-6,5.1a11.6,11.6,0,0,1-2.87-1.6l-2.83-.63-5.93,3s-10.24-17.41-10.34-18.7,1.27-4.89,1.27-4.89l-.94-3.11Z" style="fill:#fff;stroke: #263238;stroke-miterlimit: 10"></path><path d="M155.92,177.37a8.1,8.1,0,0,0,6.2,0,10.69,10.69,0,0,1,6.94-.91c.7.33,3,2.9,4.43,2.44s1.83-3.45,2.2-3.84a3.33,3.33,0,0,0,.54-1.4l-19.3-2.74S155.24,174.54,155.92,177.37Z" style="fill:#263238;stroke: #263238;stroke-miterlimit: 10"></path><path d="M160.44,151.92c-2.38,1-4.77,2-7.47,2.8-1.52.45-3.26,1.92-2.56,3.79s.46,2.06.83,4.38,3,6.92,4.18,8.12,17.87,3.64,21.68,3.82,10.47.88,12.57-.85,2.64-8.18-1.91-15.39c-3.36-5.32-9.62-8.49-15.8-8.92C167.47,149.36,164,150.52,160.44,151.92Z" style="fill:#263238;stroke: #263238;stroke-miterlimit: 10"></path><path d="M181,187.06s.24,1.48,2.43,1.56" style="fill: none;stroke: #263238;stroke-miterlimit: 10"></path><path d="M170.54,176.85l7.67.27s3.49,3.55,6.25,2.91a13.22,13.22,0,0,0,3-1.68l-.19-3.24-8,.11L178,176l-9.05-.71Z" style="fill:#263238;stroke: #263238;stroke-miterlimit: 10"></path><path d="M171,173.61s.42,11.27.87,14.68a20.86,20.86,0,0,0,1.14,5.05l2,.32a43.65,43.65,0,0,1-1.46-11c0-5.89.22-8,.22-8Z" style="fill:#263238;stroke: #263238;stroke-miterlimit: 10"></path><path d="M156.17,175.59a45.89,45.89,0,0,0,14.8,7.94l0-2.17s-10.47-3.42-14.46-7.13Z" style="fill:#263238;stroke: #263238;stroke-miterlimit: 10"></path><path d="M171.42,178.23s-2.79-4.45-5-3.22-2.13,5-1,6.8,4.72,1.52,5.73.38" style="fill:#fff;stroke: #263238;stroke-miterlimit: 10"></path><path d="M155.42,171c1.19,1.19,17.87,3.64,21.68,3.82s10.36.86,12.51-.82c-6.58-1.52-11.52-5-19.26-8.14-13.4-5.34-19.94-7.36-19.94-7.36.7,1.88.46,2.06.83,4.38S154.23,169.81,155.42,171Z" style="fill:#263238;stroke: #263238;stroke-miterlimit: 10"></path></g></g></g><polygon points="135.57 379.04 134.69 382.76 146.53 384.61 147.21 380.05 135.57 379.04" style="fill:#263238;stroke: #263238;stroke-miterlimit: 10"></polygon><g><path d="M141,208.49l11.3,5.6,23.57,22.75a39.64,39.64,0,0,0,6.09,5.08c4.25,2.66,29.84,13.81,29.84,13.81l1.87,3a6.61,6.61,0,0,0,5.06.59,11.77,11.77,0,0,1,5,.12l1.64,4s-1.41,2.8.7,2.8,3.69-2,4.22-4.15S229.16,252,227,249.85s-12,0-12,0L187.11,227s-16-16-18.64-22.89C162.93,189.3,155,187.38,155,187.38s-10.77-2.48-16,5.63S137.19,205.36,141,208.49Z" style="fill:#fff;stroke: #263238;stroke-miterlimit: 10"></path><path d="M168.47,204.07C162.93,189.3,155,187.38,155,187.38s-10.77-2.48-16,5.63-1.81,12.35,1.95,15.48l11.3,5.6,4.24,4.1c5.35-1.95,12.31-4.4,17.38-5.84C171.37,209.22,169.28,206.21,168.47,204.07Z" style="fill:#263238;stroke: #263238;stroke-miterlimit: 10"></path><path d="M213.62,258.77a6.61,6.61,0,0,0,5.06.59,11.77,11.77,0,0,1,5,.12l1.64,4s-1.41,2.8.7,2.8,3.69-2,4.22-4.15S229.16,252,227,249.85s-12,0-12,0l-3.29,5.88Z" style="fill:#FFB847;stroke: #263238;stroke-miterlimit: 10"></path></g><path d="M187.76,158.59c-3.36-5.32-9.62-8.49-15.8-8.92-4.49-.31-8,.85-11.52,2.25-2,.8-4,1.67-6.22,2.4,2.65-.68,9.44-1.51,19.75,3.46a100.18,100.18,0,0,1,17.25,10.94A20.75,20.75,0,0,0,187.76,158.59Z" style="fill:#FFB847;stroke: #263238;stroke-miterlimit: 10"></path></g></g><g id="freepik--Floor--inject-46"><line x1="2.17" y1="408.48" x2="721.5" y2="408.48" style="fill: none;stroke: #263238;stroke-miterlimit: 10"></line></g></svg>
