<svg xmlns="http://www.w3.org/2000/svg" viewBox="0 0 750 500"><g id="freepik--background-simple--inject-2"><path d="M76.59,382.24l.44.26H714.42a20.12,20.12,0,0,0,4.8-9.22c4.85-19.75-2.19-42.38-14.65-57.6-5.63-6.89-12.6-12.73-16.88-20.59-6.62-12.17-5.75-27-6.27-40.94-1.6-42.61-17.42-78.4-42-107.75-16.82-20-37.74-37.09-61.06-51.25-18.46-11.22-38.24-20.31-59-25.8C384.36,33.67,279.87,62,240.67,96.67s-12.82,47.27-88.36,90.85c-29.5,17-64.47,29-91.15,50.72-27.71,22.55-36,63.62-23.72,97.22C44.92,355.83,59,370.88,76.59,382.24Z" style="fill:#FFB847"></path><path d="M76.59,382.24l.44.26H714.42a20.12,20.12,0,0,0,4.8-9.22c4.85-19.75-2.19-42.38-14.65-57.6-5.63-6.89-12.6-12.73-16.88-20.59-6.62-12.17-5.75-27-6.27-40.94-1.6-42.61-17.42-78.4-42-107.75-16.82-20-37.74-37.09-61.06-51.25-18.46-11.22-38.24-20.31-59-25.8C384.36,33.67,279.87,62,240.67,96.67s-12.82,47.27-88.36,90.85c-29.5,17-64.47,29-91.15,50.72-27.71,22.55-36,63.62-23.72,97.22C44.92,355.83,59,370.88,76.59,382.24Z" style="fill:#fff;opacity:0.7000000000000001"></path></g><g id="freepik--Floor--inject-2"><line x1="57.02" y1="382.3" x2="717.57" y2="382.3" style="fill:none;stroke:#263238;stroke-linecap:round;stroke-linejoin:round"></line></g><g id="freepik--Crowd--inject-2"><path d="M633.39,179.15a8.65,8.65,0,1,0-8.65,8.65A8.65,8.65,0,0,0,633.39,179.15Z" style="opacity:0.1"></path><path d="M435.9,179.15a8.65,8.65,0,1,0-8.65,8.65A8.65,8.65,0,0,0,435.9,179.15Z" style="opacity:0.1"></path><path d="M445.19,208.13a8.65,8.65,0,1,0-8.65,8.64A8.65,8.65,0,0,0,445.19,208.13Z" style="opacity:0.1"></path><path d="M407.41,178.4a8.65,8.65,0,1,0-8.64,8.65A8.64,8.64,0,0,0,407.41,178.4Z" style="opacity:0.1"></path><circle cx="500.77" cy="179.15" r="8.65" style="opacity:0.30000000000000004"></circle><path d="M450.2,133a8.65,8.65,0,1,0-7.07,7.07A8.66,8.66,0,0,0,450.2,133Z" style="opacity:0.30000000000000004"></path><path d="M316.26,140.23a8.65,8.65,0,1,0-7.07,7.06A8.66,8.66,0,0,0,316.26,140.23Z" style="opacity:0.30000000000000004"></path><path d="M435.78,157.55a8.65,8.65,0,1,0-7.06,7.06A8.66,8.66,0,0,0,435.78,157.55Z" style="opacity:0.30000000000000004"></path><path d="M396.77,134.66a8.66,8.66,0,1,0-7.07,7.06A8.67,8.67,0,0,0,396.77,134.66Z" style="opacity:0.30000000000000004"></path><path d="M583.9,230.24a8.65,8.65,0,1,0-8.64,8.65A8.65,8.65,0,0,0,583.9,230.24Z" style="opacity:0.30000000000000004"></path><path d="M481.24,218.88a8.65,8.65,0,1,0-8.64,8.65A8.64,8.64,0,0,0,481.24,218.88Z" style="opacity:0.30000000000000004"></path><circle cx="573.96" cy="269.43" r="8.65" style="opacity:0.1"></circle><circle cx="306.82" cy="289.52" r="8.65" transform="translate(-42.31 52.73) rotate(-9.19)" style="opacity:0.1"></circle><path d="M270.78,216a8.65,8.65,0,1,0-8.65,8.65A8.65,8.65,0,0,0,270.78,216Z" style="opacity:0.1"></path><path d="M244.54,190.14a8.65,8.65,0,1,0-8.65,8.65A8.64,8.64,0,0,0,244.54,190.14Z" style="opacity:0.1"></path><path d="M272,193.09a8.65,8.65,0,1,0-8.65,8.65A8.65,8.65,0,0,0,272,193.09Z" style="opacity:0.1"></path><path d="M660,216a8.65,8.65,0,1,0-8.65,8.65A8.65,8.65,0,0,0,660,216Z" style="opacity:0.30000000000000004"></path><path d="M639.16,148.88a8.65,8.65,0,1,0-8.65,8.64A8.65,8.65,0,0,0,639.16,148.88Z" style="opacity:0.30000000000000004"></path><circle cx="610.59" cy="135.05" r="8.65" style="opacity:0.30000000000000004"></circle><path d="M477.59,150.34a8.65,8.65,0,1,0-7.07,7.06A8.66,8.66,0,0,0,477.59,150.34Z" style="opacity:0.1"></path><circle cx="553.32" cy="237.62" r="8.65" style="opacity:0.30000000000000004"></circle><circle cx="425.03" cy="288.08" r="8.65" style="opacity:0.30000000000000004"></circle><path d="M507.19,231.86a8.65,8.65,0,1,0-8.65,8.65A8.65,8.65,0,0,0,507.19,231.86Z" style="opacity:0.30000000000000004"></path><path d="M195.82,218.88a8.65,8.65,0,1,0-8.64,8.65A8.64,8.64,0,0,0,195.82,218.88Z" style="opacity:0.30000000000000004"></path><path d="M220.39,172.85a8.65,8.65,0,1,0-8.65,8.65A8.65,8.65,0,0,0,220.39,172.85Z" style="opacity:0.30000000000000004"></path><path d="M578.61,148.88a8.65,8.65,0,1,0-8.65,8.64A8.65,8.65,0,0,0,578.61,148.88Z" style="opacity:0.1"></path><path d="M582.94,125.81a8.65,8.65,0,1,0-8.65,8.65A8.65,8.65,0,0,0,582.94,125.81Z" style="opacity:0.1"></path><circle cx="670.37" cy="152.1" r="8.65" transform="translate(-10.25 55.73) rotate(-4.72)" style="opacity:0.30000000000000004"></circle><path d="M662.22,124.37a8.65,8.65,0,1,0-8.65,8.65A8.65,8.65,0,0,0,662.22,124.37Z" style="opacity:0.30000000000000004"></path><circle cx="531.04" cy="133.02" r="8.65" style="opacity:0.30000000000000004"></circle><path d="M512.18,125.83a8.65,8.65,0,1,0-7.06,7.07A8.66,8.66,0,0,0,512.18,125.83Z" style="opacity:0.30000000000000004"></path><path d="M661.42,182a8.65,8.65,0,1,0-8.65,8.65A8.65,8.65,0,0,0,661.42,182Z" style="opacity:0.30000000000000004"></path><path d="M655.67,272.21a8.65,8.65,0,1,0-8.65,8.65A8.65,8.65,0,0,0,655.67,272.21Z" style="opacity:0.1"></path><path d="M618.51,228.86a8.65,8.65,0,1,0-8.65,8.65A8.65,8.65,0,0,0,618.51,228.86Z" style="opacity:0.1"></path><path d="M618.82,163.78a8.65,8.65,0,1,0-8.65,8.65A8.65,8.65,0,0,0,618.82,163.78Z" style="opacity:0.1"></path><circle cx="624.19" cy="115.23" r="8.65" transform="translate(-10.4 101.47) rotate(-9.22)" style="opacity:0.30000000000000004"></circle><path d="M512.3,200.77a8.65,8.65,0,1,0-8.65,8.65A8.65,8.65,0,0,0,512.3,200.77Z" style="opacity:0.30000000000000004"></path><circle cx="470.5" cy="193.56" r="8.65" style="opacity:0.30000000000000004"></circle><circle cx="416.73" cy="249" r="8.65" transform="translate(-34.43 69.77) rotate(-9.19)" style="opacity:0.30000000000000004"></circle><path d="M623.57,281.2a8.65,8.65,0,1,0-8.65,8.65A8.65,8.65,0,0,0,623.57,281.2Z" style="opacity:0.30000000000000004"></path><circle cx="456.74" cy="269.34" r="8.65" transform="translate(133.5 689.66) rotate(-82.97)" style="opacity:0.1"></circle><path d="M563.41,279.43a8.65,8.65,0,1,0-8.65,8.65A8.65,8.65,0,0,0,563.41,279.43Z" style="opacity:0.30000000000000004"></path><circle cx="391.95" cy="238.47" r="8.65" transform="translate(107.47 598.42) rotate(-83)" style="opacity:0.30000000000000004"></circle><circle cx="332.5" cy="168.49" r="8.65" transform="translate(92.37 453.59) rotate(-76.77)" style="opacity:0.30000000000000004"></circle><path d="M533.14,259.25a8.65,8.65,0,1,0-8.65,8.65A8.65,8.65,0,0,0,533.14,259.25Z" style="opacity:0.1"></path><path d="M421.49,200.77a8.65,8.65,0,1,0-8.65,8.65A8.65,8.65,0,0,0,421.49,200.77Z" style="opacity:0.30000000000000004"></path><circle cx="551.88" cy="217.44" r="8.65" style="opacity:0.30000000000000004"></circle><circle cx="512.58" cy="290.96" r="8.65" transform="translate(-19.31 37.02) rotate(-4.06)" style="opacity:0.30000000000000004"></circle><path d="M678.66,244.82a8.65,8.65,0,1,0-8.65,8.65A8.64,8.64,0,0,0,678.66,244.82Z" style="opacity:0.30000000000000004"></path><path d="M542.45,167.64a8.65,8.65,0,1,0-7.06,7.06A8.65,8.65,0,0,0,542.45,167.64Z" style="opacity:0.30000000000000004"></path><path d="M196.9,133a8.65,8.65,0,1,0-7.06,7.07A8.66,8.66,0,0,0,196.9,133Z" style="opacity:0.30000000000000004"></path><path d="M182.49,157.55a8.65,8.65,0,1,0-7.07,7.06A8.67,8.67,0,0,0,182.49,157.55Z" style="opacity:0.30000000000000004"></path><path d="M224.29,150.34a8.65,8.65,0,1,0-7.06,7.06A8.66,8.66,0,0,0,224.29,150.34Z" style="opacity:0.1"></path><path d="M220,122.47a8.65,8.65,0,1,0-7.07,7.07A8.66,8.66,0,0,0,220,122.47Z" style="opacity:0.1"></path><path d="M183.42,185a8.65,8.65,0,1,0-7.07,7.07A8.66,8.66,0,0,0,183.42,185Z" style="opacity:0.1"></path><circle cx="277.75" cy="133.02" r="8.65" style="opacity:0.30000000000000004"></circle><path d="M258.89,125.83a8.65,8.65,0,1,0-7.07,7.07A8.66,8.66,0,0,0,258.89,125.83Z" style="opacity:0.30000000000000004"></path><path d="M289.16,167.64a8.65,8.65,0,1,0-7.06,7.06A8.65,8.65,0,0,0,289.16,167.64Z" style="opacity:0.30000000000000004"></path><path d="M643.39,245.9a8.65,8.65,0,1,0-8.65,8.65A8.65,8.65,0,0,0,643.39,245.9Z" style="opacity:0.30000000000000004"></path><path d="M636.56,209.36a8.65,8.65,0,1,0-8.65,8.65A8.66,8.66,0,0,0,636.56,209.36Z" style="opacity:0.1"></path><path d="M125.19,242a8.65,8.65,0,1,0-8.65,8.65A8.65,8.65,0,0,0,125.19,242Z" style="opacity:0.30000000000000004"></path><path d="M135.28,273.66a8.65,8.65,0,1,0-8.65,8.65A8.65,8.65,0,0,0,135.28,273.66Z" style="opacity:0.30000000000000004"></path><path d="M100.69,237.62A8.65,8.65,0,1,0,92,246.27,8.65,8.65,0,0,0,100.69,237.62Z" style="opacity:0.30000000000000004"></path><path d="M194.38,272.21a8.65,8.65,0,1,0-8.65,8.65A8.65,8.65,0,0,0,194.38,272.21Z" style="opacity:0.30000000000000004"></path><path d="M107.67,205.65A8.65,8.65,0,1,0,99,214.3,8.65,8.65,0,0,0,107.67,205.65Z" style="opacity:0.1"></path><path d="M138.64,138.76a8.65,8.65,0,1,0-8.65,8.65A8.65,8.65,0,0,0,138.64,138.76Z" style="opacity:0.1"></path><circle cx="93.48" cy="279.43" r="8.65" transform="translate(-199.95 306.21) rotate(-76.72)" style="opacity:0.30000000000000004"></circle><path d="M71.85,259.25a8.65,8.65,0,1,0-8.64,8.65A8.64,8.64,0,0,0,71.85,259.25Z" style="opacity:0.30000000000000004"></path><path d="M213.12,246.27a8.65,8.65,0,1,0-8.65,8.65A8.65,8.65,0,0,0,213.12,246.27Z" style="opacity:0.30000000000000004"></path><path d="M177.73,244.82a8.65,8.65,0,1,0-8.65,8.65A8.65,8.65,0,0,0,177.73,244.82Z" style="opacity:0.30000000000000004"></path><path d="M400.15,283.58a8.65,8.65,0,1,0-8.65,8.65A8.65,8.65,0,0,0,400.15,283.58Z" style="opacity:0.30000000000000004"></path><path d="M365.92,276.87a8.65,8.65,0,1,0-8.65,8.65A8.65,8.65,0,0,0,365.92,276.87Z" style="opacity:0.30000000000000004"></path><path d="M354.39,230.42a8.65,8.65,0,1,0-8.65,8.65A8.65,8.65,0,0,0,354.39,230.42Z" style="opacity:0.30000000000000004"></path><path d="M354.75,205a8.65,8.65,0,1,0-8.65,8.65A8.65,8.65,0,0,0,354.75,205Z" style="opacity:0.30000000000000004"></path><path d="M364.68,153.63a8.65,8.65,0,1,0-8.65,8.65A8.65,8.65,0,0,0,364.68,153.63Z" style="opacity:0.30000000000000004"></path><path d="M365.92,183.35a8.65,8.65,0,1,0-8.65,8.65A8.65,8.65,0,0,0,365.92,183.35Z" style="opacity:0.30000000000000004"></path><path d="M243.4,216a8.65,8.65,0,1,0-8.65,8.65A8.65,8.65,0,0,0,243.4,216Z" style="opacity:0.30000000000000004"></path><path d="M272.23,242a8.65,8.65,0,1,0-8.65,8.65A8.65,8.65,0,0,0,272.23,242Z" style="opacity:0.30000000000000004"></path><path d="M282.32,273.66a8.65,8.65,0,1,0-8.65,8.65A8.66,8.66,0,0,0,282.32,273.66Z" style="opacity:0.30000000000000004"></path><path d="M247.72,237.62a8.65,8.65,0,1,0-8.65,8.65A8.64,8.64,0,0,0,247.72,237.62Z" style="opacity:0.1"></path><circle cx="242.68" cy="162.92" r="8.65" transform="translate(-12.63 20.6) rotate(-4.74)" style="opacity:0.1"></circle><path d="M351.66,125.76a8.65,8.65,0,1,0-8.65,8.65A8.65,8.65,0,0,0,351.66,125.76Z" style="opacity:0.1"></path><path d="M217.91,215.56a8.65,8.65,0,1,0-8.65,8.65A8.65,8.65,0,0,0,217.91,215.56Z" style="opacity:0.1"></path><path d="M341.42,272.21a8.65,8.65,0,1,0-8.65,8.65A8.65,8.65,0,0,0,341.42,272.21Z" style="opacity:0.30000000000000004"></path><circle cx="443.77" cy="237.62" r="8.65" style="opacity:0.30000000000000004"></circle><path d="M249.16,279.43a8.65,8.65,0,1,0-8.65,8.65A8.65,8.65,0,0,0,249.16,279.43Z" style="opacity:0.30000000000000004"></path><path d="M218.89,259.25a8.65,8.65,0,1,0-8.65,8.65A8.65,8.65,0,0,0,218.89,259.25Z" style="opacity:0.30000000000000004"></path><circle cx="131.23" cy="208.13" r="8.65" style="opacity:0.30000000000000004"></circle><circle cx="94.71" cy="140" r="8.65" style="opacity:0.30000000000000004"></circle><circle cx="98.4" cy="172.21" r="8.65" transform="translate(-26.31 17.99) rotate(-9.22)" style="opacity:0.30000000000000004"></circle><path d="M324.12,246.27a8.65,8.65,0,1,0-8.65,8.65A8.65,8.65,0,0,0,324.12,246.27Z" style="opacity:0.30000000000000004"></path><path d="M292.41,249.16a8.65,8.65,0,1,0-8.65,8.65A8.65,8.65,0,0,0,292.41,249.16Z" style="opacity:0.1"></path><path d="M140.68,174.22a8.65,8.65,0,1,0-8.65,8.65A8.65,8.65,0,0,0,140.68,174.22Z" style="opacity:0.1"></path><path d="M74.85,179.64a8.65,8.65,0,1,0-8.65,8.65A8.65,8.65,0,0,0,74.85,179.64Z" style="opacity:0.1"></path><circle cx="306.82" cy="221.77" r="8.65" style="opacity:0.1"></circle><path d="M570,186.35a8.65,8.65,0,1,0-8.65,8.65A8.64,8.64,0,0,0,570,186.35Z" style="opacity:0.30000000000000004"></path><path d="M536.81,186.35a8.65,8.65,0,1,0-8.65,8.65A8.64,8.64,0,0,0,536.81,186.35Z" style="opacity:0.1"></path></g><g id="freepik--Glass--inject-2"><line x1="149.19" y1="301.02" x2="149.19" y2="87.98" style="fill:#fff;stroke:#263238;stroke-linecap:round;stroke-linejoin:round"></line><line x1="159.1" y1="301.02" x2="159.1" y2="87.98" style="fill:#fff;stroke:#263238;stroke-linecap:round;stroke-linejoin:round"></line><line x1="368.42" y1="301.02" x2="368.42" y2="87.98" style="fill:#fff;stroke:#263238;stroke-linecap:round;stroke-linejoin:round"></line><line x1="378.33" y1="301.02" x2="378.33" y2="87.98" style="fill:#fff;stroke:#263238;stroke-linecap:round;stroke-linejoin:round"></line><line x1="587.65" y1="301.02" x2="587.65" y2="87.98" style="fill:#fff;stroke:#263238;stroke-linecap:round;stroke-linejoin:round"></line><line x1="597.56" y1="301.02" x2="597.56" y2="87.98" style="fill:#fff;stroke:#263238;stroke-linecap:round;stroke-linejoin:round"></line><line x1="275.74" y1="132.34" x2="250.78" y2="151.83" style="fill:#fff;stroke:#263238;stroke-linecap:round;stroke-linejoin:round"></line><line x1="304.56" y1="109.82" x2="278.37" y2="130.28" style="fill:#fff;stroke:#263238;stroke-linecap:round;stroke-linejoin:round"></line><line x1="329.12" y1="97.6" x2="281.81" y2="134.56" style="fill:#fff;stroke:#263238;stroke-linecap:round;stroke-linejoin:round"></line><line x1="335.59" y1="92.55" x2="331.84" y2="95.48" style="fill:#fff;stroke:#263238;stroke-linecap:round;stroke-linejoin:round"></line><line x1="404.01" y1="243.34" x2="379.06" y2="262.83" style="fill:#fff;stroke:#263238;stroke-linecap:round;stroke-linejoin:round"></line><line x1="432.84" y1="220.82" x2="406.64" y2="241.28" style="fill:#fff;stroke:#263238;stroke-linecap:round;stroke-linejoin:round"></line><line x1="457.39" y1="208.6" x2="410.08" y2="245.56" style="fill:#fff;stroke:#263238;stroke-linecap:round;stroke-linejoin:round"></line><line x1="463.86" y1="203.54" x2="460.11" y2="206.48" style="fill:#fff;stroke:#263238;stroke-linecap:round;stroke-linejoin:round"></line><line x1="626.01" y1="168.49" x2="601.05" y2="187.98" style="fill:#fff;stroke:#263238;stroke-linecap:round;stroke-linejoin:round"></line><line x1="654.83" y1="145.97" x2="628.64" y2="166.43" style="fill:#fff;stroke:#263238;stroke-linecap:round;stroke-linejoin:round"></line><line x1="679.39" y1="133.75" x2="632.08" y2="170.71" style="fill:#fff;stroke:#263238;stroke-linecap:round;stroke-linejoin:round"></line><line x1="685.86" y1="128.69" x2="682.11" y2="131.62" style="fill:#fff;stroke:#263238;stroke-linecap:round;stroke-linejoin:round"></line><line x1="78.65" y1="193.02" x2="53.7" y2="212.51" style="fill:#fff;stroke:#263238;stroke-linecap:round;stroke-linejoin:round"></line><line x1="107.48" y1="170.5" x2="81.28" y2="190.96" style="fill:#fff;stroke:#263238;stroke-linecap:round;stroke-linejoin:round"></line><line x1="132.03" y1="158.28" x2="84.73" y2="195.24" style="fill:#fff;stroke:#263238;stroke-linecap:round;stroke-linejoin:round"></line><line x1="138.51" y1="153.23" x2="134.75" y2="156.16" style="fill:#fff;stroke:#263238;stroke-linecap:round;stroke-linejoin:round"></line><line x1="39.57" y1="300.4" x2="699.12" y2="300.4" style="fill:#fff;stroke:#263238;stroke-linecap:round;stroke-linejoin:round"></line></g><g id="freepik--character-2--inject-2"><path d="M577.88,241.88a38.67,38.67,0,0,1,4.21,1.55" style="fill:none;stroke:#263238;stroke-linecap:round;stroke-linejoin:round"></path><path d="M556.49,248.05s5-9.46,18.39-6.91" style="fill:none;stroke:#263238;stroke-linecap:round;stroke-linejoin:round"></path><path d="M568.19,239.34s10.09-4.42,16.35-.82" style="fill:none;stroke:#263238;stroke-linecap:round;stroke-linejoin:round"></path><path d="M359.44,424.39a25.59,25.59,0,0,0-7.55,0h-7.07v4.06c0,2.39,4.86,4.33,10.84,4.33s10.84-1.94,10.84-4.33v-4.06Z" style="fill:#263238;stroke:#263238;stroke-linecap:round;stroke-linejoin:round"></path><ellipse cx="355.66" cy="424.39" rx="10.84" ry="4.34" style="fill:#263238;stroke:#263238;stroke-linecap:round;stroke-linejoin:round"></ellipse><ellipse cx="355.66" cy="424.39" rx="5.53" ry="2.21" style="fill:#fff;stroke:#263238;stroke-linecap:round;stroke-linejoin:round"></ellipse><line x1="369.48" y1="422.18" x2="379.04" y2="422.18" style="fill:none;stroke:#263238;stroke-linecap:round;stroke-linejoin:round"></line><line x1="373.07" y1="430.94" x2="392.58" y2="430.94" style="fill:none;stroke:#263238;stroke-linecap:round;stroke-linejoin:round"></line><line x1="649.86" y1="421.91" x2="656.23" y2="421.91" style="fill:none;stroke:#263238;stroke-linecap:round;stroke-linejoin:round"></line><ellipse cx="593.59" cy="424.71" rx="89.66" ry="10.34" style="opacity:0.2"></ellipse><path d="M570.68,418l2.69,4.49s2,1.62,6.29-7.72,4.85-20.84,4.85-25.33-2.87-15.81-2.87-15.81l-3.6,3.24s1.26,16.7-1.07,25.5A71.18,71.18,0,0,1,570.68,418Z" style="fill:#fff;stroke:#263238;stroke-linecap:round;stroke-linejoin:round"></path><path d="M504,326.91s4.31,28.2,8.44,40.78,11,27.84,14.91,30.89,7.18,3.59,12.93,1.44,9.88-3.77,14-5.57,6.83-3.05,8.62-3.77,1.8,2.69,1.26,8.44-.9,9.7-1.44,13.11,1.91,5.75,7.91,5.75c.9,0,5.57,2.52,9.52-7.36a50.65,50.65,0,0,0,2.51-26.23c-1.07-5-.36-11.67-3.59-13.47s-8.8-1.8-10.06-1.44a42.19,42.19,0,0,1-4.49.72s-8.8-1.8-10.78-2.15-5.57-1.26-5.57-1.26l-.89-45.09Z" style="fill:#fff;stroke:#263238;stroke-linecap:round;stroke-linejoin:round"></path><path d="M547.15,368.22s1,9.39-2.9,15.94" style="fill:none;stroke:#263238;stroke-linecap:round;stroke-linejoin:round"></path><line x1="543.36" y1="387.43" x2="540.98" y2="390.11" style="fill:none;stroke:#263238;stroke-linecap:round;stroke-linejoin:round"></line><path d="M519,378.8s13.39,1.78,24.41-3.87" style="fill:none;stroke:#263238;stroke-linecap:round;stroke-linejoin:round"></path><path d="M549.62,367.13l-1.4-.34-.89-45.09L504,326.91s4.31,28.2,8.44,40.78c.53,1.6,1.1,3.25,1.7,4.91a116.26,116.26,0,0,0,19.67-1.14C544.85,369.91,548.54,367.91,549.62,367.13Z" style="fill:#263238;stroke:#263238;stroke-linecap:round;stroke-linejoin:round"></path><path d="M569.06,388.34s1.62.54,1.62,3.42-2.88,11.67-1.08,12.57,4.67,2,5-1.62,1.8-9.52-.18-13.65S572.12,386,569.06,388.34Z" style="fill:#fff;stroke:#263238;stroke-linecap:round;stroke-linejoin:round"></path><path d="M582.71,384.39c-1.07-5-.36-11.67-3.59-13.47s-8.8-1.8-10.06-1.44a42.19,42.19,0,0,1-4.49.72s-8.8-1.8-10.78-2.15c-1.6-.3-4.28-.95-5.22-1.18l-1.42,1.35s4,7,3.41,14.91-3,11.68-4.49,13.3c-.73.81-1.54,1.63-2.17,2.24,4-1.53,7.21-2.82,10.43-4.22,4.13-1.8,6.83-3.05,8.62-3.77s1.8,2.69,1.26,8.44-.9,9.7-1.44,13.11,1.91,5.75,7.91,5.75c.9,0,5.57,2.52,9.52-7.36A50.65,50.65,0,0,0,582.71,384.39Z" style="fill:#263238;stroke:#263238;stroke-linecap:round;stroke-linejoin:round"></path><path d="M565.36,390.3s5.59-2.1,7-.47.7,14-1.17,17.47-5.59,3.27-5.59-.7,1.17-10.48,1.17-13.51S565.36,390.3,565.36,390.3Z" style="fill:#fff;stroke:#263238;stroke-linecap:round;stroke-linejoin:round"></path><path d="M551.25,395.75c1-.43,2.07-.86,3.08-1.3,3-1.3,5.21-2.31,6.9-3.05a26.28,26.28,0,0,0,1.72-9.88,20,20,0,0,0-4.59-12.58c-2-.39-3.79-.75-4.57-.89-1.6-.3-4.28-.95-5.22-1.18,0,0,2.35,3,4.68,13.57A21,21,0,0,1,551.25,395.75Z" style="fill:#fff;stroke:#263238;stroke-linecap:round;stroke-linejoin:round"></path><path d="M649.53,438.1s9.52,5.39,8.45,3.23-4.31-7.54-4.31-7.54Z" style="fill:#fff;stroke:#263238;stroke-linecap:round;stroke-linejoin:round"></path><path d="M575.17,357.63s9.52,17.42,14.73,25,13.47,14.73,17.6,19.76,11.14,10.06,11.86,10.6a91.33,91.33,0,0,1,9.7,11.68c2.33,3.77,9.34,11.49,14.73,13.83s13.11-1.8,12.57-7.37S650.25,420,647,417.26s-5.75-2.51-7.54-5.92-4.14-11.86-7.91-21.2a66.87,66.87,0,0,0-10.24-17.78c-3.23-4.31-7.54-8.63-8.62-10.42s-6.11-18-6.11-18Z" style="fill:#fff;stroke:#263238;stroke-linecap:round;stroke-linejoin:round"></path><path d="M604.94,381.94a23.51,23.51,0,0,1-5.91,1.92" style="fill:none;stroke:#263238;stroke-linecap:round;stroke-linejoin:round"></path><path d="M605.87,352s2.38,8.64,4.77,11.61,7.14,4.77,6.25,8.34c-.56,2.24-4.53,5.9-9.25,8.6" style="fill:none;stroke:#263238;stroke-linecap:round;stroke-linejoin:round"></path><path d="M647,417.26c-3.23-2.69-5.75-2.51-7.54-5.93s-4.14-11.85-7.91-21.19c-.85-2.1-1.67-3.93-2.47-5.56-9,11.29-22.65,12-27,11.91,2.1,2.16,4,4.14,5.42,5.86,4.13,5,11.14,10.06,11.86,10.6a91.33,91.33,0,0,1,9.7,11.68c2.33,3.77,10.42,12.21,15.8,14.55s12-2.52,11.5-8.09S650.25,420,647,417.26Z" style="fill:#263238;stroke:#263238;stroke-linecap:round;stroke-linejoin:round"></path><path d="M635.1,399.59c-1-2.91-2.18-6.12-3.53-9.45-.3-.74-.59-1.44-.88-2.11-6.51,9.11-19.48,11.1-25.67,11.52.92,1,1.77,1.93,2.48,2.8a54,54,0,0,0,6.71,6.57A48.31,48.31,0,0,0,635.1,399.59Z" style="fill:#fff;stroke:#263238;stroke-linecap:round;stroke-linejoin:round"></path><path d="M647,417.26c-3.23-2.69-5.75-2.51-7.54-5.93a27.72,27.72,0,0,1-1.37-3.18,23.79,23.79,0,0,1-6.9,6.78,12.06,12.06,0,0,1-8.1,2.08,72.8,72.8,0,0,1,5.95,7.62c2.33,3.77,10.42,12.21,15.8,14.55s12-2.52,11.5-8.09S650.25,420,647,417.26Z" style="fill:#263238;stroke:#263238;stroke-linecap:round;stroke-linejoin:round"></path><path d="M631,417.26s6.65,7,8.62,9.7,3.06,4.13,5.39,1.44-.71-5.75-3.41-8.44-5.93-6.47-5.93-6.47S632.47,417.08,631,417.26Z" style="fill:#fff;stroke:#263238;stroke-linecap:round;stroke-linejoin:round"></path><path d="M555.77,318.47s13.65,34.49,15.09,37.72,2,4.85,2,4.85S599.78,351,605,348.29s5.39-3.6,5.39-3.6-8.63-33.41-8.63-34.31-4.85-14-4.85-14l-.71-3.23Z" style="fill:#263238;stroke:#263238;stroke-linecap:round;stroke-linejoin:round"></path><path d="M491.46,216.26s-21.91,19-25.32,21.74-6.11,5.2-6.47,8.08,2.87,18,2.87,18-2.87,6.83-3.23,11.86-1.44,13.29-1.44,14.55.18,3.95.18,3.95a22.21,22.21,0,0,1-3.77,8.8c-3.23,4.67-3.77,6.65-3.77,8.08s-1.44,10.78-1.44,10.78l19,3.05s9.52-9.16,11.32-14.9,2.69-9.7,3.05-11,2.34-15.09,3.41-18.86,2.52-8.62,2.52-8.62,2,9.87,3.23,10.77,5.57,3.06,5.57,3.06,2.16,26.76,2.16,28.74-1.62,17.6-1.62,17.6,44.19-5.21,56.58-9.52,36.47-20.48,39.34-22.09a29.43,29.43,0,0,0,5.93-5s-5.93-21.56-7.73-25.87-5.38-13.11-5.38-13.11-27.13-49.58-28.39-51.92-4.49-3.05-9.52-3.05-22.27,2.7-29.27,4a106.17,106.17,0,0,0-10.6,2.34Z" style="fill:#FFB847;stroke:#263238;stroke-linecap:round;stroke-linejoin:round"></path><path d="M498.75,265.54a14.43,14.43,0,0,1-3-.25,3,3,0,0,1,1.26-5.87c.33.06,13.49,2.05,45.55-16.89a3,3,0,0,1,3,5.17C519,263.43,504.58,265.54,498.75,265.54Z" style="fill:#fff"></path><path d="M502.81,276.7a14.43,14.43,0,0,1-3-.25,3,3,0,0,1,1.26-5.87c.33.06,13.51,2,45.55-16.89a3,3,0,0,1,3.05,5.17C523.07,274.59,508.63,276.7,502.81,276.7Z" style="fill:#fff"></path><path d="M462.54,264s-2.87,6.83-3.23,11.86a30.93,30.93,0,0,0,.06,4.5c4.61.93,12.52,1.91,14.67,2.32s7.21,1.63,10.83,2.53c.37-2.06.73-3.84,1-4.86,1.08-3.78,2.52-8.63,2.52-8.63s.25,1.25.63,2.89c0-2.34-.09-4.32-.09-4.32a40.31,40.31,0,0,0-5.75-8.26c-3.95-4.5-4.85-4.32-10.78-8.45a118.33,118.33,0,0,0-12.75-7.54C459.31,249,462.54,264,462.54,264Z" style="fill:#263238;stroke:#263238;stroke-linecap:round;stroke-linejoin:round"></path><path d="M474.52,300.94a14.36,14.36,0,0,1,2.5,2.59" style="fill:none;stroke:#263238;stroke-linecap:round;stroke-linejoin:round"></path><path d="M459.85,297.81s7.17-1.6,13.16,2.07" style="fill:none;stroke:#263238;stroke-linecap:round;stroke-linejoin:round"></path><path d="M473.06,264.46c-1.19-.61-2.34-1.22-3.4-1.81" style="fill:none;stroke:#696969;stroke-linecap:round;stroke-linejoin:round"></path><path d="M488.41,271.76S482,269,475.74,265.82" style="fill:none;stroke:#696969;stroke-linecap:round;stroke-linejoin:round"></path><path d="M564.75,283.78c2.35-.57,4.73-1.21,7.12-1.92" style="fill:none;stroke:#263238;stroke-linecap:round;stroke-linejoin:round"></path><path d="M506,286.77a162.4,162.4,0,0,0,55.54-2.27" style="fill:none;stroke:#263238;stroke-linecap:round;stroke-linejoin:round"></path><path d="M496.85,229.91c3.59,4.13,15.09,7,16.17,6.29s8.44-14.37,10.24-20.84a23.59,23.59,0,0,0,.48-10.82l-4.43.76a106.17,106.17,0,0,0-10.6,2.34l-17.25,8.62-.83.72C492,220.91,494.48,227.18,496.85,229.91Z" style="fill:#263238;stroke:#263238;stroke-linecap:round;stroke-linejoin:round"></path><path d="M542.84,235.66l13.65,12.39s-11.5,11-12.22,13.3-1.79,4.85-1.79,4.85L541,271.05s12.57,7.54,15.09,8.26,4,.9,8.26-.36S594,256.5,593.85,252.37a22.34,22.34,0,0,0-3.05-10.24c-1.26-1.8-8.45-13.12-13.83-18.86s-12.76-12.4-16.17-16.53-9.88-6.83-13.29-6.11-7.37,4.13-9,4.85" style="fill:#FFB847;stroke:#263238;stroke-linecap:round;stroke-linejoin:round"></path><path d="M570.5,228.65a42.7,42.7,0,0,1,7.88-3.79c-.48-.56-1-1.1-1.41-1.59-4.17-4.44-9.5-9.41-13.28-13.35-5.62.24-12.66,1.2-15.11,4.36-4.31,5.57-3.41,23.36-3.41,23.36l10.24,8.62A34.53,34.53,0,0,1,559,240C561.34,236.74,565.29,231.89,570.5,228.65Z" style="fill:#263238;stroke:#263238;stroke-linecap:round;stroke-linejoin:round"></path><path d="M443.5,316.13s.36-4.31,13.12-2.15,15.44,7.54,16,9.34.18,1.43.18,5-.18,9.16-.18,10.42-18.68,8.44-18.68,8.44a14.66,14.66,0,0,0-3.77,3.41c-2.34,2.7-4.13,3.23-7.19,2.34s-4.49-4.67-3-9.52,1.08-15.63,1.26-16.89S443.5,316.13,443.5,316.13Z" style="fill:#263238;stroke:#263238;stroke-linecap:round;stroke-linejoin:round"></path><path d="M532.7,285.13,351.82,395.87a39,39,0,0,1-20.21,5.9,30.81,30.81,0,0,1-10.45-1.68c-12.26-4.38-23.05-11.38-27.43-10.8s-7.29,7-7,9.34,16.87,6.77,34.14,11.09c11.67,2.92,26.26-4.09,28.59-5.84S534.16,289.8,534.16,289.8Z" style="fill:#fff;stroke:#263238;stroke-linecap:round;stroke-linejoin:round"></path><path d="M365.3,394c10-6.19,23.89-14.78,39.49-24.42l1.44-7L366.8,386.7Z" style="fill:#263238;stroke:#263238;stroke-linecap:round;stroke-linejoin:round"></path><path d="M428.25,349.08l-11.19,6.85-1.43,6.95,11.2-6.92Z" style="fill:#263238;stroke:#263238;stroke-linecap:round;stroke-linejoin:round"></path><path d="M449.25,332.3s1.44,13.83,1.8,15.81.72,3.05,2.51,3.23,7.37-2.69,10.78-4.13,6.83-2.16,8.26-4.31.54-4.67.18-6.83-.36-4.67-1.44-6.11-4.13-1.61-4.13-1.61-.89-2-4.85-1.44-5.39,1.8-5.39,1.8S448.17,324.93,449.25,332.3Z" style="fill:#263238;stroke:#263238;stroke-linecap:round;stroke-linejoin:round"></path><path d="M557.39,275.18a38.51,38.51,0,0,0-11.32-9.52c-7.37-4.13-12.93-5.75-16-5s-3.23,1.26-4.67,3.95-8.62,15.81-8.8,19,.9,8.26.9,9.7-.6,1.27-.6,1.27l6.56-4.51s-1.83,8.81-1.47,10.43,2,2.51,4,2.51,2.16-.72,4.67-.9a25.67,25.67,0,0,0,4.67-.36c3.59-.54,3.11-.54,3.11-.54a15.34,15.34,0,0,0,5.51-1.25c2.88-1.26,2.7-.9,4.49-2.52s3.24-5.21,4.5-9,1.25-5.93,1.61-6.47S557.39,275.18,557.39,275.18Z" style="fill:#263238;stroke:#263238;stroke-linecap:round;stroke-linejoin:round"></path><path d="M546.07,265.66c-7.37-4.13-12.93-5.75-16-5l-.72.18-4,12.39s18.68,10.42,27.13,10.06l3.55-9.63A40.38,40.38,0,0,0,546.07,265.66Z" style="fill:#fff;stroke:#263238;stroke-linecap:round;stroke-linejoin:round"></path><line x1="523.42" y1="290.5" x2="523.98" y2="285.96" style="fill:none;stroke:#263238;stroke-linecap:round;stroke-linejoin:round"></line><path d="M474,193.45l.54,5.39,3.05,2.15s-1.08,7.73-.18,8.44,4.49,1.08,4.49,1.08,3.42,8.8,3.95,9.88,3.24,1.44,5,1.44,5.28-2,5.28-2,4.6,5.07,6.4,6.15,4.31,2.69,6.29,1.08,8.8-15.81,8.44-19-5.57-16.89-5.57-16.89a26.53,26.53,0,0,0-4.31-8.08c-2.87-3.41-27.48,3.41-31.26,4.13S474,193.45,474,193.45Z" style="fill:#fff;stroke:#263238;stroke-linecap:round;stroke-linejoin:round"></path><path d="M508.53,205.75s-.49,10.76-2.2,14.92S502.6,226,502.6,226l-6.4-6.15S508,215.78,508.53,205.75Z" style="fill:#263238;stroke:#263238;stroke-linecap:round;stroke-linejoin:round"></path><path d="M485.61,200.08c.49,1,.45,2.07-.09,2.33s-1.37-.37-1.86-1.4-.45-2.08.09-2.33S485.12,199.05,485.61,200.08Z" style="fill:#263238"></path><path d="M481.58,198.12a7.78,7.78,0,0,1,6.47-1.62" style="fill:none;stroke:#263238;stroke-linecap:round;stroke-linejoin:round"></path><path d="M471.19,181.51h-4.3l.78,12.12a61.92,61.92,0,0,0,12.9,0c6.25-.78,16.8-4.3,16.8-4.3s-1.17,7.42,1.18,10.55a8.54,8.54,0,0,0,5.08,3.52s1.95,4.3.78,7.81-8.21,8.6-8.21,8.6l2.74,2s5.47-.4,7-7,3.52-12.51,3.52-12.51v-5.47s5.86,0,7-5.86S515,179.17,515,179.17l1.57-1.62-3.13-7.37h-2l-7-4.3s-22.67,2.34-26.58,5.08S471.19,181.51,471.19,181.51Z" style="fill:#fff;stroke:#263238;stroke-linecap:round;stroke-linejoin:round"></path><path d="M473.14,180.73s24.23,2.74,36.35-8.6" style="fill:none;stroke:#263238;stroke-linecap:round;stroke-linejoin:round"></path><path d="M506.75,192.06c0,2.38-1.13,4.3-2.54,4.3s-2.54-1.92-2.54-4.3,1.14-4.3,2.54-4.3S506.75,189.69,506.75,192.06Z" style="fill:none;stroke:#263238;stroke-linecap:round;stroke-linejoin:round"></path><line x1="606.46" y1="337.1" x2="632.34" y2="337.1" style="fill:none;stroke:#263238;stroke-linecap:round;stroke-linejoin:round"></line><line x1="518.86" y1="198.53" x2="532" y2="198.53" style="fill:none;stroke:#263238;stroke-linecap:round;stroke-linejoin:round"></line><line x1="475.46" y1="337.1" x2="482.63" y2="337.1" style="fill:none;stroke:#263238;stroke-linecap:round;stroke-linejoin:round"></line><line x1="647.02" y1="417.26" x2="667.38" y2="417.26" style="fill:none;stroke:#263238;stroke-linecap:round;stroke-linejoin:round"></line></g><g id="freepik--character-1--inject-2"><ellipse cx="213.75" cy="424.71" rx="89.66" ry="10.34" style="opacity:0.2"></ellipse><path d="M292.4,419.1l-.23,7.35s-1.61,1.61-13.33-1.15-14.24-4.36-18.15-5.51a51.9,51.9,0,0,0-10.11-1.38l.46-6s12.87.23,16.08,1.37,2.53,1.38,8.73,2.53S292.4,419.1,292.4,419.1Z" style="fill:#fff;stroke:#263238;stroke-linecap:round;stroke-linejoin:round"></path><path d="M260,397.5s-3.44-1.15-4.36,0a3.91,3.91,0,0,1-2.07,1.38s-1.38-6.2-2.07-3.21a46.62,46.62,0,0,0-1.38,12.4c0,4.37.46,8,4.37,8.5s10.8.23,13.32,1.61,11.49,6.2,20.22,5.51c4.36-.34,7.35-5.74,7.35-9s-8.27-6.89-12.86-8.27-12.18-4.13-14.71-6.43S260,397.5,260,397.5Z" style="fill:#263238;stroke:#263238;stroke-linecap:round;stroke-linejoin:round"></path><path d="M269,403.48s3,6,5.29,7.58,9.64,4.59,11.25,2.52,2.53-4.13-3-5.51-7.58-2.76-9.19-4.13l-1.61-1.38Z" style="fill:#fff;stroke:#263238;stroke-linecap:round;stroke-linejoin:round"></path><path d="M270.9,358.55s-8.22,12.86-9.4,19.06S256,397.84,256,399.9s3.68,3.91,8.73,3.22A19.06,19.06,0,0,0,275,397.61c.92-1.15,19.76-22.06,22.06-27.8s2.29-7.58,2.29-8.73S275.49,362.23,270.9,358.55Z" style="fill:#263238;stroke:#263238;stroke-linecap:round;stroke-linejoin:round"></path><path d="M267.68,348s.46,10.57,2.53,13.33,12.4,7.58,21.82,5.51,11.72-13.78,11.49-19.3a31.68,31.68,0,0,0-1.68-9.25s2.6,2.82-14.17,4.66S267.68,348,267.68,348Z" style="fill:#fff;stroke:#263238;stroke-linecap:round;stroke-linejoin:round"></path><path d="M302,338.67a.62.62,0,0,0-.14-.4S301.9,338.41,302,338.67Z" style="fill:#fff;stroke:#263238;stroke-linecap:round;stroke-linejoin:round"></path><path d="M302,338.67c0,.85-1.41,2.85-14.31,4.26a81.59,81.59,0,0,0-14.88,2.75l-.52,2.07s-4.36,12.41,7.13,15.86c7.93,2.38,13.57,1.9,18.72-.21,4.36-4.46,5.57-11.83,5.4-15.88A33,33,0,0,0,302,338.67Z" style="fill:#fff;stroke:#263238;stroke-linecap:round;stroke-linejoin:round"></path><path d="M126.62,421.27l-1.15,7.81s11.95-1.84,20.22-5.51a135.51,135.51,0,0,0,16.08-8.73l-.23-5.75S149.37,421.73,126.62,421.27Z" style="fill:#fff;stroke:#263238;stroke-linecap:round;stroke-linejoin:round"></path><path d="M152.35,396.92s-4.13,2.06-10.79,5.28-15.86,6-17.46,12.18,3.44,11.71,9.41,10.11,17-5.75,21.6-8.28a23,23,0,0,0,10.34-10.56c2.07-4.6,2.07-6.9,2.07-6.9S154.42,399.67,152.35,396.92Z" style="fill:#263238;stroke:#263238;stroke-linecap:round;stroke-linejoin:round"></path><path d="M150.52,399.9s-2.3,5.06-9.19,7.13-8.5,6.43-3,7.35,12.4-4.83,14.93-7.12a22.93,22.93,0,0,0,3.91-4.6Z" style="fill:#fff;stroke:#263238;stroke-linecap:round;stroke-linejoin:round"></path><path d="M166.6,333.51s-5.06,12.87-7.58,18.15-9.42,44.57-8.5,48.24,5.51,5.75,9.64,4.6,6.67-2.3,7.36-3.45,20.21-34.69,22-38.13l9-16.77S168.43,334.89,166.6,333.51Z" style="fill:#263238;stroke:#263238;stroke-linecap:round;stroke-linejoin:round"></path><path d="M166.6,333.51s-5.06,12.87-7.58,18.15a35,35,0,0,0-1.67,5.53,22.49,22.49,0,0,0,14.3,8.94,44.27,44.27,0,0,0,15.87.42c1-1.79,1.76-3.09,2-3.63l9-16.77S168.43,334.89,166.6,333.51Z" style="fill:#fff;stroke:#263238;stroke-linecap:round;stroke-linejoin:round"></path><path d="M168.2,338.56s-3.67,2.53-6.2,10.57,3.45,11.26,9.65,13.56,14,2.06,16.08-.69,6.89-12.18,6.43-14S177.16,335.58,168.2,338.56Z" style="fill:#fff;stroke:#263238;stroke-linecap:round;stroke-linejoin:round"></path><path d="M254.5,204s-37.49.39-43.48.39a10.19,10.19,0,0,0-9.28,6c-.58,1.35-11.4,24.35-11.4,24.35a59.18,59.18,0,0,0-9.27,12.95c-4.06,7.73-4.06,12-4.06,12l.58,6.18L193.05,273s-12.56,26.47-18.17,35.75-11,26.09-11,26.09,29.56,14.49,33.62,14.49h4.06s7.73-17,10.82-21.64,14.88-12.37,16.23-12.95,15.85,2.9,15.85,2.9l20.68,32.85s12.56-1,21.64-2.32,15.07-9.85,15.07-9.85l-12.56-31.12-3.86-8.5,7.73-4.25S308.22,282,310,272.18s2.51-17.59,3.67-22.61-1-15.07-1.55-16.81a38.87,38.87,0,0,0-2.32-4.83S296,217.1,286.58,212.47,264.16,202.42,254.5,204Z" style="fill:#FFB847;stroke:#263238;stroke-linecap:round;stroke-linejoin:round"></path><path d="M313.63,249.57c1.16-5-1-15.07-1.55-16.81a38.87,38.87,0,0,0-2.32-4.83S296,217.1,286.58,212.47,264.16,202.42,254.5,204c0,0-37.49.39-43.48.39a10.19,10.19,0,0,0-9.28,6c-.58,1.35-11.4,24.35-11.4,24.35a59.18,59.18,0,0,0-9.27,12.95c-4.06,7.73-4.06,12-4.06,12l.58,6.18L193.05,273s-1.09,2.29-2.76,5.75c4.78,4.21,17.37,14.41,32.9,20.14,19.91,7.35,27.71,7.51,51,5.22a74.38,74.38,0,0,0,12.57-2.41l-1.36-3,7.73-4.25S308.22,282,310,272.18,312.47,254.59,313.63,249.57Z" style="fill:#263238;stroke:#263238;stroke-linecap:round;stroke-linejoin:round"></path><polygon points="264.23 277.54 246.88 281.73 232.91 271.27 232.44 238.78 277.18 247.73 264.23 277.54" style="fill:none;stroke:#fff;stroke-linecap:round;stroke-linejoin:round"></polygon><polygon points="259.39 272.07 248.36 274.73 239.48 268.08 239.18 247.43 267.62 253.12 259.39 272.07" style="fill:none;stroke:#fff;stroke-linecap:round;stroke-linejoin:round"></polygon><path d="M309.76,227.93S296,217.1,286.58,212.47,264.16,202.42,254.5,204c0,0-37.49.39-43.48.39a10.62,10.62,0,0,0-2.69.35l0,.23s.39,19.32,2.52,25.51,8.69,6,8.69,6S235,231,260.3,234.88s30.72,11.21,33.62,11.21,9.66-1.93,14.11-9.28a16.34,16.34,0,0,0,2.51-7.44C310.11,228.54,309.76,227.93,309.76,227.93Z" style="fill:#FFB847;stroke:#263238;stroke-linecap:round;stroke-linejoin:round"></path><path d="M216.43,248.41l-8.5,4.44s.19,8.51-1.74,13.34-6,7.15-6.76,8.89l-.78,1.74" style="fill:none;stroke:#263238;stroke-linecap:round;stroke-linejoin:round"></path><path d="M182.23,246.28s16,1,25.5,10.82c0,0-.58,8.89-3.67,12.37,0,0-6.76-7.53-13.52-10.05A30.87,30.87,0,0,0,177,257.88S179.52,248.41,182.23,246.28Z" style="fill:#FFB847;stroke:#263238;stroke-linecap:round;stroke-linejoin:round"></path><path d="M278.65,280.1a20.48,20.48,0,0,1,17.2,11,85,85,0,0,0,10.24-10.83c3.87-5.21,3.67-6.57,3.87-8.11s1.74-10.44,1.74-10.44-5,5.41-14.88,6.57-12-1-12-1Z" style="fill:#FFB847;stroke:#263238;stroke-linecap:round;stroke-linejoin:round"></path><path d="M287.16,272s5,2.9,16.61-1.35" style="fill:none;stroke:#263238;stroke-linecap:round;stroke-linejoin:round"></path><path d="M284.84,267.35a8.61,8.61,0,0,1,2.12-4.06c1.93-2.32,6.57-6.38,7.54-10.82l1-4.45" style="fill:none;stroke:#696969;stroke-linecap:round;stroke-linejoin:round"></path><path d="M299.67,257.62a36.8,36.8,0,0,0,3.72-2.83" style="fill:none;stroke:#696969;stroke-linecap:round;stroke-linejoin:round"></path><path d="M290.05,260.2s2.43,1.11,7.07-1.13" style="fill:none;stroke:#696969;stroke-linecap:round;stroke-linejoin:round"></path><path d="M196.12,246.36a12.25,12.25,0,0,0,3.31,2" style="fill:none;stroke:#696969;stroke-linecap:round;stroke-linejoin:round"></path><path d="M190.34,234.69a21.5,21.5,0,0,0,4.11,9.93" style="fill:none;stroke:#696969;stroke-linecap:round;stroke-linejoin:round"></path><path d="M205.68,280.38s16.45,15.49,33.55,19" style="fill:none;stroke:#696969;stroke-linecap:round;stroke-linejoin:round"></path><path d="M229.23,293s14.84,4.52,25.48,2.58" style="fill:none;stroke:#263238;stroke-linecap:round;stroke-linejoin:round"></path><path d="M169.47,277s.78-17.59,2.71-20.1,25.12,2.9,28.6,7.15,2.7,12.37,2.7,12.37l-3.28,4.83-2.51,5.6s-.2,2.32-5.41,2.71-17.78-1.55-20.1-2.32-3.09-1.74-3.09-3.86S169.47,277,169.47,277Z" style="fill:#263238;stroke:#263238;stroke-linecap:round;stroke-linejoin:round"></path><path d="M279.31,301.13l-206.82-47a39,39,0,0,1-18.59-9.89,30.82,30.82,0,0,1-6.31-8.5c-5.72-11.69-8.56-24.24-12.1-26.88s-10.11-.07-11.53,1.8,7.35,16.62,16.7,31.77c6.32,10.24,21.65,15.41,24.55,15.79s211.88,47.26,211.88,47.26Z" style="fill:#fff;stroke:#263238;stroke-linecap:round;stroke-linejoin:round"></path><path d="M77.06,255.18l-4.57-1a39,39,0,0,1-18.59-9.89,30.82,30.82,0,0,1-6.31-8.5c-5.72-11.69-8.56-24.24-12.1-26.88s-10.11-.07-11.53,1.8,7.35,16.62,16.7,31.77c6.32,10.24,21.65,15.41,24.55,15.79.44,0,5.66,1.19,14.19,3.08Z" style="fill:#263238;stroke:#263238;stroke-linecap:round;stroke-linejoin:round"></path><path d="M117,264.25l-19.89-4.52,3,6.17,19.53,4.35Z" style="fill:#263238;stroke:#263238;stroke-linecap:round;stroke-linejoin:round"></path><path d="M298.94,298.46a32.38,32.38,0,0,0-3.28-12.37c-3.09-6-20.87-7-20.87-7s-1.55,5.41-5.61,8.31-9.08,6.57-9.27,7.93-2.9,11.78-2.13,13.14,3.87,2.7,5.8,3.86a26.46,26.46,0,0,0,8.7,3.67c3.86.78,6.37.58,7-.19l.58-.77s2.13,0,3.87-2.9,2.32-4.06,2.32-4.06a11.7,11.7,0,0,0,4.83-2.32,46.1,46.1,0,0,0,3.86-4.06Z" style="fill:#263238;stroke:#263238;stroke-linecap:round;stroke-linejoin:round"></path><path d="M261.26,310.63s1.35-8.5,3.09-10.63" style="fill:none;stroke:#474747;stroke-linecap:round;stroke-linejoin:round"></path><path d="M266.29,313.34s2.89-9.66,3.86-10.82" style="fill:none;stroke:#474747;stroke-linecap:round;stroke-linejoin:round"></path><path d="M272.28,316a3.48,3.48,0,0,1-.2-2.7c.58-1.16,3.29-7.93,3.29-7.93" style="fill:none;stroke:#474747;stroke-linecap:round;stroke-linejoin:round"></path><path d="M262.23,293.63a43.18,43.18,0,0,1,8.5,3.86c5.6,3.09,10.44,9.28,10.44,9.28a70.19,70.19,0,0,1,5.61-5.12c1.34-.87,3.85-2.42-2.72-8a28.49,28.49,0,0,0-14.88-6.19Z" style="fill:#fff;stroke:#263238;stroke-linecap:round;stroke-linejoin:round"></path><path d="M171.41,280.29s-4.45,10.44-2.9,12.18,24.54,3.86,26.66,2.32,6-9.47,6.38-12.18-1-3.09-8.31-3.28-20.29-3.09-20.68-2.51A24.55,24.55,0,0,0,171.41,280.29Z" style="fill:#263238;stroke:#263238;stroke-linecap:round;stroke-linejoin:round"></path><path d="M173,263.29s-3.67,7-3.28,9.27,3.86,11,4.05,13.14,3.48,1.36,5.8-1.54,1.74-7.54,1.74-7.54,7.73.58,8.7-5.79" style="fill:#263238;stroke:#263238;stroke-linecap:round;stroke-linejoin:round"></path><path d="M249.67,200.1s-.39,6-1,9.66,2.51,11.6,6.76,15.85,11.21-1.16,12.56-4.25,1.94-9.09,1.94-9.09-13.72-7.53-15.46-8.31S249.67,200.1,249.67,200.1Z" style="fill:#263238;stroke:#263238;stroke-linecap:round;stroke-linejoin:round"></path><path d="M281,187.73s-1.74,10.05-1.74,12a18.85,18.85,0,0,1-2.12,8.12c-1.36,2.12-3.29,6.38-4.06,7.15s-1.93,1.16-7.15,1.35-8.89-1.93-10-4.44-4.64-6-4.64-6,1.55-10.25,1.94-13.92a11.32,11.32,0,0,1,1.93-5.6A56.29,56.29,0,0,0,281,187.73Z" style="fill:#fff;stroke:#263238;stroke-linecap:round;stroke-linejoin:round"></path><path d="M266.09,196.43c0,1-.43,1.74-1,1.74s-1-.78-1-1.74.43-1.74,1-1.74S266.09,195.47,266.09,196.43Z"></path><path d="M277.49,196.62c0,1-.43,1.74-1,1.74s-1-.78-1-1.74.43-1.74,1-1.74S277.49,195.66,277.49,196.62Z"></path><path d="M271.12,206.09a29.28,29.28,0,0,0,5.21-.39c1.16-.38-2.31-9.08-2.31-9.08l1-3.28s2.13-2.13,3.67-1.16" style="fill:none;stroke:#263238;stroke-linecap:round;stroke-linejoin:round"></path><line x1="266.67" y1="208.6" x2="271.12" y2="209.18" style="fill:none;stroke:#263238;stroke-linecap:round;stroke-linejoin:round"></line><path d="M261.84,192.76s1.55-1.55,6.76.77" style="fill:none;stroke:#263238;stroke-linecap:round;stroke-linejoin:round"></path><path d="M283.1,188.7l-1,14.88a40.84,40.84,0,0,1-12.95,1.93c-7.73,0-15.65-3.28-15.65-3.28l1.55-15.85S270.34,190.24,283.1,188.7Z" style="fill:none;stroke:#263238;stroke-linecap:round;stroke-linejoin:round"></path><path d="M255.66,190.63s-.58,12-1.16,13.33-1,2.13-1,2.13,2.9,6.38,5.61,8.7,9.66,1.54,9.66,1.54-3.48,1.55-5.8,1.35-6.57.39-8.89-4.25a33.53,33.53,0,0,1-2.9-7.53s-5.6-8.7-5.79-9.86-1-1.16-2.13-4.06a18.09,18.09,0,0,1-1-6.57l-1-3.09s1-7,1.54-8.31,2.52-1.35,2.52-1.35,1-4.44,2.12-6,5.61-3.48,13.34-3.48a25.52,25.52,0,0,1,15.84,6c2.32,1.93,3.67,6,3.67,6s4.25,2.13,4.25,3.67.2,5.8-.38,6.77a16.6,16.6,0,0,0-1.16,3.09,38.11,38.11,0,0,1-14.88,1.74,121.5,121.5,0,0,1-12.37-1.74Z" style="fill:#fff;stroke:#263238;stroke-linecap:round;stroke-linejoin:round"></path><path d="M245.22,175.17s3.87,5.61,16.23,6.57,18.75-1.93,18.75-1.93" style="fill:none;stroke:#263238;stroke-linecap:round;stroke-linejoin:round"></path><path d="M248.66,191.06c.52,2.29.26,4.3-.57,4.49s-1.93-1.52-2.44-3.81-.26-4.3.57-4.48S248.15,188.77,248.66,191.06Z" style="fill:none;stroke:#263238;stroke-linecap:round;stroke-linejoin:round"></path><line x1="148.53" y1="390.85" x2="137.38" y2="390.85" style="fill:none;stroke:#263238;stroke-linecap:round;stroke-linejoin:round"></line><line x1="150.92" y1="373.33" x2="113.09" y2="373.33" style="fill:none;stroke:#263238;stroke-linecap:round;stroke-linejoin:round"></line><line x1="202.47" y1="216" x2="185.64" y2="216" style="fill:none;stroke:#263238;stroke-linecap:round;stroke-linejoin:round"></line><line x1="260.42" y1="349.84" x2="219.01" y2="349.84" style="fill:none;stroke:#263238;stroke-linecap:round;stroke-linejoin:round"></line><line x1="252.86" y1="339.49" x2="244.89" y2="339.49" style="fill:none;stroke:#263238;stroke-linecap:round;stroke-linejoin:round"></line></g></svg>