<svg xmlns="http://www.w3.org/2000/svg" viewBox="0 0 500 500"><g id="freepik--background-simple--inject-2"><path d="M467.6,251.91c-4.93,41.8-24,90.41-62.14,112.73-57.59,33.75-52.77,85.64-165.19,108.2a231.26,231.26,0,0,1-49.84,4.71,194.66,194.66,0,0,1-24.47-2C94.51,465.12,46.43,415.46,28.79,355.5,5.58,276.66,51.93,225,82.65,193.94s53.23-128,163.57-151A223.75,223.75,0,0,1,297.45,38c39.26,1,82.08,13.86,111.71,40.76q3.33,3,6.5,6.28C456.84,127.33,474.34,194.92,467.6,251.91Z" style="fill:#FFB847"></path><path d="M467.6,251.91c-4.93,41.8-24,90.41-62.14,112.73-57.59,33.75-52.77,85.64-165.19,108.2a231.26,231.26,0,0,1-49.84,4.71,194.66,194.66,0,0,1-24.47-2C94.51,465.12,46.43,415.46,28.79,355.5,5.58,276.66,51.93,225,82.65,193.94s53.23-128,163.57-151A223.75,223.75,0,0,1,297.45,38c39.26,1,82.08,13.86,111.71,40.76q3.33,3,6.5,6.28C456.84,127.33,474.34,194.92,467.6,251.91Z" style="fill:#fff;opacity:0.7000000000000001"></path></g><g id="freepik--Floor--inject-2"><line x1="24.72" y1="464.1" x2="476.1" y2="464.1" style="fill:none;stroke:#263238;stroke-linecap:round;stroke-linejoin:round"></line></g><g id="freepik--Clouds--inject-2"><path d="M349.13,73.4h38.1s3.65-11-2.93-15-6.58,1.46-11.7-.74c-4.22-1.81-5-5.25-6.2-8.89-.13-.42-.27-.84-.42-1.25a16.59,16.59,0,0,0-1.58-3.25" style="fill:none;stroke:#b2b2b2;stroke-linecap:round;stroke-linejoin:round"></path><path d="M359.92,39.54c-9.54-7-25.33-4.37-25.33,10.47,0,3.65-8.78,0-12.07,4.75s.37,7.68-4,9.14-4.75-2.19-10.24-1.83-4.75,5.48-6.58,6.95-1.82.73-5.84,1.09-4.76,3.29-4.76,3.29h51.3" style="fill:none;stroke:#b2b2b2;stroke-linecap:round;stroke-linejoin:round"></path><path d="M369.73,69.4a10.74,10.74,0,0,0-2.9-10.68c-4.89-4.52-10-2-11.41,0s-1.45,5.8-3.8,6.16-1.81-4-6.88-2.9-3.08,6.16-5.43,7.24-2.35-2.89-5.61-1.63-3.08,3.62-3.08,3.62" style="fill:none;stroke:#b2b2b2;stroke-linecap:round;stroke-linejoin:round"></path><path d="M343.72,57.1a9.17,9.17,0,0,0-9.27-.8c-5.24,2.42-2.82,7.46-5.24,8.67s-3.63-.21-6.65,1.21-2.83,3.42-2.83,3.42" style="fill:none;stroke:#b2b2b2;stroke-linecap:round;stroke-linejoin:round"></path><path d="M89,141.32a5.14,5.14,0,0,0-2.91-.62c-3.15.21-2.73,3.15-3.78,4s-1,.42-3.35.63a2.86,2.86,0,0,0-2.73,1.88h55.17s1.36-4.07-.08-6.87" style="fill:none;stroke:#b2b2b2;stroke-linecap:round;stroke-linejoin:round"></path><path d="M129.74,138.6c-3.77-2.3-3.77.84-6.71-.42-2.43-1-2.88-3-3.56-5.1l-.24-.72c-3.19-8.86-18-9.47-18,1.42,0,2.1-5,0-6.92,2.73s.21,4.4-2.31,5.24" style="fill:none;stroke:#b2b2b2;stroke-linecap:round;stroke-linejoin:round"></path><path d="M121.38,144.91a6.17,6.17,0,0,0-1.66-6.13c-2.81-2.6-5.72-1.14-6.55,0s-.83,3.32-2.18,3.53-1-2.28-3.95-1.66-1.76,3.53-3.12,4.16-1.35-1.67-3.22-.94S98.94,146,98.94,146" style="fill:none;stroke:#b2b2b2;stroke-linecap:round;stroke-linejoin:round"></path><path d="M106.46,137.85a5.26,5.26,0,0,0-5.32-.46c-3,1.39-1.62,4.28-3,5s-2.08-.11-3.82.7-1.62,2-1.62,2" style="fill:none;stroke:#b2b2b2;stroke-linecap:round;stroke-linejoin:round"></path><path d="M218,45.52a5.08,5.08,0,0,0-2.9-.62c-3.15.21-2.73,3.15-3.78,4s-1.05.42-3.36.62a2.86,2.86,0,0,0-2.72,1.89h55.17s1.36-4.07-.08-6.87" style="fill:none;stroke:#b2b2b2;stroke-linecap:round;stroke-linejoin:round"></path><path d="M258.69,42.8c-3.77-2.31-3.77.84-6.71-.42-2.43-1-2.88-3-3.56-5.1l-.24-.72c-3.19-8.86-18-9.48-18,1.42,0,2.09-5,0-6.92,2.72s.21,4.41-2.31,5.25" style="fill:none;stroke:#b2b2b2;stroke-linecap:round;stroke-linejoin:round"></path><path d="M250.33,49.11A6.16,6.16,0,0,0,248.66,43c-2.8-2.6-5.71-1.15-6.54,0s-.83,3.32-2.18,3.53-1-2.29-3.95-1.66-1.77,3.53-3.12,4.15-1.35-1.66-3.22-.93-1.77,2.08-1.77,2.08" style="fill:none;stroke:#b2b2b2;stroke-linecap:round;stroke-linejoin:round"></path><path d="M235.4,42.05a5.26,5.26,0,0,0-5.32-.46c-3,1.38-1.62,4.28-3,5s-2.09-.12-3.82.69-1.62,2-1.62,2" style="fill:none;stroke:#b2b2b2;stroke-linecap:round;stroke-linejoin:round"></path></g><g id="freepik--Building--inject-2"><rect x="217.3" y="97.09" width="217.79" height="367.01" style="fill:#adadad;stroke:#adadad;stroke-linecap:round;stroke-linejoin:round"></rect><rect x="309.69" y="97.09" width="125.4" height="367.01" style="fill:#fff;stroke:#adadad;stroke-linecap:round;stroke-linejoin:round"></rect><rect x="324.24" y="97.09" width="96.29" height="367.01" style="fill:#fff;stroke:#adadad;stroke-linecap:round;stroke-linejoin:round"></rect><rect x="309.69" y="97.09" width="125.4" height="25.14" style="fill:#adadad;stroke:#adadad;stroke-linecap:round;stroke-linejoin:round"></rect><rect x="341.93" y="419" width="60.92" height="45.11" style="fill:#fff;stroke:#adadad;stroke-linecap:round;stroke-linejoin:round"></rect><rect x="372.39" y="419" width="30.46" height="45.11" style="fill:#fff;stroke:#adadad;stroke-linecap:round;stroke-linejoin:round"></rect><rect x="231.77" y="138.27" width="27.65" height="25.11" style="fill:#fff;stroke:#adadad;stroke-linecap:round;stroke-linejoin:round"></rect><rect x="231.77" y="131.04" width="27.65" height="10.92" style="fill:#fff;stroke:#adadad;stroke-linecap:round;stroke-linejoin:round"></rect><rect x="271.29" y="138.27" width="27.65" height="25.11" style="fill:#fff;stroke:#adadad;stroke-linecap:round;stroke-linejoin:round"></rect><rect x="271.29" y="131.04" width="27.65" height="10.92" style="fill:#fff;stroke:#adadad;stroke-linecap:round;stroke-linejoin:round"></rect><rect x="231.77" y="186.47" width="27.65" height="25.11" style="fill:#fff;stroke:#adadad;stroke-linecap:round;stroke-linejoin:round"></rect><rect x="231.77" y="179.24" width="27.65" height="10.92" style="fill:#fff;stroke:#adadad;stroke-linecap:round;stroke-linejoin:round"></rect><rect x="271.29" y="186.47" width="27.65" height="25.11" style="fill:#fff;stroke:#adadad;stroke-linecap:round;stroke-linejoin:round"></rect><rect x="271.29" y="179.24" width="27.65" height="10.92" style="fill:#fff;stroke:#adadad;stroke-linecap:round;stroke-linejoin:round"></rect><rect x="231.77" y="234.67" width="27.65" height="25.11" style="fill:#fff;stroke:#adadad;stroke-linecap:round;stroke-linejoin:round"></rect><rect x="231.77" y="227.44" width="27.65" height="10.92" style="fill:#fff;stroke:#adadad;stroke-linecap:round;stroke-linejoin:round"></rect><rect x="271.29" y="234.67" width="27.65" height="25.11" style="fill:#fff;stroke:#adadad;stroke-linecap:round;stroke-linejoin:round"></rect><rect x="271.29" y="227.44" width="27.65" height="10.92" style="fill:#fff;stroke:#adadad;stroke-linecap:round;stroke-linejoin:round"></rect><rect x="231.77" y="282.87" width="27.65" height="25.11" style="fill:#fff;stroke:#adadad;stroke-linecap:round;stroke-linejoin:round"></rect><rect x="231.77" y="275.63" width="27.65" height="10.92" style="fill:#fff;stroke:#adadad;stroke-linecap:round;stroke-linejoin:round"></rect><rect x="271.29" y="282.87" width="27.65" height="25.11" style="fill:#fff;stroke:#adadad;stroke-linecap:round;stroke-linejoin:round"></rect><rect x="271.29" y="275.63" width="27.65" height="10.92" style="fill:#fff;stroke:#adadad;stroke-linecap:round;stroke-linejoin:round"></rect><rect x="231.77" y="331.07" width="27.65" height="25.11" style="fill:#fff;stroke:#adadad;stroke-linecap:round;stroke-linejoin:round"></rect><rect x="231.77" y="323.83" width="27.65" height="10.92" style="fill:#fff;stroke:#adadad;stroke-linecap:round;stroke-linejoin:round"></rect><rect x="271.29" y="331.07" width="27.65" height="25.11" style="fill:#fff;stroke:#adadad;stroke-linecap:round;stroke-linejoin:round"></rect><rect x="271.29" y="323.83" width="27.65" height="10.92" style="fill:#fff;stroke:#adadad;stroke-linecap:round;stroke-linejoin:round"></rect><rect x="231.77" y="379.26" width="27.65" height="25.11" style="fill:#fff;stroke:#adadad;stroke-linecap:round;stroke-linejoin:round"></rect><rect x="231.77" y="372.03" width="27.65" height="10.92" style="fill:#fff;stroke:#adadad;stroke-linecap:round;stroke-linejoin:round"></rect><rect x="271.29" y="379.26" width="27.65" height="25.11" style="fill:#fff;stroke:#adadad;stroke-linecap:round;stroke-linejoin:round"></rect><rect x="271.29" y="372.03" width="27.65" height="10.92" style="fill:#fff;stroke:#adadad;stroke-linecap:round;stroke-linejoin:round"></rect><rect x="319.81" y="138.27" width="27.65" height="25.11" style="fill:#fff;stroke:#adadad;stroke-linecap:round;stroke-linejoin:round"></rect><rect x="319.81" y="131.04" width="27.65" height="10.92" style="fill:#fff;stroke:#adadad;stroke-linecap:round;stroke-linejoin:round"></rect><rect x="359.34" y="138.27" width="27.65" height="25.11" style="fill:#fff;stroke:#adadad;stroke-linecap:round;stroke-linejoin:round"></rect><rect x="359.34" y="131.04" width="27.65" height="10.92" style="fill:#fff;stroke:#adadad;stroke-linecap:round;stroke-linejoin:round"></rect><rect x="398.86" y="138.27" width="27.65" height="25.11" style="fill:#fff;stroke:#adadad;stroke-linecap:round;stroke-linejoin:round"></rect><rect x="398.86" y="131.04" width="27.65" height="10.92" style="fill:#fff;stroke:#adadad;stroke-linecap:round;stroke-linejoin:round"></rect><rect x="319.81" y="186.47" width="27.65" height="25.11" style="fill:#fff;stroke:#adadad;stroke-linecap:round;stroke-linejoin:round"></rect><rect x="319.81" y="179.24" width="27.65" height="10.92" style="fill:#fff;stroke:#adadad;stroke-linecap:round;stroke-linejoin:round"></rect><rect x="359.34" y="186.47" width="27.65" height="25.11" style="fill:#fff;stroke:#adadad;stroke-linecap:round;stroke-linejoin:round"></rect><rect x="359.34" y="179.24" width="27.65" height="10.92" style="fill:#fff;stroke:#adadad;stroke-linecap:round;stroke-linejoin:round"></rect><rect x="398.86" y="186.47" width="27.65" height="25.11" style="fill:#fff;stroke:#adadad;stroke-linecap:round;stroke-linejoin:round"></rect><rect x="398.86" y="179.24" width="27.65" height="10.92" style="fill:#fff;stroke:#adadad;stroke-linecap:round;stroke-linejoin:round"></rect><rect x="319.81" y="234.67" width="27.65" height="25.11" style="fill:#fff;stroke:#adadad;stroke-linecap:round;stroke-linejoin:round"></rect><rect x="319.81" y="227.44" width="27.65" height="10.92" style="fill:#fff;stroke:#adadad;stroke-linecap:round;stroke-linejoin:round"></rect><rect x="359.34" y="234.67" width="27.65" height="25.11" style="fill:#fff;stroke:#adadad;stroke-linecap:round;stroke-linejoin:round"></rect><rect x="359.34" y="227.44" width="27.65" height="10.92" style="fill:#fff;stroke:#adadad;stroke-linecap:round;stroke-linejoin:round"></rect><rect x="398.86" y="234.67" width="27.65" height="25.11" style="fill:#fff;stroke:#adadad;stroke-linecap:round;stroke-linejoin:round"></rect><rect x="398.86" y="227.44" width="27.65" height="10.92" style="fill:#fff;stroke:#adadad;stroke-linecap:round;stroke-linejoin:round"></rect><rect x="319.81" y="282.87" width="27.65" height="25.11" style="fill:#fff;stroke:#adadad;stroke-linecap:round;stroke-linejoin:round"></rect><rect x="319.81" y="275.63" width="27.65" height="10.92" style="fill:#fff;stroke:#adadad;stroke-linecap:round;stroke-linejoin:round"></rect><rect x="359.34" y="282.87" width="27.65" height="25.11" style="fill:#fff;stroke:#adadad;stroke-linecap:round;stroke-linejoin:round"></rect><rect x="359.34" y="275.63" width="27.65" height="10.92" style="fill:#fff;stroke:#adadad;stroke-linecap:round;stroke-linejoin:round"></rect><rect x="398.86" y="282.87" width="27.65" height="25.11" style="fill:#fff;stroke:#adadad;stroke-linecap:round;stroke-linejoin:round"></rect><rect x="398.86" y="275.63" width="27.65" height="10.92" style="fill:#fff;stroke:#adadad;stroke-linecap:round;stroke-linejoin:round"></rect><rect x="319.81" y="331.07" width="27.65" height="25.11" style="fill:#fff;stroke:#adadad;stroke-linecap:round;stroke-linejoin:round"></rect><rect x="319.81" y="323.83" width="27.65" height="10.92" style="fill:#fff;stroke:#adadad;stroke-linecap:round;stroke-linejoin:round"></rect><rect x="359.34" y="331.07" width="27.65" height="25.11" style="fill:#fff;stroke:#adadad;stroke-linecap:round;stroke-linejoin:round"></rect><rect x="359.34" y="323.83" width="27.65" height="10.92" style="fill:#fff;stroke:#adadad;stroke-linecap:round;stroke-linejoin:round"></rect><rect x="398.86" y="331.07" width="27.65" height="25.11" style="fill:#fff;stroke:#adadad;stroke-linecap:round;stroke-linejoin:round"></rect><rect x="398.86" y="323.83" width="27.65" height="10.92" style="fill:#fff;stroke:#adadad;stroke-linecap:round;stroke-linejoin:round"></rect><rect x="319.81" y="379.26" width="27.65" height="25.11" style="fill:#fff;stroke:#adadad;stroke-linecap:round;stroke-linejoin:round"></rect><rect x="319.81" y="372.03" width="27.65" height="10.92" style="fill:#fff;stroke:#adadad;stroke-linecap:round;stroke-linejoin:round"></rect><rect x="359.34" y="379.26" width="27.65" height="25.11" style="fill:#fff;stroke:#adadad;stroke-linecap:round;stroke-linejoin:round"></rect><rect x="359.34" y="372.03" width="27.65" height="10.92" style="fill:#fff;stroke:#adadad;stroke-linecap:round;stroke-linejoin:round"></rect><rect x="398.86" y="379.26" width="27.65" height="25.11" style="fill:#fff;stroke:#adadad;stroke-linecap:round;stroke-linejoin:round"></rect><rect x="398.86" y="372.03" width="27.65" height="10.92" style="fill:#fff;stroke:#adadad;stroke-linecap:round;stroke-linejoin:round"></rect><rect x="318.46" y="418.93" width="107.7" height="13.66" style="fill:#fff;stroke:#adadad;stroke-linecap:round;stroke-linejoin:round"></rect><rect x="318.46" y="414.98" width="107.7" height="13.66" style="fill:#fff;stroke:#adadad;stroke-linecap:round;stroke-linejoin:round"></rect><rect x="217.18" y="78.21" width="58.67" height="36.17" style="fill:#adadad;stroke:#adadad;stroke-linecap:round;stroke-linejoin:round"></rect><rect x="255.55" y="78.21" width="20.3" height="36.17" style="fill:#fff;stroke:#adadad;stroke-linecap:round;stroke-linejoin:round"></rect><rect x="400.44" y="87.05" width="24.11" height="27.33" style="fill:#fff;stroke:#adadad;stroke-linecap:round;stroke-linejoin:round"></rect><rect x="389.29" y="87.05" width="24.11" height="27.33" style="fill:#adadad;stroke:#adadad;stroke-linecap:round;stroke-linejoin:round"></rect><rect x="212" y="97.09" width="228.4" height="17.29" style="fill:#fff;stroke:#adadad;stroke-linecap:round;stroke-linejoin:round"></rect><rect x="303.81" y="97.09" width="136.58" height="17.29" style="fill:#fff;stroke:#adadad;stroke-linecap:round;stroke-linejoin:round"></rect><line x1="309.69" y1="97.09" x2="309.69" y2="104.35" style="fill:#fff;stroke:#adadad;stroke-linecap:round;stroke-linejoin:round"></line><line x1="313.42" y1="97.09" x2="313.42" y2="104.35" style="fill:#fff;stroke:#adadad;stroke-linecap:round;stroke-linejoin:round"></line><line x1="313.42" y1="106.31" x2="313.42" y2="111.85" style="fill:#fff;stroke:#adadad;stroke-linecap:round;stroke-linejoin:round"></line><line x1="317.16" y1="97.09" x2="317.16" y2="104.35" style="fill:#fff;stroke:#adadad;stroke-linecap:round;stroke-linejoin:round"></line><line x1="317.16" y1="106.62" x2="317.16" y2="111.76" style="fill:#fff;stroke:#adadad;stroke-linecap:round;stroke-linejoin:round"></line><line x1="320.65" y1="106.62" x2="320.65" y2="109.86" style="fill:#fff;stroke:#adadad;stroke-linecap:round;stroke-linejoin:round"></line><line x1="320.9" y1="97.09" x2="320.9" y2="104.35" style="fill:#fff;stroke:#adadad;stroke-linecap:round;stroke-linejoin:round"></line><line x1="325.13" y1="102.51" x2="325.13" y2="104.35" style="fill:#fff;stroke:#adadad;stroke-linecap:round;stroke-linejoin:round"></line><line x1="325.38" y1="97.09" x2="325.38" y2="101.22" style="fill:#fff;stroke:#adadad;stroke-linecap:round;stroke-linejoin:round"></line><line x1="309.69" y1="105.81" x2="309.69" y2="110.11" style="fill:#fff;stroke:#adadad;stroke-linecap:round;stroke-linejoin:round"></line></g><g id="freepik--Plants--inject-2"><path d="M25.83,160.35c4.26,1.86,14.69,1.62,14.7,1.62s-2.24-6.83-2.44-7.24c-2.29-4.79-9.53-12.69-15.41-11.9A7,7,0,0,0,17,151.65C18,155.73,22.2,158.76,25.83,160.35Z" style="fill:#263238"></path><path d="M29.43,190.56c4.42.64,13.73-2.06,14.47-2.28a125.43,125.43,0,0,0,5.64,15.63c1.28,3,2.67,5.91,4.09,8.84-.85-1.24-1.62-2.35-1.74-2.49-3.47-4-12.54-9.73-18-7.4a7,7,0,0,0-3.12,10c2,3.67,6.86,5.49,10.78,6.06s12-1.56,14.07-2.15c.56,1.12,1.1,2.24,1.66,3.36,2.7,5.37,5.41,10.71,7.91,16,.88,1.88,1.68,3.76,2.49,5.64-.75-1.11-1.4-2-1.51-2.16-3.47-4-12.54-9.73-18-7.4a7,7,0,0,0-3.12,10c2,3.67,6.86,5.49,10.78,6.06S67,246.92,69.5,246.23c.77,2,1.54,3.9,2.2,5.82.42,1.32.91,2.57,1.26,3.92l1.1,4c.61,2.54,1.26,5.16,1.79,7.65.38,1.73.71,3.38,1.05,5.05-.85-1.88-2.61-5.52-2.79-5.8-2.82-4.5-10.92-11.52-16.68-10.05a7,7,0,0,0-4.59,9.4c1.44,3.94,5.95,6.47,9.74,7.63,4.17,1.28,13.41.11,14.56,0,.56,2.76,1.07,5.45,1.51,8,.33,1.88.64,3.69.91,5.43h3.7c-.35-1.94-.73-4-1.15-6.08-.55-2.81-1.19-5.79-1.89-8.85a76.79,76.79,0,0,0,8.13-3.82c3,3.29,10.84,7.14,11.84,7.63-1.06,2.61-2.11,5.14-3.15,7.51-.54,1.25-1.07,2.44-1.6,3.61h3.91c.31-.74.62-1.47.93-2.24,1.09-2.65,2.2-5.49,3.32-8.43,1.11.24,10.26,2.09,14.52,1.13,3.87-.87,8.55-3.06,10.28-6.88a7,7,0,0,0-3.88-9.72c-5.63-1.89-14.23,4.5-17.38,8.77-.19.26-1.9,3.21-3,5.1.45-1.2.9-2.36,1.34-3.61.9-2.45,1.73-4.92,2.62-7.57.39-1.3.79-2.61,1.18-3.94s.7-2.73,1.06-4.11c.77-3.22,1.39-6.52,1.94-9.85,2.14.78,9.81,3.45,13.78,3.17s8.91-1.73,11.2-5.25A7,7,0,0,0,135,233.57c-5.28-2.73-14.75,2.3-18.51,6-.23.23-2.63,3.22-3.92,4.89.32-2,.64-4,.9-6.05.73-5.89,1.28-11.88,1.87-17.85.17-1.83.37-3.65.57-5.47.76.29,9.8,3.65,14.25,3.34,3.95-.28,8.91-1.73,11.2-5.25A7,7,0,0,0,139,203c-5.28-2.72-14.75,2.3-18.51,6-.29.28-3.73,4.59-4.55,5.73.42-4,.88-8,1.5-11.94a124.9,124.9,0,0,1,3.42-15.69c.36.14,9.78,3.69,14.34,3.37,3.95-.27,8.91-1.73,11.2-5.24A7,7,0,0,0,144,175.1c-5.28-2.72-14.74,2.3-18.51,6-.29.3-4,4.93-4.6,5.82.08-.3.14-.62.23-.91a91.52,91.52,0,0,1,6.22-14.85c1.35-2.65,2.79-5.1,4.25-7.45,1.68.84,9.44,4.6,13.57,4.77,4,.16,9.05-.74,11.71-4a7,7,0,0,0-1.23-10.4c-5-3.28-14.91.67-19.06,4-.23.18-2.32,2.27-3.82,3.8.67-1,1.35-2.15,2-3.14,2.49-3.75,5-7,7.24-9.9,1.29-1.63,2.48-3.08,3.62-4.42,2.09,0,10.49-.29,14.17-2s7.69-4.83,8.56-8.93a7,7,0,0,0-5.88-8.66c-5.91-.63-12.93,7.46-15.09,12.31-.19.42-2.35,7.31-2.24,7.31h.12c-1.12,1.27-2.3,2.65-3.56,4.17-2.31,2.84-4.9,6.07-7.47,9.78a123.53,123.53,0,0,0-7.75,12.34,90.87,90.87,0,0,0-6.62,14.9l-.06.19c0-1.74,0-6.61-.09-7-.68-5.27-5.09-15-10.94-16.11a7,7,0,0,0-8.11,6.61c-.34,4.18,2.69,8.37,5.65,11,3.33,3,12.58,5.86,13.32,6.08a125.24,125.24,0,0,0-3.91,16.15c-.57,3.18-1,6.4-1.47,9.63,0-1.51,0-2.85-.08-3-.68-5.26-5.09-15-10.94-16.11a7,7,0,0,0-8.1,6.61c-.35,4.19,2.68,8.37,5.64,11s10.84,5.3,12.92,6c-.15,1.24-.32,2.48-.47,3.73-.71,6-1.39,11.91-2.25,17.73-.29,2-.66,4.06-1,6.07,0-1.33-.05-2.46-.07-2.63-.68-5.26-5.09-15-10.93-16.11a7,7,0,0,0-8.12,6.61c-.34,4.18,2.69,8.37,5.65,11s10.08,5,12.55,5.84c-.44,2-.87,4.1-1.38,6.06-.38,1.34-.65,2.65-1.11,4s-.84,2.61-1.26,3.9c-.89,2.46-1.8,5-2.73,7.37-.63,1.65-1.27,3.22-1.91,4.79.33-2,.87-6,.88-6.38a27.34,27.34,0,0,0-3.66-13.28,9.09,9.09,0,0,0-.1-1.56,7,7,0,0,0-8.6-6c-5.74,1.53-9.38,11.61-9.65,16.91,0,.31.18,3.72.35,5.87-.29-1.25-.56-2.47-.87-3.75-.6-2.54-1.28-5-2-7.76-.4-1.3-.79-2.61-1.19-3.93s-.93-2.67-1.39-4c-1.14-3.1-2.44-6.2-3.82-9.28,2.22-.53,10.09-2.54,13.25-5s6.48-6.36,6.45-10.56a7,7,0,0,0-7.6-7.2c-5.91.64-11,10.05-12.11,15.25-.06.33-.41,4.14-.56,6.24-.85-1.85-1.68-3.7-2.6-5.54-2.64-5.32-5.47-10.62-8.28-15.92-.86-1.62-1.7-3.25-2.55-4.87.8-.18,10.2-2.37,13.73-5.08,3.15-2.41,6.48-6.36,6.45-10.55a7,7,0,0,0-7.59-7.2c-5.91.64-11,10-12.11,15.25-.08.39-.57,5.88-.63,7.28-1.86-3.58-3.68-7.17-5.34-10.78a124.49,124.49,0,0,1-5.8-15c.37-.08,10.19-2.31,13.82-5.09,3.14-2.41,6.48-6.36,6.45-10.56a7,7,0,0,0-7.6-7.2c-5.9.65-11,10.06-12.1,15.25-.09.41-.62,6.32-.64,7.4-.09-.3-.22-.6-.3-.89a90.23,90.23,0,0,1-3-15.82c-.33-2.95-.48-5.79-.57-8.56,1.87-.22,10.42-1.36,13.95-3.5s7.14-5.61,7.57-9.79a7,7,0,0,0-6.75-8c-6,0-12.08,8.78-13.71,13.83-.09.28-.69,3.17-1.09,5.28,0-1.25-.07-2.54-.06-3.74,0-4.49.29-8.6.57-12.25.18-2.07.38-3.93.59-5.68,1.72-1.18,8.59-6,10.7-9.5s3.75-8.27,2.21-12.17a7,7,0,0,0-9.68-4C40.36,116,39,126.63,39.85,131.86c.08.45,2.07,7.39,2.16,7.33l.1-.07c-.23,1.68-.46,3.48-.67,5.45-.36,3.64-.74,7.76-.84,12.27A123.27,123.27,0,0,0,41,171.41a90.94,90.94,0,0,0,2.7,16.08c0,.06,0,.12.06.19-.94-1.47-3.69-5.49-3.94-5.78-3.47-4-12.54-9.72-18-7.4a7,7,0,0,0-3.11,10C20.67,188.17,25.51,190,29.43,190.56Z" style="fill:#263238"></path><path d="M131.33,162.64c.09.06,1.89-6.93,2-7.39.73-5.25-.95-15.84-6.3-18.42a7,7,0,0,0-9.57,4.24c-1.43,3.94.39,8.77,2.54,12.1C122.49,157.08,131.32,162.63,131.33,162.64Z" style="fill:#263238"></path><path d="M287.18,393.86c2.36,1,8.13.9,8.14.9s-1.24-3.78-1.35-4c-1.27-2.65-5.28-7-8.54-6.59a3.89,3.89,0,0,0-3.12,4.88C282.85,391.3,285.17,393,287.18,393.86Z" style="fill:#263238"></path><path d="M289.17,410.59c2.45.35,7.61-1.14,8-1.26a69.17,69.17,0,0,0,3.12,8.65c.71,1.64,1.48,3.27,2.26,4.9-.47-.69-.89-1.3-1-1.38-1.92-2.22-6.94-5.39-10-4.1a3.89,3.89,0,0,0-1.73,5.53c1.12,2,3.8,3,6,3.36s6.62-.87,7.79-1.19l.92,1.86c1.49,3,3,5.93,4.38,8.88.49,1,.93,2.08,1.38,3.12-.42-.61-.78-1.13-.84-1.2-1.92-2.22-6.94-5.38-10-4.1a3.9,3.9,0,0,0-1.73,5.53c1.12,2,3.8,3.05,6,3.36s6.2-.75,7.58-1.13c.43,1.08.86,2.16,1.22,3.22.23.73.51,1.42.7,2.17s.41,1.47.61,2.19c.34,1.41.69,2.85,1,4.23.21,1,.39,1.88.58,2.8-.47-1-1.44-3-1.54-3.21-1.57-2.49-6.05-6.38-9.24-5.57a3.9,3.9,0,0,0-2.54,5.21c.79,2.18,3.29,3.59,5.39,4.23,2.31.7,7.43.06,8.06,0,.31,1.53.59,3,.84,4.43.18,1.05.35,2.05.51,3h2c-.19-1.07-.4-2.19-.63-3.37-.31-1.55-.67-3.2-1.05-4.9a39.44,39.44,0,0,0,4.5-2.12c1.69,1.83,6,4,6.56,4.23-.59,1.45-1.17,2.85-1.75,4.16l-.88,2h2.16c.18-.41.35-.81.52-1.24.6-1.47,1.22-3,1.83-4.67.62.13,5.69,1.16,8.05.63,2.14-.49,4.73-1.7,5.69-3.81a3.9,3.9,0,0,0-2.15-5.39c-3.12-1-7.88,2.5-9.62,4.86-.11.14-1,1.78-1.64,2.82.25-.66.5-1.3.75-2,.5-1.36.95-2.73,1.45-4.2.21-.72.43-1.44.65-2.18s.39-1.51.59-2.28c.42-1.78.76-3.6,1.07-5.45,1.19.43,5.43,1.91,7.63,1.76s4.94-1,6.21-2.91a3.89,3.89,0,0,0-1.31-5.64c-2.93-1.51-8.17,1.27-10.25,3.34-.13.13-1.46,1.79-2.17,2.71.17-1.11.35-2.22.49-3.35.41-3.26.72-6.58,1-9.89.1-1,.21-2,.31-3,.43.16,5.43,2,7.9,1.85,2.19-.15,4.93-1,6.2-2.9a3.9,3.9,0,0,0-1.31-5.65c-2.92-1.5-8.17,1.28-10.25,3.35-.16.16-2.06,2.54-2.52,3.17.24-2.22.49-4.44.83-6.61a70,70,0,0,1,1.9-8.69c.19.08,5.41,2.05,7.94,1.87,2.19-.15,4.93-1,6.2-2.91a3.89,3.89,0,0,0-1.31-5.64c-2.92-1.51-8.17,1.27-10.25,3.34-.16.17-2.21,2.73-2.55,3.22.05-.16.08-.34.13-.5a49.69,49.69,0,0,1,3.44-8.22c.75-1.47,1.55-2.83,2.35-4.13.94.47,5.23,2.55,7.52,2.64s5-.41,6.48-2.2a3.89,3.89,0,0,0-.68-5.76c-2.74-1.82-8.25.37-10.55,2.2-.13.1-1.28,1.25-2.12,2.1.38-.58.75-1.19,1.12-1.74,1.37-2.07,2.76-3.88,4-5.48.71-.9,1.37-1.7,2-2.45,1.16,0,5.81-.16,7.85-1.11s4.26-2.68,4.74-4.95a3.89,3.89,0,0,0-3.26-4.79c-3.27-.36-7.16,4.13-8.35,6.81-.11.23-1.31,4.05-1.25,4.05h.07c-.62.7-1.27,1.46-2,2.31-1.28,1.57-2.71,3.36-4.14,5.41a68.91,68.91,0,0,0-4.29,6.83,51.34,51.34,0,0,0-3.67,8.25.35.35,0,0,1,0,.11c0-1,0-3.66,0-3.87-.38-2.91-2.82-8.32-6.05-8.92a3.9,3.9,0,0,0-4.5,3.66c-.19,2.32,1.49,4.64,3.13,6.1,1.85,1.65,7,3.24,7.38,3.37a70.29,70.29,0,0,0-2.17,8.94c-.31,1.76-.57,3.54-.81,5.33,0-.83,0-1.58,0-1.68-.38-2.91-2.82-8.32-6.06-8.92a3.89,3.89,0,0,0-4.49,3.66c-.19,2.32,1.49,4.63,3.12,6.1s6,2.93,7.16,3.3c-.09.69-.18,1.37-.26,2.06-.39,3.3-.77,6.6-1.25,9.82-.16,1.14-.37,2.25-.57,3.36,0-.74,0-1.36,0-1.45-.37-2.92-2.82-8.33-6-8.93a3.9,3.9,0,0,0-4.49,3.67c-.19,2.31,1.49,4.63,3.12,6.09s5.58,2.79,6.95,3.23c-.24,1.14-.48,2.28-.76,3.36-.21.74-.36,1.47-.62,2.2l-.69,2.16c-.5,1.36-1,2.77-1.52,4.08-.35.92-.7,1.78-1,2.66.18-1.13.48-3.35.48-3.54a15,15,0,0,0-2-7.35,4.91,4.91,0,0,0-.06-.86,3.89,3.89,0,0,0-4.76-3.31c-3.18.85-5.2,6.43-5.35,9.36,0,.18.11,2.07.2,3.26-.16-.69-.31-1.37-.48-2.08-.34-1.4-.71-2.8-1.11-4.3-.21-.72-.43-1.44-.66-2.17s-.51-1.48-.76-2.23c-.63-1.72-1.35-3.43-2.12-5.14,1.23-.29,5.59-1.4,7.34-2.75s3.58-3.52,3.57-5.84a3.9,3.9,0,0,0-4.21-4c-3.27.36-6.11,5.57-6.7,8.45,0,.18-.23,2.29-.32,3.45-.46-1-.93-2.05-1.43-3.07-1.46-2.94-3-5.88-4.59-8.81-.48-.9-.94-1.8-1.41-2.7.44-.1,5.64-1.31,7.6-2.81,1.74-1.34,3.59-3.53,3.58-5.85a3.89,3.89,0,0,0-4.21-4c-3.27.35-6.11,5.56-6.71,8.44,0,.22-.31,3.26-.35,4-1-2-2-4-2.95-6a66.84,66.84,0,0,1-3.21-8.3c.2-.05,5.64-1.28,7.65-2.82,1.74-1.34,3.59-3.52,3.57-5.85a3.89,3.89,0,0,0-4.21-4c-3.27.35-6.11,5.56-6.7,8.44,0,.23-.34,3.5-.35,4.1-.05-.17-.12-.33-.17-.5a49.75,49.75,0,0,1-1.67-8.76c-.18-1.63-.26-3.2-.31-4.73,1-.13,5.77-.76,7.73-1.95s3.95-3.1,4.19-5.41a3.9,3.9,0,0,0-3.74-4.43c-3.3,0-6.69,4.86-7.6,7.66-.05.15-.38,1.75-.6,2.92,0-.69,0-1.4,0-2.07,0-2.49.16-4.76.32-6.78.09-1.15.21-2.18.32-3.15.95-.65,4.76-3.34,5.93-5.26s2.08-4.58,1.22-6.74a3.89,3.89,0,0,0-5.36-2.2c-2.92,1.51-3.69,7.39-3.21,10.29.05.25,1.15,4.09,1.2,4.06l.06,0c-.13.93-.26,1.93-.38,3-.2,2-.4,4.3-.46,6.8a67.39,67.39,0,0,0,.19,8.06,51,51,0,0,0,1.49,8.91l0,.1c-.52-.81-2-3-2.18-3.19-1.92-2.23-6.94-5.39-10-4.1a3.9,3.9,0,0,0-1.73,5.53C284.32,409.26,287,410.27,289.17,410.59Z" style="fill:#263238"></path><path d="M345.6,395.13s1-3.84,1.09-4.09c.4-2.91-.53-8.78-3.49-10.21a3.9,3.9,0,0,0-5.3,2.35c-.79,2.18.21,4.86,1.41,6.7C340.71,392.05,345.6,395.12,345.6,395.13Z" style="fill:#263238"></path></g><g id="freepik--Clipboard--inject-2"><rect x="71.05" y="185.26" width="214.59" height="278.84" rx="11.79" style="fill:#263238"></rect><rect x="81.32" y="201.75" width="194.05" height="249.12" style="fill:#fff;stroke:#263238;stroke-linecap:round;stroke-linejoin:round"></rect><line x1="138.94" y1="239.06" x2="217.75" y2="239.06" style="fill:none;stroke:#263238;stroke-linecap:round;stroke-linejoin:round"></line><line x1="228.03" y1="273.01" x2="255.34" y2="273.01" style="fill:none;stroke:#263238;stroke-linecap:round;stroke-linejoin:round"></line><line x1="149.46" y1="273.01" x2="221.53" y2="273.01" style="fill:none;stroke:#263238;stroke-linecap:round;stroke-linejoin:round"></line><line x1="115.87" y1="273.01" x2="144.59" y2="273.01" style="fill:none;stroke:#263238;stroke-linecap:round;stroke-linejoin:round"></line><line x1="101.35" y1="273.01" x2="108.83" y2="273.01" style="fill:none;stroke:#263238;stroke-linecap:round;stroke-linejoin:round"></line><line x1="228.57" y1="299.68" x2="255.34" y2="299.68" style="fill:none;stroke:#263238;stroke-linecap:round;stroke-linejoin:round"></line><line x1="184.14" y1="299.68" x2="223.16" y2="299.68" style="fill:none;stroke:#263238;stroke-linecap:round;stroke-linejoin:round"></line><line x1="117.5" y1="299.68" x2="178.18" y2="299.68" style="fill:none;stroke:#263238;stroke-linecap:round;stroke-linejoin:round"></line><line x1="101.35" y1="299.68" x2="110.45" y2="299.68" style="fill:none;stroke:#263238;stroke-linecap:round;stroke-linejoin:round"></line><line x1="213.4" y1="326.36" x2="255.34" y2="326.36" style="fill:none;stroke:#263238;stroke-linecap:round;stroke-linejoin:round"></line><line x1="123.46" y1="326.36" x2="205.82" y2="326.36" style="fill:none;stroke:#263238;stroke-linecap:round;stroke-linejoin:round"></line><line x1="101.35" y1="326.36" x2="116.95" y2="326.36" style="fill:none;stroke:#263238;stroke-linecap:round;stroke-linejoin:round"></line><line x1="245.37" y1="353.03" x2="255.34" y2="353.03" style="fill:none;stroke:#263238;stroke-linecap:round;stroke-linejoin:round"></line><line x1="129.96" y1="353.03" x2="235.08" y2="353.03" style="fill:none;stroke:#263238;stroke-linecap:round;stroke-linejoin:round"></line><line x1="101.35" y1="353.03" x2="122.37" y2="353.03" style="fill:none;stroke:#263238;stroke-linecap:round;stroke-linejoin:round"></line><line x1="243.75" y1="379.71" x2="255.34" y2="379.71" style="fill:none;stroke:#263238;stroke-linecap:round;stroke-linejoin:round"></line><line x1="153.26" y1="379.71" x2="235.08" y2="379.71" style="fill:none;stroke:#263238;stroke-linecap:round;stroke-linejoin:round"></line><line x1="101.35" y1="379.71" x2="146.21" y2="379.71" style="fill:none;stroke:#263238;stroke-linecap:round;stroke-linejoin:round"></line><line x1="203.11" y1="406.38" x2="255.34" y2="406.38" style="fill:none;stroke:#263238;stroke-linecap:round;stroke-linejoin:round"></line><line x1="101.35" y1="406.38" x2="192.81" y2="406.38" style="fill:none;stroke:#263238;stroke-linecap:round;stroke-linejoin:round"></line><path d="M203.9,179.63a5.24,5.24,0,0,1-4.28-8.19,18.39,18.39,0,1,0-31,.29,5.19,5.19,0,0,1-4.47,7.9h-32l8.64,24.82h86.41l8.64-24.82ZM184,169.06a6.44,6.44,0,1,1,6.43-6.43A6.43,6.43,0,0,1,184,169.06Z" style="fill:#fff;stroke:#263238;stroke-linecap:round;stroke-linejoin:round"></path></g><g id="freepik--check-mark--inject-2"><circle cx="119.99" cy="413.82" r="22.22" transform="translate(-247.04 188.13) rotate(-42.24)" style="fill:#263238;stroke:#263238;stroke-linecap:round;stroke-linejoin:round"></circle><path d="M121.58,423.14a5,5,0,0,1-3.75-1.74L108.08,410a5,5,0,1,1,7.57-6.49l6,7.06,20-22.32a5,5,0,1,1,7.42,6.67l-23.84,26.55a5,5,0,0,1-3.71,1.65Z" style="fill:#FFB847"></path><path d="M145.46,388.11a3.48,3.48,0,0,1,2.59,5.82l-23.84,26.55a3.47,3.47,0,0,1-2.59,1.16h0a3.45,3.45,0,0,1-2.61-1.22L109.21,409a3.49,3.49,0,1,1,5.3-4.54l7.17,8.36,21.18-23.59a3.47,3.47,0,0,1,2.6-1.16m0-3h0a6.53,6.53,0,0,0-4.83,2.15l-18.9,21.05-4.94-5.76a6.49,6.49,0,1,0-9.85,8.45l9.75,11.38a6.51,6.51,0,0,0,4.85,2.26h.08a6.46,6.46,0,0,0,4.82-2.15l23.85-26.55a6.5,6.5,0,0,0-4.83-10.83Z" style="fill:#263238"></path></g><g id="freepik--Crane--inject-2"><line x1="184.48" y1="156.19" x2="184.48" y2="94.11" style="fill:none;stroke:#263238;stroke-linecap:round;stroke-linejoin:round"></line><path d="M181.64,81.68v5.79l-2.31,4a4.87,4.87,0,0,0,4.88,4.88h0a4.87,4.87,0,0,0,4.87-4.88v-4" style="fill:none;stroke:#263238;stroke-linecap:round;stroke-linejoin:round;stroke-width:3px"></path><rect x="176.62" y="70.56" width="9.76" height="10.84" transform="translate(362.99 151.97) rotate(180)" style="fill:#fff;stroke:#263238;stroke-linecap:round;stroke-linejoin:round"></rect><rect x="173" y="56.02" width="16.98" height="21.77" transform="translate(362.99 133.81) rotate(180)" style="fill:#fff;stroke:#263238;stroke-linecap:round;stroke-linejoin:round"></rect><rect x="167.94" y="66.95" width="26.92" height="6.68" transform="translate(362.81 140.59) rotate(180)" style="fill:#fff;stroke:#263238;stroke-linecap:round;stroke-linejoin:round"></rect><polygon points="181.49 66.95 185.35 66.95 190.8 73.13 190.23 73.64 187.39 73.64 181.49 66.95" style="fill:#263238"></polygon><polygon points="192.75 66.95 194.87 69.34 194.87 73.64 194.8 73.64 188.9 66.95 192.75 66.95" style="fill:#263238"></polygon><polygon points="174.09 66.95 177.94 66.95 183.39 73.13 182.82 73.64 179.98 73.64 174.09 66.95" style="fill:#263238"></polygon><polygon points="167.94 68.39 167.94 66.95 170.53 66.95 175.98 73.13 175.41 73.64 172.57 73.64 167.94 68.39" style="fill:#263238"></polygon><line x1="181.88" y1="55.64" x2="181.88" y2="42.54" style="fill:#fff;stroke:#263238;stroke-linecap:round;stroke-linejoin:round;stroke-width:2px"></line><polyline points="4.47 42.21 188.68 42.21 188.68 34.36 153.07 19.28 4.47 19.28" style="fill:none;stroke:#263238;stroke-linecap:round;stroke-linejoin:round;stroke-width:2px"></polyline><polygon points="153.07 42.21 153.07 19.28 129.54 42.21 129.54 19.28 153.07 42.21" style="fill:none;stroke:#263238;stroke-linecap:round;stroke-linejoin:round;stroke-width:2px"></polygon><polygon points="129.57 42.21 129.57 19.28 106.03 42.21 106.03 19.28 129.57 42.21" style="fill:none;stroke:#263238;stroke-linecap:round;stroke-linejoin:round;stroke-width:2px"></polygon><polygon points="106.06 42.21 106.06 19.28 82.53 42.21 82.53 19.28 106.06 42.21" style="fill:none;stroke:#263238;stroke-linecap:round;stroke-linejoin:round;stroke-width:2px"></polygon><polygon points="82.56 42.21 82.56 19.28 59.02 42.21 59.02 19.28 82.56 42.21" style="fill:none;stroke:#263238;stroke-linecap:round;stroke-linejoin:round;stroke-width:2px"></polygon><polygon points="59.05 42.21 59.05 19.28 35.52 42.21 35.52 19.28 59.05 42.21" style="fill:none;stroke:#263238;stroke-linecap:round;stroke-linejoin:round;stroke-width:2px"></polygon><polygon points="35.55 42.21 35.55 19.28 12.01 42.21 12.01 19.28 35.55 42.21" style="fill:none;stroke:#263238;stroke-linecap:round;stroke-linejoin:round;stroke-width:2px"></polygon></g><g id="freepik--Character--inject-2"><path d="M394.92,275.43,382.54,309.6l-.79-.2-7-5.07-2.59,2.55,2.72,13.37s11,5.66,13,5.29a28.83,28.83,0,0,0,4.38-1.27s6.92-47.56,7.1-48.48S398.38,272.33,394.92,275.43Z" style="fill:#fff;stroke:#263238;stroke-linecap:round;stroke-linejoin:round"></path><path d="M398.26,454s-3.46,5.27-6.28,7.49-9.44,5.42-11.28,6.91-1,2.82-.39,3.46,9.15,1.11,13.78,1.12,13-2,13-2,3.7.59,4.64.12,1.53-1.52,1.68-3.16-.39-10.9-.39-10.9Z" style="fill:#fff;stroke:#263238;stroke-linecap:round;stroke-linejoin:round"></path><path d="M408.2,468.53c-3.6.58-4.31,1.4-11.29,2.44-5.74.86-14.25-.2-17.34-.75a2.24,2.24,0,0,0,.74,1.62c.63.64,9.15,1.11,13.78,1.12s13-2,13-2,3.7.59,4.64.12,1.52-1.51,1.67-3.12A45.33,45.33,0,0,0,408.2,468.53Z" style="fill:#263238;stroke:#263238;stroke-linecap:round;stroke-linejoin:round"></path><path d="M401.27,457.87s-4-1.78-6.7,1.22" style="fill:none;stroke:#263238;stroke-linecap:round;stroke-linejoin:round;stroke-width:2px"></path><path d="M396.71,456.36s3.08,2.41,2.67,5" style="fill:none;stroke:#263238;stroke-linecap:round;stroke-linejoin:round;stroke-width:2px"></path><path d="M398.28,460.65s-3.15-1.46-5.29,1" style="fill:none;stroke:#263238;stroke-linecap:round;stroke-linejoin:round;stroke-width:2px"></path><path d="M394.69,459.42s2.42,2,2.08,4.1" style="fill:none;stroke:#263238;stroke-linecap:round;stroke-linejoin:round;stroke-width:2px"></path><path d="M396,463.47s-2.91-1.37-7.49.25" style="fill:none;stroke:#263238;stroke-linecap:round;stroke-linejoin:round;stroke-width:2px"></path><path d="M392.32,462.22a2.05,2.05,0,0,1-.4,3.2" style="fill:none;stroke:#263238;stroke-linecap:round;stroke-linejoin:round;stroke-width:2px"></path><path d="M421.07,459s-1.71,6.12-2.32,7-4.69,6-4.73,7.79,1.27,3.17,4.52,3.91,8.29,1,12.31-.83,5.83-2.43,6.84-5.23.34-12.19.34-12.19S425.48,450.2,421.07,459Z" style="fill:#fff;stroke:#263238;stroke-linecap:round;stroke-linejoin:round"></path><path d="M437.69,471.61a17.37,17.37,0,0,0,.54-4.65,30.27,30.27,0,0,1-2.82,3.79c-2,2.19-5.38,4.62-11.9,5.1a13,13,0,0,1-9.32-2.86,3,3,0,0,0-.17.77c0,1.83,1.27,3.17,4.52,3.91s8.29,1,12.31-.83S436.68,474.41,437.69,471.61Z" style="fill:#263238;stroke:#263238;stroke-linecap:round;stroke-linejoin:round"></path><path d="M429.9,456.92s-5.48-.27-7.2,3" style="fill:none;stroke:#263238;stroke-linecap:round;stroke-linejoin:round;stroke-width:2px"></path><path d="M423.9,457s4.71,1,5.43,3.24" style="fill:none;stroke:#263238;stroke-linecap:round;stroke-linejoin:round;stroke-width:2px"></path><path d="M428.81,460.92s-5.49-.26-7.21,3" style="fill:none;stroke:#263238;stroke-linecap:round;stroke-linejoin:round;stroke-width:2px"></path><path d="M422.8,461s4.71,1,5.44,3.24" style="fill:none;stroke:#263238;stroke-linecap:round;stroke-linejoin:round;stroke-width:2px"></path><path d="M427.72,464.92s-5.49-.26-7.21,3" style="fill:none;stroke:#263238;stroke-linecap:round;stroke-linejoin:round;stroke-width:2px"></path><path d="M421.71,465s4.71,1,5.43,3.24" style="fill:none;stroke:#263238;stroke-linecap:round;stroke-linejoin:round;stroke-width:2px"></path><path d="M388.26,338.86s2.1,31.81,3,40.74,3.09,29.52,3.27,30.07.73,7.83.73,7.83-.54,2.92.19,9.3,2.91,19.68,2.91,19.68-1.82.36-1.64,1.82.91,5.47.91,5.47,6.93,2.36,8.93,2.55,6,0,6,0,1.64-2.74,1.46-4.19a44.91,44.91,0,0,0-1.46-5.29l.91-10.75L415,392.18s5.65,42.82,6.56,45.91,1.82,8,1.82,8-1.82,1.46-1.82,2.37.37,7.29.37,7.29,3.64-2.92,7.1-2.37,9.12,4.56,9.12,4.56a36.57,36.57,0,0,1,1.09-5.47c.73-2.37-.73-8.38-1.1-10a14.94,14.94,0,0,1-.18-5.65c.37-1.64.55-6.74.73-8.38s-.18-42.46-.18-42.46l3.72-46.75-53-1.64Z" style="fill:#263238;stroke:#263238;stroke-linecap:round;stroke-linejoin:round"></path><path d="M407.68,260.44s-11.26,5.16-12,7-4.54,39.1-6.73,54-1.25,18.86-1.25,18.86,2.35,4.85,25.34,4.06,31.13-4.22,31.44-6.25.63.54.63-.87,1.72-67.88,0-71.95-11.42-10.79-14.24-11.1S407.68,260.44,407.68,260.44Z" style="fill:#FFB847;stroke:#263238;stroke-linecap:round;stroke-linejoin:round"></path><path d="M426.27,257.4c-6.88,1.69-18.59,5.47-18.59,5.47s-11.26,5.16-12,7a22.42,22.42,0,0,0-.55,3.13c5-2.84,16.69-9.44,20.63-10.68a50.85,50.85,0,0,1,9.85-2L438.62,269l5.46.14s-12.25-10.79-15.71-11.72A7.22,7.22,0,0,0,426.27,257.4Z" style="fill:#fff;stroke:#263238;stroke-linecap:round;stroke-linejoin:round"></path><path d="M388.94,323.69l0,.18c-.38,2.59-.64,4.92-.83,7.05a142.62,142.62,0,0,0,35.1,2.66c12-.73,18.66-1.17,22.05-1.39,0-2.05.09-4.43.14-7.06C437.38,326,406.08,328.71,388.94,323.69Z" style="fill:#fff;stroke:#263238;stroke-linecap:round;stroke-linejoin:round"></path><path d="M397.16,336.16c.08,1.42.2,2.8.35,4.14" style="fill:none;stroke:#263238;stroke-miterlimit:10"></path><path d="M400.58,303.18C399,312.62,396.83,322,397.05,333" style="fill:none;stroke:#263238;stroke-miterlimit:10"></path><path d="M403.46,291.18s-1.17,4.88-2.47,12.11" style="fill:none;stroke:#263238;stroke-miterlimit:10"></path><path d="M368.28,344.61s2.3,4.08,6.39-.46c2.2-2.43,10.47-27.68,10.47-27.68S369,342,368.28,344.61Z" style="fill:#fff;stroke:#263238;stroke-linecap:round;stroke-linejoin:round"></path><path d="M352.84,268.28l10.72-3.71s-.11,23,1.45,28.47l1.55,5.49s-10.42-17.38-12.65-23.18S352.84,268.28,352.84,268.28Z" style="fill:#fff;stroke:#263238;stroke-linecap:round;stroke-linejoin:round"></path><path d="M375,301.63s-1.9-5.25-5.15-4.17-5.64,1-5.89,2.45,8.2,7,8.2,7S378.15,306.53,375,301.63Z" style="fill:#fff;stroke:#263238;stroke-linecap:round;stroke-linejoin:round"></path><path d="M379,326.42s-10.56,17.47-10.7,18.19c0,0-7.24-12.26-17-27.28s-18.94-50.54-18.94-50.54a17.55,17.55,0,0,1,10.42-5.07c6.86-.92,9.22-.65,9.22-.65s6.54,23.13,13.78,33.79a118.52,118.52,0,0,0,16.41,18.9l3,2.71Z" style="fill:#fff;stroke:#263238;stroke-linecap:round;stroke-linejoin:round"></path><path d="M351.08,297.74a188.53,188.53,0,0,0,19.13,5.94" style="fill:none;stroke:#263238;stroke-miterlimit:10"></path><path d="M345.23,295.58s.84.33,2.26.85" style="fill:none;stroke:#263238;stroke-miterlimit:10"></path><path d="M355.68,293.31s6.85,6.87,14,8.23" style="fill:none;stroke:#263238;stroke-miterlimit:10"></path><path d="M390.62,310.94s-8.76-4.07-10.17-4.22-8.6,2.65-9.38,3.28-1.1,2-.16,2.19,2.5-.94,2.5-.94l4.07-.78,1.88,1.09s-6.57,3.91-7.2,5.17-1.72,3.59-1.09,4.06.94,1.57,1.87,1.57a9,9,0,0,0,1.48-.1,6.61,6.61,0,0,0,3.22-1.47c1.4-1.25,4.53-.78,4.53-.78s3.76,1.25,4.7.94a28,28,0,0,0,3.28-1.72h1.72Z" style="fill:#fff;stroke:#263238;stroke-linecap:round;stroke-linejoin:round"></path><path d="M371.07,320.79s3.35-3.49,3.73-3.94,6.06-3.31,6.06-3.31" style="fill:none;stroke:#263238;stroke-miterlimit:10"></path><path d="M372.94,322.36s4.54-4,4.86-4.24,4.14-1.78,4.14-1.78" style="fill:none;stroke:#263238;stroke-miterlimit:10"></path><path d="M442.72,267.87s-6.1-2-10.32,4.54-6.75,38.2-6.75,38.2l-35,.33.62,9.7s33.16,3.58,39.57,3.58,8.14,1.09,8.92-1.25,7.68-30.85,8.62-39.92S445.69,268.5,442.72,267.87Z" style="fill:#fff;stroke:#263238;stroke-linecap:round;stroke-linejoin:round"></path><path d="M391,339.41s-9.66-1.46-10.21-.37,0,16,.91,16.95,7.11,2.19,8.93,1.09,2.92-1.82,3.28-2.73.37-12.39-.36-13.85A2.4,2.4,0,0,0,391,339.41Z" style="fill:#263238;stroke:#263238;stroke-linecap:round;stroke-linejoin:round"></path><path d="M402.47,341.23S401,356,403.38,356.9a25.38,25.38,0,0,0,8.2,1.1c.91-.19,4.19-.73,4.74-2.19s.54-12.94.18-14S403.38,339.77,402.47,341.23Z" style="fill:#263238;stroke:#263238;stroke-linecap:round;stroke-linejoin:round"></path><path d="M425.43,342.87s.73,16.58,1.09,17.31,7.29,5.29,8.56,5.1,11.48-1.27,12-3.28,1.82-18.22.73-20-3.46-2.55-5.65-2.73-14.94,1.64-14.94,1.64A1.94,1.94,0,0,0,425.43,342.87Z" style="fill:#263238;stroke:#263238;stroke-linecap:round;stroke-linejoin:round"></path><path d="M412.38,256.3l-7.51,4.07,2.66,4.85-3.76,23.46S426,259.74,426.3,259.27a36.9,36.9,0,0,1,4.53-2.66l-1.41-5.79-2.34.63Z" style="fill:#263238;stroke:#263238;stroke-linecap:round;stroke-linejoin:round"></path><path d="M404.45,224s-1.35,4.17-1.35,4.73a20,20,0,0,0,.34,2.25s-4.16,5.85-3.94,6.18,2.7,2.93,2.7,2.93.22,8.77,1.35,8.89,8.44.11,8.44.11l-.68,12.82,16.76-9.67.34-11.25s4.5-5.74,4.5-8.66-.45-3.49-.45-3.49Z" style="fill:#fff;stroke:#263238;stroke-linecap:round;stroke-linejoin:round"></path><path d="M432.46,228.83l-17.91-3.09.14,1.29-.68,6.19s4.72-3.26,5.62-3.71,2.7,2.7,1.69,4.61-4.39,4.5-4.39,4.5,3.72,3.82,7.54,4a13.59,13.59,0,0,0,3.9-.32l0-1.37s4.5-5.74,4.5-8.66S432.46,228.83,432.46,228.83Z" style="fill:#263238;stroke:#263238;stroke-linecap:round;stroke-linejoin:round"></path><path d="M404.22,228.38a2.66,2.66,0,0,1,3.38.56" style="fill:none;stroke:#263238;stroke-miterlimit:10"></path><ellipse cx="405.35" cy="231.42" rx="0.56" ry="1.35" style="fill:#263238"></ellipse><polygon points="408.84 248.85 415.7 248.06 411.99 252.45 411.99 249.08 408.84 248.85" style="fill:#263238;stroke:#263238;stroke-miterlimit:10"></polygon><polygon points="422.11 230.52 428.37 242.35 431.33 239.52 425.71 230.18 422.11 230.52" style="fill:#fff;stroke:#263238;stroke-linecap:round;stroke-linejoin:round"></polygon><path d="M402.24,221.3s-7.93,1-6.95,1.36,41.92,12.94,41.92,12.94a26,26,0,0,1-.82-3.93c0-1,1.64-7.37,1-13.92s-14.5-10.21-21.37-10.86-10.32,2.62-11,6.22A42.08,42.08,0,0,1,402.24,221.3Z" style="fill:#FFB847;stroke:#263238;stroke-linecap:round;stroke-linejoin:round"></path><path d="M413.6,224.73l-7.23-2.6s4.2-9.55,4.05-10.71a20.2,20.2,0,0,1-.14-2.17s.14-1.88,6.51-1.15" style="fill:none;stroke:#263238;stroke-linecap:round;stroke-linejoin:round"></path></g></svg>
