<svg xmlns="http://www.w3.org/2000/svg" viewBox="0 0 500 500"><g id="freepik--background-simple--inject-141"><path d="M394,93S348,43,240,53,92,110,69,163,84,269,82,294s-16,79,47,131,133.4,51.4,212,24c109-38,61-113,81-140s39-66,25-121S416,116,394,93Z" style="fill:#FFAD3B"></path><path d="M394,93S348,43,240,53,92,110,69,163,84,269,82,294s-16,79,47,131,133.4,51.4,212,24c109-38,61-113,81-140s39-66,25-121S416,116,394,93Z" style="fill:#fff;opacity:0.7000000000000001"></path></g><g id="freepik--Sign--inject-141"><rect x="163.39" y="34.82" width="175.7" height="197.97" style="fill:#fff;stroke:#263238;stroke-miterlimit:10"></rect><polygon points="339.09 111 163.39 150 163.39 34.82 339.09 34.82 339.09 111" style="fill:#FFAD3B;stroke:#263238;stroke-miterlimit:10"></polygon></g><g id="freepik--light-bulb--inject-141"><path d="M272.36,125.49a20.38,20.38,0,1,0-36,13A20,20,0,0,1,241,151.35v2.8h22v-2.8a20,20,0,0,1,4.64-12.81A20.28,20.28,0,0,0,272.36,125.49Z" style="fill:#fff;stroke:#263238;stroke-linecap:round;stroke-linejoin:round;stroke-width:3px"></path><rect x="240.96" y="154.15" width="22.03" height="5.45" style="fill:#fff;stroke:#263238;stroke-linecap:round;stroke-linejoin:round;stroke-width:3px"></rect><path d="M241,159.62h22a0,0,0,0,1,0,0v.73a4.73,4.73,0,0,1-4.73,4.73H245.69a4.73,4.73,0,0,1-4.73-4.73v-.73A0,0,0,0,1,241,159.62Z" style="fill:#fff;stroke:#263238;stroke-linecap:round;stroke-linejoin:round;stroke-width:3px"></path><path d="M254.76,170.51h-5.57a5.45,5.45,0,0,1-5.45-5.45h16.47A5.45,5.45,0,0,1,254.76,170.51Z" style="fill:#fff;stroke:#263238;stroke-linecap:round;stroke-linejoin:round;stroke-width:3px"></path><line x1="275.25" y1="125.6" x2="284.59" y2="125.6" style="fill:none;stroke:#263238;stroke-linecap:round;stroke-linejoin:round;stroke-width:3px"></line><line x1="218.49" y1="125.6" x2="227.95" y2="125.6" style="fill:none;stroke:#263238;stroke-linecap:round;stroke-linejoin:round;stroke-width:3px"></line><line x1="251.54" y1="101.91" x2="251.54" y2="92.55" style="fill:none;stroke:#263238;stroke-linecap:round;stroke-linejoin:round;stroke-width:3px"></line><line x1="268.46" y1="108.67" x2="274.91" y2="102.23" style="fill:none;stroke:#263238;stroke-linecap:round;stroke-linejoin:round;stroke-width:3px"></line><line x1="228.17" y1="148.97" x2="234.71" y2="142.43" style="fill:none;stroke:#263238;stroke-linecap:round;stroke-linejoin:round;stroke-width:3px"></line><line x1="234.43" y1="108.49" x2="228.17" y2="102.23" style="fill:none;stroke:#263238;stroke-linecap:round;stroke-linejoin:round;stroke-width:3px"></line><line x1="274.91" y1="148.97" x2="268.68" y2="142.73" style="fill:none;stroke:#263238;stroke-linecap:round;stroke-linejoin:round;stroke-width:3px"></line></g><g id="freepik--Texts--inject-141"><path d="M185.39,87.33h-6.33V47h6.33V64.31h7.2V47H199V87.33h-6.44V70.06h-7.2Z" style="fill:#263238"></path><path d="M210,64h8.69v5.75H210v11.8H220.9v5.76H203.64V47H220.9V52.8H210Z" style="fill:#263238"></path><path d="M224.81,47h6.34V81.57h10.41v5.76H224.81Z" style="fill:#263238"></path><path d="M263.08,57v5.24c0,6.44-3.1,9.95-9.43,9.95h-3V87.33h-6.33V47h9.33C260,47,263.08,50.55,263.08,57Zm-12.43-4.2V66.44h3c2,0,3.1-.92,3.1-3.8v-6c0-2.88-1.09-3.8-3.1-3.8Z" style="fill:#263238"></path><path d="M272.35,64.94h8.17v5.75h-8.17V87.33H266V47h16.75V52.8H272.35Z" style="fill:#263238"></path><path d="M291.86,47V78.12c0,2.88,1.26,3.91,3.28,3.91s3.28-1,3.28-3.91V47h6V77.72c0,6.44-3.22,10.12-9.43,10.12s-9.44-3.68-9.44-10.12V47Z" style="fill:#263238"></path><path d="M308.72,47h6.33V81.57h10.42v5.76H308.72Z" style="fill:#263238"></path><path d="M218.63,217.78V181.59H211.2V177.5h19.28v4.09h-7.42v36.19Z" style="fill:#263238"></path><path d="M238,177.5v40.28h-4.49V177.5Z" style="fill:#263238"></path><path d="M251.43,177.5c6.33,0,9,3.74,9,9.84v4.84c0,6.38-3,9.72-9.38,9.72h-4v15.88h-4.48V177.5Zm-.34,20.37c3.33,0,4.94-1.55,4.94-5.41v-5.35c0-3.68-1.32-5.52-4.6-5.52h-4.32v16.28Z" style="fill:#263238"></path><path d="M281.41,187.17v1.09h-4.26v-1.32c0-3.63-1.38-5.76-4.6-5.76s-4.6,2.13-4.6,5.7c0,9,13.52,9.9,13.52,21.24,0,6.1-2.94,10.07-9.09,10.07s-9-4-9-10.07v-2.31h4.2v2.54c0,3.62,1.5,5.75,4.72,5.75S277,212,277,208.35c0-9-13.46-9.84-13.46-21.18,0-6.22,2.87-10.07,8.92-10.07S281.41,181.07,281.41,187.17Z" style="fill:#263238"></path><path d="M285.38,196.43V177.5h4.49v18.93l-.57,12.43H286Zm4.38,15.77v5.58h-4.32V212.2Z" style="fill:#263238"></path></g><g id="freepik--Character--inject-141"><path d="M153.28,206.6s9.06-12.49,11.76-13,11.75,6.86,12.73,7.84-1,1.72-2,1.72-9.55-2.94-9.55-2.94l-3.18,4.16Z" style="fill:#fff;stroke:#263238;stroke-miterlimit:10"></path><path d="M154,238l-2.21-28.17s-.24-3.92,2.7-5.15,18.37-3.91,19.59-4.16,8.82,10,8.82,10l.49,4.9,2.45,6.86a9.21,9.21,0,0,1-4.41-.25c-2.21-.73-7.1-2.69-7.1-2.69h-4.66s.74,9.31.74,12.25-6.62,9.06-6.62,9.06l-.49,3.18-10-3.67Z" style="fill:#fff;stroke:#263238;stroke-miterlimit:10"></path><path d="M165,213.22h12c1,0,7.84,7.1,7.84,7.1" style="fill:none;stroke:#263238;stroke-miterlimit:10"></path><path d="M162.1,207.58s12.74-2.2,14-1.71,7.35,9.55,7.35,9.55" style="fill:none;stroke:#263238;stroke-miterlimit:10"></path><polygon points="150.83 244.81 153.04 235.51 165.53 240.4 164.06 252.65 150.83 244.81" style="fill:#fff;stroke:#263238;stroke-miterlimit:10"></polygon><path d="M348.73,206.6s-9.06-12.49-11.76-13-11.76,6.86-12.74,7.84,1,1.72,2,1.72,9.56-2.94,9.56-2.94l3.18,4.16Z" style="fill:#fff;stroke:#263238;stroke-miterlimit:10"></path><path d="M348,238l2.21-28.17s.24-3.92-2.7-5.15-18.37-3.91-19.59-4.16-8.82,10-8.82,10l-.49,4.9-2.45,6.86a9.21,9.21,0,0,0,4.41-.25c2.2-.73,7.1-2.69,7.1-2.69h4.66s-.74,9.31-.74,12.25,6.62,9.06,6.62,9.06l.49,3.18,10-3.67Z" style="fill:#fff;stroke:#263238;stroke-miterlimit:10"></path><path d="M337,213.22H325c-1,0-7.84,7.1-7.84,7.1" style="fill:none;stroke:#263238;stroke-miterlimit:10"></path><path d="M339.91,207.58s-12.74-2.2-14-1.71-7.35,9.55-7.35,9.55" style="fill:none;stroke:#263238;stroke-miterlimit:10"></path><polygon points="351.18 244.81 348.97 235.51 336.48 240.4 337.95 252.65 351.18 244.81" style="fill:#fff;stroke:#263238;stroke-miterlimit:10"></polygon><path d="M351.57,244l-14.24,6.45a4.6,4.6,0,0,0-2.7,4.22L335,295s-27.46,28.29-29.38,29.66-14-2.19-17.86,1.93S277.33,334,277.33,334l-4.4-1.37L231.46,331l-7.14,3.29L213.89,337s-9.34-7.69-11.26-8.24-11-3-11-3L165,301.29s2.2-48.06-.27-50.26-14.83-8.79-16.21-6.86-14,69.48-12.63,73.87,53.83,50,53.83,50l5.47,92.59c31.44,9,64.52,8.66,99.32,1.47l4.79-91.31s36.8-36.25,47.78-47.51,17.58-20.32,18.41-22c.72-1.45-9.07-45.67-11.39-56.08A1.82,1.82,0,0,0,351.57,244Z" style="fill:#fff;stroke:#263238;stroke-miterlimit:10"></path><polyline points="190.29 341.66 189.72 368.02 183.4 334.25" style="fill:none;stroke:#263238;stroke-miterlimit:10"></polyline><line x1="190.54" y1="330.13" x2="190.37" y2="338.27" style="fill:none;stroke:#263238;stroke-miterlimit:10"></line><polyline points="302.27 346.23 299.3 370.77 306.16 342.76" style="fill:none;stroke:#263238;stroke-miterlimit:10"></polyline><line x1="303.42" y1="336.72" x2="302.76" y2="342.18" style="fill:none;stroke:#263238;stroke-miterlimit:10"></line><path d="M217.7,359.9a55.82,55.82,0,0,0,2.23,7.85" style="fill:none;stroke:#263238;stroke-miterlimit:10"></path><path d="M215.54,339.74a111.83,111.83,0,0,0,1.53,16.89" style="fill:none;stroke:#263238;stroke-miterlimit:10"></path><path d="M274.77,363.91c-.21,2-.45,3.88-.74,5.49" style="fill:none;stroke:#263238;stroke-miterlimit:10"></path><path d="M276,336.17s0,13.58-.9,24.66" style="fill:none;stroke:#263238;stroke-miterlimit:10"></path><path d="M273.21,344.13s-5.77,20.05-10.16,29.39" style="fill:none;stroke:#263238;stroke-miterlimit:10"></path><polygon points="234.21 352.92 241.9 368.57 235.58 443.27 246.29 463.6 257.28 442.18 248.49 368.57 258.93 350.72 246.02 339.19 234.21 352.92" style="fill:#263238;stroke:#263238;stroke-miterlimit:10"></polygon><polygon points="229.82 328.48 221.58 333.42 226.52 365.83 241.35 351 242.72 356.22 248.77 358.96 253.16 354.84 253.71 351.27 264.69 363.36 272.93 332.6 263.05 327.65 229.82 328.48" style="fill:#fff;stroke:#263238;stroke-miterlimit:10"></polygon><polygon points="232.01 315.3 229.82 328.48 242.45 347.15 248.22 357.86 251.51 348.53 263.05 327.65 261.12 316.67 232.01 315.3" style="fill:#fff;stroke:#263238;stroke-miterlimit:10"></polygon><path d="M262.38,323.87l-.82-4.72-6.3-2.76-21-1-2.42.7-1,5.86c3.46,5,11.66,16.32,15.12,17.23C249.31,340.05,258.07,329.43,262.38,323.87Z" style="fill:#263238"></path><path d="M223.69,298.25s-3.82-5.88-5,1.47,7.65,11.76,7.65,11.76a90.38,90.38,0,0,0,5.29,10c2.06,2.94,10.29,7.65,17.65,7.06s14.7-5.88,15.58-7.94,4.71-10,4.71-10,5.88-6.47,5.88-11.47-5.3-4.11-5.3-4.11l.3-20s6.17-3.53,2.94-6.76-10.29-4.71-10.29-4.71,8.23-3.23,6.47-8.23-10-7.35-20.59-4.12-13.82,10-13.82,10-1.47-4.7-5.59-2.35-10.29,13.82-9.4,16.76a15.9,15.9,0,0,0,3.52,5.59Z" style="fill:#fff;stroke:#263238;stroke-miterlimit:10"></path><polyline points="252.51 285.31 252.22 296.78 245.75 296.78" style="fill:none;stroke:#263238;stroke-miterlimit:10"></polyline><path d="M236,301.19s3.53,5.59,8.24,5.59,7.64.59,10.88-.88a9.07,9.07,0,0,0,4.41-4.42" style="fill:none;stroke:#263238;stroke-miterlimit:10"></path><line x1="234.57" y1="295.02" x2="239.87" y2="295.02" style="fill:none;stroke:#263238;stroke-miterlimit:10"></line><line x1="255.74" y1="294.43" x2="262.8" y2="294.43" style="fill:none;stroke:#263238;stroke-miterlimit:10"></line><ellipse cx="238.98" cy="289.72" rx="1.76" ry="2.35" style="fill:#263238"></ellipse><ellipse cx="258.1" cy="289.72" rx="1.76" ry="2.35" style="fill:#263238"></ellipse><path d="M270.15,295l.3-20s6.17-3.53,2.94-6.76-10.29-4.71-10.29-4.71,8.23-3.23,6.47-8.23-10-7.35-20.59-4.12-13.82,10-13.82,10-1.47-4.7-5.59-2.35-10.29,13.82-9.4,16.76a15.9,15.9,0,0,0,3.52,5.59v17.05h1.73s-.55-12.34.55-14.26,5.49-4.67,5.77-7.69,12.91-9.89,20.6-8.79,9.33,6.32,12.35,8,2.2,1.65,2.2,1.65v18.95l4.4-1.1h0A6.48,6.48,0,0,0,270.15,295Z" style="fill:#263238"></path><path d="M233.66,282.89s3-4.67,9.06-1.65" style="fill:none;stroke:#263238;stroke-miterlimit:10"></path><path d="M252.61,280.14s4.67-4.94,10.44.83" style="fill:none;stroke:#263238;stroke-miterlimit:10"></path><line x1="269.36" y1="298.27" x2="269.09" y2="311.72" style="fill:none;stroke:#263238;stroke-miterlimit:10"></line><line x1="224.6" y1="301.29" x2="226.34" y2="311.48" style="fill:none;stroke:#263238;stroke-miterlimit:10"></line></g></svg>