<svg xmlns="http://www.w3.org/2000/svg" viewBox="0 0 500 500"><g id="freepik--background-simple--inject-2"><path d="M472,306c-13.49,40.89-42.56,85.72-85.34,100.31C322,428.37,316.24,481.38,198.92,481A236.74,236.74,0,0,1,148,475.55a196.27,196.27,0,0,1-24.12-7c-69.5-25.07-107.56-84.69-113-148.4-7.15-83.8,49.87-126.07,87-151s79.53-117.45,194.87-118a228.87,228.87,0,0,1,52.36,5.59c39.16,9,79.45,30.67,103.66,63.7,1.82,2.48,3.56,5,5.23,7.62C486.68,178.89,490.4,250.24,472,306Z" style="fill:#FFB847"></path><path d="M472,306c-13.49,40.89-42.56,85.72-85.34,100.31C322,428.37,316.24,481.38,198.92,481A236.74,236.74,0,0,1,148,475.55a196.27,196.27,0,0,1-24.12-7c-69.5-25.07-107.56-84.69-113-148.4-7.15-83.8,49.87-126.07,87-151s79.53-117.45,194.87-118a228.87,228.87,0,0,1,52.36,5.59c39.16,9,79.45,30.67,103.66,63.7,1.82,2.48,3.56,5,5.23,7.62C486.68,178.89,490.4,250.24,472,306Z" style="fill:#fff;opacity:0.7000000000000001"></path></g><g id="freepik--Floor--inject-2"><path d="M483.94,164.48H66.81a.5.5,0,0,1,0-1H483.94a.5.5,0,0,1,0,1Z" style="fill:#263238"></path></g><g id="freepik--Ball--inject-2"><circle cx="290.81" cy="90.66" r="18.21" style="fill:#fff"></circle><path d="M290.81,109.38a18.72,18.72,0,1,1,18.72-18.72A18.74,18.74,0,0,1,290.81,109.38Zm0-36.43a17.72,17.72,0,1,0,17.72,17.71A17.74,17.74,0,0,0,290.81,73Z" style="fill:#263238"></path><path d="M282.62,74.41A18.24,18.24,0,0,0,273,87a25.72,25.72,0,0,1,3-3.67c4.69-3.51,10.54-3.51,16.4-1.17A25.36,25.36,0,0,0,282.62,74.41Z" style="fill:#FFB847"></path><path d="M273,87.5a.48.48,0,0,1-.2,0,.5.5,0,0,1-.29-.56A18.84,18.84,0,0,1,282.4,74a.49.49,0,0,1,.41,0,25.77,25.77,0,0,1,10,7.89.51.51,0,0,1,0,.61.5.5,0,0,1-.59.17c-4.29-1.72-10.54-2.92-15.91,1.11a25.8,25.8,0,0,0-2.91,3.55A.49.49,0,0,1,273,87.5ZM282.65,75a18,18,0,0,0-8.47,9.61c.47-.56,1-1.1,1.46-1.6,4.17-3.13,9.37-3.77,15.15-1.92A24,24,0,0,0,282.65,75Z" style="fill:#263238"></path><path d="M292.37,82.22a11.15,11.15,0,0,0,4.7,11.65c3.74,2.8,7.49,2.62,11.24,1.83a18.09,18.09,0,0,0-.79-12.29c-4.69,4.6-11.64,4.56-15.13-1.25,0,0,0,0,0,0h0Z" style="fill:#FFB847"></path><path d="M304.08,96.71a11.74,11.74,0,0,1-7.31-2.44,11.62,11.62,0,0,1-4.88-12.16h0a.54.54,0,0,1,.41-.41.48.48,0,0,1,.51.22A8.46,8.46,0,0,0,299,86.14a10,10,0,0,0,8.2-3.09.5.5,0,0,1,.44-.13.49.49,0,0,1,.36.29,18.57,18.57,0,0,1,1.56,7.45,18.8,18.8,0,0,1-.74,5.18.5.5,0,0,1-.38.35A21.54,21.54,0,0,1,304.08,96.71ZM292.66,83.45a10.69,10.69,0,0,0,4.69,10c3.59,2.7,7.19,2.5,10.56,1.82a17.54,17.54,0,0,0-.58-11,10.86,10.86,0,0,1-8.49,2.86A9.18,9.18,0,0,1,292.66,83.45Z" style="fill:#263238"></path><path d="M299.86,106.46a19.66,19.66,0,0,1-11-11.36c-1.17-4.68,1.16-9.36,3.5-12.88v0c-9.38,1.18-15.24,10.56-12.89,19.93.42,1.28.89,2.55,1.41,3.8a18.13,18.13,0,0,0,19,.53Z" style="fill:#FFB847"></path><path d="M290.81,109.38a18.61,18.61,0,0,1-10.18-3,.48.48,0,0,1-.19-.23c-.48-1.15-.95-2.41-1.43-3.83A17.18,17.18,0,0,1,281.4,88.4a15.4,15.4,0,0,1,10.92-6.7.49.49,0,0,1,.44.18.47.47,0,0,1,.09.47.34.34,0,0,1-.06.15c-3.21,4.81-4.33,8.9-3.43,12.48a19.22,19.22,0,0,0,10.69,11,.5.5,0,0,1,.3.43.47.47,0,0,1-.25.46A18.64,18.64,0,0,1,290.81,109.38Zm-9.51-3.78a17.62,17.62,0,0,0,17.42.9A20.21,20.21,0,0,1,288.4,95.27c-.92-3.68.05-7.73,3-12.4A14.45,14.45,0,0,0,282.22,89,16.21,16.21,0,0,0,280,102C280.41,103.31,280.85,104.5,281.3,105.6Z" style="fill:#263238"></path><path d="M301.19,75.7a18.18,18.18,0,0,0-8.07-3.09,10.92,10.92,0,0,1,.44,10.76A12.19,12.19,0,0,0,301.19,75.7Z" style="fill:#FFB847"></path><path d="M293.56,83.87a.51.51,0,0,1-.37-.17.52.52,0,0,1-.07-.56,10.41,10.41,0,0,0-.43-10.27.51.51,0,0,1,0-.53.5.5,0,0,1,.48-.22,18.61,18.61,0,0,1,8.29,3.17.51.51,0,0,1,.19.57,12.62,12.62,0,0,1-7.92,8A.57.57,0,0,1,293.56,83.87ZM294,73.26a11.28,11.28,0,0,1,.49,9.16,11.43,11.43,0,0,0,6.06-6.52A17.6,17.6,0,0,0,294,73.26Z" style="fill:#263238"></path></g><g id="freepik--character-4--inject-2"><path d="M333.13,162.64a21.11,21.11,0,0,0-1.41,4.09c0,.9,3.71,3.07,3.45,4.74s-2,2.68-2.3,3.07,10.11,7.29,15.73,13.3-2.17,12.66-1.91,14.32,8.44,1.54,10.1,7.17-2.81,11.12-8.44,10.23-1.41-7.29-3.84-8.7-7.8-.77-14.45-4.35-5.5-18.16-4-22.38,1.15-4.73.26-10,.38-8.18,1.66-9.59S333.13,162.64,333.13,162.64Z" style="fill:#263238"></path><path d="M349.57,220.16a8.25,8.25,0,0,1-1.3-.11c-3.83-.61-3.63-3.62-3.48-5.81.09-1.36.17-2.54-.53-3a13,13,0,0,0-3.91-1A32.08,32.08,0,0,1,329.82,207c-6.89-3.71-5.82-18.54-4.2-23,1.32-3.62,1.2-4.3.52-8.1-.09-.49-.18-1-.28-1.62-1-5.9.68-8.81,1.78-10,1.39-1.52,5.26-2.05,5.42-2.07a.49.49,0,0,1,.47.19.5.5,0,0,1,.06.5,19.19,19.19,0,0,0-1.37,3.89,6.68,6.68,0,0,0,1.17,1.25c1.16,1.08,2.47,2.32,2.28,3.56a5.13,5.13,0,0,1-2,3l-.09.08c.5.44,1.66,1.33,2.88,2.25,3.56,2.72,8.95,6.83,12.54,10.67,4.36,4.66,1.18,9.62-.72,12.58a7.22,7.22,0,0,0-1.07,2c0,.29,1.41.74,2.32,1,2.64.87,6.63,2.19,7.77,6.05a8.7,8.7,0,0,1-1.76,8.24A7.86,7.86,0,0,1,349.57,220.16Zm-17.26-56.87c-1.28.26-3.19.79-3.93,1.61-1,1.07-2.47,3.69-1.54,9.17.1.59.2,1.13.28,1.61.69,3.84.85,4.75-.56,8.62-1.49,4.11-2.55,18.39,3.73,21.77a31.07,31.07,0,0,0,10.23,3.22,13.23,13.23,0,0,1,4.24,1.14c1.24.72,1.13,2.32,1,3.87-.15,2.21-.29,4.3,2.64,4.76a6.83,6.83,0,0,0,6.33-2.3,7.68,7.68,0,0,0,1.55-7.29c-1-3.36-4.54-4.53-7.12-5.39-1.72-.57-2.86-.94-3-1.84-.1-.64.43-1.46,1.22-2.7,1.86-2.89,4.66-7.27.83-11.36-3.53-3.77-8.88-7.85-12.42-10.55s-3.72-2.84-3.36-3.37a2.6,2.6,0,0,1,.53-.52,4.27,4.27,0,0,0,1.69-2.35c.11-.73-1.1-1.86-2-2.68s-1.48-1.4-1.48-2A14.15,14.15,0,0,1,332.31,163.29Z" style="fill:#263238"></path><path d="M284.23,230.35s-2.62,2.8-8,7.66-10.47,10.85-10.1,22.45,7.67,19.82,14.21,19.82a66.53,66.53,0,0,0,11.41-.94s.75,4.31,6.36,6.55,22.44,1.68,29-3.93,7.29-14.21,6.54-15.89-1.49-6.17-2.05-8.42-.09-8.67-.09-8.67Z" style="fill:#263238"></path><path d="M307.18,287.6a27.88,27.88,0,0,1-9.3-1.25c-4.74-1.89-6.16-5.19-6.54-6.43a70.34,70.34,0,0,1-11,.86c-6.65,0-14.32-8.34-14.71-20.31-.37-11.64,4.71-17.85,10.27-22.83,5.34-4.79,8-7.61,8-7.63a.51.51,0,0,1,.55-.13l47.23,18.63a.49.49,0,0,1,.31.5c0,.07-.46,6.38.07,8.52.18.73.39,1.71.61,2.75a37.18,37.18,0,0,0,1.42,5.58c.89,2,0,10.78-6.68,16.48C323,286.08,314.3,287.6,307.18,287.6Zm-15.47-8.76a.62.62,0,0,1,.29.09.54.54,0,0,1,.2.33c0,.16.8,4.06,6.06,6.17s22,1.73,28.47-3.85,7-13.9,6.42-15.31a36.59,36.59,0,0,1-1.49-5.79c-.22-1-.42-2-.6-2.71-.5-2-.21-7-.12-8.46l-46.58-18.37c-.76.79-3.36,3.43-7.84,7.45-5,4.48-10.31,10.26-9.93,22.05.37,11.4,7.52,19.34,13.71,19.34a66.68,66.68,0,0,0,11.32-.93Z" style="fill:#263238"></path><path d="M309.59,173.13s-2.94,1.15-10-2.3-16.63-5.63-22.77-9.21a104.58,104.58,0,0,1-12-8.44S262,132.58,262,128a48,48,0,0,1,.26-6.27s6.39-8.31,7.16-9.33,1.92-7.3,1.66-8.7-1.66-.13-1.79.51a40.05,40.05,0,0,1-1.15,4.35c-.25.51-.51-5.89-1-7.16s-1.92-.77-1.66.38a30.92,30.92,0,0,1-.13,5,9.24,9.24,0,0,1-.9,2.17s-2.3-3.84-3.19-5.5-3.07-2.94-2.95-1.66a7.76,7.76,0,0,0,1.67,3.07l1,4a23.62,23.62,0,0,1-3.58-2.81c-1-1.15-2.94-1.41-2.82-.13s1.41,1.79,1.8,2.18,2,3.32,2,3.32-4.73,5.12-4.73,7.29a15,15,0,0,0,.38,3.58s-2.43,13.05-2.3,21.49-.77,13,.38,14.58,14.46,15.1,20.21,18.42A54.72,54.72,0,0,1,283,185.15s3.32,10.62,3.58,12,2.3,16,1.92,20.72-4.73,11.76-5.76,13,0,4.09,7.42,8.44,28.91,10.88,35.18,11.51,6.26-1.53,6.13-1.91,4.87-23,8.32-34.79A192.52,192.52,0,0,0,344.64,194s7.16-12.28,9.59-25.71,3.46-21.11,2.82-22.51-28.14-18.55-28.14-18.55L326.09,119s-.76-6.27-1.15-8.19-1.41-2-1.53-.9-.13,6.66-.13,6.66l-2-1.16a81.24,81.24,0,0,0-4.6-6.77c-1-1-2.94-1.79-2.94-.64s2.43,3.58,2.81,4.22,2.05,4,2.05,4-6-4.47-7.29-6-2.56-.89-1,1.28,5.12,6.91,5.12,6.91-2.81-.64-3.84-1.67-2-2.81-2.81-2-.26,2.3.38,3.07,3.07,2.56,4.09,3.83,4.48,6.27,5.63,7.68,2.82,2.3,3.46,3.07,16,13.43,16,13.43l6.65,7.42s-4,9.46-5.88,13.17-2.81,5.37-2.81,5.37-3.2,2.69-5.25,3.2a26.24,26.24,0,0,1-5.11.51Z" style="fill:#fff"></path><path d="M327.42,251.51a21.4,21.4,0,0,1-2.15-.12c-6.25-.64-28-7.23-35.37-11.58-4.83-2.83-7.58-5.39-8-7.42a2.15,2.15,0,0,1,.4-1.76c.91-1.13,5.27-8.07,5.65-12.78s-1.64-19.07-1.91-20.59c-.2-1.07-2.38-8.15-3.53-11.85a55.11,55.11,0,0,0-10.43-8.27c-5.77-3.33-19.12-16.9-20.36-18.55-.82-1.1-.74-3.18-.6-7,.07-2.12.17-4.75.12-7.91-.12-8,2.06-20.2,2.29-21.48a16.33,16.33,0,0,1-.37-3.6c0-2.08,3.56-6.18,4.62-7.36a32.06,32.06,0,0,0-1.79-2.9,2.14,2.14,0,0,0-.33-.25,3.15,3.15,0,0,1-1.6-2.23,1.18,1.18,0,0,1,.69-1.28,2.94,2.94,0,0,1,3,1,16.23,16.23,0,0,0,2.39,2l-.66-2.57a7.49,7.49,0,0,1-1.7-3.25.87.87,0,0,1,.58-1c.95-.29,2.58,1.08,3.3,2.41.63,1.17,2,3.48,2.72,4.69a5.06,5.06,0,0,0,.43-1.13c0-.14,0-.47.06-.9a20.83,20.83,0,0,0,.08-4,1.38,1.38,0,0,1,.87-1.69,1.43,1.43,0,0,1,1.74,1,24.64,24.64,0,0,1,.67,4.71c0,.12,0,.24,0,.36.22-.87.43-1.78.51-2.17a2.19,2.19,0,0,1,1.75-1.55h0c.25,0,.86.11,1,1,.26,1.47-.87,7.9-1.76,9.08-.71,1-6.33,8.27-7.08,9.24a52.93,52.93,0,0,0-.24,6.07c0,4.28,2.5,22.82,2.79,24.93a104.19,104.19,0,0,0,11.8,8.28,72.75,72.75,0,0,0,12.08,5,99.39,99.39,0,0,1,10.66,4.19c6.68,3.28,9.55,2.29,9.58,2.28a.48.48,0,0,1,.24,0l16.25,2.31a27.77,27.77,0,0,0,4.92-.5c1.75-.44,4.49-2.65,5-3,.21-.38,1.1-2.06,2.77-5.28s5.06-11.22,5.74-12.85l-6.44-7.18c-1.52-1.25-15.35-12.66-16-13.44a7.7,7.7,0,0,0-1.16-1,13.61,13.61,0,0,1-2.29-2.09c-.63-.76-1.9-2.54-3.13-4.25-1.05-1.46-2-2.84-2.51-3.42a21.41,21.41,0,0,0-2.49-2.36,18.79,18.79,0,0,1-1.59-1.47c-.78-.94-1.34-2.76-.36-3.75a1.1,1.1,0,0,1,.81-.33c.7,0,1.29.73,2,1.54a10.18,10.18,0,0,0,.75.84,6.26,6.26,0,0,0,2.18,1.12c-1.17-1.55-3.18-4.24-4.23-5.72-1.29-1.84-.65-2.55-.42-2.73.47-.36,1.34-.24,2.24.84a52.22,52.22,0,0,0,5.48,4.62c-.43-.84-.88-1.71-1.05-2-.09-.14-.37-.48-.68-.84-1.2-1.44-2.2-2.7-2.2-3.63a1,1,0,0,1,.6-1c.93-.38,2.45.53,3.19,1.27a76.24,76.24,0,0,1,4.61,6.76l1.19.67c0-1.6,0-4.95.13-5.85s.56-1.16,1-1.18c.69,0,1.29.73,1.55,2,.37,1.85,1.07,7.52,1.15,8.17l2.74,8c6.65,4.15,27.53,17.25,28.18,18.67.48,1,.52,4.58-2.78,22.81-2.31,12.8-9,24.7-9.6,25.79a200,200,0,0,1-4.86,20.18c-3.3,11.25-8.14,33-8.29,34.58a1.66,1.66,0,0,1-.37,1.35C330.93,251.09,329.53,251.51,327.42,251.51Zm-72-146a.55.55,0,0,0-.24,0c-.05,0-.12,0-.1.26a2.23,2.23,0,0,0,1.18,1.51,3.54,3.54,0,0,1,.47.36,33.39,33.39,0,0,1,2.13,3.44.5.5,0,0,1-.07.58c-1.28,1.38-4.6,5.33-4.6,7a14.12,14.12,0,0,0,.37,3.45.54.54,0,0,1,0,.22c0,.14-2.41,13.1-2.29,21.39.05,3.19-.05,5.84-.13,8-.12,3.32-.2,5.52.41,6.33,1.23,1.63,14.38,15,20.06,18.29a55.29,55.29,0,0,1,10.73,8.53.62.62,0,0,1,.12.19c.13.44,3.33,10.66,3.59,12.09s2.31,16.12,1.93,20.85c-.4,4.92-4.93,12.14-5.87,13.31a1.16,1.16,0,0,0-.19,1c.18,1,1.39,3.18,7.48,6.74,7.32,4.29,28.79,10.82,35,11.45,4,.4,5.11-.39,5.42-.74a.68.68,0,0,0,.19-.53c-.24-.72,5.25-24.65,8.31-35.08a197,197,0,0,0,4.85-20.15.49.49,0,0,1,.06-.17c.07-.13,7.14-12.37,9.53-25.55,2.45-13.52,3.41-21,2.85-22.22-.8-1.15-17.15-11.59-27.95-18.32a.51.51,0,0,1-.21-.27l-2.81-8.18a.36.36,0,0,1,0-.1c0-.07-.77-6.27-1.15-8.15a2.29,2.29,0,0,0-.49-1.18,1,1,0,0,0-.06.24c-.12,1.11-.12,6.54-.12,6.6a.5.5,0,0,1-.75.43l-2-1.15a.42.42,0,0,1-.18-.17,75.07,75.07,0,0,0-4.54-6.69,3.15,3.15,0,0,0-2.1-1c0,.7,1.3,2.22,2,3a9.45,9.45,0,0,1,.77,1c.39.65,2,3.86,2.06,4a.49.49,0,0,1-.12.61.51.51,0,0,1-.62,0c-.25-.18-6.08-4.53-7.38-6.09-.48-.58-.84-.67-.91-.66a4.52,4.52,0,0,0,.68,1.33c1.51,2.14,5.07,6.85,5.11,6.89a.53.53,0,0,1,0,.58.5.5,0,0,1-.53.21c-.3-.06-3-.7-4.08-1.79-.27-.27-.54-.59-.81-.91s-1-1.17-1.24-1.18c-.59.57-.16,1.81.36,2.44a15.3,15.3,0,0,0,1.48,1.35,23.57,23.57,0,0,1,2.62,2.49c.48.6,1.47,2,2.53,3.46,1.22,1.71,2.48,3.47,3.09,4.21a13.14,13.14,0,0,0,2.13,1.93,8,8,0,0,1,1.32,1.14c.49.57,9.79,8.3,15.92,13.36l6.71,7.47a.51.51,0,0,1,.09.53c0,.09-4,9.53-5.9,13.21s-2.82,5.38-2.82,5.38a.41.41,0,0,1-.12.14c-.14.12-3.31,2.77-5.45,3.3a25.73,25.73,0,0,1-5.23.53l-16.2-2.29c-.69.19-3.85.78-10.24-2.36a97.79,97.79,0,0,0-10.55-4.14c-4.35-1.53-8.86-3.11-12.25-5.09a105.45,105.45,0,0,1-12.09-8.49.49.49,0,0,1-.18-.32c-.11-.84-2.82-20.67-2.82-25.26a49.23,49.23,0,0,1,.26-6.34.54.54,0,0,1,.1-.23l7.16-9.33c.65-.87,1.81-7,1.57-8.31a.61.61,0,0,0-.08-.24,1.47,1.47,0,0,0-.73.76,41.59,41.59,0,0,1-1.19,4.47.57.57,0,0,1-.57.3c-.48-.09-.5-.32-.76-3.07a29.06,29.06,0,0,0-.6-4.43c-.13-.31-.34-.48-.52-.42s-.26.22-.19.51a19.44,19.44,0,0,1-.06,4.28c0,.39-.06.69-.06.82a8,8,0,0,1-1,2.41.48.48,0,0,1-.42.26.51.51,0,0,1-.45-.24c-.09-.16-2.31-3.87-3.2-5.52a4.46,4.46,0,0,0-2-1.9,7.22,7.22,0,0,0,1.53,2.74.54.54,0,0,1,.1.2l1,4a.49.49,0,0,1-.75.54,23.75,23.75,0,0,1-3.69-2.9A2.38,2.38,0,0,0,255.43,105.5Z" style="fill:#263238"></path><path d="M319.19,128.86a.49.49,0,0,1-.5-.46l-.26-4a19.53,19.53,0,0,0-1-5.22c-.52-1.33-.7-2.08-.28-2.51s1.13-.18,1.81.07c1.2.43,2,2.26,2.57,3.94.11.29.19.51.24.6l.46.22a5,5,0,0,1,2.64,2.27c1.73,3.74,1.41,4.2,1.24,4.46a.5.5,0,0,1-.69.14.51.51,0,0,1-.14-.7,15.47,15.47,0,0,0-1.31-3.48,4.17,4.17,0,0,0-2.17-1.79,2,2,0,0,1-.87-.57,5.36,5.36,0,0,1-.33-.8c-.34-.91-1.12-3-2-3.35a6.15,6.15,0,0,0-.69-.23,7.09,7.09,0,0,0,.43,1.36,20.25,20.25,0,0,1,1.06,5.54l.26,4a.51.51,0,0,1-.47.53Z" style="fill:#263238"></path><path d="M342.67,203.32a12.65,12.65,0,0,1-9.54-5.06c-4.22-5.91-4.05-18.58-3.54-22.29,0-.3.07-.55.1-.81a30.86,30.86,0,0,1-3.85.27l-16.25-2.3s-2.27.89-7.61-1.25c-.91,2-2.69,5.54-6.17,11.86A112.74,112.74,0,0,1,286.7,198c.51,3.43,2.13,15.67,1.79,19.93-.38,4.73-4.73,11.76-5.76,13s0,4.09,7.42,8.44,28.91,10.88,35.18,11.51,6.26-1.53,6.13-1.91,4.87-23,8.32-34.79C341,210.08,341.93,206.4,342.67,203.32Z" style="fill:#FFB847"></path><path d="M327.42,251.51a21.4,21.4,0,0,1-2.15-.12c-6.25-.64-28-7.23-35.37-11.58-4.83-2.83-7.58-5.39-8-7.42a2.15,2.15,0,0,1,.4-1.76c.91-1.13,5.27-8.07,5.65-12.78.35-4.25-1.32-16.7-1.79-19.8a.51.51,0,0,1,.1-.38,112.86,112.86,0,0,0,9.07-14.17c3.52-6.4,5.29-10,6.16-11.83a.5.5,0,0,1,.64-.25c5,2,7.23,1.25,7.25,1.24a.48.48,0,0,1,.24,0l16.25,2.31a33.69,33.69,0,0,0,3.71-.27.47.47,0,0,1,.42.14.47.47,0,0,1,.15.42l-.11.8c-.5,3.68-.62,16.23,3.46,21.94a12,12,0,0,0,9.16,4.85.51.51,0,0,1,.37.21.47.47,0,0,1,.08.41c-.86,3.62-1.84,7.29-2.89,10.89-3.3,11.25-8.14,33-8.29,34.58a1.66,1.66,0,0,1-.37,1.35C330.93,251.09,329.53,251.51,327.42,251.51Zm-40.2-53.4c.6,4,2.11,15.62,1.77,19.83-.4,4.92-4.93,12.14-5.87,13.31a1.16,1.16,0,0,0-.19,1c.18,1,1.39,3.18,7.48,6.74,7.32,4.29,28.79,10.82,35,11.45,4,.4,5.11-.39,5.42-.74a.68.68,0,0,0,.19-.53c-.24-.72,5.25-24.65,8.31-35.08,1-3.4,1.92-6.86,2.75-10.28a13.07,13.07,0,0,1-9.32-5.22c-4.31-6-4.18-18.71-3.64-22.65l0-.16a31.68,31.68,0,0,1-3.27.19l-16.21-2.29c-.57.16-2.89.6-7.39-1.12-.94,2-2.71,5.49-6,11.46A113.08,113.08,0,0,1,287.22,198.11Z" style="fill:#263238"></path><path d="M320.56,221.72a.52.52,0,0,1-.29-.09c-4.94-3.46-15-14.94-15.43-15.43a.5.5,0,0,1,.75-.65c.1.11,10.41,11.87,15.25,15.26a.49.49,0,0,1,.13.69A.52.52,0,0,1,320.56,221.72Z" style="fill:#263238"></path><path d="M323,226.67a.46.46,0,0,1-.22-.06c-3-1.48-10.64-7.22-11-7.47a.5.5,0,1,1,.6-.8c.08.06,7.92,5.93,10.82,7.38a.5.5,0,0,1-.23.95Z" style="fill:#263238"></path><path d="M312.41,142.69a14.22,14.22,0,0,0-5.59,5.75c-2.11,4-3.38,14.11-2.32,17.06a7.32,7.32,0,0,0,3.73,4.06,30.52,30.52,0,0,0-1.41,5.84c-.43,3.16-1.69,5.27.21,9.06s6.53,7.59,12,4a18.59,18.59,0,0,0,7.79-12.22c.42-2.74-.42-5.27.63-7.38s6.11-3.58,7.17-9.27.42-9.69-4.85-13.69S320.41,139.32,312.41,142.69Z" style="fill:#fff"></path><path d="M314.65,190.41a7.25,7.25,0,0,1-1.9-.26,10.25,10.25,0,0,1-6.17-5.46c-1.54-3.07-1.1-5.14-.63-7.32.13-.65.27-1.32.37-2a31.08,31.08,0,0,1,1.29-5.53,7.77,7.77,0,0,1-3.58-4.14c-1.14-3.19.24-13.47,2.34-17.47a14.71,14.71,0,0,1,5.81-6h0c8.12-3.42,12.34-.92,17.87,3.28s6.08,8.58,5,14.18c-.73,3.95-3.32,6-5.21,7.46a7.42,7.42,0,0,0-2,1.95,8,8,0,0,0-.48,3.93,16.69,16.69,0,0,1-.11,3.29,19,19,0,0,1-8,12.56A8.44,8.44,0,0,1,314.65,190.41Zm-2-47.27a13.94,13.94,0,0,0-5.36,5.53c-2.12,4-3.26,13.94-2.29,16.66a6.85,6.85,0,0,0,3.45,3.77.5.5,0,0,1,.28.63,30.59,30.59,0,0,0-1.39,5.74c-.1.75-.24,1.44-.39,2.1-.44,2.1-.82,3.91.55,6.67a9.28,9.28,0,0,0,5.54,4.95,7,7,0,0,0,5.75-1.14,18.14,18.14,0,0,0,7.58-11.88,17.07,17.07,0,0,0,.09-3.1,8.86,8.86,0,0,1,.59-4.42,7.77,7.77,0,0,1,2.27-2.29c1.87-1.46,4.18-3.28,4.84-6.85,1-5.36.55-9.25-4.65-13.2C324.08,142.2,320.24,139.94,312.62,143.14Z" style="fill:#263238"></path><path d="M309.85,155a.51.51,0,0,1-.33-.13l-1.15-1a1,1,0,0,1-.36-.88c.05-1.26,2.27-3.11,3.24-3.86l-.75-1.41c-.36-.19-1.52-.72-2.21,0a.5.5,0,0,1-.72-.7c1.38-1.41,3.48-.13,3.57-.07a.52.52,0,0,1,.17.19l1,1.92a.5.5,0,0,1-.15.63c-1.51,1.11-3.15,2.72-3.19,3.37l1.18,1.1a.5.5,0,0,1-.33.88Z" style="fill:#263238"></path><path d="M319.44,149.64a1.05,1.05,0,1,1-1-1.32A1.21,1.21,0,0,1,319.44,149.64Z" style="fill:#263238"></path><ellipse cx="309.21" cy="149.39" rx="1.02" ry="1.33" style="fill:#263238"></ellipse><path d="M321.62,148.18a.48.48,0,0,1-.4-.2c-2.35-3.13-4.59-1.62-4.69-1.56a.5.5,0,0,1-.58-.81s3.12-2.16,6.07,1.77a.51.51,0,0,1-.1.7A.57.57,0,0,1,321.62,148.18Z" style="fill:#263238"></path><path d="M312.43,157.86a8.32,8.32,0,0,1-2.9-.51.5.5,0,0,1-.27-.66.51.51,0,0,1,.65-.27,7.15,7.15,0,0,0,7-1.2.49.49,0,0,1,.7.07.49.49,0,0,1-.07.7A7.92,7.92,0,0,1,312.43,157.86Z" style="fill:#263238"></path><path d="M329.78,145.91a43.83,43.83,0,0,0-3.81-2.67c.73,1.22,2.72,4.71,2.3,6-.51,1.54-2.18,1.41-1.67,3.33s1.28,5.75,1.41,6.26,1.08,5.75,2.25,7.43a10.73,10.73,0,0,0,4.37-6.63C335.68,153.91,335.05,149.91,329.78,145.91Z" style="fill:#263238"></path><path d="M330.26,166.73h-.07a.51.51,0,0,1-.34-.21c-1-1.39-1.74-4.77-2.24-7.2l-.08-.39c0-.16-.14-.62-.27-1.24-.3-1.39-.78-3.7-1.14-5a2.18,2.18,0,0,1,.85-2.54,2.42,2.42,0,0,0,.82-1.08c.23-.69-.67-2.92-2.25-5.55a.49.49,0,0,1,.08-.61.5.5,0,0,1,.61-.08,44.28,44.28,0,0,1,3.85,2.7h0c5.6,4.25,6.08,8.58,5,14.18a11.18,11.18,0,0,1-4.54,6.93A.46.46,0,0,1,330.26,166.73Zm-2.85-21.94c.93,1.77,1.66,3.61,1.33,4.58a3.3,3.3,0,0,1-1.1,1.5c-.52.46-.78.69-.55,1.54.36,1.35.85,3.68,1.15,5.07.12.6.22,1.05.26,1.2s0,.21.09.43a29.75,29.75,0,0,0,1.81,6.36,9.88,9.88,0,0,0,3.73-6c1-5.36.55-9.25-4.65-13.2h0C328.74,145.74,328.06,145.24,327.41,144.79Z" style="fill:#263238"></path><path d="M327.5,161.36s3.33-2.3,4.86-1,.66,4.63-2.1,5.89-4.42-.78-4-1.8" style="fill:#fff"></path><path d="M328.57,167.13a3.11,3.11,0,0,1-2.14-.8,2,2,0,0,1-.68-2.07.52.52,0,0,1,.65-.3.5.5,0,0,1,.29.65,1.08,1.08,0,0,0,.42,1,2.62,2.62,0,0,0,2.94.18,4.35,4.35,0,0,0,2.53-3.25,1.94,1.94,0,0,0-.54-1.81c-1-.84-3.47.51-4.26,1.05a.5.5,0,1,1-.56-.82c.37-.26,3.68-2.47,5.46-1a2.92,2.92,0,0,1,.9,2.71,5.41,5.41,0,0,1-3.11,4A4.56,4.56,0,0,1,328.57,167.13Z" style="fill:#263238"></path><path d="M276,278.78s5.61,2.81,8.79-5.79,3.18-21.7-1.68-27.5-15-5.23-19.82-3.36a68.3,68.3,0,0,0-10.85,5.42c-.75.56-17.58,2.62-22.26,6.17s-22.25,20.76-23.75,21.51-8.79,2.24-15.89,3.18-13.1,1.5-13.47,8,6.55,12.53,14.4,9.35,16.46-5.61,19.82-8.6,10.1-4.68,17.58-6.73,21.32-12.91,21.32-12.91S262,273,264.59,274.3,276,278.78,276,278.78Z" style="fill:#fff"></path><path d="M187.12,297.18a10.56,10.56,0,0,1-6.21-2,10.22,10.22,0,0,1-4.34-8.77c.39-6.74,6.33-7.52,13.21-8.42l.69-.09c7.36-1,14.38-2.45,15.74-3.13.64-.32,5.22-4.61,9.66-8.77,5.4-5.05,11.52-10.79,14-12.68,3.44-2.62,12.92-4.38,18.59-5.43,1.76-.33,3.44-.64,3.7-.77a67.46,67.46,0,0,1,10.94-5.47c5.31-2,15.47-2.34,20.38,3.51,5,6,5,19.32,1.77,28-1.2,3.25-2.88,5.32-5,6.16a5.87,5.87,0,0,1-4.44-.07c-.61-.22-8.87-3.22-11.44-4.51-2.36-1.18-12.32-5.77-14.11-6.6C248.33,269.64,236,279,229,281l-1.59.43c-6.84,1.87-12.75,3.49-15.79,6.19-2.46,2.19-7.37,4-13.07,6.08-2.27.83-4.62,1.69-6.9,2.62A12.13,12.13,0,0,1,187.12,297.18ZM271,241.31a21.89,21.89,0,0,0-7.56,1.29A68.11,68.11,0,0,0,252.74,248c-.28.21-1,.36-4.09.93-5.21,1-14.91,2.77-18.16,5.24-2.46,1.87-8.56,7.58-13.94,12.62-5.66,5.3-9.16,8.57-9.89,8.94-1.62.8-9.12,2.31-16.06,3.23l-.69.09c-6.71.87-12,1.56-12.34,7.48a9.23,9.23,0,0,0,3.92,7.9,10,10,0,0,0,9.79,1c2.3-.93,4.66-1.8,6.94-2.63,5.36-2,10.43-3.83,12.74-5.88,3.22-2.86,9.23-4.51,16.2-6.41l1.58-.44c7.3-2,21-12.7,21.15-12.81a.47.47,0,0,1,.51-.06c.12.05,11.82,5.44,14.42,6.74s11.26,4.43,11.35,4.46l.05,0a5,5,0,0,0,3.68,0c1.84-.74,3.33-2.61,4.42-5.57,3.11-8.41,3.21-21.26-1.59-27C280,242.51,275.35,241.31,271,241.31Z" style="fill:#263238"></path><path d="M230.18,253.72c-4.67,3.56-22.25,20.76-23.75,21.51s-8.79,2.24-15.89,3.18-13.1,1.5-13.47,8,6.55,12.53,14.4,9.35,16.46-5.61,19.82-8.6,10.1-4.68,17.58-6.73c5.93-1.63,15.84-8.77,19.7-11.67a12.68,12.68,0,0,1-8.85-7.41c-2-4.69-.2-9,1.24-11.48C236.61,250.9,232.23,252.17,230.18,253.72Z" style="fill:#fff"></path><path d="M187.12,297.18a10.56,10.56,0,0,1-6.21-2,10.22,10.22,0,0,1-4.34-8.77c.39-6.74,6.33-7.52,13.21-8.42l.69-.09c7.36-1,14.38-2.45,15.74-3.13.64-.32,5.22-4.61,9.66-8.77,5.4-5.05,11.52-10.79,14-12.68h0c1.79-1.36,5.37-2.64,11-3.9a.49.49,0,0,1,.51.19.5.5,0,0,1,0,.55c-1.56,2.63-3,6.68-1.21,11a12.16,12.16,0,0,0,8.51,7.11.51.51,0,0,1,.37.39.49.49,0,0,1-.19.5c-4,3-13.88,10.1-19.86,11.75l-1.59.43c-6.84,1.87-12.75,3.49-15.79,6.19-2.46,2.19-7.37,4-13.07,6.08-2.27.83-4.62,1.69-6.9,2.62A12.13,12.13,0,0,1,187.12,297.18Zm43.37-43.06h0c-2.46,1.87-8.56,7.58-13.94,12.62-5.66,5.3-9.16,8.57-9.89,8.94-1.62.8-9.12,2.31-16.06,3.23l-.69.09c-6.71.87-12,1.56-12.34,7.48a9.23,9.23,0,0,0,3.92,7.9,10,10,0,0,0,9.79,1c2.3-.93,4.66-1.8,6.94-2.63,5.36-2,10.43-3.83,12.74-5.88,3.22-2.86,9.23-4.51,16.2-6.41l1.58-.44c5.45-1.49,14.38-7.76,18.72-11A12.63,12.63,0,0,1,240,250.65C235.21,251.79,232,253,230.49,254.12Z" style="fill:#263238"></path><path d="M177.07,286.45c-.37,6.55,6.55,12.53,14.4,9.35s16.46-5.61,19.82-8.6a11.78,11.78,0,0,1,1.22-.92L208.68,285s1.87-3.18,1.49-5.62-3.74-4.11-3.74-4.11c-1.49.75-8.79,2.24-15.89,3.18S177.44,279.91,177.07,286.45Z" style="fill:#fff"></path><path d="M187.12,297.18a10.56,10.56,0,0,1-6.21-2,10.22,10.22,0,0,1-4.34-8.77c.39-6.74,6.33-7.52,13.21-8.42l.69-.09c7.36-1,14.38-2.45,15.74-3.13a.51.51,0,0,1,.45,0c.14.08,3.6,1.83,4,4.49.3,2-.74,4.36-1.27,5.4l3.27,1.13a.5.5,0,0,1,.33.41.49.49,0,0,1-.21.48,9.67,9.67,0,0,0-1.16.88c-2.46,2.19-7.37,4-13.07,6.08-2.27.83-4.62,1.69-6.9,2.62A12.13,12.13,0,0,1,187.12,297.18Zm-10.05-10.73.5,0a9.23,9.23,0,0,0,3.92,7.9,10,10,0,0,0,9.79,1c2.3-.93,4.66-1.8,6.94-2.63,5.36-2,10.43-3.83,12.74-5.88l.47-.4-2.92-1a.5.5,0,0,1-.3-.3.5.5,0,0,1,0-.43s1.77-3.06,1.43-5.28c-.28-1.82-2.57-3.24-3.27-3.63-2,.82-9.17,2.24-15.81,3.12l-.69.09c-6.71.87-12,1.56-12.34,7.48Z" style="fill:#263238"></path><path d="M247.76,250.36a8.66,8.66,0,0,1,4.68-2.81" style="fill:#fff"></path><path d="M247.76,250.86a.46.46,0,0,1-.29-.1.5.5,0,0,1-.12-.69,9.14,9.14,0,0,1,5-3,.5.5,0,0,1,.62.35.5.5,0,0,1-.35.61,8.24,8.24,0,0,0-4.4,2.62A.52.52,0,0,1,247.76,250.86Z" style="fill:#263238"></path><path d="M284.79,273c3.18-8.61,3.18-21.7-1.68-27.5s-15-5.23-19.82-3.36l-1.11.44c4.1,1.38,12.23,5.33,11.39,14.89-.89,10.05-11,13.09-16.11,13.47,3,1.37,6,2.78,7.13,3.37,2.62,1.3,11.41,4.48,11.41,4.48S281.61,281.59,284.79,273Z" style="fill:#9c9c9c"></path><path d="M278.13,279.72a5.63,5.63,0,0,1-2.35-.49c-.31-.11-8.79-3.18-11.41-4.49-1-.49-3.44-1.65-7.12-3.36a.5.5,0,0,1-.28-.54.49.49,0,0,1,.45-.41c5.42-.4,14.82-3.59,15.65-13,.8-9-6.58-12.87-11.05-14.38a.51.51,0,0,1-.34-.45.52.52,0,0,1,.31-.48l1.12-.45c5.31-2,15.47-2.34,20.38,3.51,5,6,5,19.32,1.77,28h0c-1.2,3.25-2.88,5.32-5,6.16A5.76,5.76,0,0,1,278.13,279.72Zm-18.86-8.51c2.84,1.33,4.7,2.21,5.55,2.64,2.56,1.28,11.26,4.43,11.35,4.46a4.87,4.87,0,0,0,3.73.07c1.84-.74,3.33-2.61,4.42-5.57h0c3.11-8.41,3.21-21.26-1.59-27-4.57-5.44-14.07-5.17-19.15-3.27,4.2,1.68,11.29,5.88,10.49,15S265.07,270.28,259.27,271.21Z" style="fill:#263238"></path><path d="M298.44,286.64s1.5-12.53,13.1-17.77,22.81.19,27.3,3.93a20.31,20.31,0,0,1,6.92,16.83c-.56,6.55-1.5,8.6-16.65,11.41s-35,1.31-42.63,1.12-29,1.31-34.23,2.06-2.62-9.17,2.81-14,9.53-2.62,10.66-2.8,3.55-2.25,5.42-2.25,5.05,4.68,9,4.86S295.45,289.82,298.44,286.64Z" style="fill:#fff"></path><path d="M251.73,304.76a2.53,2.53,0,0,1-2.45-1.49c-1.4-3,1.35-9.78,5.44-13.45,4.5-4,8.24-3.36,10-3a4.7,4.7,0,0,0,.88.1,7.06,7.06,0,0,0,1.66-.79,8.76,8.76,0,0,1,3.85-1.46c.95,0,2,.83,3.28,1.88,1.6,1.28,3.59,2.88,5.72,3,4.42.2,14.93-.29,17.83-3.11.25-1.55,2.39-13,13.36-18,11.82-5.34,23.37.28,27.83,4a20.74,20.74,0,0,1,7.1,17.25c-.58,6.72-1.5,9-17.05,11.86-12.72,2.36-28.6,1.7-38.08,1.3-1.83-.07-3.41-.14-4.67-.17-7.86-.19-29.13,1.34-34.14,2A4,4,0,0,1,251.73,304.76Zm10.62-17.23c-1.8,0-4.19.55-7,3-4.08,3.66-6.31,9.92-5.21,12.28a1.68,1.68,0,0,0,2,.88c5-.72,26.39-2.24,34.31-2.06,1.26,0,2.84.1,4.68.17,9.44.4,25.24,1.05,37.85-1.28,14.89-2.76,15.7-4.69,16.24-11a19.7,19.7,0,0,0-6.74-16.41c-4.29-3.57-15.41-9-26.78-3.85-11.19,5.05-12.78,17.25-12.8,17.37a.52.52,0,0,1-.13.28c-3.3,3.51-15.61,3.68-18.72,3.52-2.46-.11-4.58-1.83-6.29-3.2-1.06-.85-2.06-1.66-2.66-1.66a8.29,8.29,0,0,0-3.36,1.33,7.33,7.33,0,0,1-2,.91,4.1,4.1,0,0,1-1.22-.11A11.77,11.77,0,0,0,262.35,287.53Zm36.09-.89h0Z" style="fill:#263238"></path><path d="M311.54,268.87c-11.6,5.24-13.1,17.77-13.1,17.77a47.58,47.58,0,0,0,9.73-5.42c4.49-3.37,12.34-1.88,12.34-1.88s6.17-7.1,15.52-6.73c1,0,2,.11,2.81.19h0C334.35,269.06,323.13,263.64,311.54,268.87Z" style="fill:#9c9c9c"></path><path d="M298.44,287.14a.48.48,0,0,1-.3-.11.49.49,0,0,1-.19-.45c0-.13,1.66-12.87,13.38-18.16h0c11.82-5.34,23.37.28,27.83,4a.48.48,0,0,1,.14.57.52.52,0,0,1-.51.31c-.93-.09-1.84-.15-2.78-.19-9-.38-15.06,6.49-15.12,6.56a.5.5,0,0,1-.47.17c-.08,0-7.69-1.42-11.95,1.78a48.49,48.49,0,0,1-9.84,5.48A.41.41,0,0,1,298.44,287.14Zm13.3-17.81h0c-9.43,4.26-12.05,13.59-12.64,16.49a46.75,46.75,0,0,0,8.77-5c4.18-3.13,11-2.25,12.46-2,1.14-1.22,7.08-7,15.72-6.7l1.13.06C332.2,268.71,322.07,264.66,311.74,269.33Z" style="fill:#263238"></path><path d="M280.12,290c-3.93-.18-7.11-4.86-9-4.86s-4.3,2.06-5.42,2.25-5.24-2.06-10.66,2.8-8.05,14.78-2.81,14,26.56-2.25,34.23-2.06S314,303.84,329.12,301c1.27-.24,2.44-.47,3.52-.7.62-4.8-.16-13.32-1.65-16.32-1.87-3.74-10.48-4.68-10.48-4.68-2.24-1.12-11.59-.37-12.34,1.88s-9.73,5.42-9.73,5.42C295.45,289.82,284,290.19,280.12,290Z" style="fill:#fff"></path><path d="M251.73,304.76a2.53,2.53,0,0,1-2.45-1.49c-1.4-3,1.35-9.78,5.44-13.45,4.5-4,8.24-3.36,10-3a4.7,4.7,0,0,0,.88.1,7.06,7.06,0,0,0,1.66-.79,8.76,8.76,0,0,1,3.85-1.46c.95,0,2,.83,3.28,1.88,1.6,1.28,3.59,2.88,5.72,3h0c4.48.21,15.2-.3,17.94-3.21l.08-.09.12,0c3.38-1.2,8.93-3.65,9.41-5.11a3,3,0,0,1,1.87-1.57c2.93-1.21,9.06-1.55,11.09-.63,1,.11,8.89,1.16,10.78,4.94,1.62,3.23,2.3,12,1.71,16.61l-.05.35-.34.07c-1.09.23-2.26.46-3.54.7-12.72,2.36-28.6,1.7-38.08,1.3-1.83-.07-3.41-.14-4.67-.17-7.88-.2-29.13,1.34-34.14,2A4,4,0,0,1,251.73,304.76Zm10.62-17.23c-1.8,0-4.19.55-7,3-4.08,3.66-6.31,9.92-5.21,12.28a1.68,1.68,0,0,0,2,.88c5-.72,26.4-2.24,34.31-2.06,1.26,0,2.84.1,4.68.17,9.44.4,25.24,1.05,37.85-1.28,1.14-.21,2.19-.42,3.17-.62.54-4.91-.29-13-1.65-15.69-1.73-3.45-10-4.39-10.08-4.4l-.17,0c-1.55-.77-7.47-.57-10.35.62a2.31,2.31,0,0,0-1.3,1c-.77,2.33-8.57,5.22-9.92,5.7-3.42,3.42-15.55,3.58-18.63,3.43-2.45-.11-4.58-1.83-6.29-3.2-1.06-.85-2.06-1.66-2.66-1.66a8.29,8.29,0,0,0-3.36,1.33,7.33,7.33,0,0,1-2,.91,4.1,4.1,0,0,1-1.22-.11A11.77,11.77,0,0,0,262.35,287.53Z" style="fill:#263238"></path><path d="M271.14,285.14c-1.87,0-4.3,2.06-5.42,2.25s-5.24-2.06-10.66,2.8-8.05,14.78-2.81,14c4.1-.59,18-1.63,27.57-2a9.37,9.37,0,0,0,1.61-4.76c0-3.18-4.68-4.49-4.68-4.49l3.37-3C276.19,289.82,273,285.14,271.14,285.14Z" style="fill:#fff"></path><path d="M251.73,304.76a2.53,2.53,0,0,1-2.45-1.49c-1.4-3,1.35-9.78,5.44-13.45,4.5-4,8.24-3.36,10-3a4.7,4.7,0,0,0,.88.1,7.06,7.06,0,0,0,1.66-.79,8.76,8.76,0,0,1,3.85-1.46c.95,0,2,.83,3.28,1.88,1.6,1.28,3.59,2.88,5.72,3l1.23.05-3.65,3.25c1.43.57,4.21,2,4.21,4.68a10,10,0,0,1-1.68,5l-.15.22h-.26c-9.7.35-23.47,1.38-27.52,2A4,4,0,0,1,251.73,304.76Zm10.62-17.23c-1.8,0-4.19.55-7,3-4.08,3.66-6.31,9.92-5.21,12.28a1.68,1.68,0,0,0,2,.88c4-.57,17.64-1.6,27.36-2a8.76,8.76,0,0,0,1.39-4.27c0-2.76-4.27-4-4.32-4l-.87-.25,3.24-2.89a13.93,13.93,0,0,1-5.18-3c-1.06-.85-2.06-1.66-2.66-1.66a8.29,8.29,0,0,0-3.36,1.33,7.33,7.33,0,0,1-2,.91,4.1,4.1,0,0,1-1.22-.11A11.77,11.77,0,0,0,262.35,287.53Z" style="fill:#263238"></path><path d="M262.43,133.66c-.25-2.49-.42-4.56-.42-5.68,0-1.92.05-3.33.1-4.32a26.74,26.74,0,0,1-8.22-.35c-.3,1.75-.91,5.44-1.4,9.56A12.54,12.54,0,0,0,262.43,133.66Z" style="fill:#FFB847"></path><path d="M258.33,134.83a13.07,13.07,0,0,1-6.07-1.51.5.5,0,0,1-.26-.5c.48-4.13,1.08-7.79,1.4-9.6a.49.49,0,0,1,.2-.32.52.52,0,0,1,.38-.09,25.76,25.76,0,0,0,8.06.36.48.48,0,0,1,.41.12.5.5,0,0,1,.16.4c-.07,1.22-.1,2.66-.1,4.29,0,1,.14,2.9.42,5.63a.49.49,0,0,1-.34.53A13.7,13.7,0,0,1,258.33,134.83Zm-5.3-2.24a12.09,12.09,0,0,0,8.87.72c-.26-2.55-.39-4.34-.39-5.33,0-1.39,0-2.65.07-3.75a26.87,26.87,0,0,1-7.28-.35C254,125.75,253.46,129,253,132.59Z" style="fill:#263238"></path><path d="M265.43,114.29s-1-7.45-2.9-7.25-1,2.07-.82,3.32a38.86,38.86,0,0,1,.2,4.14s-4.14,1.86-4.35,3.31a5.62,5.62,0,0,0,.83,3.11" style="fill:#fff"></path><path d="M258,121.19a6,6,0,0,1-.9-3.45c.21-1.47,3.21-3,4.34-3.56a33.22,33.22,0,0,0-.2-3.74,6.4,6.4,0,0,0-.14-.65,3.23,3.23,0,0,1,.07-2.56,1.8,1.8,0,0,1,1.34-.68c2.18-.24,3.19,5.81,3.45,7.67l-1,.14c-.5-3.6-1.6-6.82-2.32-6.82h0a.85.85,0,0,0-.63.27c-.24.34-.06,1.12.09,1.75q.09.38.15.72a37.29,37.29,0,0,1,.21,4.22v.32l-.29.14c-1.57.7-3.95,2.12-4.06,2.93a5.08,5.08,0,0,0,.76,2.77Z" style="fill:#263238"></path></g><g id="freepik--character-3--inject-2"><path d="M151.08,173s5.91,2,9.37,14.06,3.05,22,3.67,24,1.83,16.09.61,22.61-3.47,26.08-3.47,26.08,1.84,3.26,4.08,4.28,5.29,1.62,4.48,2.24-3.26.61-4.28.4-2.85,0-4.68-.61-3.47-1-3.47-1-2.65-1.22-3.87-.81-7.24,4.43-5.7,2.24c1.42-2,3.66-3.67,4.28-5.09a27,27,0,0,0,1.83-5.3c.41-2,.61-12.63.61-15.48s-2.44-18.54-2.65-21.8-.2-4.89-.2-4.89-2.45-14.26-2.65-15.28-7.33-10-7.74-11" style="fill:#fff"></path><path d="M147.72,267.67a.63.63,0,0,1-.49-.22c-.39-.42,0-1,.18-1.23a21.7,21.7,0,0,1,2.29-2.62,10.23,10.23,0,0,0,1.94-2.38l.1-.24a25.62,25.62,0,0,0,1.7-5c.39-1.94.6-12.3.6-15.38,0-1.57-.78-7.3-1.47-12.35-.56-4.1-1.09-8-1.18-9.42-.2-3.24-.2-4.85-.2-4.92s-2.44-14.18-2.64-15.18a67.09,67.09,0,0,0-4.34-6.15,51.62,51.62,0,0,1-3.38-4.77l.93-.37c.16.39,1.8,2.6,3.26,4.54,3,4,4.39,5.94,4.51,6.55.2,1,2.55,14.71,2.65,15.29,0,.11,0,1.75.21,4.95.09,1.41.61,5.26,1.17,9.34.73,5.34,1.48,10.86,1.48,12.49,0,2.56-.19,13.44-.62,15.58a26,26,0,0,1-1.76,5.15l-.1.24a10.17,10.17,0,0,1-2.14,2.68,26.25,26.25,0,0,0-1.87,2.07c.74-.36,1.79-.95,2.51-1.36a20.33,20.33,0,0,1,2.3-1.21c1.37-.45,3.94.7,4.24.84,0,0,1.61.4,3.41,1a12.15,12.15,0,0,0,3.21.47,9.31,9.31,0,0,1,1.42.12,8.67,8.67,0,0,0,3.55-.15c-.41-.19-1.1-.43-1.64-.62-.77-.27-1.64-.57-2.42-.93-2.36-1.07-4.22-4.35-4.3-4.49l-.08-.14,0-.16c0-.2,2.25-19.65,3.47-26.11s-.06-20.57-.6-22.38a23.85,23.85,0,0,1-.43-3.87A93.74,93.74,0,0,0,160,187.2c-3.34-11.58-9-13.71-9.06-13.73l.33-.94c.25.08,6.19,2.26,9.69,14.39a94.56,94.56,0,0,1,3.28,20.38,26.16,26.16,0,0,0,.38,3.65c.66,2.19,1.84,16.42.63,22.85-1.15,6.11-3.22,24-3.44,25.88.37.61,1.95,3.11,3.76,3.93.74.34,1.59.63,2.34.89,1.71.6,2.47.89,2.57,1.5a.75.75,0,0,1-.33.71c-1.06.79-3.78.67-4.68.49a9.77,9.77,0,0,0-1.27-.1,12.93,12.93,0,0,1-3.47-.52c-1.79-.6-3.41-1-3.43-1-1-.47-2.84-1.08-3.59-.83a22.5,22.5,0,0,0-2.13,1.13C149.34,267.12,148.31,267.67,147.72,267.67Z" style="fill:#263238"></path><path d="M141.09,262c-5.23-1.44-8.07-3.67-9.62-5.8,5.49-4.84,8.84-12.35,8.84-12.35l2-18.22-35.45,4V239a10.4,10.4,0,0,0-2.31-.41,21.76,21.76,0,0,0-20.21,18.55s4.49,10.57,15.83,14.07a42.16,42.16,0,0,0,20.17,1.42c1.62,0,8.35,1.63,16.09,2s17.11-2.45,20-7.74a34,34,0,0,0,2.8-8.38C155.07,261.22,148.54,264.07,141.09,262Zm-17-1.82.05-.16.09,0Z" style="fill:#263238"></path><path d="M137.9,275.2c-.52,0-1,0-1.52,0a112,112,0,0,1-12.65-1.55,32.29,32.29,0,0,0-3.36-.49A42.41,42.41,0,0,1,100,271.67c-11.43-3.52-16.1-14.23-16.14-14.34a.55.55,0,0,1,0-.28,22.13,22.13,0,0,1,20.71-19,8.65,8.65,0,0,1,1.81.27v-8.72a.51.51,0,0,1,.45-.49l35.45-4a.49.49,0,0,1,.55.55l-2,18.22a.33.33,0,0,1,0,.15,41.41,41.41,0,0,1-8.61,12.21c1.86,2.35,4.92,4.11,9.08,5.25h0c7.23,2,13.6-.76,17.67-3.42a.52.52,0,0,1,.56,0,.5.5,0,0,1,.2.52,34,34,0,0,1-2.85,8.5C153.93,272.51,145.23,275.2,137.9,275.2Zm-17.59-3.08a30,30,0,0,1,3.58.5,109,109,0,0,0,12.55,1.54c7.39.38,16.71-2.3,19.49-7.48a30.49,30.49,0,0,0,2.48-7.07c-4.24,2.54-10.44,4.82-17.45,2.9h0c-4.59-1.26-7.92-3.27-9.9-6a.5.5,0,0,1,.08-.67c5.07-4.46,8.32-11.34,8.68-12.1l1.91-17.52-34.39,3.85V239a.49.49,0,0,1-.19.39.48.48,0,0,1-.43.09,9.9,9.9,0,0,0-2.19-.39,21.1,21.1,0,0,0-19.69,18c.56,1.21,5.15,10.47,15.45,13.65a41.87,41.87,0,0,0,19.91,1.41Zm3.76-11.45a.35.35,0,0,1-.2-.05.48.48,0,0,1-.28-.55l0-.16a.49.49,0,0,1,.38-.35l.11,0a.5.5,0,0,1,.51.23.52.52,0,0,1,0,.56l-.09.12A.58.58,0,0,1,124.07,260.67Z" style="fill:#263238"></path><path d="M153.93,176.06c-2.24-4.69-7.74-5.5-13.85-6.93s-28.7.24-28.7.24-7.16.57-10.42,3-7.33,5.09-11,11.2-16.5,23-17.52,24.45-5.7,5.71-7.74,9-10,17.92-12.63,21.39c0,0-7.23,8.22-7.83,10A33.92,33.92,0,0,0,43,256.2c.15.9,5.69.9,6.89.9a7,7,0,0,0,3-1.35s2.1.9,2.25-.3.6-1.94,1.64-4.49-.6-5.24-.6-6.89a6.44,6.44,0,0,1,.73-2.75c7.08-5.8,20.25-19.48,21.82-21.67,2-2.85,18.94-22.81,18.94-22.81s4.48,10.59,5.3,14.66-.21,15.28-1,20l-.81,4.68A39.28,39.28,0,0,0,121.94,238c12-2,26.9-4.28,26.9-4.28s-1.63-9.57-1.23-14.26,2.86-16.3,3.87-20.37a59.24,59.24,0,0,0,1.63-8" style="fill:#fff"></path><path d="M49.93,257.6c-7.16,0-7.3-.82-7.38-1.32a33.38,33.38,0,0,1,1.21-8c.62-1.84,7.19-9.34,7.93-10.19,1.69-2.22,5.64-9.19,8.81-14.79,1.65-2.9,3.07-5.41,3.77-6.54a48.34,48.34,0,0,1,5.57-6.57A30.29,30.29,0,0,0,72,207.75l1.66-2.23c3.85-5.15,12.87-17.23,15.84-22.18A34.22,34.22,0,0,1,99.71,172.7l1-.71c3.34-2.5,10.38-3.1,10.68-3.12.93-.07,22.73-1.65,28.85-.23l1.69.39c5.56,1.26,10.36,2.34,12.5,6.81l-.9.43c-1.93-4-6.52-5.07-11.82-6.27l-1.7-.38c-6-1.4-28.32.23-28.54.25s-7,.59-10.16,2.92l-1,.71a33.06,33.06,0,0,0-9.91,10.35c-3,5-12,17.1-15.9,22.27l-1.64,2.21a31,31,0,0,1-2.29,2.53,49,49,0,0,0-5.44,6.41c-.69,1.12-2.11,3.61-3.75,6.5-3.18,5.63-7.15,12.63-8.91,14.93-2.9,3.3-7.33,8.63-7.75,9.87A36.49,36.49,0,0,0,43.52,256c.21.13,1.3.56,6.41.56a6.22,6.22,0,0,0,2.69-1.25l.23-.17.27.11a2.41,2.41,0,0,0,1.49.23s0,0,.06-.13a10.48,10.48,0,0,1,1-3c.2-.45.43-1,.7-1.65.63-1.52.18-3.15-.22-4.58a8.71,8.71,0,0,1-.42-2.12,7,7,0,0,1,.78-3l.14-.17c7-5.72,20.19-19.43,21.72-21.58,2-2.83,18.28-22,19-22.85l.53-.62.31.75c.19.44,4.51,10.69,5.33,14.77s-.19,15.39-1,20.14l-.74,4.29a39.94,39.94,0,0,0,20.13,1.66c10.66-1.81,23.7-3.8,26.4-4.21-.33-2-1.5-9.75-1.14-13.88.42-4.9,2.94-16.71,3.88-20.45a60,60,0,0,0,1.62-7.88l1,.11a59.69,59.69,0,0,1-1.64,8c-1.1,4.41-3.46,15.74-3.86,20.29s1.2,14,1.22,14.14l.09.5-.51.08c-.15,0-15,2.26-26.88,4.27A39.54,39.54,0,0,1,101,236.61l-.35-.16.88-5.07c.81-4.69,1.82-15.76,1-19.78-.67-3.35-3.92-11.33-5-13.82-2.88,3.41-16.6,19.64-18.4,22.16-1.58,2.23-14.6,15.76-21.81,21.7a5.78,5.78,0,0,0-.64,2.43,8.21,8.21,0,0,0,.38,1.85c.42,1.51.94,3.39.19,5.23-.28.67-.51,1.21-.71,1.67a9.61,9.61,0,0,0-.91,2.7,1.12,1.12,0,0,1-.56.87,2.83,2.83,0,0,1-2.11-.07A6.52,6.52,0,0,1,49.93,257.6Z" style="fill:#263238"></path><path d="M147.61,219.45c.41-4.69,2.86-16.3,3.87-20.37.19-.76.36-1.43.51-2.06-3-3.69-7.09-9.58-9.06-15.87s-2-9.9-1.72-11.76l-1.13-.26c-6.12-1.43-28.7.24-28.7.24a31.32,31.32,0,0,0-8.74,2c1.88,4,4.75,11.54,3.62,17.88-1.31,7.35-5.75,9.59-7.47,10.19,1.39,3.41,3.65,9.23,4.21,12,.81,4.08-.21,15.28-1,20l-.81,4.68A39.28,39.28,0,0,0,121.94,238c12-2,26.9-4.28,26.9-4.28S147.21,224.14,147.61,219.45Z" style="fill:#FFB847"></path><path d="M114.85,239.09A36.84,36.84,0,0,1,101,236.61a.49.49,0,0,1-.29-.54l.82-4.69c.81-4.69,1.82-15.76,1-19.78-.55-2.76-2.86-8.66-4.18-11.92a.51.51,0,0,1,0-.4.5.5,0,0,1,.29-.26c1.73-.61,5.89-2.78,7.14-9.81,1.1-6.23-1.77-13.69-3.58-17.58a.5.5,0,0,1,0-.38.51.51,0,0,1,.26-.28,31.52,31.52,0,0,1,8.91-2.1c.93-.07,22.73-1.65,28.85-.23l1.13.26a.5.5,0,0,1,.38.57c-.28,1.87-.22,5.39,1.71,11.53s5.94,11.93,9,15.71a.51.51,0,0,1,.09.43c-.15.63-.31,1.3-.5,2.06-1.1,4.41-3.46,15.74-3.86,20.29h0c-.4,4.57,1.2,14,1.22,14.14a.49.49,0,0,1-.09.37.52.52,0,0,1-.33.21c-.15,0-15,2.26-26.88,4.27A42.35,42.35,0,0,1,114.85,239.09Zm-13.12-3.25a39.94,39.94,0,0,0,20.13,1.66c10.66-1.81,23.7-3.8,26.4-4.21-.33-2-1.5-9.75-1.14-13.88.42-4.9,2.94-16.71,3.88-20.45.17-.67.31-1.26.44-1.81-3.06-3.85-7.05-9.67-9-15.85-1.84-5.86-2-9.46-1.79-11.52l-.7-.16c-6-1.4-28.32.23-28.54.25a32.13,32.13,0,0,0-8.11,1.81c1.86,4.1,4.55,11.45,3.44,17.71-1.24,7-5.21,9.51-7.3,10.38,1.35,3.37,3.5,8.92,4,11.64.82,4.12-.19,15.39-1,20.14Zm45.88-16.39h0Z" style="fill:#263238"></path><path d="M122.68,215.94a39.93,39.93,0,0,1-14-2.86.51.51,0,0,1-.26-.66.5.5,0,0,1,.65-.26c.11,0,10.69,4.5,19.62,2a.5.5,0,1,1,.27,1A23.33,23.33,0,0,1,122.68,215.94Z" style="fill:#263238"></path><path d="M116.44,254.08s.62-8.35-7.94-18.54S91,219,83.44,221.49s-5.91,12.83-5.91,14.66-1.42,14.47-.61,18.54a6.13,6.13,0,0,0,5.5,4.89c.82,0,3.87-.4,3.87-.4s6.93,7.53,14.47,8.55S114.81,263.45,116.44,254.08Z" style="fill:#fff"></path><path d="M102.56,268.36a15,15,0,0,1-1.87-.13c-7-1-13.42-7.31-14.59-8.52-.76.09-3,.37-3.68.37a6.65,6.65,0,0,1-6-5.29c-.61-3.06,0-10.73.37-15.32.13-1.59.23-2.85.23-3.32,0-.19,0-.49,0-.86-.21-3.28-.78-12,6.3-14.28s15.87,2.64,25.59,14.21c8.59,10.23,8.09,18.55,8.06,18.9v0C115.44,262.77,109.66,268.36,102.56,268.36Zm-16.07-9.71.17.19c.07.07,6.9,7.41,14.16,8.4,7.49,1,13.57-4.3,15.13-13.21,0-.48.26-8.53-7.83-18.16C101.53,228,91.94,219.26,83.6,222c-6.34,2.06-5.81,10.2-5.61,13.26,0,.41,0,.72,0,.93,0,.51-.09,1.72-.23,3.4-.36,4.53-1,12.12-.39,15a5.67,5.67,0,0,0,5,4.48c.64,0,3-.29,3.81-.4Z" style="fill:#263238"></path><path d="M116.44,254.08s.62-8.35-7.94-18.54c-1.32-1.57-2.65-3-4-4.4.37,3.34.49,8.71-1.73,12.76-3.46,6.31-13.64,5.29-16.29,3.46-2-1.39-6.92-5.8-9.2-7.87-.36,4.55-1,12.2-.38,15.2a6.13,6.13,0,0,0,5.5,4.89c.82,0,3.87-.4,3.87-.4s6.93,7.53,14.47,8.55S114.81,263.45,116.44,254.08Z" style="fill:#9c9c9c"></path><path d="M102.56,268.36a15,15,0,0,1-1.87-.13c-7-1-13.42-7.31-14.59-8.52-.76.09-3,.37-3.68.37a6.65,6.65,0,0,1-6-5.29c-.61-3.06,0-10.72.37-15.3l.08-1,.76.64c2.08,1.89,7.13,6.44,9.14,7.83,1.39,1,5.59,1.84,9.54.91a9,9,0,0,0,6-4.2c2.09-3.83,2.06-8.89,1.66-12.47l-.16-1.45,1,1c1.38,1.41,2.72,2.9,4,4.43,8.59,10.23,8.09,18.55,8.06,18.9v0C115.44,262.77,109.66,268.36,102.56,268.36Zm-16.07-9.71.17.19c.07.07,6.9,7.41,14.16,8.4,7.49,1,13.57-4.3,15.13-13.21,0-.48.26-8.53-7.83-18.16q-1.45-1.73-3-3.35c.25,3.56,0,8.06-1.92,11.62a9.84,9.84,0,0,1-6.68,4.69c-3.93.93-8.52.2-10.34-1.06s-5.82-4.81-8.49-7.23c-.37,4.61-.85,11.34-.31,14.06a5.67,5.67,0,0,0,5,4.48c.64,0,3-.29,3.81-.4Z" style="fill:#263238"></path><path d="M90.16,253.06a76.9,76.9,0,0,0,3.06-8.55s9.17-6.52,8.76-13a17.26,17.26,0,0,0-.55-3.29c-6.28-5.6-12.51-8.47-18-6.69-7.54,2.44-5.91,12.83-5.91,14.66s-1.42,14.47-.61,18.54a6.13,6.13,0,0,0,5.5,4.89c.82,0,3.87-.4,3.87-.4S87.52,259.79,90.16,253.06Z" style="fill:#fff"></path><path d="M82.42,260.08a6.65,6.65,0,0,1-6-5.29c-.61-3.06,0-10.73.37-15.32.13-1.59.23-2.85.23-3.32,0-.19,0-.49,0-.86-.21-3.28-.78-12,6.3-14.28,5.28-1.71,11.5.57,18.48,6.79l.11.11,0,.14a18.4,18.4,0,0,1,.56,3.39c.4,6.33-7.57,12.45-8.82,13.37a89,89,0,0,1-3,8.44h0c-1.5,3.81-2.81,6-3.88,6.37a1,1,0,0,1-.48.06C85.76,259.75,83.19,260.08,82.42,260.08Zm4.4-38.62a10.48,10.48,0,0,0-3.22.5c-6.34,2.06-5.81,10.2-5.61,13.26,0,.41,0,.72,0,.93,0,.51-.09,1.72-.23,3.4-.36,4.53-1,12.12-.39,15a5.67,5.67,0,0,0,5,4.48c.64,0,3-.29,3.81-.4l.15,0,0,0c.23-.11,1.33-.83,3.29-5.8a75.56,75.56,0,0,0,3-8.48l0-.19.16-.11c.09-.06,8.94-6.43,8.55-12.6a17,17,0,0,0-.49-3.05C95.74,223.8,91,221.46,86.82,221.46Z" style="fill:#263238"></path><path d="M115.24,158.71s.61,8.63-.61,9.64a5.84,5.84,0,0,1-3.25,1s2,9.13,6.6,13.9,12.28,6.2,14.61,4.06,3.25-11,2.95-12.89a17.47,17.47,0,0,0-2.74-5.68,6,6,0,0,1-.81-3.35C132.09,164.7,115.24,158.71,115.24,158.71Z" style="fill:#fff"></path><path d="M129.24,188.79a17.36,17.36,0,0,1-11.62-5.17c-4.61-4.82-6.64-13.77-6.73-14.14l-.13-.61h.62a5.42,5.42,0,0,0,2.93-.9c.63-.53.71-5.2.43-9.22l0-.77.72.26c17.23,6.12,17.14,6.77,17.07,7.24a5.65,5.65,0,0,0,.72,3,17.72,17.72,0,0,1,2.83,5.9c.3,1.86-.54,11-3.1,13.34A5.49,5.49,0,0,1,129.24,188.79Zm-17.23-19c.52,2,2.56,9.16,6.33,13.1,4.56,4.76,11.89,5.88,13.92,4s3.09-10.5,2.78-12.44a17,17,0,0,0-2.64-5.46,6.57,6.57,0,0,1-.93-3.48c-1.25-.84-9.88-4.07-15.68-6.14.15,2.64.34,8.31-.84,9.3A5.69,5.69,0,0,1,112,169.83Z" style="fill:#263238"></path><path d="M124.28,166.73l7.4,7.41a19.93,19.93,0,0,1,.61-6.8" style="fill:#263238"></path><path d="M132.36,175.52l-8.43-8.44.71-.71,6.45,6.47a21.27,21.27,0,0,1,.72-5.64l1,.28a19.36,19.36,0,0,0-.59,6.6Z" style="fill:#263238"></path><path d="M107.58,144.42s-3.8-1.89-6.41.72-3.08,8.77.48,11.15,6.07,2.55,9.2-3S107.58,144.42,107.58,144.42Z" style="fill:#263238"></path><path d="M105.59,158.35a8,8,0,0,1-4.22-1.65,6.56,6.56,0,0,1-2.73-5,9,9,0,0,1,2.18-6.94c2.83-2.83,6.81-.89,7-.8h0c.13.07,3.28,1.73,4.17,4.73a6,6,0,0,1-.7,4.83c-1.59,2.81-3.1,4.31-4.76,4.71A4.2,4.2,0,0,1,105.59,158.35Zm-1-14.1a4.24,4.24,0,0,0-3.1,1.24,8,8,0,0,0-1.89,6.13,5.61,5.61,0,0,0,2.29,4.25c1.9,1.26,3.2,1.68,4.37,1.4,1.37-.32,2.68-1.67,4.12-4.22A5.06,5.06,0,0,0,111,149c-.76-2.56-3.56-4.07-3.67-4.13A6.66,6.66,0,0,0,104.62,144.25Z" style="fill:#263238"></path><path d="M134.7,141.06s-4.48-6.45-10.76-7.17-15.42,3.23-16.67,9,3.23,14,3.23,14a8.81,8.81,0,0,0,5,5.92c4.3,2,13,6.32,16.25,5.78s6-4,5.62-11.52S136.14,144.65,134.7,141.06Z" style="fill:#fff"></path><path d="M131.18,169.08c-3.29,0-9.78-3-14.17-5.08l-1.7-.79A9.31,9.31,0,0,1,110,157c-.46-.86-4.47-8.62-3.24-14.26,1.3-5.95,10.56-10.12,17.22-9.36,6.43.74,10.92,7.11,11.11,7.39l.06.1c1.53,3.84,2.37,8.81,2.72,16.11.33,6.86-1.93,11.36-6,12A3.51,3.51,0,0,1,131.18,169.08ZM122.4,134.3c-6,0-13.56,3.7-14.64,8.66-1.2,5.49,3.13,13.56,3.18,13.64l0,.15a8.25,8.25,0,0,0,4.74,5.55l1.7.79c4.33,2,11.56,5.41,14.26,5,3.56-.6,5.5-4.71,5.2-11-.33-7.06-1.17-12.06-2.63-15.74-.41-.56-4.67-6.26-10.37-6.91A12,12,0,0,0,122.4,134.3Z" style="fill:#263238"></path><path d="M132.39,154.25l-.4-.92c.38-.17,1.39-.78,1.5-1.58s-1.51-2.81-2.2-3.64l-.39-.46c-1-1.21.74-3,.94-3.18l.7.71c-.45.45-1.16,1.46-.85,1.84.09.13.22.28.36.45,1.33,1.58,2.6,3.22,2.43,4.42C134.26,153.4,132.47,154.21,132.39,154.25Z" style="fill:#263238"></path><path d="M129.3,159.09A6.53,6.53,0,0,1,128,159l.19-1a15.64,15.64,0,0,0,4.76-.35l.22,1A21.47,21.47,0,0,1,129.3,159.09Z" style="fill:#263238"></path><path d="M126.21,148.56c0,.85-.42,1.54-.94,1.54s-1-.69-1-1.54.43-1.53,1-1.53S126.21,147.72,126.21,148.56Z" style="fill:#263238"></path><path d="M135.32,147.74c0,.85-.43,1.53-.95,1.53s-1-.68-1-1.53.43-1.54,1-1.54S135.32,146.89,135.32,147.74Z" style="fill:#263238"></path><path d="M122.42,146.88,122,146a14.6,14.6,0,0,1,5.54-1.47v1A13.94,13.94,0,0,0,122.42,146.88Z" style="fill:#263238"></path><path d="M135.11,144.55c-.48-.88-1.94-.26-2-.26l-.4-.91c.8-.35,2.51-.66,3.24.69Z" style="fill:#263238"></path><path d="M123.94,133.89c-6.27-.72-15.42,3.23-16.67,9-1,4.54,1.59,10.63,2.72,13a12.43,12.43,0,0,1,1.57.17,5,5,0,0,0,3.54-.71c1.07-.71-.11-1.42-.35-2.6s1.06-4.49,1.65-5.67.12-2.25-.35-3.79.59-3,3.07-5.08,7.33-1.06,8.39-1.06a5.42,5.42,0,0,0,2.2-.89A12.8,12.8,0,0,0,123.94,133.89Z" style="fill:#263238"></path><path d="M112.31,156.6a3.33,3.33,0,0,1-.89-.11,6.94,6.94,0,0,0-1-.11l-.51,0a.49.49,0,0,1-.41-.28c-1.17-2.44-3.78-8.63-2.76-13.3,1.3-5.95,10.56-10.12,17.22-9.36h0a13.43,13.43,0,0,1,6,2.4.51.51,0,0,1,0,.85,5.47,5.47,0,0,1-2.46,1c-.2,0-.53,0-1-.08-1.7-.19-5.23-.58-7.1,1-2.53,2.17-3.29,3.36-2.92,4.56l.17.53c.41,1.29.76,2.4.15,3.62s-1.8,4.41-1.61,5.35a3.16,3.16,0,0,0,.41.94c.32.58.81,1.46-.27,2.18A5.88,5.88,0,0,1,112.31,156.6Zm-2-1.24.22,0a7.19,7.19,0,0,1,1.16.15,4.6,4.6,0,0,0,3.13-.65c.28-.18.3-.2-.06-.85a4.38,4.38,0,0,1-.51-1.23c-.28-1.4,1.17-4.94,1.7-6,.43-.85.17-1.65-.22-2.87l-.17-.54c-.58-1.88.75-3.48,3.23-5.61,2.2-1.88,6-1.46,7.86-1.26.38,0,.67.08.85.08a3,3,0,0,0,1.24-.43,11.87,11.87,0,0,0-4.86-1.78h0c-6.15-.71-15,3.19-16.13,8.57C106.84,147.18,109.15,152.86,110.32,155.36Z" style="fill:#263238"></path><path d="M115.69,160.62c-.82,2-5.43.59-6.26-1.18s-.71-5.91,1.42-6.15,3.9,3.9,3.9,3.9" style="fill:#fff"></path><path d="M113.79,162.1c-1.75,0-4.15-1-4.81-2.45a7.18,7.18,0,0,1,.09-5.62,2.26,2.26,0,0,1,1.72-1.24c2.43-.27,4.22,3.75,4.42,4.21l-.92.39c-.42-1-1.93-3.76-3.39-3.6a1.24,1.24,0,0,0-1,.73,6.2,6.2,0,0,0-.07,4.71c.45,1,2.45,1.91,4,1.87a1.42,1.42,0,0,0,1.37-.67l.93.38a2.3,2.3,0,0,1-2.27,1.29Z" style="fill:#263238"></path><path d="M145.94,256.8a53.25,53.25,0,0,0,14-2.48,64.81,64.81,0,0,0,.7-13.68c-.61-9.17-4.68-21-4.68-21-.82-1.22-5.91-3.26-8.76-1.63s-6.73,9-11.41,22.41a59,59,0,0,1-6.11,11.8C133.25,255.09,138.42,257.14,145.94,256.8Z" style="fill:#fff"></path><path d="M144.35,257.34c-6,0-11.07-1.59-15-4.72l-.35-.28.25-.38a57.76,57.76,0,0,0,6.06-11.69C140,227,143.87,219.35,147,217.59s8.48.37,9.42,1.79l.06.11c0,.12,4.1,12,4.71,21.11a66.12,66.12,0,0,1-.71,13.8l0,.3-.3.1A54.16,54.16,0,0,1,146,257.3C145.42,257.32,144.88,257.34,144.35,257.34Zm-14-5.23c4,3.07,9.24,4.47,15.57,4.19a53,53,0,0,0,13.58-2.36,63.61,63.61,0,0,0,.65-13.27c-.57-8.64-4.3-19.81-4.63-20.79-.78-1-5.45-2.92-8.07-1.42-2,1.13-5.52,5.88-11.18,22.14A57,57,0,0,1,130.35,252.11Z" style="fill:#263238"></path><path d="M158.68,260.58a67.19,67.19,0,0,0,2-19.94c-.07-1-.18-2.07-.32-3.13-2.1,5.23-7.23,7.68-11.7,8.42-3.39.57-9.73-2.4-13.29-4.27A65.11,65.11,0,0,1,129.16,253l-1.71,6.15s4.48,9.77,14.87,9.57C147.72,268.64,154,264.52,158.68,260.58Z" style="fill:#9c9c9c"></path><path d="M142,269.25c-10.36,0-15-9.77-15-9.87l-.08-.16,1.84-6.46a64.64,64.64,0,0,0,6.13-11.28l.2-.52.49.26c3.45,1.81,9.71,4.76,13,4.22,2.6-.43,8.89-2.09,11.32-8.11l.7-1.76.26,1.88c.15,1.12.26,2.19.32,3.15a67.71,67.71,0,0,1-2,20.1l0,.16-.13.1c-4.47,3.72-11,8.18-16.67,8.29Zm-14-10.12c.63,1.24,5.1,9.28,14.33,9.12,5.34-.1,11.59-4.36,15.93-7.95a66.64,66.64,0,0,0,1.91-19.63c0-.45-.07-.91-.11-1.4-3,5.22-8.8,6.74-11.33,7.16-3.24.54-8.82-1.85-13.11-4.07a67.32,67.32,0,0,1-6,10.88Z" style="fill:#263238"></path><path d="M155.56,228.82s-6.52,18.34-11.82,23.43S115.22,272.62,112,276.49s-3.87,12.43-6.31,14.06-10.39-.41-15.49-3.67,9.38-14.46,10-15.68,4.27-7.13,6.11-7.75l1.83-.61s13.85-19.55,19.56-28.72,12-19,16.7-20,11,2.45,12.43,6.73,1,5.29,1,5.29" style="fill:#fff"></path><path d="M103,291.63c-3.73,0-9.35-1.93-13.11-4.33a2.65,2.65,0,0,1-1.3-2.06c-.29-3.24,4.56-8.06,9.12-12.32a21.81,21.81,0,0,0,2-1.95c.52-1,4.31-7.29,6.4-8l1.68-.56c1.23-1.74,14.06-19.91,19.45-28.57,6.25-10,12.25-19.15,17-20.19s11.48,2.49,13,7.06c1.41,4.23,1.08,5.44,1,5.64l-.92-.37h0s.25-1.1-1-5c-1.36-4.06-7.45-7.35-11.85-6.39-4.75,1-11.75,12.29-16.39,19.74-5.64,9.08-19.43,28.56-19.57,28.75l-.09.14-2,.66c-1.56.52-5.14,6.11-5.83,7.49a14,14,0,0,1-2.19,2.24c-3,2.75-9.09,8.47-8.81,11.49a1.69,1.69,0,0,0,.84,1.31c5.07,3.25,12.75,5.13,14.94,3.67,1-.7,1.81-3.17,2.61-5.78.88-2.88,1.88-6.14,3.6-8.18s8.72-7.08,16.1-12.38c6.5-4.67,13.21-9.49,15.72-11.9,5.15-4.95,11.62-23,11.69-23.24l.94.34c-.27.75-6.62,18.5-11.94,23.62-2.56,2.46-9.3,7.3-15.82,12-7,5-14.27,10.24-15.93,12.21s-2.55,5.05-3.4,7.83-1.66,5.42-3,6.32A5.31,5.31,0,0,1,103,291.63Z" style="fill:#263238"></path><path d="M113.57,255c-3.14,4.52-5.48,7.81-5.48,7.81l-1.83.61c-1.84.62-5.5,6.52-6.11,7.75s-15.08,12.42-10,15.68,13,5.3,15.49,3.67,3-10.19,6.31-14.06c1.31-1.55,5.84-4.95,11.14-8.79C121.49,258.89,117,256,113.57,255Z" style="fill:#fff"></path><path d="M103,291.63c-3.73,0-9.35-1.93-13.11-4.33a2.65,2.65,0,0,1-1.3-2.06c-.29-3.24,4.56-8.06,9.12-12.32a21.81,21.81,0,0,0,2-1.95c.52-1,4.31-7.29,6.4-8l1.68-.56c.46-.66,2.61-3.69,5.38-7.67l.2-.29.34.09c3.6,1,8.24,4.05,9.89,13.06l.06.31-.26.19c-4.71,3.41-9.71,7.12-11,8.7-1.59,1.89-2.55,5.05-3.4,7.83s-1.66,5.42-3,6.32A5.31,5.31,0,0,1,103,291.63Zm10.77-36c-3,4.37-5.27,7.52-5.27,7.52l-.09.14-2,.66c-1.56.52-5.14,6.11-5.83,7.49a14,14,0,0,1-2.19,2.24c-3,2.75-9.09,8.47-8.81,11.49a1.69,1.69,0,0,0,.84,1.31c5.07,3.25,12.75,5.13,14.94,3.67,1-.7,1.81-3.17,2.61-5.78.88-2.88,1.88-6.14,3.6-8.18,1.38-1.63,6.06-5.12,11-8.68C121,259.5,117,256.61,113.77,255.61Z" style="fill:#263238"></path><path d="M112.57,265.69a5.09,5.09,0,0,0-4.48-2.85l-1.83.61c-1.84.62-5.5,6.52-6.11,7.75s-15.08,12.42-10,15.68,13,5.3,15.49,3.67,3-10.19,6.31-14.06C112,276.49,113.8,268.55,112.57,265.69Z" style="fill:#fff"></path><path d="M103,291.63c-3.73,0-9.35-1.93-13.11-4.33a2.65,2.65,0,0,1-1.3-2.06c-.29-3.24,4.56-8.06,9.12-12.32a21.81,21.81,0,0,0,2-1.95c.52-1,4.31-7.29,6.4-8l2-.64A5.54,5.54,0,0,1,113,265.5h0c1.28,3-.5,10.77-.58,11.1l0,.12-.08.09c-1.59,1.89-2.55,5.05-3.4,7.83s-1.66,5.42-3,6.32A5.31,5.31,0,0,1,103,291.63Zm5.17-28.28-1.75.58c-1.56.52-5.14,6.11-5.83,7.49a14,14,0,0,1-2.19,2.24c-3,2.75-9.09,8.47-8.81,11.49a1.69,1.69,0,0,0,.84,1.31c5.07,3.25,12.75,5.13,14.94,3.67,1-.7,1.81-3.17,2.61-5.78.87-2.83,1.85-6,3.52-8.08.22-1,1.68-7.89.61-10.38A4.53,4.53,0,0,0,108.17,263.35Z" style="fill:#263238"></path></g><g id="freepik--Net--inject-2"><rect x="20.71" y="261.08" width="452.23" height="10.74" style="fill:#fff"></rect><path d="M477.13,261.58H20.71a.51.51,0,0,1-.5-.5.5.5,0,0,1,.5-.5H477.13a.5.5,0,0,1,.5.5A.5.5,0,0,1,477.13,261.58Z" style="fill:#263238"></path><path d="M477.13,272.33H20.71a.5.5,0,0,1-.5-.5.51.51,0,0,1,.5-.5H477.13a.5.5,0,0,1,.5.5A.5.5,0,0,1,477.13,272.33Z" style="fill:#263238"></path><rect x="20.71" y="349.8" width="452.23" height="7.22" style="fill:#fff"></rect><path d="M477.13,350.3H20.71a.51.51,0,0,1-.5-.5.5.5,0,0,1,.5-.5H477.13a.5.5,0,0,1,.5.5A.5.5,0,0,1,477.13,350.3Z" style="fill:#263238"></path><path d="M477.13,357.54H20.71a.5.5,0,0,1-.5-.5.51.51,0,0,1,.5-.5H477.13a.5.5,0,0,1,.5.5A.5.5,0,0,1,477.13,357.54Z" style="fill:#263238"></path><path d="M40.23,350.64a.5.5,0,0,1-.5-.5V272.79a.5.5,0,0,1,.5-.5.5.5,0,0,1,.5.5v77.35A.5.5,0,0,1,40.23,350.64Z" style="fill:#263238"></path><path d="M60.8,350.64a.5.5,0,0,1-.5-.5V272.79a.5.5,0,0,1,.5-.5.5.5,0,0,1,.5.5v77.35A.5.5,0,0,1,60.8,350.64Z" style="fill:#263238"></path><path d="M81.38,350.64a.5.5,0,0,1-.5-.5V272.79a.5.5,0,0,1,.5-.5.5.5,0,0,1,.5.5v77.35A.5.5,0,0,1,81.38,350.64Z" style="fill:#263238"></path><path d="M102,350.64a.5.5,0,0,1-.5-.5V272.79a.5.5,0,0,1,1,0v77.35A.5.5,0,0,1,102,350.64Z" style="fill:#263238"></path><path d="M122.52,350.64a.5.5,0,0,1-.5-.5V272.79a.5.5,0,0,1,.5-.5.5.5,0,0,1,.5.5v77.35A.5.5,0,0,1,122.52,350.64Z" style="fill:#263238"></path><path d="M143.09,350.64a.5.5,0,0,1-.5-.5V272.79a.5.5,0,0,1,.5-.5.5.5,0,0,1,.5.5v77.35A.5.5,0,0,1,143.09,350.64Z" style="fill:#263238"></path><path d="M163.67,350.64a.5.5,0,0,1-.5-.5V272.79a.5.5,0,0,1,.5-.5.5.5,0,0,1,.5.5v77.35A.5.5,0,0,1,163.67,350.64Z" style="fill:#263238"></path><path d="M184.24,350.64a.5.5,0,0,1-.5-.5V272.79a.5.5,0,0,1,1,0v77.35A.5.5,0,0,1,184.24,350.64Z" style="fill:#263238"></path><path d="M204.81,350.64a.5.5,0,0,1-.5-.5V272.79a.5.5,0,0,1,.5-.5.5.5,0,0,1,.5.5v77.35A.5.5,0,0,1,204.81,350.64Z" style="fill:#263238"></path><path d="M225.38,350.64a.5.5,0,0,1-.5-.5V272.79a.5.5,0,0,1,.5-.5.5.5,0,0,1,.5.5v77.35A.5.5,0,0,1,225.38,350.64Z" style="fill:#263238"></path><path d="M246,350.64a.5.5,0,0,1-.5-.5V272.79a.5.5,0,0,1,.5-.5.5.5,0,0,1,.5.5v77.35A.5.5,0,0,1,246,350.64Z" style="fill:#263238"></path><path d="M266.53,350.64a.5.5,0,0,1-.5-.5V272.79a.5.5,0,1,1,1,0v77.35A.5.5,0,0,1,266.53,350.64Z" style="fill:#263238"></path><path d="M287.1,350.64a.5.5,0,0,1-.5-.5V272.79a.5.5,0,0,1,.5-.5.5.5,0,0,1,.5.5v77.35A.5.5,0,0,1,287.1,350.64Z" style="fill:#263238"></path><path d="M307.67,350.64a.5.5,0,0,1-.5-.5V272.79a.5.5,0,0,1,.5-.5.5.5,0,0,1,.5.5v77.35A.5.5,0,0,1,307.67,350.64Z" style="fill:#263238"></path><path d="M328.25,350.64a.5.5,0,0,1-.5-.5V272.79a.5.5,0,0,1,.5-.5.5.5,0,0,1,.5.5v77.35A.5.5,0,0,1,328.25,350.64Z" style="fill:#263238"></path><path d="M348.82,350.64a.5.5,0,0,1-.5-.5V272.79a.5.5,0,0,1,1,0v77.35A.5.5,0,0,1,348.82,350.64Z" style="fill:#263238"></path><path d="M369.39,350.64a.5.5,0,0,1-.5-.5V272.79a.5.5,0,0,1,.5-.5.5.5,0,0,1,.5.5v77.35A.5.5,0,0,1,369.39,350.64Z" style="fill:#263238"></path><path d="M390,350.64a.5.5,0,0,1-.5-.5V272.79a.5.5,0,0,1,.5-.5.5.5,0,0,1,.5.5v77.35A.5.5,0,0,1,390,350.64Z" style="fill:#263238"></path><path d="M410.54,350.64a.5.5,0,0,1-.5-.5V272.79a.5.5,0,0,1,.5-.5.5.5,0,0,1,.5.5v77.35A.5.5,0,0,1,410.54,350.64Z" style="fill:#263238"></path><path d="M431.11,350.64a.5.5,0,0,1-.5-.5V272.79a.5.5,0,0,1,1,0v77.35A.5.5,0,0,1,431.11,350.64Z" style="fill:#263238"></path><path d="M451.68,350.64a.5.5,0,0,1-.5-.5V272.79a.5.5,0,0,1,.5-.5.5.5,0,0,1,.5.5v77.35A.5.5,0,0,1,451.68,350.64Z" style="fill:#263238"></path><path d="M474.48,288.92H23.77a.5.5,0,0,1-.5-.5.51.51,0,0,1,.5-.5H474.48a.5.5,0,0,1,.5.5A.5.5,0,0,1,474.48,288.92Z" style="fill:#263238"></path><path d="M474.48,308.67H23.77a.5.5,0,0,1-.5-.5.51.51,0,0,1,.5-.5H474.48a.5.5,0,0,1,.5.5A.5.5,0,0,1,474.48,308.67Z" style="fill:#263238"></path><path d="M474.48,328.42H23.77a.5.5,0,1,1,0-1H474.48a.5.5,0,0,1,0,1Z" style="fill:#263238"></path></g><g id="freepik--character-2--inject-2"><path d="M311.48,384.22s-4.59,13.79-4.23,20.57,16.77,21,34.61,21.41,32.47-3.57,38.54-8.21,11.77-13.92,11.77-13.92,12.85-5,14.28-6.06,9.27,4.28,15,1.07,3.21-15-1.07-17.13S401.45,373,401.45,373a11.37,11.37,0,0,0-7.14-4.64c-5-1.07-10.7,1.07-12.13,1.43s-3.88-5.25-7.82-4.94" style="fill:#263238"></path><path d="M344.16,426.72l-2.31,0c-18.25-.37-34.73-14.91-35.1-21.89-.36-6.79,4.07-20.18,4.26-20.75a.5.5,0,0,1,.95.32c0,.14-4.56,13.77-4.21,20.38s16.71,20.59,34.12,20.94c18.58.36,32.6-3.81,38.22-8.11,5.93-4.53,11.6-13.69,11.66-13.78a.48.48,0,0,1,.24-.2c3.56-1.39,13-5.16,14.16-6,.71-.54,2-.11,4,.54,3.17,1,7.53,2.45,11,.49,2-1.14,3.15-3.7,3.06-7-.09-4-1.94-8.13-4.11-9.21-4.23-2.12-18.75-8.85-18.9-8.92a.51.51,0,0,1-.22-.19,11,11,0,0,0-6.81-4.41c-4.16-.89-8.8.5-11,1.17l-.88.25c-.83.21-1.61-.61-2.66-1.76-1.38-1.48-3.08-3.36-5.25-3.16a.52.52,0,0,1-.53-.47.49.49,0,0,1,.46-.53c2.62-.2,4.61,1.93,6.05,3.49.57.61,1.43,1.53,1.69,1.46l.84-.24c2.31-.69,7.11-2.13,11.52-1.19a11.94,11.94,0,0,1,7.37,4.74c1.48.68,14.77,6.85,18.8,8.86,2.55,1.28,4.56,5.61,4.66,10.09.1,3.7-1.21,6.59-3.57,7.92-3.88,2.18-8.66.62-11.82-.41-1.19-.39-2.81-.91-3.11-.69-1.4,1-12.35,5.33-14.24,6.07-.77,1.23-6.08,9.52-11.81,13.91C375.18,422.61,361.85,426.72,344.16,426.72Z" style="fill:#263238"></path><path d="M406.22,379.5a.5.5,0,0,1-.27-.07c-.2-.13-4.88-3.14-5-6.38,0-.36-.14-.43-.2-.45-.91-.46-4.12,1.23-6.1,2.59a.51.51,0,0,1-.58,0c-.14-.1-3.47-2.6-4.35-3.93-.26-.39-2.82,1.11-3.91,1.75a21.26,21.26,0,0,1-3.56,1.83c-2.79.93-6.49-3.85-6.9-4.4a.5.5,0,0,1,.8-.6c1,1.33,4,4.65,5.79,4.06a22.47,22.47,0,0,0,3.36-1.75c2.49-1.47,4.46-2.63,5.25-1.44a24.39,24.39,0,0,0,3.84,3.47c1.32-.87,5.2-3.27,6.81-2.46A1.41,1.41,0,0,1,402,373c.1,2.72,4.49,5.54,4.54,5.57a.5.5,0,0,1,.15.69A.51.51,0,0,1,406.22,379.5Z" style="fill:#9c9c9c"></path><path d="M406.45,398c1.42-1.07,9.27,4.28,15,1.07s3.21-15-1.07-17.13c-2.56-1.28-8.81-4.22-13.43-6.37,1,1,3.21,3.9,2.37,10.29C408.23,394.08,406.45,398,406.45,398Z" style="fill:#fff"></path><path d="M417.14,400.61a24,24,0,0,1-7.28-1.51c-1.19-.39-2.81-.91-3.11-.69a.5.5,0,0,1-.76-.61s1.77-4,2.81-12c.81-6.18-1.28-9-2.22-9.87a.5.5,0,0,1,.56-.82c4.72,2.21,10.89,5.11,13.45,6.38s4.56,5.61,4.66,10.09c.1,3.7-1.21,6.59-3.57,7.92A9.07,9.07,0,0,1,417.14,400.61Zm-9.9-3.24a15.06,15.06,0,0,1,2.93.78c3.17,1,7.53,2.45,11,.49,2-1.14,3.15-3.7,3.06-7-.09-4-1.94-8.13-4.11-9.21s-7.23-3.47-11.61-5.52c1,1.69,1.85,4.55,1.27,9.06A54.31,54.31,0,0,1,407.24,397.37Z" style="fill:#263238"></path><path d="M334.08,295a50.41,50.41,0,0,1-5.92-4.18c-1.4-1.4-5.93-10.11-9.77-16.74s-7.67-14.64-8.36-17.78-10.81-42.53-10.81-42.53,1.39-5.58,1.74-8,1.74-3.83,2.09-6.27-3.95.81-4.26,2a15.7,15.7,0,0,1-1.53,3.22l-5.68-7.83s-3.84-7.06-4.91-8.13-2.15.46-1.69,1.68,3.53,8.45,3.53,8.45a7.14,7.14,0,0,1-2-.46c-.47-.31-6.76-4.92-7.83-5.53s-1.23,1.07-.31,1.84,5.68,6.3,5.68,6.3-4.45-1.85-5.83-2.61-2.77-.62-2.61.46,6.29,5.52,6.29,5.52-4.45-.92-5.06-.46,0,1.54,1.07,2.15,3.68,2.3,3.68,2.3,7.06,7.52,7.52,7.68,3.07,29.16,4.46,33.92,2.45,8.29,2.45,8.29l8.75,34.84s4.77,24,6.06,30.77S317,350.37,317,355.85s-5.16,27.08-5.49,28.37,9.35,7.74,28.38,2.58,34.5-21.92,34.5-21.92-2.58-11.93-2.58-15.48,3.54-28,4.51-36.11S374,286.53,372.1,272s-3.23-23.54-3.23-23.54l-10-40.62s3.22-2.26,3.22-3.87a33.27,33.27,0,0,1,.33-3.87s3.06-1.35,4.09-2.68.59-2.07-.29-1.92a35.75,35.75,0,0,0-3.84,1l-.89.3V190.5c0-1.63-.59-3.25-1.48-3s-1.18,2.07-1.18,2.66-1.47,4.43-1.62,5-1.33-2.8-1.33-4.58-.59-5.46-1.18-5.9-1.63,0-1.48,1.77-.59,7.09-.59,7.68a3.25,3.25,0,0,1-.44,1.33,42.11,42.11,0,0,1-2.81-6.94c-.88-3.25-2.8-1.63-2.95-.89s1.33,6.65,1.33,7.24.29,1.77.29,2.21-1.47,6.2-1.47,6.2a11.79,11.79,0,0,1-3.84-1.77c-1.48-1.18-3.55-.29-3.69.15s1.47,1.33,2.51,2.07,3.69,4.43,4.28,4.87a47.67,47.67,0,0,0,5,1.92s1.92,31.89,2.66,35.29,1.47,5.46,1.62,6.35,1,16.09.89,17.72-.89,6.79-.89,6.79-2.07,13.88-7.38,16.69-9.3,2.06-9.3,2.06Z" style="fill:#fff"></path><path d="M326.22,389.27c-8.39,0-13.27-2.56-14.64-3.9-.48-.47-.67-.9-.58-1.27.68-2.72,5.47-23.1,5.47-28.25,0-3.83-2.49-15.08-4.3-23.29-.77-3.52-1.44-6.56-1.82-8.54-1.28-6.69-6-30.52-6.06-30.76l-8.74-34.82h0s-1.08-3.52-2.45-8.27c-.82-2.81-2-13.74-3-22.53-.57-5.09-1.15-10.35-1.37-11.22-.51-.4-2.06-1.88-7.44-7.6-.37-.24-2.64-1.7-3.61-2.26a2.83,2.83,0,0,1-1.57-2,1.13,1.13,0,0,1,.44-1c.45-.33,1.84-.24,3.35,0-2.06-1.58-4.64-3.7-4.77-4.58a1.24,1.24,0,0,1,.5-1.24,2.86,2.86,0,0,1,2.85.27c.75.41,2.44,1.16,3.8,1.75-1.59-1.82-3.67-4.17-4.21-4.61a2,2,0,0,1-.56-2.46,1,1,0,0,1,1.43-.2c.73.41,3.52,2.41,6.31,4.43l1.55,1.11a3.31,3.31,0,0,0,.91.26c-.82-1.93-2.82-6.66-3.19-7.65a2.17,2.17,0,0,1,.71-2.51,1.38,1.38,0,0,1,1.8.29c1.1,1.1,4.6,7.52,5,8.25l5.19,7.15a11.28,11.28,0,0,0,1.1-2.43c.28-1.11,3.12-3.53,4.46-3.28.23,0,.94.28.78,1.44a11.42,11.42,0,0,1-1.09,3.27,10.49,10.49,0,0,0-1,3c-.33,2.27-1.51,7.09-1.73,7.95.63,2.43,10.11,39.4,10.78,42.43s4.39,10.84,8.32,17.63c1.28,2.21,2.62,4.63,3.92,7,2.51,4.51,4.88,8.77,5.76,9.65a48,48,0,0,0,5.74,4.06l4.27.46c.07,0,3.94.66,9-2s7.1-16.18,7.12-16.31.73-5.17.88-6.77-.76-16.89-.88-17.59c-.06-.33-.21-.87-.42-1.61-.32-1.13-.76-2.68-1.2-4.71-.71-3.25-2.43-31.43-2.65-35a36.66,36.66,0,0,1-4.84-1.89,15.35,15.35,0,0,1-1.66-1.91,23.32,23.32,0,0,0-2.61-3l-.84-.56c-1.26-.82-2.09-1.37-1.86-2.07.18-.54,1.05-.84,1.31-.92a3.51,3.51,0,0,1,3.17.54,10.47,10.47,0,0,0,3.17,1.54c.65-2.56,1.31-5.26,1.33-5.59a7.09,7.09,0,0,0-.12-.86,9.61,9.61,0,0,1-.17-1.34c0-.21-.26-1.38-.48-2.41-.67-3.09-.94-4.45-.84-4.93a2.07,2.07,0,0,1,1.8-1.46c.65,0,1.59.36,2.13,2.32a37.44,37.44,0,0,0,2.26,5.81v-.07c0-.2.06-.71.16-1.67a46.39,46.39,0,0,0,.43-6c-.13-1.57.58-2.14.88-2.31a1.27,1.27,0,0,1,1.4.1c.91.68,1.38,4.95,1.38,6.3a12.41,12.41,0,0,0,.7,3.38l.19-.52a31.9,31.9,0,0,0,1.06-3.3c0-.55.26-2.71,1.53-3.13a1.14,1.14,0,0,1,1,.16c.8.59,1.09,2.13,1.09,3.27v5.65l.23-.07a36.73,36.73,0,0,1,3.91-1.06,1.24,1.24,0,0,1,1.32.51c.19.32.38,1-.54,2.21a13.05,13.05,0,0,1-4,2.72,29.68,29.68,0,0,0-.29,3.53c0,1.57-2.3,3.44-3.15,4.08l9.91,40.29c0,.14,1.32,9.25,3.23,23.59.4,3,.85,6.14,1.31,9.34,1.8,12.58,3.66,25.59,2.89,32.06-.33,2.7-1,7.32-1.61,12.21-1.29,9.59-2.9,21.51-2.9,23.84,0,3.45,2.54,15.25,2.56,15.37a.47.47,0,0,1-.12.44c-.15.17-15.79,16.94-34.73,22.07A52.55,52.55,0,0,1,326.22,389.27ZM277.57,204.35a1.19,1.19,0,0,0-.45.05s0,0,0,.09a2,2,0,0,0,1.07,1.21c1.07.61,3.6,2.24,3.71,2.31l.09.08c2.58,2.76,6.87,7.25,7.38,7.57.41.13.43.14,1.73,11.87,1,8.75,2.19,19.64,3,22.36,1.38,4.76,2.45,8.28,2.45,8.28L305.27,293c.05.26,4.79,24.1,6.06,30.79.38,2,1.05,5,1.82,8.52,1.92,8.71,4.32,19.56,4.32,23.5,0,5.76-5.45,28.27-5.5,28.49a5.08,5.08,0,0,0,1.52,1.2c1.54.9,10,5.18,26.24.78,17.58-4.77,32.31-19.75,34.08-21.6-.38-1.8-2.53-12-2.53-15.32,0-2.39,1.54-13.86,2.91-24,.66-4.89,1.28-9.51,1.6-12.2.76-6.34-1.09-19.28-2.88-31.79-.46-3.21-.91-6.37-1.31-9.35-1.91-14.34-3.21-23.44-3.22-23.54l-10-40.57a.5.5,0,0,1,.2-.53c1.17-.82,3-2.48,3-3.46a34.47,34.47,0,0,1,.33-3.94.53.53,0,0,1,.29-.39,12.93,12.93,0,0,0,3.91-2.53c.53-.68.51-1,.47-1.09s-.1-.06-.29,0c-.82.14-2.85.71-3.77,1l-.88.3a.5.5,0,0,1-.66-.47V190.5a3.53,3.53,0,0,0-.68-2.45c-.07-.05-.1-.05-.14,0-.49.16-.84,1.51-.84,2.18a18.9,18.9,0,0,1-1.12,3.64c-.24.68-.47,1.32-.52,1.5a.62.62,0,0,1-.6.45c-.88-.11-1.71-4-1.71-5.15,0-1.93-.63-5.13-1-5.51a.27.27,0,0,0-.3,0c-.22.12-.44.54-.37,1.35a46.25,46.25,0,0,1-.43,6.16c-.08.72-.16,1.41-.16,1.56a3.6,3.6,0,0,1-.51,1.58.48.48,0,0,1-.45.25.52.52,0,0,1-.43-.27,42.06,42.06,0,0,1-2.84-7c-.28-1-.69-1.63-1.13-1.58a1.1,1.1,0,0,0-.85.66,39.59,39.59,0,0,0,.83,4.52,23.13,23.13,0,0,1,.51,2.62,9,9,0,0,0,.15,1.16,6.63,6.63,0,0,1,.14,1c0,.46-1,4.58-1.49,6.33a.5.5,0,0,1-.6.36,12.24,12.24,0,0,1-4-1.87,2.61,2.61,0,0,0-2.8-.13,14,14,0,0,0,1.35,1l.87.58a23,23,0,0,1,2.81,3.14,21.22,21.22,0,0,0,1.48,1.74A40.5,40.5,0,0,0,351,210.1a.51.51,0,0,1,.34.45c0,.32,1.92,31.89,2.65,35.21.43,2,.87,3.54,1.18,4.66a16.77,16.77,0,0,1,.44,1.72c.17,1,1.05,16.15.9,17.84s-.86,6.61-.89,6.82c-.09.58-2.17,14.17-7.65,17.06s-9.46,2.15-9.62,2.11l-4.35-.46a.52.52,0,0,1-.21-.07,50.12,50.12,0,0,1-6-4.26c-1-1-3.27-5.1-5.92-9.88-1.3-2.34-2.64-4.75-3.92-7-4-7-7.74-14.85-8.42-17.92s-10.7-42.12-10.81-42.51a.53.53,0,0,1,0-.25c0-.06,1.4-5.58,1.74-8a11.42,11.42,0,0,1,1.08-3.27,10.71,10.71,0,0,0,1-3,1.07,1.07,0,0,0,0-.34,2.29,2.29,0,0,0-.83.3,6.25,6.25,0,0,0-2.45,2.27,15.9,15.9,0,0,1-1.59,3.36.52.52,0,0,1-.41.24.46.46,0,0,1-.42-.21l-5.68-7.83c-1.1-2-4-7.23-4.86-8.07-.32-.32-.5-.2-.56-.16a1.17,1.17,0,0,0-.31,1.32c.45,1.2,3.49,8.35,3.52,8.42a.48.48,0,0,1-.06.49.47.47,0,0,1-.45.2,6.24,6.24,0,0,1-2.22-.54l-1.59-1.13c-2-1.48-5.47-4-6.21-4.38a.41.41,0,0,0-.17-.06h0a1.24,1.24,0,0,0,.43,1.09c.94.78,5.54,6.12,5.74,6.35a.5.5,0,0,1,0,.62.49.49,0,0,1-.59.17c-.18-.08-4.49-1.86-5.89-2.64a2.08,2.08,0,0,0-1.79-.32s-.11.07-.08.28c.18.6,3.31,3.17,6.09,5.19a.5.5,0,0,1-.39.89A26.76,26.76,0,0,0,277.57,204.35Z" style="fill:#263238"></path><path d="M355.44,274.69c-.16,1.15-.29,2-.29,2s-2.07,13.88-7.38,16.69-9.3,2.06-9.3,2.06l-4.39-.47a50.41,50.41,0,0,1-5.92-4.18c-1-1-3.8-6.11-6.73-11.36l-5.16,2.74c-4.68,2.49-8.49,8.46-11,13.41,1.25,6.29,4.53,22.86,5.57,28.31,1.29,6.77,6.13,26.44,6.13,31.92s-5.16,27.08-5.49,28.37,9.35,7.74,28.38,2.58,34.5-21.92,34.5-21.92-2.58-11.93-2.58-15.48,3.54-28,4.51-36.11c.78-6.52-1.18-20-3-32.58A27.5,27.5,0,0,0,355.44,274.69Z" style="fill:#FFB847"></path><path d="M326.22,389.27c-8.39,0-13.27-2.56-14.64-3.9-.48-.47-.67-.9-.58-1.27.68-2.72,5.47-23.1,5.47-28.25,0-3.83-2.49-15.08-4.3-23.29-.77-3.52-1.44-6.56-1.82-8.54-1.07-5.62-4.54-23.08-5.57-28.3a.5.5,0,0,1,0-.32c2.43-4.79,6.34-11,11.21-13.63L321.2,279a.49.49,0,0,1,.67.2l.89,1.61c2.51,4.5,4.87,8.76,5.75,9.63a48,48,0,0,0,5.74,4.06l4.27.46c.07,0,3.94.66,9-2s7.1-16.18,7.12-16.31.12-.89.28-2a.49.49,0,0,1,.49-.43,28.09,28.09,0,0,1,18.2,6.13.5.5,0,0,1,.18.31l.09.65c1.8,12.58,3.66,25.59,2.89,32.06-.33,2.7-1,7.32-1.61,12.21-1.29,9.59-2.9,21.51-2.9,23.84,0,3.45,2.54,15.25,2.56,15.37a.47.47,0,0,1-.12.44c-.15.17-15.79,16.94-34.73,22.07A52.55,52.55,0,0,1,326.22,389.27ZM305.79,295.7c1.08,5.41,4.48,22.57,5.54,28.13.38,2,1,5,1.82,8.51,1.92,8.72,4.32,19.57,4.32,23.51,0,5.76-5.45,28.27-5.5,28.49a5.08,5.08,0,0,0,1.52,1.2c1.54.9,10,5.18,26.24.78,17.59-4.77,32.31-19.75,34.08-21.6-.38-1.8-2.53-12-2.53-15.32,0-2.39,1.54-13.86,2.91-24,.66-4.89,1.28-9.51,1.6-12.2.76-6.34-1.09-19.28-2.88-31.79l-.06-.47a27,27,0,0,0-17-5.78c-.13.94-.22,1.61-.22,1.61-.09.58-2.17,14.17-7.65,17.06s-9.46,2.15-9.62,2.11l-4.35-.46a.52.52,0,0,1-.21-.07,50.12,50.12,0,0,1-6-4.26c-1-1-3.26-5.09-5.91-9.86l-.66-1.18-4.73,2.51C311.91,285.09,308.16,291.06,305.79,295.7Z" style="fill:#263238"></path><path d="M336.94,370l-.16-6.24L346.31,344c.71-1.48,1.37-2.89,2-4.23a27.64,27.64,0,0,0,1.53-4,13.35,13.35,0,0,0,.53-4.13,5.44,5.44,0,0,0-.85-3.23,2,2,0,0,0-2.21-.65,3.76,3.76,0,0,0-2.3,1.51A6.53,6.53,0,0,0,344,332a18.26,18.26,0,0,0-.22,3.45l.06,2.18-7.65,1.84-.06-2.29a24.05,24.05,0,0,1,1-7.6,13.77,13.77,0,0,1,3.47-5.88,13.27,13.27,0,0,1,6.41-3.37q5.41-1.31,8.23,1.24t3,8.34a18.54,18.54,0,0,1-.62,5.36,31.15,31.15,0,0,1-1.89,5.07c-.79,1.67-1.63,3.4-2.54,5.2l-7.55,15.36,12.2-2.94.18,7Z" style="fill:#fff"></path><path d="M321.09,376.56a.5.5,0,0,1-.06-1c.35,0,35.34-4.05,49.88-16a.5.5,0,0,1,.7.07.49.49,0,0,1-.07.7c-14.76,12.16-50,16.21-50.4,16.25Z" style="fill:#263238"></path><path d="M318.47,382.23a.5.5,0,0,1-.5-.48.5.5,0,0,1,.48-.52,44.48,44.48,0,0,0,6.31-.83.5.5,0,0,1,.19,1,48,48,0,0,1-6.46.84Z" style="fill:#263238"></path><path d="M329.67,380.34a.5.5,0,0,1-.49-.38.51.51,0,0,1,.37-.61c10-2.41,20.91-6.34,21-6.38a.5.5,0,1,1,.33.94c-.11,0-11.1,4-21.11,6.42Z" style="fill:#263238"></path><path d="M356.84,362.17a.52.52,0,0,1-.44-.25.51.51,0,0,1,.19-.68c5.94-3.4,10.7-9.83,10.74-9.89a.5.5,0,1,1,.81.59c-.2.27-4.93,6.67-11.05,10.17A.57.57,0,0,1,356.84,362.17Z" style="fill:#263238"></path><path d="M324.64,310.81a.49.49,0,0,1-.49-.45c-.55-5.71,2.84-17.26,3-17.75a.49.49,0,0,1,.62-.34.5.5,0,0,1,.33.62c0,.12-3.47,11.86-2.95,17.37a.5.5,0,0,1-.45.55Z" style="fill:#263238"></path><path d="M328.7,313.24a.49.49,0,0,1-.48-.36c-1.1-3.83-.33-13.55-.29-14a.49.49,0,0,1,.54-.45.49.49,0,0,1,.45.53c0,.1-.79,9.95.26,13.61a.5.5,0,0,1-.35.61A.3.3,0,0,1,328.7,313.24Z" style="fill:#263238"></path><path d="M361.12,307a.5.5,0,0,1-.48-.37c-1.58-5.77-6.08-11.38-6.13-11.43a.51.51,0,0,1,.08-.71.5.5,0,0,1,.7.08c.19.23,4.68,5.82,6.31,11.8a.5.5,0,0,1-.35.61Z" style="fill:#263238"></path><path d="M342.1,259.1s-8.72-.35-11.5,5.93-4.19,12.9-2.44,17.78,4.53,11.51,5.92,12.2a13.5,13.5,0,0,1,3.14,2.79s-3.84,4.18-.7,8.72,16,3.83,18.13-1S351.86,295,351.86,295s7-4.88,5.93-16.38S352.56,257,342.1,259.1Z" style="fill:#263238"></path><path d="M344.93,310.05c-3.51,0-7.22-.94-8.82-3.25-2.79-4-.41-7.84.46-9a11.61,11.61,0,0,0-2.71-2.35c-2-1-5.49-10.57-6.18-12.48-1.61-4.52-.74-11,2.46-18.15,2.8-6.31,11.05-6.25,11.92-6.23a10.84,10.84,0,0,1,8.91,1.74c5,3.75,6.75,12,7.32,18.24.92,10.13-4.17,15.22-5.72,16.51,1.11,1.41,4.42,6.19,2.54,10.58-1,2.26-4.05,3.86-8.24,4.29C346.24,310,345.59,310.05,344.93,310.05Zm-3-50.45c-1.26,0-8.44.24-10.84,5.63-3.09,7-3.95,13.14-2.42,17.41,2.25,6.31,4.69,11.43,5.68,11.92a13.72,13.72,0,0,1,3.29,2.92.5.5,0,0,1,0,.66c-.15.16-3.52,3.95-.66,8.09,1.42,2,5.47,3.17,9.84,2.73,3.76-.38,6.61-1.79,7.42-3.69,1.95-4.53-2.66-9.88-2.7-9.93a.47.47,0,0,1-.12-.39.47.47,0,0,1,.21-.35c.06-.05,6.72-4.87,5.71-15.93-.55-6.05-2.2-14-6.92-17.53a9.86,9.86,0,0,0-8.17-1.55h-.31Z" style="fill:#263238"></path></g><g id="freepik--character-1--inject-2"><path d="M217.93,213.45s0-.12,0-.15c.11-2-.87-4.79-.81-6.73.08-2.44-.32-4.23-.32-5.61a37.32,37.32,0,0,0-.57-3.82c-.16-1.54-1-1.71-1.22-.49a35.24,35.24,0,0,1-1.63,4.39s.17-2,.25-2.68a29.25,29.25,0,0,0-.25-4.63c-.16-.73-1.05-1.22-1.54-.41s-.49,3.42-.49,4.39-.81,3.33-.89,2.85-.33-1.55-.41-2.12A19,19,0,0,0,209,194.7c-.41-.73-.82-1-1.39-.57s-.16,2.28,0,3.74,0,8.19,0,8.19l-2.59-.65a12,12,0,0,0-1.94-3c-1.08-1.08-2.15-.23-1.29,1.71s.21,3,1.5,4.55,4.11,3.24,4.75,3.88,2.6,2.91,3.25,3.65c1.15,9,5.91,37.52,5.91,37.52s-15.72,29.72-17.08,31.42-3.42,2.74-6.84,5.81a49.28,49.28,0,0,1-6.83,5.13l-8.2,1s-7.51.68-11.27-1.71c0,0-8.2-8.88-11.27-13.66S143,248.91,143,248.91l5.24-31.15.06,0s2.81-3.24,3.45-3.88,3.46-2.38,4.75-3.89.64-2.6,1.5-4.55-.2-2.79-1.28-1.71a12,12,0,0,0-1.94,3l-2.59.65s-.18-6.72,0-8.18.57-3.34,0-3.74-1-.17-1.38.57a19.18,19.18,0,0,0-1.06,3.73c-.08.57-.32,1.63-.4,2.12s-.9-1.87-.9-2.85,0-3.57-.48-4.39-1.38-.32-1.55.41a30.46,30.46,0,0,0-.24,4.63c.08.65.24,2.69.24,2.69a35.62,35.62,0,0,1-1.62-4.39c-.25-1.22-1.06-1.06-1.22.48a37.32,37.32,0,0,0-.57,3.82c0,1.39-.41,3.17-.33,5.61.07,1.94.34,7.06.45,9.07-2.53,5.53-12.76,33.14-13.09,37.43-.34,4.44,11.95,41,12.29,43s4.45,28.35,6.15,33.48,3.76,26,2.74,30.06-6.84,20.84-6.84,20.84,9.23,7.85,26.31,6.83a87.73,87.73,0,0,0,29.38-6.83l5.12-2.73-2.39-16.74L207.6,322l1.71-16.4s7.17-8.88,13-26.65,8.2-28,8.2-30.4C230.49,246.39,220.22,219.38,217.93,213.45Z" style="fill:#fff"></path><path d="M167.7,389.22c-15.17,0-23.53-7-23.62-7a.5.5,0,0,1-.15-.55c.06-.16,5.81-16.76,6.82-20.79S149.67,336,148,331.06c-1-3.05-3-13.84-5.93-32.05l-.24-1.51c-.09-.57-1.28-4.32-2.78-9.06-4.94-15.62-9.75-31.12-9.52-34.1.34-4.41,10.49-31.76,13.08-37.48-.14-2.62-.38-7.15-.44-9a26.34,26.34,0,0,1,.2-3.83c.07-.69.13-1.28.13-1.8a10,10,0,0,1,.29-2.21c.1-.5.21-1,.28-1.66.11-1.06.54-1.71,1.13-1.74.19,0,.85.05,1.08,1.21a10.08,10.08,0,0,0,.37,1.22,33.86,33.86,0,0,1,.27-4.16,1.55,1.55,0,0,1,1.2-1.2,1.23,1.23,0,0,1,1.27.65c.49.82.55,2.81.55,4.64a5.31,5.31,0,0,0,.22,1.2c0-.2.07-.38.09-.54a19.55,19.55,0,0,1,1.11-3.91,1.83,1.83,0,0,1,1.08-1,1.25,1.25,0,0,1,1,.26c.71.5.53,1.81.32,3.32,0,.3-.08.6-.11.88-.13,1.16,0,5.8,0,7.49l1.75-.43a11.87,11.87,0,0,1,1.94-3c.76-.76,1.48-.72,1.91-.43s.83,1.25.19,2.7a6.53,6.53,0,0,0-.5,2,4.52,4.52,0,0,1-1.08,2.69,22.28,22.28,0,0,1-3.48,2.91c-.58.43-1.09.8-1.29,1-.6.59-3.12,3.5-3.41,3.83l-5.19,30.84c.69,2,9.64,28.05,12.55,32.57s10.52,12.83,11.17,13.54c3.59,2.24,10.84,1.61,10.91,1.6l8.07-1a49.93,49.93,0,0,0,6.67-5c1.56-1.41,2.86-2.4,3.9-3.2a15.73,15.73,0,0,0,2.88-2.55c1.05-1.31,11.49-20.89,17-31.2-.4-2.35-4.75-28.55-5.86-37.21-.72-.83-2.63-3-3.13-3.51a12.08,12.08,0,0,0-1.3-1,21.29,21.29,0,0,1-3.47-2.92,4.52,4.52,0,0,1-1.08-2.68,6.53,6.53,0,0,0-.5-2c-.65-1.45-.33-2.35.19-2.7s1.15-.33,1.9.43a11.56,11.56,0,0,1,1.94,2.94l1.76.44c0-1.69.13-6.34,0-7.49,0-.28-.07-.58-.12-.88-.2-1.51-.38-2.82.32-3.32a1.31,1.31,0,0,1,1-.27,1.83,1.83,0,0,1,1.07,1,19,19,0,0,1,1.12,3.91c0,.15.05.34.09.54a5.23,5.23,0,0,0,.21-1.2c0-1.84.07-3.82.56-4.65a1.23,1.23,0,0,1,1.27-.64,1.53,1.53,0,0,1,1.19,1.2,31.61,31.61,0,0,1,.28,4.16,10.08,10.08,0,0,0,.37-1.22c.23-1.16.86-1.22,1.08-1.21.59,0,1,.68,1.13,1.74a13.29,13.29,0,0,0,.28,1.66,10,10,0,0,1,.29,2.21c0,.52.06,1.11.13,1.8a26.51,26.51,0,0,1,.19,3.83,16,16,0,0,0,.39,3.11,16.41,16.41,0,0,1,.42,3.57.18.18,0,0,1,0,.06C219,214.94,231,246,231,248.57s-2.57,13.28-8.22,30.56c-5.42,16.56-12.11,25.56-13,26.68l-1.69,16.26-4.78,40.25L205.71,379a.53.53,0,0,1-.26.51l-5.13,2.73a89.09,89.09,0,0,1-29.58,6.89C169.7,389.19,168.68,389.22,167.7,389.22ZM145,381.62c1.62,1.23,10.59,7.42,25.69,6.51a88.47,88.47,0,0,0,29.19-6.78l4.8-2.56-2.35-16.39v-.13L207.1,322l1.71-16.39a.47.47,0,0,1,.11-.26c.07-.09,7.19-9,12.89-26.49,6-18.34,8.18-28.14,8.18-30.25,0-1.85-8.6-24.77-12.53-34.94a.36.36,0,0,1,0-.11s0-.07,0-.08,0-.09,0-.17a16,16,0,0,0-.4-3.39,16.26,16.26,0,0,1-.41-3.33,25.4,25.4,0,0,0-.18-3.69,17.37,17.37,0,0,1-.14-1.9,9.28,9.28,0,0,0-.27-2,16.18,16.18,0,0,1-.3-1.77,2.17,2.17,0,0,0-.16-.69,2.06,2.06,0,0,0-.07.25,34.68,34.68,0,0,1-1.66,4.49.49.49,0,0,1-.58.29.5.5,0,0,1-.37-.53s.16-2.05.24-2.7a31.23,31.23,0,0,0-.23-4.46.6.6,0,0,0-.38-.44s-.13,0-.25.18c-.28.46-.42,1.85-.42,4.13,0,.31-.46,3.34-1.31,3.41a.61.61,0,0,1-.57-.48c0-.21-.1-.51-.17-.83s-.19-1-.24-1.3a19.15,19.15,0,0,0-1-3.56c-.25-.45-.39-.5-.42-.51a.52.52,0,0,0-.24.1,6.44,6.44,0,0,0,.1,2.38c0,.3.08.61.11.9.17,1.48,0,8,0,8.25a.49.49,0,0,1-.2.39.48.48,0,0,1-.42.08l-2.59-.64a.54.54,0,0,1-.34-.29,11.49,11.49,0,0,0-1.83-2.87c-.31-.3-.56-.36-.63-.31s-.25.57.15,1.47a7.24,7.24,0,0,1,.58,2.25,3.64,3.64,0,0,0,.84,2.17,21.44,21.44,0,0,0,3.31,2.76,14.29,14.29,0,0,1,1.42,1.1c.53.54,2.46,2.75,3.27,3.68a.42.42,0,0,1,.12.26c1.13,8.84,5.85,37.21,5.9,37.49a.51.51,0,0,1,0,.32c-.64,1.22-15.75,29.78-17.13,31.51a17.78,17.78,0,0,1-3,2.72c-1,.78-2.31,1.76-3.84,3.14a51,51,0,0,1-6.91,5.18.48.48,0,0,1-.2.07l-8.19,1c-.34,0-7.75.67-11.61-1.79l-.1-.08c-.33-.36-8.26-9-11.32-13.73s-12.3-31.76-12.7-32.9a.71.71,0,0,1,0-.25l5.25-31.15a.47.47,0,0,1,.24-.35c.44-.51,2.81-3.23,3.41-3.84a15.15,15.15,0,0,1,1.41-1.1,21,21,0,0,0,3.31-2.75,3.56,3.56,0,0,0,.84-2.18,7.67,7.67,0,0,1,.59-2.25c.4-.9.27-1.38.15-1.46s-.33,0-.63.3a11.64,11.64,0,0,0-1.84,2.88.49.49,0,0,1-.33.28l-2.59.65a.54.54,0,0,1-.43-.09.48.48,0,0,1-.19-.39c0-.27-.18-6.77,0-8.25,0-.29.07-.59.11-.9a6.34,6.34,0,0,0,.08-2.38.45.45,0,0,0-.22-.1s-.17.06-.42.51a18.41,18.41,0,0,0-1,3.56c-.05.34-.15.85-.25,1.31s-.12.62-.16.82a.6.6,0,0,1-.57.48c-.85-.07-1.32-3.09-1.32-3.41,0-2.28-.14-3.67-.41-4.13-.12-.19-.21-.18-.25-.18a.58.58,0,0,0-.38.44,32.82,32.82,0,0,0-.24,4.46c.09.66.25,2.7.25,2.7a.5.5,0,0,1-1,.24,36.61,36.61,0,0,1-1.65-4.49,2.06,2.06,0,0,0-.07-.25,2.25,2.25,0,0,0-.16.7c-.08.68-.19,1.23-.3,1.76a8.77,8.77,0,0,0-.27,2,17.19,17.19,0,0,1-.14,1.9,26.91,26.91,0,0,0-.19,3.7c.07,1.9.33,7,.45,9.06a.59.59,0,0,1-.05.23c-2.43,5.32-12.72,33-13,37.26-.24,3,5.84,22.24,9.47,33.72,1.78,5.62,2.72,8.59,2.82,9.2,0,.23.12.75.24,1.51C146,317,148,327.74,149,330.74c1.71,5.15,3.83,26,2.74,30.34C150.77,364.88,145.84,379.17,145,381.62Z" style="fill:#263238"></path><path d="M210.45,204.92a.49.49,0,0,1-.5-.49v-3.87a.5.5,0,0,1,.5-.5h0a.5.5,0,0,1,.5.49v3.87a.5.5,0,0,1-.5.5Z" style="fill:#263238"></path><path d="M213.77,205.26a.5.5,0,0,1-.49-.45l-.41-3.71a.5.5,0,0,1,.44-.55.49.49,0,0,1,.55.44l.41,3.71a.5.5,0,0,1-.44.55Z" style="fill:#263238"></path><path d="M215.88,205.15l-.13,0a.5.5,0,0,1-.35-.61c.42-1.58.31-7.31.31-7.37a.5.5,0,0,1,.49-.51.51.51,0,0,1,.51.49c0,.24.11,5.93-.35,7.65A.5.5,0,0,1,215.88,205.15Z" style="fill:#263238"></path><path d="M144,206.27a.5.5,0,0,1-.48-.39c-.25-1.08-.57-4.55-.58-4.7a.49.49,0,0,1,.45-.54.49.49,0,0,1,.54.45s.33,3.55.56,4.57a.5.5,0,0,1-.37.6Z" style="fill:#263238"></path><path d="M146.52,205.54a.51.51,0,0,1-.5-.49l-.08-2.68a.5.5,0,0,1,.49-.52.53.53,0,0,1,.51.49L147,205a.5.5,0,0,1-.48.52Z" style="fill:#263238"></path><path d="M149.37,205a.5.5,0,0,1-.5-.5v-2.6a.5.5,0,0,1,.5-.5.5.5,0,0,1,.5.5v2.6A.51.51,0,0,1,149.37,205Z" style="fill:#263238"></path><path d="M144.4,381.8s9.23,7.85,26.31,6.83a87.73,87.73,0,0,0,29.38-6.83l5.12-2.73-2.39-16.74L207.6,322l1.71-16.4a62.4,62.4,0,0,0,5.59-9c0-4.07-.53-10.19-2.86-14.22a20.81,20.81,0,0,0-6.6-6.75c-2.68,4.92-4.88,8.89-5.35,9.48-1.37,1.71-3.42,2.74-6.84,5.81a49.28,49.28,0,0,1-6.83,5.13l-8.2,1s-7.51.68-11.27-1.71c0,0-8.2-8.88-11.27-13.66a32.7,32.7,0,0,1-2.07-4.25c-2.68.42-7.92,1.69-11.6,5.61a21.29,21.29,0,0,0-2.87,3.89c1.76,5.57,3.1,9.8,3.21,10.46.35,2.05,4.45,28.35,6.15,33.48s3.76,26,2.74,30.06S144.4,381.8,144.4,381.8Z" style="fill:#FFB847"></path><path d="M167.7,389.22c-15.17,0-23.53-7-23.62-7a.5.5,0,0,1-.15-.55c.06-.16,5.81-16.76,6.82-20.79S149.67,336,148,331.06c-1-3.05-3-13.84-5.93-32.05l-.24-1.51c-.09-.56-1.27-4.28-2.76-9l-.44-1.41a.51.51,0,0,1,0-.4,22.31,22.31,0,0,1,3-4c3.75-4,9-5.33,11.88-5.76a.5.5,0,0,1,.54.29,32.32,32.32,0,0,0,2,4.18C159,286,166.62,294.27,167.27,295c3.59,2.24,10.84,1.61,10.91,1.6l8.07-1a49.93,49.93,0,0,0,6.67-5c1.56-1.41,2.86-2.4,3.9-3.2a15.73,15.73,0,0,0,2.88-2.55c.27-.34,1.41-2.25,5.3-9.41a.51.51,0,0,1,.32-.25.49.49,0,0,1,.39.07,21.15,21.15,0,0,1,6.76,6.92c2.35,4.05,2.89,10.1,2.93,14.47a.53.53,0,0,1-.06.24,64.11,64.11,0,0,1-5.55,9l-1.69,16.25-4.78,40.25L205.71,379a.53.53,0,0,1-.26.51l-5.13,2.73a89.09,89.09,0,0,1-29.58,6.89C169.7,389.19,168.68,389.22,167.7,389.22ZM145,381.62c1.62,1.23,10.59,7.42,25.69,6.51a88.47,88.47,0,0,0,29.19-6.78l4.8-2.56-2.35-16.39v-.13L207.1,322l1.71-16.39a.47.47,0,0,1,.11-.26,61.74,61.74,0,0,0,5.48-8.82c-.05-4.23-.58-10-2.79-13.85a19.89,19.89,0,0,0-6-6.28c-4.5,8.28-5,8.88-5.13,9.08a17.78,17.78,0,0,1-3,2.72c-1,.78-2.31,1.76-3.84,3.14a51,51,0,0,1-6.91,5.18.48.48,0,0,1-.2.07l-8.19,1c-.34,0-7.75.67-11.61-1.79l-.1-.08c-.33-.36-8.26-9-11.32-13.73a29.79,29.79,0,0,1-2-4c-2.77.47-7.54,1.79-10.92,5.4a20.39,20.39,0,0,0-2.7,3.6l.38,1.19c1.76,5.58,2.69,8.52,2.79,9.13,0,.23.12.75.24,1.51C146,317,148,327.74,149,330.74c1.71,5.15,3.83,26,2.74,30.34C150.77,364.88,145.84,379.17,145,381.62Z" style="fill:#263238"></path><path d="M175.8,362.83v-11H161.48v-7.05l12.28-29.11h10.48V345h4.54v6.87h-4.54v11ZM168.58,345h7.22v-20Z" style="fill:#fff"></path><path d="M157.54,372.57a.5.5,0,0,1-.09-1c.28-.05,27.81-5.2,36.7-14.64a.5.5,0,1,1,.72.68c-9.1,9.68-36.1,14.73-37.24,14.94Z" style="fill:#263238"></path><path d="M176.88,362.33a.52.52,0,0,1-.46-.29.5.5,0,0,1,.25-.66c6.13-2.79,14-9,14.12-9a.5.5,0,0,1,.62.78c-.08.07-8.09,6.33-14.33,9.17A.45.45,0,0,1,176.88,362.33Z" style="fill:#263238"></path><path d="M190.19,277.57c.2-1.19,5-2.3,3.45,2.68s-3.06,7.27-4.59,7.65l-1.53.38-2.58,12.06s-7.76,4.4-13.49,2.1-9.19-12.24-9.19-12.24S189.05,284.46,190.19,277.57Z" style="fill:#fff"></path><path d="M175.21,303.61a10.69,10.69,0,0,1-4-.7c-5.88-2.36-9.33-12.13-9.47-12.55a.5.5,0,0,1,0-.41.51.51,0,0,1,.33-.24c7.35-1.58,26.65-6.85,27.54-12.22.11-.63.8-1.07,1.41-1.27a2.64,2.64,0,0,1,2.66.45c.76.75.88,2,.35,3.73-1.54,5-3.11,7.53-5,8l-1.23.3-2.51,11.76a.51.51,0,0,1-.24.33C184.93,300.92,180.12,303.61,175.21,303.61Zm-12.28-13.05c.8,2.06,4,9.53,8.7,11.42,5,2,11.65-1.33,12.87-2L187,288.18a.5.5,0,0,1,.37-.38l1.53-.38c1-.25,2.51-1.72,4.23-7.32.4-1.29.37-2.25-.08-2.71a1.66,1.66,0,0,0-1.6-.24,1.3,1.3,0,0,0-.79.5C189.58,284.3,166.93,289.66,162.93,290.56Zm27.26-13h0Z" style="fill:#263238"></path><path d="M177.57,291.73s9.56-1.53,11.86-10.33.38-19.9-8.8-24.49-20.28,2.68-23,11.86-1.15,18.37,4.59,21.43S177.57,291.73,177.57,291.73Z" style="fill:#263238"></path><path d="M172.06,292.62c-3.16,0-7.06-.4-10-2-5.74-3.06-7.73-12.11-4.84-22a19.86,19.86,0,0,1,11-12.23,14.77,14.77,0,0,1,12.7.06c9.48,4.74,11.35,16.32,9.06,25.06-2.35,9-12.16,10.69-12.26,10.7A38.77,38.77,0,0,1,172.06,292.62Zm5.51-.89h0Zm-3-35.73a15.25,15.25,0,0,0-6,1.31,18.84,18.84,0,0,0-10.4,11.6c-2.75,9.44-1,18,4.35,20.85,5.52,2.94,14.89,1.49,15,1.47s9.27-1.6,11.46-10,.44-19.42-8.55-23.92A12.93,12.93,0,0,0,174.6,256Z" style="fill:#263238"></path><path d="M164.56,286S160,290.58,160,296.7s4.59,9.57,10.33,8.42,9.18-3.44,6.5-9.18-2.29-11.48-6.12-11.48A11.75,11.75,0,0,0,164.56,286Z" style="fill:#263238"></path><path d="M168.14,305.84a8.63,8.63,0,0,1-5.56-1.88,9.11,9.11,0,0,1-3.11-7.26c0-6.25,4.54-10.87,4.73-11.07l.08-.06a12.31,12.31,0,0,1,6.4-1.61c2.89,0,3.66,2.71,4.63,6.15a35.87,35.87,0,0,0,1.95,5.61c1.11,2.4,1.27,4.33.47,5.9-1,1.92-3.3,3.18-7.33,4A11.87,11.87,0,0,1,168.14,305.84Zm-3.26-19.46c-.43.45-4.41,4.77-4.41,10.32a8.13,8.13,0,0,0,2.74,6.48,8.24,8.24,0,0,0,7,1.45c3.71-.74,5.82-1.84,6.64-3.46.65-1.28.49-2.93-.49-5a37.22,37.22,0,0,1-2-5.77c-1-3.56-1.63-5.42-3.67-5.42A11.61,11.61,0,0,0,164.88,286.38Z" style="fill:#263238"></path><path d="M144.4,381.8l-3.75,4.78s-10.59-6.15-19.82-6.49-14.34,7.52-14,15.37,8.88,12,18.1,15.37,15.38,10.94,30.41,13.33,22.88,0,22.88,0,10.93,1.7,18.45,1.36,16.4-4.44,33.82-7.51,26.3-4.1,33.13-10.59,5.47-14.69-1.36-19.81-25.28-5.81-34.16-6.5-12.64-.68-14.35-1-.68-3.42-3.07-3.76-5.47,2.74-5.47,2.74l-56.71,1.36Z" style="fill:#263238"></path><path d="M194.57,426.07a127.51,127.51,0,0,1-16.31-1.4c-1,.29-8.81,2.24-23,0-9.69-1.54-15.81-5.24-21.21-8.5a54.12,54.12,0,0,0-9.29-4.85c-8.73-3.23-18.07-7.38-18.43-15.82a16.23,16.23,0,0,1,4.39-12,13.22,13.22,0,0,1,10.13-3.85c8.37.31,17.67,5.23,19.67,6.34l3.49-4.44a.46.46,0,0,1,.24-.17l4.1-1.36a.32.32,0,0,1,.14,0L205,378.57c.67-.63,3.43-3.05,5.75-2.73,1.62.23,2,1.52,2.27,2.46s.39,1.21.83,1.3a44.42,44.42,0,0,0,4.93.4c2.21.13,5.24.3,9.36.62l3.29.23c9.93.68,24.94,1.71,31.13,6.36,3.67,2.75,5.82,6.37,6,10.18s-1.39,7.31-4.63,10.39c-6.34,6-14.37,7.41-29,9.94l-4.44.78c-8.64,1.52-15.22,3.31-20.5,4.75s-9.55,2.6-13.39,2.77C196,426.05,195.3,426.07,194.57,426.07Zm-16.35-2.41h.08c.11,0,11,1.7,18.35,1.36,3.72-.17,7.89-1.3,13.17-2.74s11.9-3.23,20.58-4.76l4.45-.78c14.39-2.5,22.31-3.87,28.43-9.68,3-2.88,4.52-6.2,4.32-9.61s-2.21-6.87-5.64-9.44c-5.95-4.47-21.38-5.53-30.6-6.16l-3.3-.24c-4.11-.31-7.13-.48-9.34-.61a44.62,44.62,0,0,1-5.07-.42c-1.07-.21-1.36-1.21-1.59-2-.29-1-.52-1.62-1.46-1.75-1.75-.26-4.23,1.78-5,2.59a.53.53,0,0,1-.34.15l-56.63,1.36-3.89,1.29L141,386.89a.5.5,0,0,1-.64.12c-.11-.06-10.6-6.09-19.59-6.42a12.19,12.19,0,0,0-9.38,3.55,15.21,15.21,0,0,0-4.1,11.3c.34,7.82,9.35,11.81,17.78,14.93a55.6,55.6,0,0,1,9.46,4.92c5.32,3.22,11.35,6.86,20.84,8.37,14.72,2.35,22.59,0,22.67,0A.32.32,0,0,1,178.22,423.66Z" style="fill:#263238"></path><path d="M250.48,388.39a.45.45,0,0,1-.31-.11c-1.7-1.36-15-1.23-20-1.17h-2.07a27.83,27.83,0,0,1-7.67-1.26c-.94.11-7.07.73-10.73-.9-1.92-.85-2-.9-2-1.35s.42-.49.65-.54c.59-.13,1-.3,1-1.1a.33.33,0,0,0-.15-.29c-1.12-.88-6.12-.1-9,.6a.5.5,0,0,1-.6-.36.51.51,0,0,1,.37-.61c.81-.19,8-1.88,9.86-.42a1.37,1.37,0,0,1,.53,1.08,1.9,1.9,0,0,1-1,1.78l.68.3c3.64,1.62,10.25.82,10.32.81a.55.55,0,0,1,.22,0,27.49,27.49,0,0,0,7.46,1.24h2.06c9.71-.1,18.94,0,20.68,1.39a.5.5,0,0,1,.08.7A.5.5,0,0,1,250.48,388.39Z" style="fill:#9c9c9c"></path><path d="M247.57,397.51s-14.69,11.62-18.79,13.32-6.15,2.4-7.17,2.4-10.93-4.45-15-.35-.51,9.62.52,12,1.87,9.86,3.58,13.61,8.54,12.64,14,12.64,5.47-10.24,5.47-10.24-2.74-11.28.68-14,17.42-6.83,23.23-9.57,12.64-8.19,14.69-13.66-3-17.92-9.11-17.57" style="fill:#fff"></path><path d="M224.68,451.64c-5.94,0-12.84-9.37-14.46-12.93a45.47,45.47,0,0,1-2.31-8.52,35.11,35.11,0,0,0-1.27-5.1c-.13-.31-.31-.67-.5-1.07-1.31-2.68-3.73-7.67.08-11.49,3.51-3.51,10.61-1.27,14-.2a14.35,14.35,0,0,0,1.38.4c.93,0,3-.71,7-2.36s18.52-13.13,18.67-13.25a.5.5,0,0,1,.7.08.49.49,0,0,1-.08.7c-.6.48-14.79,11.68-18.91,13.4s-6.26,2.43-7.36,2.43a8,8,0,0,1-1.68-.44c-3-.94-9.92-3.13-13-.05-3.31,3.31-1.17,7.72.11,10.35.2.41.38.79.52,1.11a34.52,34.52,0,0,1,1.33,5.29,45.29,45.29,0,0,0,2.24,8.31c1.63,3.58,8.4,12.34,13.55,12.34,4.71,0,4.95-8.89,5-9.69-.24-1-2.66-11.63.87-14.45,2.13-1.71,8.09-3.87,13.85-5.95,3.71-1.34,7.21-2.61,9.48-3.68,5.5-2.59,12.37-7.88,14.43-13.38,1.23-3.3-.22-9.49-3.19-13.52-1.67-2.28-3.56-3.49-5.42-3.39a.49.49,0,0,1-.53-.47.5.5,0,0,1,.48-.52c2.17-.14,4.37,1.19,6.28,3.79,3.14,4.27,4.65,10.89,3.32,14.46-2.16,5.76-9.26,11.26-15,13.94-2.3,1.08-5.83,2.36-9.56,3.71-5.42,2-11.56,4.18-13.57,5.79-2.59,2.08-1.25,10.45-.51,13.5a.5.5,0,0,1,0,.12C230.65,441.33,230.58,451.64,224.68,451.64Z" style="fill:#263238"></path><path d="M254.06,417.32c.88-.41,1.79-.9,2.71-1.43a5.58,5.58,0,0,0,.46-.64c1.93-3.13,2.65-11.81-1.44-15.67-2.49-2.34-7.19-1.39-10.5-.29-4.29,3.33-13.42,10.26-16.51,11.54-4.1,1.71-6.15,2.4-7.17,2.4s-10.93-4.45-15-.35-.51,9.62.52,12,1.87,9.86,3.58,13.61,8.54,12.64,14,12.64,5.47-10.24,5.47-10.24-2.74-11.28.68-14S248.25,420.06,254.06,417.32Z" style="fill:#fff"></path><path d="M224.68,451.64c-5.94,0-12.84-9.37-14.46-12.93a45.47,45.47,0,0,1-2.31-8.52,35.11,35.11,0,0,0-1.27-5.1c-.13-.31-.31-.67-.5-1.07-1.31-2.68-3.73-7.67.08-11.49,3.51-3.51,10.61-1.27,14-.2a14.35,14.35,0,0,0,1.38.4c.93,0,3-.71,7-2.36,3.07-1.28,12.49-8.45,16.39-11.47a.55.55,0,0,1,.15-.08c3.56-1.19,8.36-2.08,11,.4,4.3,4,3.56,13,1.53,16.29a8.09,8.09,0,0,1-.51.7.69.69,0,0,1-.13.11c-1,.56-1.88,1.05-2.75,1.46h0c-2.3,1.08-5.83,2.36-9.56,3.71-5.42,2-11.56,4.18-13.57,5.79-2.59,2.08-1.25,10.45-.51,13.5a.5.5,0,0,1,0,.12C230.65,441.33,230.58,451.64,224.68,451.64Zm-13-40a6.6,6.6,0,0,0-4.8,1.59c-3.31,3.31-1.17,7.72.11,10.35.2.41.38.79.52,1.11a34.52,34.52,0,0,1,1.33,5.29,45.51,45.51,0,0,0,2.24,8.31c1.63,3.58,8.39,12.34,13.55,12.34,4.71,0,4.95-8.89,5-9.69-.24-1-2.66-11.63.87-14.45,2.13-1.71,8.09-3.87,13.85-5.95,3.71-1.34,7.21-2.61,9.48-3.68h0c.81-.38,1.68-.84,2.59-1.37.14-.18.27-.35.37-.51,1.83-3,2.52-11.39-1.37-15-2.25-2.13-6.62-1.3-9.91-.21C240.63,403.53,232,410,229,411.3c-4.19,1.74-6.26,2.43-7.36,2.43a8,8,0,0,1-1.68-.44A29,29,0,0,0,211.73,411.65Zm42.33,5.68h0Z" style="fill:#263238"></path><path d="M206.58,412.88c-4.1,4.1-.51,9.62.52,12s1.87,9.86,3.58,13.61,8.54,12.64,14,12.64,5.47-10.24,5.47-10.24-2.74-11.28.68-14c0,0,0-3.42-.34-8.88s-8.88-4.78-8.88-4.78C220.58,413.23,210.68,408.78,206.58,412.88Z" style="fill:#9c9c9c"></path><path d="M224.68,451.64c-5.94,0-12.84-9.37-14.46-12.93a45.47,45.47,0,0,1-2.31-8.52,35.11,35.11,0,0,0-1.27-5.1c-.13-.31-.31-.67-.5-1.07-1.31-2.68-3.73-7.67.08-11.49h0c3.51-3.51,10.61-1.27,14-.2a14.35,14.35,0,0,0,1.38.4c.16,0,5.1-.39,7.75,1.91A4.65,4.65,0,0,1,231,418c.34,5.42.34,8.88.34,8.91a.49.49,0,0,1-.19.39c-2.59,2.08-1.25,10.45-.51,13.5a.5.5,0,0,1,0,.12C230.65,441.33,230.58,451.64,224.68,451.64Zm-17.75-38.4h0c-3.31,3.31-1.17,7.72.11,10.35.2.41.38.79.52,1.11a34.52,34.52,0,0,1,1.33,5.29,45.51,45.51,0,0,0,2.24,8.31c1.63,3.58,8.39,12.34,13.55,12.34,4.71,0,4.95-8.89,5-9.69-.24-1-2.57-11.24.68-14.29,0-.85-.05-4-.34-8.62a3.64,3.64,0,0,0-1.28-2.64c-2.33-2-7-1.68-7.06-1.68h0a7.27,7.27,0,0,1-1.71-.43C217,412.35,210,410.16,206.93,413.24Z" style="fill:#263238"></path><path d="M224.21,449.5a.46.46,0,0,1-.23-.06.5.5,0,0,1-.21-.68c1.21-2.29.11-4.94-1.28-8.3a35,35,0,0,1-2.39-7.29c-.66-3.7-1.23-5.89-1.84-8.21-.48-1.85-1-3.76-1.53-6.48-1.12-5.58-7.93-6.34-8-6.35a.49.49,0,0,1-.45-.54.5.5,0,0,1,.55-.45c.07,0,7.61.83,8.87,7.15.54,2.69,1,4.58,1.52,6.41.58,2.24,1.19,4.56,1.86,8.3a34.59,34.59,0,0,0,2.32,7.08c1.44,3.46,2.67,6.45,1.24,9.15A.5.5,0,0,1,224.21,449.5Z" style="fill:#263238"></path><path d="M134.3,407.41a.51.51,0,0,1-.49-.41c-1.78-9.24,5.42-17.25,5.73-17.59a.5.5,0,0,1,.74.67c-.08.08-7.17,8-5.49,16.73a.5.5,0,0,1-.39.59Z" style="fill:#9c9c9c"></path></g></svg>
